G04 ================== begin FILE IDENTIFICATION RECORD ==================*
G04 Layout Name:  TubiiPCB_V6.brd*
G04 Film Name:    Drill_test*
G04 File Format:  Gerber RS274X*
G04 File Origin:  Cadence Allegro 16.6-P004*
G04 Origin Date:  Thu May 21 14:55:12 2015*
G04 *
G04 Layer:  MANUFACTURING/NCLEGEND-1-7*
G04 Layer:  BOARD GEOMETRY/OUTLINE*
G04 Layer:  BOARD GEOMETRY/DIMENSION*
G04 *
G04 Offset:    (0.0 0.0)*
G04 Mirror:    No*
G04 Mode:      Positive*
G04 Rotation:  0*
G04 FullContactRelief:  No*
G04 UndefLineWidth:     1.0*
G04 ================== end FILE IDENTIFICATION RECORD ====================*
%FSLAX55Y55*MOIN*%
%IR0*IPPOS*OFA0.00000B0.00000*MIA0B0*SFA1.00000B1.00000*%
%AMMACRO15*
1,1,.001,.0765,0.0*
20,1,.001,.0765,0.0,.075338,-.013284,0.0*
1,1,.001,.075338,-.013284*
20,1,.001,.075338,-.013284,.071886,-.026165,0.0*
1,1,.001,.071886,-.026165*
20,1,.001,.071886,-.026165,.066251,-.03825,0.0*
1,1,.001,.066251,-.03825*
20,1,.001,.066251,-.03825,.058602,-.049173,0.0*
1,1,.001,.058602,-.049173*
20,1,.001,.058602,-.049173,.049173,-.058602,0.0*
1,1,.001,.049173,-.058602*
20,1,.001,.049173,-.058602,.03825,-.066251,0.0*
1,1,.001,.03825,-.066251*
20,1,.001,.03825,-.066251,.026165,-.071886,0.0*
1,1,.001,.026165,-.071886*
20,1,.001,.026165,-.071886,.013284,-.075338,0.0*
1,1,.001,.013284,-.075338*
20,1,.001,.013284,-.075338,0.0,-.0765,0.0*
1,1,.001,0.0,-.0765*
20,1,.001,0.0,-.0765,-.013284,-.075338,0.0*
1,1,.001,-.013284,-.075338*
20,1,.001,-.013284,-.075338,-.026165,-.071886,0.0*
1,1,.001,-.026165,-.071886*
20,1,.001,-.026165,-.071886,-.03825,-.066251,0.0*
1,1,.001,-.03825,-.066251*
20,1,.001,-.03825,-.066251,-.049173,-.058602,0.0*
1,1,.001,-.049173,-.058602*
20,1,.001,-.049173,-.058602,-.058602,-.049173,0.0*
1,1,.001,-.058602,-.049173*
20,1,.001,-.058602,-.049173,-.066251,-.03825,0.0*
1,1,.001,-.066251,-.03825*
20,1,.001,-.066251,-.03825,-.071886,-.026165,0.0*
1,1,.001,-.071886,-.026165*
20,1,.001,-.071886,-.026165,-.075338,-.013284,0.0*
1,1,.001,-.075338,-.013284*
20,1,.001,-.075338,-.013284,-.0765,0.0,0.0*
1,1,.001,-.0765,0.0*
20,1,.001,-.0765,0.0,-.075338,.013284,0.0*
1,1,.001,-.075338,.013284*
20,1,.001,-.075338,.013284,-.071886,.026165,0.0*
1,1,.001,-.071886,.026165*
20,1,.001,-.071886,.026165,-.066251,.03825,0.0*
1,1,.001,-.066251,.03825*
20,1,.001,-.066251,.03825,-.058602,.049173,0.0*
1,1,.001,-.058602,.049173*
20,1,.001,-.058602,.049173,-.049173,.058602,0.0*
1,1,.001,-.049173,.058602*
20,1,.001,-.049173,.058602,-.03825,.066251,0.0*
1,1,.001,-.03825,.066251*
20,1,.001,-.03825,.066251,-.026165,.071886,0.0*
1,1,.001,-.026165,.071886*
20,1,.001,-.026165,.071886,-.013284,.075338,0.0*
1,1,.001,-.013284,.075338*
20,1,.001,-.013284,.075338,0.0,.0765,0.0*
1,1,.001,0.0,.0765*
20,1,.001,0.0,.0765,.013284,.075338,0.0*
1,1,.001,.013284,.075338*
20,1,.001,.013284,.075338,.026165,.071886,0.0*
1,1,.001,.026165,.071886*
20,1,.001,.026165,.071886,.03825,.066251,0.0*
1,1,.001,.03825,.066251*
20,1,.001,.03825,.066251,.049173,.058602,0.0*
1,1,.001,.049173,.058602*
20,1,.001,.049173,.058602,.058602,.049173,0.0*
1,1,.001,.058602,.049173*
20,1,.001,.058602,.049173,.066251,.03825,0.0*
1,1,.001,.066251,.03825*
20,1,.001,.066251,.03825,.071886,.026165,0.0*
1,1,.001,.071886,.026165*
20,1,.001,.071886,.026165,.075338,.013284,0.0*
1,1,.001,.075338,.013284*
20,1,.001,.075338,.013284,.0765,0.0,0.0*
1,1,.001,.0765,0.0*
%
%ADD15MACRO15*%
%AMMACRO19*
1,1,.001,.0125,0.0*
20,1,.001,.0125,0.0,-.0125,0.0,0.0*
1,1,.001,-.0125,0.0*
1,1,.001,0.0,.0125*
20,1,.001,0.0,.0125,0.0,-.0125,0.0*
1,1,.001,0.0,-.0125*
%
%ADD19MACRO19*%
%AMMACRO13*
1,1,.001,.01575,0.0*
20,1,.001,.01575,0.0,-.01575,0.0,0.0*
1,1,.001,-.01575,0.0*
1,1,.001,0.0,.01575*
20,1,.001,0.0,.01575,0.0,-.01575,0.0*
1,1,.001,0.0,-.01575*
%
%ADD13MACRO13*%
%AMMACRO22*
1,1,.001,.0375,.025*
20,1,.001,.0375,.025,.0375,-.025,0.0*
1,1,.001,.0375,-.025*
20,1,.001,.0375,-.025,-.0375,-.025,0.0*
1,1,.001,-.0375,-.025*
20,1,.001,-.0375,-.025,-.0375,.025,0.0*
1,1,.001,-.0375,.025*
20,1,.001,-.0375,.025,.0375,.025,0.0*
1,1,.001,.0375,.025*
%
%ADD22MACRO22*%
%AMMACRO12*
1,1,.001,.025,0.0*
20,1,.001,.025,0.0,.02462,-.004341,0.0*
1,1,.001,.02462,-.004341*
20,1,.001,.02462,-.004341,.023492,-.008551,0.0*
1,1,.001,.023492,-.008551*
20,1,.001,.023492,-.008551,.021651,-.0125,0.0*
1,1,.001,.021651,-.0125*
20,1,.001,.021651,-.0125,.019151,-.01607,0.0*
1,1,.001,.019151,-.01607*
20,1,.001,.019151,-.01607,.01607,-.019151,0.0*
1,1,.001,.01607,-.019151*
20,1,.001,.01607,-.019151,.0125,-.021651,0.0*
1,1,.001,.0125,-.021651*
20,1,.001,.0125,-.021651,.008551,-.023492,0.0*
1,1,.001,.008551,-.023492*
20,1,.001,.008551,-.023492,.004341,-.02462,0.0*
1,1,.001,.004341,-.02462*
20,1,.001,.004341,-.02462,0.0,-.025,0.0*
1,1,.001,0.0,-.025*
20,1,.001,0.0,-.025,-.004341,-.02462,0.0*
1,1,.001,-.004341,-.02462*
20,1,.001,-.004341,-.02462,-.008551,-.023492,0.0*
1,1,.001,-.008551,-.023492*
20,1,.001,-.008551,-.023492,-.0125,-.021651,0.0*
1,1,.001,-.0125,-.021651*
20,1,.001,-.0125,-.021651,-.01607,-.019151,0.0*
1,1,.001,-.01607,-.019151*
20,1,.001,-.01607,-.019151,-.019151,-.01607,0.0*
1,1,.001,-.019151,-.01607*
20,1,.001,-.019151,-.01607,-.021651,-.0125,0.0*
1,1,.001,-.021651,-.0125*
20,1,.001,-.021651,-.0125,-.023492,-.008551,0.0*
1,1,.001,-.023492,-.008551*
20,1,.001,-.023492,-.008551,-.02462,-.004341,0.0*
1,1,.001,-.02462,-.004341*
20,1,.001,-.02462,-.004341,-.025,0.0,0.0*
1,1,.001,-.025,0.0*
20,1,.001,-.025,0.0,-.02462,.004341,0.0*
1,1,.001,-.02462,.004341*
20,1,.001,-.02462,.004341,-.023492,.008551,0.0*
1,1,.001,-.023492,.008551*
20,1,.001,-.023492,.008551,-.021651,.0125,0.0*
1,1,.001,-.021651,.0125*
20,1,.001,-.021651,.0125,-.019151,.01607,0.0*
1,1,.001,-.019151,.01607*
20,1,.001,-.019151,.01607,-.01607,.019151,0.0*
1,1,.001,-.01607,.019151*
20,1,.001,-.01607,.019151,-.0125,.021651,0.0*
1,1,.001,-.0125,.021651*
20,1,.001,-.0125,.021651,-.008551,.023492,0.0*
1,1,.001,-.008551,.023492*
20,1,.001,-.008551,.023492,-.004341,.02462,0.0*
1,1,.001,-.004341,.02462*
20,1,.001,-.004341,.02462,0.0,.025,0.0*
1,1,.001,0.0,.025*
20,1,.001,0.0,.025,.004341,.02462,0.0*
1,1,.001,.004341,.02462*
20,1,.001,.004341,.02462,.008551,.023492,0.0*
1,1,.001,.008551,.023492*
20,1,.001,.008551,.023492,.0125,.021651,0.0*
1,1,.001,.0125,.021651*
20,1,.001,.0125,.021651,.01607,.019151,0.0*
1,1,.001,.01607,.019151*
20,1,.001,.01607,.019151,.019151,.01607,0.0*
1,1,.001,.019151,.01607*
20,1,.001,.019151,.01607,.021651,.0125,0.0*
1,1,.001,.021651,.0125*
20,1,.001,.021651,.0125,.023492,.008551,0.0*
1,1,.001,.023492,.008551*
20,1,.001,.023492,.008551,.02462,.004341,0.0*
1,1,.001,.02462,.004341*
20,1,.001,.02462,.004341,.025,0.0,0.0*
1,1,.001,.025,0.0*
1,1,.001,.0125,0.0*
20,1,.001,.0125,0.0,-.0125,0.0,0.0*
1,1,.001,-.0125,0.0*
1,1,.001,0.0,.0125*
20,1,.001,0.0,.0125,0.0,-.0125,0.0*
1,1,.001,0.0,-.0125*
%
%ADD12MACRO12*%
%AMMACRO18*
1,1,.001,-.0417,-.05*
20,1,.001,-.0417,-.05,0.0,.05,0.0*
1,1,.001,0.0,.05*
20,1,.001,0.0,.05,.0417,-.05,0.0*
1,1,.001,.0417,-.05*
1,1,.001,.0267,-.015*
20,1,.001,.0267,-.015,-.0267,-.015,0.0*
1,1,.001,-.0267,-.015*
%
%ADD18MACRO18*%
%AMMACRO10*
1,1,.001,.0133,.0033*
20,1,.001,.0133,.0033,.02,.0083,0.0*
1,1,.001,.02,.0083*
20,1,.001,.02,.0083,.025,.0167,0.0*
1,1,.001,.025,.0167*
20,1,.001,.025,.0167,.0283,.0283,0.0*
1,1,.001,.0283,.0283*
20,1,.001,.0283,.0283,.025,.0383,0.0*
1,1,.001,.025,.0383*
20,1,.001,.025,.0383,.0183,.045,0.0*
1,1,.001,.0183,.045*
20,1,.001,.0183,.045,.0067,.05,0.0*
1,1,.001,.0067,.05*
20,1,.001,.0067,.05,-.0383,.05,0.0*
1,1,.001,-.0383,.05*
20,1,.001,-.0383,.05,-.0383,-.05,0.0*
1,1,.001,-.0383,-.05*
20,1,.001,-.0383,-.05,.0167,-.05,0.0*
1,1,.001,.0167,-.05*
20,1,.001,.0167,-.05,.0283,-.0433,0.0*
1,1,.001,.0283,-.0433*
20,1,.001,.0283,-.0433,.035,-.0333,0.0*
1,1,.001,.035,-.0333*
20,1,.001,.035,-.0333,.0383,-.0217,0.0*
1,1,.001,.0383,-.0217*
20,1,.001,.0383,-.0217,.035,-.01,0.0*
1,1,.001,.035,-.01*
20,1,.001,.035,-.01,.025,0.0,0.0*
1,1,.001,.025,0.0*
20,1,.001,.025,0.0,.0133,.0033,0.0*
1,1,.001,.0133,.0033*
20,1,.001,.0133,.0033,-.0383,.0033,0.0*
1,1,.001,-.0383,.0033*
%
%ADD10MACRO10*%
%AMMACRO21*
1,1,.001,.0105,0.0*
20,1,.001,.0105,0.0,.01034,-.001823,0.0*
1,1,.001,.01034,-.001823*
20,1,.001,.01034,-.001823,.009867,-.003591,0.0*
1,1,.001,.009867,-.003591*
20,1,.001,.009867,-.003591,.009093,-.00525,0.0*
1,1,.001,.009093,-.00525*
20,1,.001,.009093,-.00525,.008043,-.006749,0.0*
1,1,.001,.008043,-.006749*
20,1,.001,.008043,-.006749,.006749,-.008043,0.0*
1,1,.001,.006749,-.008043*
20,1,.001,.006749,-.008043,.00525,-.009093,0.0*
1,1,.001,.00525,-.009093*
20,1,.001,.00525,-.009093,.003591,-.009867,0.0*
1,1,.001,.003591,-.009867*
20,1,.001,.003591,-.009867,.001823,-.01034,0.0*
1,1,.001,.001823,-.01034*
20,1,.001,.001823,-.01034,0.0,-.0105,0.0*
1,1,.001,0.0,-.0105*
20,1,.001,0.0,-.0105,-.001823,-.01034,0.0*
1,1,.001,-.001823,-.01034*
20,1,.001,-.001823,-.01034,-.003591,-.009867,0.0*
1,1,.001,-.003591,-.009867*
20,1,.001,-.003591,-.009867,-.00525,-.009093,0.0*
1,1,.001,-.00525,-.009093*
20,1,.001,-.00525,-.009093,-.006749,-.008043,0.0*
1,1,.001,-.006749,-.008043*
20,1,.001,-.006749,-.008043,-.008043,-.006749,0.0*
1,1,.001,-.008043,-.006749*
20,1,.001,-.008043,-.006749,-.009093,-.00525,0.0*
1,1,.001,-.009093,-.00525*
20,1,.001,-.009093,-.00525,-.009867,-.003591,0.0*
1,1,.001,-.009867,-.003591*
20,1,.001,-.009867,-.003591,-.01034,-.001823,0.0*
1,1,.001,-.01034,-.001823*
20,1,.001,-.01034,-.001823,-.0105,0.0,0.0*
1,1,.001,-.0105,0.0*
20,1,.001,-.0105,0.0,-.01034,.001823,0.0*
1,1,.001,-.01034,.001823*
20,1,.001,-.01034,.001823,-.009867,.003591,0.0*
1,1,.001,-.009867,.003591*
20,1,.001,-.009867,.003591,-.009093,.00525,0.0*
1,1,.001,-.009093,.00525*
20,1,.001,-.009093,.00525,-.008043,.006749,0.0*
1,1,.001,-.008043,.006749*
20,1,.001,-.008043,.006749,-.006749,.008043,0.0*
1,1,.001,-.006749,.008043*
20,1,.001,-.006749,.008043,-.00525,.009093,0.0*
1,1,.001,-.00525,.009093*
20,1,.001,-.00525,.009093,-.003591,.009867,0.0*
1,1,.001,-.003591,.009867*
20,1,.001,-.003591,.009867,-.001823,.01034,0.0*
1,1,.001,-.001823,.01034*
20,1,.001,-.001823,.01034,0.0,.0105,0.0*
1,1,.001,0.0,.0105*
20,1,.001,0.0,.0105,.001823,.01034,0.0*
1,1,.001,.001823,.01034*
20,1,.001,.001823,.01034,.003591,.009867,0.0*
1,1,.001,.003591,.009867*
20,1,.001,.003591,.009867,.00525,.009093,0.0*
1,1,.001,.00525,.009093*
20,1,.001,.00525,.009093,.006749,.008043,0.0*
1,1,.001,.006749,.008043*
20,1,.001,.006749,.008043,.008043,.006749,0.0*
1,1,.001,.008043,.006749*
20,1,.001,.008043,.006749,.009093,.00525,0.0*
1,1,.001,.009093,.00525*
20,1,.001,.009093,.00525,.009867,.003591,0.0*
1,1,.001,.009867,.003591*
20,1,.001,.009867,.003591,.01034,.001823,0.0*
1,1,.001,.01034,.001823*
20,1,.001,.01034,.001823,.0105,0.0,0.0*
1,1,.001,.0105,0.0*
1,1,.001,-.0043,-.0052*
20,1,.001,-.0043,-.0052,0.0,.0053,0.0*
1,1,.001,0.0,.0053*
20,1,.001,0.0,.0053,.0044,-.0052,0.0*
1,1,.001,.0044,-.0052*
1,1,.001,.0028,-.0015*
20,1,.001,.0028,-.0015,-.0028,-.0015,0.0*
1,1,.001,-.0028,-.0015*
%
%ADD21MACRO21*%
%AMMACRO20*
1,1,.001,.006213,-.015*
20,1,.001,.006213,-.015,-.006213,-.015,0.0*
1,1,.001,-.006213,-.015*
20,1,.001,-.006213,-.015,-.015,-.006213,0.0*
1,1,.001,-.015,-.006213*
20,1,.001,-.015,-.006213,-.015,.006213,0.0*
1,1,.001,-.015,.006213*
20,1,.001,-.015,.006213,-.006213,.015,0.0*
1,1,.001,-.006213,.015*
20,1,.001,-.006213,.015,.006213,.015,0.0*
1,1,.001,.006213,.015*
20,1,.001,.006213,.015,.015,.006213,0.0*
1,1,.001,.015,.006213*
20,1,.001,.015,.006213,.015,-.006213,0.0*
1,1,.001,.015,-.006213*
20,1,.001,.015,-.006213,.006213,-.015,0.0*
1,1,.001,.006213,-.015*
1,1,.001,-.0055,-.0075*
20,1,.001,-.0055,-.0075,-.0055,.0075,0.0*
1,1,.001,-.0055,.0075*
1,1,.001,.004,.0075*
20,1,.001,.004,.0075,-.0055,-.0018,0.0*
1,1,.001,-.0055,-.0018*
1,1,.001,.0055,-.0075*
20,1,.001,.0055,-.0075,-.0012,.0025,0.0*
1,1,.001,-.0012,.0025*
%
%ADD20MACRO20*%
%AMMACRO11*
1,1,.001,.025,0.0*
20,1,.001,.025,0.0,.0125,.021651,0.0*
1,1,.001,.0125,.021651*
20,1,.001,.0125,.021651,-.0125,.021651,0.0*
1,1,.001,-.0125,.021651*
20,1,.001,-.0125,.021651,-.025,0.0,0.0*
1,1,.001,-.025,0.0*
20,1,.001,-.025,0.0,-.0125,-.021651,0.0*
1,1,.001,-.0125,-.021651*
20,1,.001,-.0125,-.021651,.0125,-.021651,0.0*
1,1,.001,.0125,-.021651*
20,1,.001,.0125,-.021651,.025,0.0,0.0*
1,1,.001,.025,0.0*
%
%ADD11MACRO11*%
%AMMACRO16*
1,1,.001,-.02,.0125*
20,1,.001,-.02,.0125,-.019696,.015973,0.0*
1,1,.001,-.019696,.015973*
20,1,.001,-.019696,.015973,-.018794,.01934,0.0*
1,1,.001,-.018794,.01934*
20,1,.001,-.018794,.01934,-.017321,.0225,0.0*
1,1,.001,-.017321,.0225*
20,1,.001,-.017321,.0225,-.015321,.025356,0.0*
1,1,.001,-.015321,.025356*
20,1,.001,-.015321,.025356,-.012856,.027821,0.0*
1,1,.001,-.012856,.027821*
20,1,.001,-.012856,.027821,-.01,.029821,0.0*
1,1,.001,-.01,.029821*
20,1,.001,-.01,.029821,-.00684,.031294,0.0*
1,1,.001,-.00684,.031294*
20,1,.001,-.00684,.031294,-.003473,.032196,0.0*
1,1,.001,-.003473,.032196*
20,1,.001,-.003473,.032196,0.0,.0325,0.0*
1,1,.001,0.0,.0325*
20,1,.001,0.0,.0325,.003473,.032196,0.0*
1,1,.001,.003473,.032196*
20,1,.001,.003473,.032196,.00684,.031294,0.0*
1,1,.001,.00684,.031294*
20,1,.001,.00684,.031294,.01,.029821,0.0*
1,1,.001,.01,.029821*
20,1,.001,.01,.029821,.012856,.027821,0.0*
1,1,.001,.012856,.027821*
20,1,.001,.012856,.027821,.015321,.025356,0.0*
1,1,.001,.015321,.025356*
20,1,.001,.015321,.025356,.017321,.0225,0.0*
1,1,.001,.017321,.0225*
20,1,.001,.017321,.0225,.018794,.01934,0.0*
1,1,.001,.018794,.01934*
20,1,.001,.018794,.01934,.019696,.015973,0.0*
1,1,.001,.019696,.015973*
20,1,.001,.019696,.015973,.02,.0125,0.0*
1,1,.001,.02,.0125*
20,1,.001,.02,.0125,.02,-.0125,0.0*
1,1,.001,.02,-.0125*
20,1,.001,.02,-.0125,.019696,-.015973,0.0*
1,1,.001,.019696,-.015973*
20,1,.001,.019696,-.015973,.018794,-.01934,0.0*
1,1,.001,.018794,-.01934*
20,1,.001,.018794,-.01934,.017321,-.0225,0.0*
1,1,.001,.017321,-.0225*
20,1,.001,.017321,-.0225,.015321,-.025356,0.0*
1,1,.001,.015321,-.025356*
20,1,.001,.015321,-.025356,.012856,-.027821,0.0*
1,1,.001,.012856,-.027821*
20,1,.001,.012856,-.027821,.01,-.029821,0.0*
1,1,.001,.01,-.029821*
20,1,.001,.01,-.029821,.00684,-.031294,0.0*
1,1,.001,.00684,-.031294*
20,1,.001,.00684,-.031294,.003473,-.032196,0.0*
1,1,.001,.003473,-.032196*
20,1,.001,.003473,-.032196,0.0,-.0325,0.0*
1,1,.001,0.0,-.0325*
20,1,.001,0.0,-.0325,-.003473,-.032196,0.0*
1,1,.001,-.003473,-.032196*
20,1,.001,-.003473,-.032196,-.00684,-.031294,0.0*
1,1,.001,-.00684,-.031294*
20,1,.001,-.00684,-.031294,-.01,-.029821,0.0*
1,1,.001,-.01,-.029821*
20,1,.001,-.01,-.029821,-.012856,-.027821,0.0*
1,1,.001,-.012856,-.027821*
20,1,.001,-.012856,-.027821,-.015321,-.025356,0.0*
1,1,.001,-.015321,-.025356*
20,1,.001,-.015321,-.025356,-.017321,-.0225,0.0*
1,1,.001,-.017321,-.0225*
20,1,.001,-.017321,-.0225,-.018794,-.01934,0.0*
1,1,.001,-.018794,-.01934*
20,1,.001,-.018794,-.01934,-.019696,-.015973,0.0*
1,1,.001,-.019696,-.015973*
20,1,.001,-.019696,-.015973,-.02,-.0125,0.0*
1,1,.001,-.02,-.0125*
20,1,.001,-.02,-.0125,-.02,.0125,0.0*
1,1,.001,-.02,.0125*
%
%ADD16MACRO16*%
%AMMACRO14*
1,1,.001,.0325,0.0*
20,1,.001,.0325,0.0,.01625,.028146,0.0*
1,1,.001,.01625,.028146*
20,1,.001,.01625,.028146,-.01625,.028146,0.0*
1,1,.001,-.01625,.028146*
20,1,.001,-.01625,.028146,-.0325,0.0,0.0*
1,1,.001,-.0325,0.0*
20,1,.001,-.0325,0.0,-.01625,-.028146,0.0*
1,1,.001,-.01625,-.028146*
20,1,.001,-.01625,-.028146,.01625,-.028146,0.0*
1,1,.001,.01625,-.028146*
20,1,.001,.01625,-.028146,.0325,0.0,0.0*
1,1,.001,.0325,0.0*
%
%ADD14MACRO14*%
%AMMACRO17*
1,1,.001,0.0,-.0375*
20,1,.001,0.0,-.0375,0.0,-.0038,0.0*
1,1,.001,0.0,-.0038*
20,1,.001,0.0,-.0038,-.025,.0375,0.0*
1,1,.001,-.025,.0375*
1,1,.001,.025,.0375*
20,1,.001,.025,.0375,0.0,-.0038,0.0*
1,1,.001,0.0,-.0038*
%
%ADD17MACRO17*%
%ADD23C,.001*%
G75*
%LPD*%
G75*
G54D10*
X105000Y305000D03*
Y781500D03*
Y1135000D03*
Y1555000D03*
X565000Y305000D03*
Y1555000D03*
X1125000Y305000D03*
Y1555000D03*
X1575000Y305000D03*
Y715000D03*
Y1135000D03*
Y1555000D03*
X1874950Y1069450D03*
G54D11*
X100000Y507500D03*
Y517500D03*
X97700Y1024300D03*
X100000Y1250000D03*
Y1240000D03*
X127400Y925000D03*
Y935000D03*
X127700Y963100D03*
Y953200D03*
Y999400D03*
Y1009500D03*
X178100Y785200D03*
X172500Y817500D03*
X182500D03*
X172500Y827500D03*
X182500D03*
X175800Y1102300D03*
X189300Y785200D03*
X192500Y817500D03*
Y827500D03*
X199900Y847500D03*
X194950Y1102550D03*
X191500Y1549000D03*
X201500D03*
X191500Y1561500D03*
X201500D03*
X191500Y1574000D03*
X201500D03*
X223000Y787700D03*
X220000Y870000D03*
X229950Y1100050D03*
X240500Y301740D03*
X245550Y532550D03*
X234200Y787700D03*
X240000Y817500D03*
X250000D03*
X240000Y827500D03*
X250000D03*
X249950Y922550D03*
X279800Y301740D03*
X260200D03*
X266050Y532550D03*
X281250Y678750D03*
X271250D03*
X281250Y668750D03*
X271250D03*
X260000Y817500D03*
Y827500D03*
X269800Y1309800D03*
X299500Y301740D03*
X301250Y678750D03*
X291250D03*
X301250Y668750D03*
X291250D03*
X299800Y1027800D03*
Y1039000D03*
X294950Y1102550D03*
X335500Y301740D03*
X331250Y678750D03*
X321250D03*
X311250D03*
X331250Y668750D03*
X321250D03*
X311250D03*
X317450Y992550D03*
X322500Y1532500D03*
X332500Y1532400D03*
Y1557500D03*
X322500D03*
X322400Y1545100D03*
X332600Y1544900D03*
X322500Y1570000D03*
X332500D03*
X355200Y301740D03*
X348560Y502550D03*
X361250Y678750D03*
X351250D03*
X341250D03*
X361250Y668750D03*
X351250D03*
X341250D03*
X374800Y301740D03*
X365000Y785000D03*
X382500Y1220000D03*
X372500D03*
X362500D03*
X382500Y1230000D03*
X372500D03*
X362500D03*
X394500Y301740D03*
X388940Y502550D03*
X402500Y1220000D03*
X392500D03*
X402500Y1230000D03*
X392500D03*
X390000Y1539000D03*
X400000Y1569000D03*
X390000Y1589000D03*
X436160Y300000D03*
X431060Y502550D03*
X412300Y886600D03*
Y987900D03*
X455840Y300000D03*
X452290Y607650D03*
X476000Y547000D03*
X486000Y577000D03*
X476000Y597000D03*
X477500Y1564900D03*
X477600Y1575000D03*
X465000Y1565000D03*
Y1575000D03*
X490100Y1564900D03*
Y1574900D03*
X577370Y412460D03*
X587370D03*
X577370Y422460D03*
X587370D03*
Y532460D03*
X577370D03*
X567370D03*
X587370Y522460D03*
X577370D03*
X567370D03*
X597370Y412460D03*
X607370D03*
X597370Y422460D03*
X607370D03*
Y532460D03*
X597370D03*
X607370Y522460D03*
X597370D03*
X610100Y1533750D03*
X609950Y1556500D03*
X610100Y1545050D03*
X609950Y1570200D03*
X637000Y296000D03*
X617370Y412460D03*
Y422460D03*
X620200Y1533750D03*
Y1545050D03*
Y1556150D03*
X620000Y1570100D03*
X647000Y296000D03*
X647300Y1572400D03*
X657100Y1572300D03*
X682700Y1562450D03*
Y1573550D03*
X672600Y1562450D03*
Y1573300D03*
X717700Y1551450D03*
X707600D03*
X717700Y1562650D03*
Y1572350D03*
X707600Y1562650D03*
X707300Y1572900D03*
X737600Y1560600D03*
Y1571700D03*
X747700Y1560600D03*
Y1571700D03*
X778750Y331250D03*
X788750D03*
X778750Y341250D03*
X788750D03*
X790000Y1047500D03*
Y1062500D03*
X782500Y1170000D03*
X785000Y1270000D03*
X775000D03*
X774000Y1557300D03*
X785400Y1557200D03*
X773200Y1572300D03*
X784600Y1572200D03*
X798750Y331250D03*
X808750D03*
X818750D03*
X798750Y341250D03*
X808750D03*
X818750D03*
X820000Y1170000D03*
X807500D03*
X795000D03*
X815000Y1270000D03*
X805000D03*
X795000D03*
X819100Y1557300D03*
X818900Y1572300D03*
X828750Y331250D03*
X838750D03*
X828750Y341250D03*
X838750D03*
X845000Y1170000D03*
X832500D03*
X845000Y1270000D03*
X835000D03*
X825000D03*
X830500Y1557200D03*
X830300Y1572200D03*
X848750Y331250D03*
X858750D03*
X868750D03*
X848750Y341250D03*
X858750D03*
X868750D03*
X870000Y1170000D03*
X857500D03*
X865000Y1270000D03*
X855000D03*
X878750Y331250D03*
X888750D03*
X878750Y341250D03*
X888750D03*
X895000Y1270000D03*
X885000D03*
X875000D03*
X898750Y331250D03*
X908750D03*
X918750D03*
X898750Y341250D03*
X908750D03*
X918750D03*
X915000Y1270000D03*
X905000D03*
X928750Y331250D03*
Y341250D03*
X925000Y1270000D03*
X1020000Y860000D03*
Y850000D03*
X1040000Y860000D03*
Y850000D03*
X1030000Y860000D03*
Y850000D03*
X1065000Y415000D03*
Y425000D03*
Y535000D03*
Y525000D03*
X1070000Y860000D03*
Y850000D03*
X1060000Y860000D03*
Y850000D03*
X1050000Y860000D03*
Y850000D03*
X1062200Y1562700D03*
X1052200D03*
X1062300Y1573700D03*
X1052300D03*
X1075000Y415000D03*
X1085000D03*
X1095000D03*
X1075000Y425000D03*
X1085000D03*
X1095000D03*
Y535000D03*
X1085000D03*
X1075000D03*
X1095000Y525000D03*
X1085000D03*
X1075000D03*
X1105000Y415000D03*
Y425000D03*
Y535000D03*
Y525000D03*
X1181000Y400000D03*
X1195000Y433500D03*
Y472500D03*
X1187500Y1552500D03*
X1197600Y1552400D03*
X1187500Y1565000D03*
X1197500D03*
X1220000Y400000D03*
X1215000Y433500D03*
Y472500D03*
X1227500Y612500D03*
X1217500D03*
X1227500Y622500D03*
X1217500D03*
X1220000Y1462500D03*
X1225000Y1540000D03*
Y1552500D03*
Y1565000D03*
X1237500Y612500D03*
Y622500D03*
X1236000Y1462500D03*
X1244000D03*
X1252000D03*
X1235000Y1552500D03*
X1235100Y1539900D03*
Y1564900D03*
X1260000Y1462500D03*
X1255000Y1555000D03*
X1265000D03*
X1255100Y1565100D03*
X1265100D03*
X1292160Y568930D03*
X1292800Y787690D03*
Y797690D03*
X1295000Y1527500D03*
X1284900Y1527600D03*
X1295000Y1540000D03*
X1285000Y1552500D03*
Y1540000D03*
X1295000Y1552500D03*
Y1565000D03*
X1285000D03*
X1325000Y295000D03*
X1305300Y787690D03*
X1317800D03*
X1305300Y797690D03*
X1317800D03*
X1307500Y1462500D03*
X1323500D03*
X1335000Y295000D03*
X1330300Y787690D03*
X1342800D03*
X1355300D03*
X1330300Y797690D03*
X1342800D03*
X1355300D03*
X1331500Y1462500D03*
X1339500D03*
X1347500D03*
X1372500Y1530000D03*
Y1542500D03*
Y1555000D03*
Y1567500D03*
X1392000Y1463000D03*
X1382600Y1529900D03*
X1402500Y1542500D03*
Y1555000D03*
X1382600Y1554900D03*
Y1542400D03*
Y1567400D03*
X1402500Y1567500D03*
X1408000Y1463000D03*
X1416000D03*
X1424000D03*
X1412600Y1555000D03*
Y1542400D03*
X1412500Y1567500D03*
X1432000Y1463000D03*
X1452500Y1527500D03*
Y1517500D03*
Y1547500D03*
Y1537500D03*
X1452400Y1557600D03*
Y1567600D03*
X1470000Y1463000D03*
X1462600Y1527400D03*
Y1517400D03*
X1462500Y1557500D03*
X1462600Y1547400D03*
Y1537400D03*
X1462500Y1567500D03*
X1486000Y1463000D03*
X1494000D03*
X1502000D03*
X1505000Y1567500D03*
X1494900Y1567600D03*
X1510000Y1463000D03*
X1532500Y1557500D03*
X1522500Y1547500D03*
X1532500D03*
X1522400Y1557600D03*
X1532500Y1567500D03*
X1522400Y1567600D03*
X1580000Y492500D03*
Y502500D03*
X1575000Y1187500D03*
Y1177500D03*
X1874950Y1322350D03*
G54D20*
X745000Y623150D03*
Y816850D03*
X920000Y623150D03*
Y816850D03*
X1874950Y1153750D03*
Y1181850D03*
G54D21*
X1092500Y1157500D03*
Y1167500D03*
Y1217500D03*
Y1227500D03*
X1090000Y1305000D03*
Y1315000D03*
Y1365000D03*
Y1375000D03*
X1102500Y1157500D03*
Y1167500D03*
Y1217500D03*
Y1227500D03*
X1100000Y1305000D03*
Y1315000D03*
Y1365000D03*
Y1375000D03*
X1220000Y1157500D03*
Y1167500D03*
Y1217500D03*
Y1227500D03*
X1225000Y1305000D03*
Y1315000D03*
X1215000Y1305000D03*
Y1315000D03*
X1225000Y1365000D03*
Y1375000D03*
X1215000Y1365000D03*
Y1375000D03*
X1230000Y1157500D03*
Y1167500D03*
Y1217500D03*
Y1227500D03*
X1347500Y1157500D03*
Y1167500D03*
Y1217500D03*
Y1227500D03*
X1345000Y1305000D03*
Y1315000D03*
Y1365000D03*
Y1375000D03*
X1357500Y1157500D03*
Y1167500D03*
Y1217500D03*
Y1227500D03*
X1355000Y1305000D03*
Y1315000D03*
Y1365000D03*
Y1375000D03*
X1475000Y1160000D03*
Y1170000D03*
Y1220000D03*
Y1230000D03*
X1472500Y1305000D03*
Y1315000D03*
Y1365000D03*
Y1375000D03*
X1485000Y1160000D03*
Y1170000D03*
Y1220000D03*
Y1230000D03*
X1482500Y1305000D03*
Y1315000D03*
Y1365000D03*
Y1375000D03*
X1874950Y1406650D03*
G54D12*
X95000Y1055000D03*
X110000Y1060000D03*
X115000Y1050000D03*
X105000Y1197500D03*
X115000Y1200000D03*
X105000Y1287500D03*
X120000Y1290000D03*
X125000Y1300000D03*
X115000D03*
X127500Y1310000D03*
X115000Y1365000D03*
Y1375000D03*
X150000Y832500D03*
X152500Y877500D03*
Y1037500D03*
X130000Y1022500D03*
Y1055000D03*
X145000D03*
Y1082500D03*
X135000Y1187500D03*
X145000Y1192500D03*
X150000Y1187500D03*
X140000Y1227500D03*
X147500Y1237500D03*
X142400Y1257600D03*
X147600Y1267600D03*
X152500Y1262500D03*
X145000Y1300000D03*
X140000Y1305000D03*
X147500Y1310000D03*
X152500Y1365000D03*
X132500D03*
Y1375000D03*
X170000Y455000D03*
X172500Y912500D03*
Y919640D03*
X160000Y942500D03*
Y920000D03*
X170000Y997500D03*
X165000Y1067500D03*
X170000Y1157500D03*
X160000Y1235000D03*
X157500Y1275000D03*
X172500Y1297500D03*
X165000D03*
X166000Y1284000D03*
X172500Y1310000D03*
X167500Y1365000D03*
X180100Y1455100D03*
Y1449900D03*
X167500Y1455000D03*
X177500Y1437500D03*
X195000Y870000D03*
X187000Y893000D03*
X190000Y915000D03*
Y897500D03*
X205000Y912500D03*
X200000Y930000D03*
Y947500D03*
X190000Y967500D03*
X205000Y950000D03*
X185000D03*
X190000Y982500D03*
X200000Y1017500D03*
Y1002500D03*
X202500Y997500D03*
X205000Y1020000D03*
X190000Y1037500D03*
Y1052500D03*
X200000Y1072500D03*
X185000Y1052500D03*
X200000Y1090000D03*
X205000Y1107500D03*
X192500Y1187500D03*
X185000Y1217500D03*
X197500Y1232500D03*
X192500Y1245000D03*
X185000Y1362500D03*
Y1407500D03*
X205000Y1440000D03*
X187500Y1445000D03*
X192500Y1450000D03*
X217500Y827500D03*
X225000Y882500D03*
X220000Y917500D03*
X227500Y940000D03*
X220000Y965000D03*
X230000Y952500D03*
X210000Y957500D03*
X222500Y987500D03*
X230000Y1020000D03*
X225000Y997500D03*
X215000Y1025000D03*
X225000Y1067500D03*
X207500Y1187500D03*
Y1212500D03*
Y1227500D03*
X227500Y1290000D03*
Y1277500D03*
X217500Y1290000D03*
Y1277500D03*
X227500Y1322500D03*
Y1310000D03*
X215000Y1375000D03*
X227500Y1392500D03*
X217500Y1395000D03*
X207500Y1425000D03*
X222500Y1412500D03*
X230000Y1442500D03*
X217500Y1437500D03*
X210000Y1445000D03*
X227500Y1435000D03*
X253560Y473560D03*
X250000Y723000D03*
X242500Y855000D03*
X237000Y879000D03*
X255000Y907500D03*
X240000Y922500D03*
X247500Y975000D03*
Y983250D03*
X252500Y1002500D03*
X241440Y998940D03*
X247500Y1077500D03*
X245000Y1117500D03*
X232500Y1370000D03*
X255000Y1435000D03*
X270000Y723000D03*
X276000Y727000D03*
X257500Y787500D03*
X263000Y777000D03*
X275000Y860000D03*
X270000Y892500D03*
X277500Y907500D03*
X278560Y933560D03*
X262500Y947500D03*
X272500Y952500D03*
X277500Y992500D03*
X262500Y980000D03*
X277500Y1010000D03*
X265000Y1017500D03*
X262500Y1010000D03*
Y1032500D03*
X257500Y1035000D03*
X267500Y1070000D03*
X272500D03*
X270000Y1055000D03*
X272500Y1117500D03*
X257500D03*
X270000Y1347500D03*
X260000Y1370000D03*
X270000Y1397500D03*
X305000Y610000D03*
X307500Y737500D03*
X302500Y827500D03*
X305000Y847500D03*
X295000Y855000D03*
X300000Y870000D03*
X285000Y892500D03*
X305000Y907500D03*
Y897500D03*
X290000D03*
X285000Y930000D03*
X307500Y975000D03*
X287500D03*
X292500Y1122500D03*
X300000Y1115000D03*
X285000Y1425000D03*
X325000Y600000D03*
X312500Y737500D03*
Y757500D03*
X325000Y760000D03*
X327500Y797500D03*
X322500Y822500D03*
X332500D03*
X315000Y855000D03*
X320950Y877500D03*
X317410D03*
X325000Y905000D03*
X327500Y937500D03*
X317500D03*
X322500Y982500D03*
X317500Y980000D03*
X327500Y1040000D03*
X317500Y1025000D03*
X312500Y1072500D03*
X327500Y1105000D03*
X320000Y1187500D03*
X312500Y1330000D03*
X330000Y1445000D03*
X340000Y460000D03*
Y440000D03*
Y480000D03*
X351560Y540440D03*
X342500Y588500D03*
X355000Y810000D03*
X337500Y837500D03*
X346770Y864400D03*
X343230D03*
X342990Y887990D03*
X357500Y880000D03*
X350000Y905000D03*
X342500Y925000D03*
X337500Y927500D03*
X357500Y967500D03*
X337500D03*
Y982500D03*
X357500D03*
Y972500D03*
X342400Y1094900D03*
X347500Y1075000D03*
X347600Y1094900D03*
X335000Y1112500D03*
X352500Y1295000D03*
X335000Y1307500D03*
X352500D03*
X350000Y1340000D03*
X355000Y1387500D03*
X340000Y1425000D03*
X337500Y1460000D03*
X381000Y435000D03*
X374000Y480000D03*
X363000D03*
X382500Y850000D03*
Y892500D03*
X374500Y873000D03*
X362500Y895000D03*
X377500Y930000D03*
X360000Y937500D03*
X373940Y947500D03*
X372500Y982500D03*
Y972500D03*
X380000Y1032500D03*
X372500Y1212500D03*
X382500D03*
X372500Y1240000D03*
X382500D03*
Y1287500D03*
X377500Y1350000D03*
X362500D03*
X365000Y1340000D03*
X375000Y1330000D03*
X360000Y1375000D03*
X380000Y1372500D03*
X375000Y1377500D03*
Y1426000D03*
X360000Y1447500D03*
Y1430000D03*
X370000D03*
Y1447500D03*
X381000Y1436000D03*
X395000Y460000D03*
X396000Y442500D03*
X395000Y480000D03*
Y862500D03*
X385000Y905000D03*
X395000Y920000D03*
X393000Y968000D03*
X402500Y960000D03*
X385000Y995000D03*
X387500Y1072500D03*
X407500Y1290000D03*
X389500Y1323000D03*
X395000Y1335000D03*
Y1330000D03*
X405000Y1362500D03*
Y1392500D03*
X387500Y1382500D03*
X397500Y1450000D03*
X387500Y1460000D03*
X431060Y436560D03*
X412000Y760000D03*
X417500Y905000D03*
X427500Y1162500D03*
X412500Y1292500D03*
Y1345000D03*
X415000Y1362500D03*
X427500Y1397500D03*
X432500Y1417500D03*
X430000Y1575000D03*
Y1560000D03*
X438940Y436560D03*
Y487440D03*
X460000Y770000D03*
X450000Y815000D03*
X440000Y910000D03*
X450000Y915000D03*
X442500Y1362500D03*
X457500Y1405000D03*
X477500Y815000D03*
X484000D03*
X510060Y489940D03*
X511000Y502000D03*
X499790Y535150D03*
Y585150D03*
X510250Y1137750D03*
X515000Y450000D03*
X531000Y480000D03*
X535000Y725000D03*
X525000Y737500D03*
X530000Y732500D03*
X517500Y742500D03*
X525000Y810000D03*
X520000D03*
X530000D03*
X527500Y1092500D03*
Y1097500D03*
X522940Y1154060D03*
X517060Y1175060D03*
X537500Y445000D03*
X544620Y467460D03*
X562630D03*
X547500Y477500D03*
X548920Y462460D03*
X557500Y502500D03*
X537500Y810000D03*
Y922500D03*
X547500Y1150000D03*
X542500Y1202500D03*
X550250Y1382750D03*
X542500Y1385000D03*
X560000Y1389000D03*
X542500Y1405000D03*
X554700Y1445000D03*
X562500D03*
X582500Y450000D03*
X587500Y445000D03*
X572120Y438070D03*
X569060Y485000D03*
X580000Y466000D03*
X567370Y477460D03*
X587500Y495000D03*
X565000Y737500D03*
X582500D03*
X587500Y862500D03*
Y847500D03*
X567500Y867500D03*
X582500Y845000D03*
X572500Y902500D03*
X587500Y950000D03*
X585000Y970000D03*
X587060Y1118060D03*
X582500Y1150000D03*
X587500Y1352500D03*
X580000Y1395000D03*
X565000Y1389000D03*
X585000Y1412500D03*
X572500Y1445000D03*
Y1465000D03*
X607370Y451060D03*
X599000Y481000D03*
X597510Y466570D03*
X595000Y476000D03*
X598000Y495000D03*
X605000Y740000D03*
X590000Y737500D03*
X597500D03*
X602500Y842500D03*
X610000D03*
X597500Y862500D03*
Y847500D03*
Y882500D03*
Y897500D03*
X604900Y942400D03*
X595000Y955000D03*
X597500Y992500D03*
X607500Y1145000D03*
X594800Y1144800D03*
X595000Y1150000D03*
X603000Y1170000D03*
X602500Y1182500D03*
X602000Y1205000D03*
X612500Y1285000D03*
Y1352500D03*
X630000Y433000D03*
Y482500D03*
X627500Y500000D03*
X639000Y509000D03*
X617500Y920000D03*
X637500Y937500D03*
Y932500D03*
X617500Y1310000D03*
X633000Y1352000D03*
X615000Y1402500D03*
X657500Y445000D03*
Y937500D03*
Y925000D03*
X645000Y920000D03*
X642500Y1145000D03*
X655000D03*
X654800Y1139800D03*
X655000Y1245000D03*
Y1252500D03*
Y1297500D03*
X640000D03*
Y1322500D03*
X660000Y1327500D03*
X645000D03*
X640000Y1307500D03*
X647500Y1320000D03*
X645000Y1352500D03*
X640000Y1350000D03*
X657500Y1370000D03*
X650000Y1402500D03*
X645000Y1382500D03*
X655000Y1442500D03*
X682000Y480000D03*
X675000Y910000D03*
X682500Y915000D03*
X667500Y937500D03*
Y925000D03*
Y955000D03*
Y972500D03*
X678000Y1168000D03*
X680000Y1180000D03*
X678000Y1193000D03*
Y1205000D03*
X680050Y1235050D03*
X665000Y1312500D03*
X670000Y1327500D03*
X685000Y1302500D03*
X682500Y1322500D03*
X672500Y1317500D03*
Y1307500D03*
X685000Y1367500D03*
X670000Y1365000D03*
X665000Y1367500D03*
Y1402500D03*
Y1382500D03*
X672500Y1420000D03*
Y1435000D03*
X715000Y407500D03*
X714000Y766000D03*
Y756000D03*
X713000Y747000D03*
X715000Y776000D03*
X707500Y937500D03*
X695000Y1272500D03*
Y1300000D03*
X720000Y407500D03*
X735000Y452500D03*
X720000Y649000D03*
Y687000D03*
Y665000D03*
X719000Y678000D03*
X720000Y672000D03*
X722000Y696000D03*
X719000Y707000D03*
X722000Y737000D03*
X718000Y728000D03*
X717000Y718000D03*
X717500Y740000D03*
X732500Y1022500D03*
X737500Y1332500D03*
X745000Y690000D03*
X747500Y670000D03*
Y680000D03*
Y685000D03*
Y665000D03*
X745000Y695000D03*
Y702500D03*
X746000Y718000D03*
X742500Y742500D03*
X745000Y880000D03*
X760000Y1405000D03*
X772500Y405000D03*
X767500D03*
X787500Y455000D03*
X777500Y637500D03*
X768000Y644000D03*
X775000Y645000D03*
X772000Y665000D03*
X768000Y676000D03*
X769000Y687000D03*
X786000Y673000D03*
X768000Y696000D03*
X769000Y708000D03*
X779000Y709000D03*
X769000Y737000D03*
Y728000D03*
X768000Y766000D03*
X769000Y756000D03*
Y747000D03*
X768000Y777000D03*
X782500Y1310000D03*
X787890Y1402500D03*
X770000Y1390000D03*
X805000Y458000D03*
X810000Y490000D03*
X801060Y500060D03*
X817500Y522860D03*
X805000Y530000D03*
X811000Y560000D03*
X802500Y730000D03*
X817500D03*
X815000Y893000D03*
X805000Y883000D03*
X807500Y1045000D03*
Y1105000D03*
X802500Y1135000D03*
X815000Y1130000D03*
X805000Y1152500D03*
X817500Y1160000D03*
X805000Y1300000D03*
X795000D03*
X805000Y1315000D03*
X795000D03*
X805000Y1350000D03*
Y1335000D03*
X792500Y1367500D03*
Y1395000D03*
X810000Y1402500D03*
X805000Y1395000D03*
X842000Y374000D03*
X832500Y435000D03*
X840000Y425000D03*
X825000Y427500D03*
X830610Y446630D03*
X832700Y440200D03*
X838560Y481000D03*
X830000Y525000D03*
X820000Y650000D03*
X832500Y730000D03*
X835000Y842500D03*
X840000Y852500D03*
X837500Y847500D03*
X842500Y1127500D03*
X832500Y1155000D03*
X822500Y1150000D03*
X840000Y1400000D03*
X830100Y1394900D03*
X843940Y391060D03*
X847300Y440200D03*
X847500Y522500D03*
Y517500D03*
X865000D03*
X850000Y715000D03*
X846000Y853000D03*
X860000Y885000D03*
X865000Y892500D03*
X855000Y897500D03*
X860000Y1045000D03*
Y1050000D03*
X855000Y1102500D03*
X852500Y1140000D03*
X857500Y1142500D03*
X860000Y1147500D03*
X855000Y1152500D03*
X847500Y1155000D03*
X882500Y440000D03*
X880000Y493000D03*
X870000Y520000D03*
X880000Y515000D03*
X872000Y560000D03*
X888000Y684000D03*
X891000Y706500D03*
X893500Y728000D03*
Y737500D03*
X893000Y746500D03*
X892500Y756500D03*
X880000Y892500D03*
X887500Y882500D03*
X870000Y900000D03*
X875000Y895000D03*
X892500Y1122500D03*
X883000Y1113000D03*
X887500Y1140000D03*
Y1145000D03*
X882500Y1132500D03*
X887500Y1150000D03*
Y1155000D03*
X869000D03*
X870000Y1160000D03*
X907500Y440000D03*
X895000D03*
X907560Y486000D03*
X915000Y522500D03*
X907500Y514000D03*
X897000Y560000D03*
X895000Y645000D03*
Y652500D03*
Y671000D03*
X898000Y677000D03*
X895000Y696500D03*
X897420Y716380D03*
X895500Y765500D03*
X897000Y778000D03*
Y882000D03*
X917500Y992500D03*
Y1122500D03*
X907500Y1160000D03*
X917500D03*
X933560Y377440D03*
X941440Y393440D03*
X940000Y432500D03*
X942500Y425000D03*
X935000Y442500D03*
X927500Y444890D03*
X935200Y437300D03*
X936440Y480440D03*
X930000Y525000D03*
X945000Y662500D03*
Y677500D03*
Y687500D03*
X943000Y696500D03*
X941500Y709000D03*
X942500Y717500D03*
X943000Y727500D03*
X944500Y765500D03*
Y756000D03*
Y747000D03*
X943000Y776500D03*
X920000Y1478000D03*
Y1557500D03*
X947500Y435000D03*
X950000Y471000D03*
X947500Y525000D03*
X962500D03*
X947500Y515000D03*
X962500D03*
X963000Y560000D03*
X947500Y647500D03*
X953000Y677000D03*
X960000Y900000D03*
X970000D03*
Y932500D03*
X947500Y1272500D03*
X956000Y1285000D03*
X962500Y1555000D03*
Y1532500D03*
X982500Y440000D03*
X972500Y489000D03*
Y513000D03*
Y672500D03*
X975000Y950000D03*
X995000Y1285000D03*
X1019800Y486800D03*
X1012500Y1005000D03*
X1000000Y1137500D03*
X1002500Y1255000D03*
X1019390Y1365000D03*
X1005000Y1430000D03*
X1000000Y1452500D03*
Y1555000D03*
X1032500Y445000D03*
X1025000Y485000D03*
X1030000Y470000D03*
Y465000D03*
X1027500Y987500D03*
X1045000Y992500D03*
X1042500Y1130000D03*
Y1157500D03*
X1030000Y1272000D03*
X1027500Y1257500D03*
X1025000Y1302500D03*
X1044750Y1354750D03*
X1042500Y1495000D03*
X1027500D03*
X1050230Y435000D03*
X1053770D03*
X1053450Y445000D03*
X1056790D03*
X1060000Y473000D03*
X1065000Y480000D03*
Y465000D03*
X1060000Y487500D03*
X1050000Y498000D03*
X1067500Y632500D03*
Y625000D03*
X1070000Y785000D03*
X1066460D03*
X1054270Y805000D03*
X1050730D03*
X1070000Y1030000D03*
X1072500Y1040000D03*
X1047500Y1285000D03*
X1057500Y1340000D03*
X1057400Y1347400D03*
X1072500Y1360000D03*
X1070000Y1422500D03*
X1055000Y1415000D03*
X1070000Y1432500D03*
X1077500Y442500D03*
X1080000Y461000D03*
X1083000Y457000D03*
X1080000Y481000D03*
X1095000Y475000D03*
Y495000D03*
X1080000Y490000D03*
X1095000Y505000D03*
X1092500Y510000D03*
Y517500D03*
X1087000Y977000D03*
X1077500Y1045000D03*
X1090250Y1072750D03*
X1082500Y1050000D03*
X1097020Y1117980D03*
X1080000Y1115000D03*
X1092500Y1172500D03*
X1075000Y1212500D03*
X1095000Y1245000D03*
X1087000Y1278000D03*
X1090000Y1320000D03*
X1092500Y1392500D03*
X1095000Y1500000D03*
X1120000Y449000D03*
X1101000Y470000D03*
X1114560Y499560D03*
X1110000Y495000D03*
X1101060Y512500D03*
X1100000Y807500D03*
X1107500Y980000D03*
X1117500Y1085000D03*
X1120000Y1080000D03*
X1104900Y1129900D03*
X1121000Y1276000D03*
X1102500Y1290000D03*
X1119300Y1422500D03*
X1120000Y1512500D03*
X1137500Y445000D03*
X1125000Y475000D03*
X1130200Y484800D03*
X1131000Y474000D03*
X1135000Y472500D03*
X1128940Y512500D03*
X1138560Y686060D03*
X1142500Y700000D03*
Y720000D03*
Y737500D03*
Y755000D03*
Y900000D03*
X1132500Y935000D03*
X1137500Y945000D03*
X1132500Y1077500D03*
X1140000Y1135000D03*
X1145630Y1152500D03*
X1137690Y1152000D03*
X1145000Y1180000D03*
X1144000Y1221000D03*
X1146000Y1249000D03*
X1131190Y1242000D03*
X1147500Y1295000D03*
X1142500Y1290000D03*
Y1327500D03*
X1129000Y1309000D03*
X1141000Y1366000D03*
X1141690Y1397500D03*
X1128190Y1389000D03*
X1140000Y1451000D03*
X1142500Y1440000D03*
X1132500Y1480000D03*
X1127500Y1485000D03*
X1165000Y452500D03*
X1151810Y473080D03*
X1155350D03*
X1165000Y497500D03*
X1166060Y668560D03*
X1162500Y685000D03*
X1150000Y737500D03*
X1172500D03*
X1157500D03*
X1152500Y755000D03*
X1167500Y767500D03*
X1165000Y776230D03*
Y779770D03*
X1166000Y808000D03*
X1152500Y850000D03*
X1167500Y915000D03*
X1157500Y900000D03*
X1162500Y940000D03*
X1160000Y1085000D03*
X1150000Y1132500D03*
X1160000D03*
X1162000Y1197000D03*
X1169000Y1178000D03*
X1160000Y1260000D03*
X1159500Y1271000D03*
X1168000Y1286440D03*
X1161000Y1341000D03*
X1157500Y1407500D03*
X1163000Y1413000D03*
X1153000Y1432000D03*
X1150000Y1470000D03*
Y1477500D03*
X1165000Y1492500D03*
X1182500Y602500D03*
Y622500D03*
X1177500Y662500D03*
X1179000Y669000D03*
X1195000Y708730D03*
Y712270D03*
X1182500Y735000D03*
X1197500Y722500D03*
X1192500Y780000D03*
X1187500Y808730D03*
Y812270D03*
X1186230Y795250D03*
X1189770D03*
X1183000Y823000D03*
X1177500Y885000D03*
X1190000Y917500D03*
X1197500Y942500D03*
X1185000Y922500D03*
X1177500D03*
X1184900Y964900D03*
X1197500Y970000D03*
X1185000D03*
X1182500Y1260000D03*
X1177000Y1327000D03*
X1197500Y1360000D03*
X1180000Y1409060D03*
X1200000Y1421000D03*
X1195000Y1425000D03*
X1223220Y551380D03*
X1203220Y548880D03*
X1218220Y538880D03*
X1210820Y581280D03*
X1205720Y566380D03*
X1205620Y581280D03*
X1205000Y660000D03*
X1220000Y675000D03*
X1205230Y680000D03*
X1208770D03*
X1225000Y695000D03*
Y707500D03*
X1210000Y782500D03*
X1220000Y812500D03*
Y792500D03*
X1212500Y920000D03*
X1220000Y975000D03*
X1210000Y1117500D03*
X1220000Y1172500D03*
X1202500Y1212500D03*
X1222500Y1242500D03*
X1215000Y1278000D03*
Y1320000D03*
X1217500Y1392500D03*
X1207000Y1425000D03*
X1229000Y441000D03*
X1228220Y548880D03*
X1250000Y660000D03*
X1230000Y712500D03*
X1242500Y692500D03*
X1250000Y715000D03*
X1240000Y930000D03*
X1232500Y957500D03*
X1250000Y1296000D03*
X1249000Y1277000D03*
X1250250Y1390000D03*
X1244240Y1422500D03*
X1227500Y1520000D03*
X1274000Y404000D03*
X1263120Y411280D03*
X1268320Y501280D03*
X1273220Y513880D03*
X1260000Y540000D03*
X1258220Y586380D03*
X1262500Y620000D03*
X1267500Y622500D03*
X1274900Y667400D03*
Y672600D03*
X1267500Y692500D03*
Y720000D03*
X1261270Y767500D03*
X1257730D03*
X1270000Y1150000D03*
X1264000D03*
X1272500Y1180000D03*
X1271000Y1221060D03*
X1255250Y1245000D03*
X1271000Y1252000D03*
X1270000Y1292500D03*
X1259690Y1299000D03*
X1267500Y1327500D03*
X1267000Y1363000D03*
X1266690Y1397500D03*
X1267500Y1437500D03*
Y1432500D03*
X1300720Y341380D03*
X1290000Y417500D03*
X1280820Y506480D03*
X1295000Y497860D03*
X1287500Y540000D03*
X1300720Y541380D03*
X1297280Y581280D03*
X1284280Y579940D03*
X1282500Y570000D03*
X1300000Y590000D03*
X1278220Y606380D03*
X1284000Y637000D03*
X1292190Y635190D03*
X1278220Y621380D03*
X1287800Y655200D03*
X1292800Y727690D03*
Y732690D03*
X1285300Y760190D03*
Y745190D03*
X1292800Y932800D03*
Y940190D03*
X1298000Y1180000D03*
X1297000Y1201000D03*
X1287500Y1260000D03*
X1290000Y1271000D03*
Y1292500D03*
X1277000Y1305000D03*
X1290000Y1347500D03*
X1302000Y1334560D03*
X1282500Y1407500D03*
X1286000Y1418000D03*
X1290000Y1439000D03*
X1308220Y491380D03*
X1305000Y525000D03*
X1313720Y554380D03*
X1315720Y626380D03*
X1307800Y655190D03*
X1325300Y680190D03*
X1315300Y830190D03*
X1327500Y825000D03*
X1317800Y847690D03*
Y862690D03*
Y880190D03*
X1320300Y917690D03*
X1310300D03*
X1317800Y897690D03*
X1302800Y965190D03*
X1320300Y990190D03*
X1310000Y1260000D03*
X1327500Y1360000D03*
X1305000Y1407000D03*
X1346000Y477000D03*
X1338220Y476380D03*
X1328220D03*
X1338220Y511380D03*
Y491380D03*
X1328220D03*
X1338220Y526380D03*
X1343220Y531380D03*
X1328220Y528880D03*
X1330000Y540000D03*
X1333000Y579000D03*
X1338000Y578000D03*
X1335720Y623880D03*
X1330300Y687690D03*
Y665190D03*
X1335300Y675190D03*
X1333770Y707500D03*
X1330230D03*
X1337800Y722460D03*
Y718920D03*
X1335300Y820190D03*
X1347500Y830000D03*
X1327800Y880190D03*
Y897690D03*
X1347500Y1172500D03*
X1330000Y1212500D03*
X1350000Y1245000D03*
X1342000Y1278000D03*
X1350000Y1294000D03*
X1345000Y1320000D03*
X1347500Y1392500D03*
X1329000Y1419000D03*
X1340000Y1422500D03*
X1373220Y403880D03*
X1364170Y467060D03*
X1367710D03*
X1372500Y520000D03*
X1355880Y563880D03*
Y578880D03*
X1370300Y662300D03*
X1360300Y655190D03*
X1362800Y679150D03*
Y682690D03*
X1370300Y707690D03*
X1375300Y732690D03*
Y740080D03*
X1362800Y725190D03*
X1365300Y765190D03*
Y777690D03*
X1375300Y850190D03*
X1355300Y845190D03*
X1377000Y1250000D03*
X1376000Y1277000D03*
X1374190Y1399000D03*
X1374000Y1424000D03*
X1393000Y476000D03*
X1390940Y463060D03*
X1399000Y509000D03*
X1395000Y552500D03*
X1402800Y580190D03*
Y597690D03*
Y635190D03*
X1380300Y677690D03*
X1402800D03*
X1395300Y685190D03*
X1400300Y712690D03*
X1382800Y710190D03*
Y700190D03*
X1390300Y730190D03*
X1395300Y782690D03*
Y797690D03*
Y817690D03*
X1385300Y842690D03*
X1395300Y832690D03*
X1400750Y1150000D03*
X1392750D03*
X1400000Y1180000D03*
X1401000Y1221060D03*
X1400000Y1250000D03*
X1402500Y1290000D03*
X1390250Y1299000D03*
X1397500Y1327500D03*
X1392500Y1365000D03*
X1397190Y1396000D03*
X1395000Y1447500D03*
Y1432500D03*
X1406000Y464000D03*
X1410000Y510000D03*
X1417000Y535000D03*
X1412800Y577690D03*
Y597690D03*
X1408160Y630190D03*
X1412800D03*
X1428860Y629140D03*
X1415300Y632690D03*
X1425300Y647690D03*
X1412800Y682690D03*
X1417800Y670190D03*
X1412800Y667690D03*
X1425300Y687690D03*
X1410300Y707690D03*
X1420670Y740920D03*
Y744460D03*
X1405300Y815190D03*
X1422690Y825190D03*
X1405300Y832690D03*
X1422800Y902690D03*
X1420000Y1195000D03*
X1427000Y1179000D03*
X1415000Y1260000D03*
Y1270000D03*
X1422000Y1286000D03*
X1405690Y1306000D03*
X1420000Y1326000D03*
X1412500Y1342500D03*
Y1407500D03*
X1418000Y1419000D03*
X1405000Y1437500D03*
X1453300Y525190D03*
X1445000Y525000D03*
X1448300Y562690D03*
X1437800Y655190D03*
X1440300Y682690D03*
X1445300Y702690D03*
X1440300Y695190D03*
X1435300Y717690D03*
X1447500Y717500D03*
X1435300Y762690D03*
X1437500Y1260000D03*
X1455000Y1360000D03*
X1435000Y1405000D03*
X1447500Y1437500D03*
X1445000Y1495000D03*
X1467500Y525000D03*
X1478300Y565190D03*
X1473300D03*
X1470300Y610190D03*
Y595190D03*
X1455300Y627500D03*
X1462800Y660190D03*
X1477800Y687690D03*
X1465300Y680190D03*
X1462800Y667690D03*
X1470300Y665190D03*
X1480300Y677690D03*
X1465300Y688050D03*
Y672690D03*
X1455300Y717690D03*
X1475000Y1175000D03*
X1457500Y1214000D03*
X1477500Y1247500D03*
X1465000Y1281000D03*
X1475000Y1287500D03*
X1472500Y1320000D03*
X1475000Y1392500D03*
X1467000Y1426000D03*
X1495800Y527690D03*
Y532690D03*
X1505300Y580000D03*
X1485300Y610190D03*
X1505300D03*
Y600190D03*
X1490300Y652690D03*
X1482800Y642690D03*
X1500000Y680000D03*
X1491800Y710000D03*
X1485300Y732690D03*
X1487800Y752690D03*
X1497800D03*
X1495300Y767690D03*
Y782690D03*
X1504000Y1279000D03*
X1502000Y1423000D03*
X1520300Y610190D03*
Y600190D03*
X1517800Y660190D03*
X1531570Y710000D03*
X1528030D03*
X1527800Y735190D03*
Y782690D03*
X1509000Y1155000D03*
X1530000D03*
X1527500Y1182500D03*
Y1227500D03*
X1511000Y1248000D03*
X1529000Y1252000D03*
X1529210Y1295160D03*
X1525000Y1327500D03*
X1511000Y1305000D03*
X1522500Y1367500D03*
X1524690Y1397500D03*
X1512690Y1390000D03*
X1553000Y1181000D03*
X1556000Y1202000D03*
X1542500Y1262500D03*
X1542000Y1273000D03*
X1542500Y1295000D03*
X1537000Y1305000D03*
X1552500Y1325000D03*
X1547500Y1347500D03*
X1540000Y1407500D03*
X1547500Y1427500D03*
X1545000Y1442500D03*
X1565000Y1260000D03*
X1562500Y1408000D03*
X1874950Y1434750D03*
G54D22*
X1323420Y361180D03*
Y341580D03*
X1343020Y361180D03*
Y341580D03*
X1874950Y1266150D03*
G54D13*
X159000Y1539280D03*
Y1549120D03*
Y1561780D03*
Y1571620D03*
X241500Y1564280D03*
Y1574120D03*
X280000Y1540160D03*
Y1550000D03*
Y1574600D03*
Y1564760D03*
X862500Y1517660D03*
Y1527500D03*
Y1542780D03*
Y1552620D03*
Y1565280D03*
Y1575120D03*
X897800Y1542850D03*
Y1552690D03*
X897500Y1574720D03*
Y1564880D03*
X940300Y1517780D03*
Y1527620D03*
Y1549810D03*
Y1539970D03*
X940000Y1562780D03*
Y1572620D03*
X980000Y1537660D03*
Y1547500D03*
Y1572460D03*
Y1562620D03*
X1017500Y1537780D03*
Y1547620D03*
Y1572100D03*
Y1562260D03*
X1190000Y510160D03*
Y520000D03*
X1874950Y1350450D03*
G54D23*
G01X40000Y220000D02*
Y1620000D01*
X1640000D01*
Y220000D01*
X40000D01*
G01Y1630000D02*
Y1670000D01*
G01X901180Y1660000D02*
X40000D01*
G01X55000Y1662500D02*
X40000Y1660000D01*
X55000Y1657500D01*
Y1662500D01*
G01X915200Y1653750D02*
Y1666250D01*
X913340Y1663750D01*
G01Y1653750D02*
X917060D01*
G01X924650Y1658960D02*
X925740Y1660420D01*
X926670Y1661250D01*
X927910Y1661670D01*
X929000Y1661250D01*
X929770Y1660420D01*
X930390Y1659170D01*
X930550Y1657710D01*
X930390Y1656460D01*
X929770Y1655210D01*
X928840Y1654170D01*
X927760Y1653750D01*
X926520Y1654170D01*
X925430Y1655420D01*
X924810Y1657290D01*
X924650Y1659370D01*
X924960Y1662080D01*
X925430Y1663540D01*
X926200Y1665000D01*
X927290Y1666040D01*
X928370Y1666250D01*
X929460Y1665830D01*
X930240Y1664790D01*
G01X940000Y1653330D02*
X939690Y1653540D01*
Y1653960D01*
X940000Y1654170D01*
X940310Y1653960D01*
Y1653540D01*
X940000Y1653330D01*
G01X952400Y1666250D02*
X951160Y1665830D01*
X950230Y1664790D01*
X949610Y1663540D01*
X949140Y1661870D01*
X948990Y1660000D01*
X949140Y1658120D01*
X949610Y1656460D01*
X950230Y1655210D01*
X951160Y1654170D01*
X952400Y1653750D01*
X953640Y1654170D01*
X954570Y1655210D01*
X955190Y1656460D01*
X955660Y1658120D01*
X955810Y1660000D01*
X955660Y1661870D01*
X955190Y1663540D01*
X954570Y1664790D01*
X953640Y1665830D01*
X952400Y1666250D01*
G01X964800D02*
X963560Y1665830D01*
X962630Y1664790D01*
X962010Y1663540D01*
X961540Y1661870D01*
X961390Y1660000D01*
X961540Y1658120D01*
X962010Y1656460D01*
X962630Y1655210D01*
X963560Y1654170D01*
X964800Y1653750D01*
X966040Y1654170D01*
X966970Y1655210D01*
X967590Y1656460D01*
X968060Y1658120D01*
X968210Y1660000D01*
X968060Y1661870D01*
X967590Y1663540D01*
X966970Y1664790D01*
X966040Y1665830D01*
X964800Y1666250D01*
G01X978820Y1660000D02*
X1640000D01*
G01X1625000Y1657500D02*
X1640000Y1660000D01*
X1625000Y1662500D01*
Y1657500D01*
G01X1650000Y220000D02*
X1780000D01*
G01X1650000Y1620000D02*
X1780000D01*
G01X1640000Y1630000D02*
Y1670000D01*
G01X1745200Y743750D02*
Y756250D01*
X1743340Y753750D01*
G01Y743750D02*
X1747060D01*
G01X1759460D02*
Y756250D01*
X1753720Y747290D01*
X1761480D01*
G01X1770000Y743330D02*
X1769690Y743540D01*
Y743960D01*
X1770000Y744170D01*
X1770310Y743960D01*
Y743540D01*
X1770000Y743330D01*
G01X1782400Y756250D02*
X1781160Y755830D01*
X1780230Y754790D01*
X1779610Y753540D01*
X1779140Y751870D01*
X1778990Y750000D01*
X1779140Y748120D01*
X1779610Y746460D01*
X1780230Y745210D01*
X1781160Y744170D01*
X1782400Y743750D01*
X1783640Y744170D01*
X1784570Y745210D01*
X1785190Y746460D01*
X1785660Y748120D01*
X1785810Y750000D01*
X1785660Y751870D01*
X1785190Y753540D01*
X1784570Y754790D01*
X1783640Y755830D01*
X1782400Y756250D01*
G01X1794800D02*
X1793560Y755830D01*
X1792630Y754790D01*
X1792010Y753540D01*
X1791540Y751870D01*
X1791390Y750000D01*
X1791540Y748120D01*
X1792010Y746460D01*
X1792630Y745210D01*
X1793560Y744170D01*
X1794800Y743750D01*
X1796040Y744170D01*
X1796970Y745210D01*
X1797590Y746460D01*
X1798060Y748120D01*
X1798210Y750000D01*
X1798060Y751870D01*
X1797590Y753540D01*
X1796970Y754790D01*
X1796040Y755830D01*
X1794800Y756250D01*
G01X1770000Y734380D02*
Y220000D01*
G01X1767500Y235000D02*
X1770000Y220000D01*
X1772500Y235000D01*
X1767500D01*
G01X1770000Y765620D02*
Y1620000D01*
G01X1772500Y1605000D02*
X1770000Y1620000D01*
X1767500Y1605000D01*
X1772500D01*
G01X1830000Y1055400D02*
Y1530000D01*
X2313600D01*
Y1055400D01*
X1830000D01*
G01Y1083500D02*
X2313600D01*
G01X1830000Y1111600D02*
X2313600D01*
G01X1830000Y1139700D02*
X2313600D01*
G01X1830000Y1167800D02*
X2313600D01*
G01X1830000Y1195900D02*
X2313600D01*
G01X1830000Y1224000D02*
X2313600D01*
G01X1830000Y1252100D02*
X2313600D01*
G01X1830000Y1280200D02*
X2313600D01*
G01X1830000Y1308300D02*
X2313600D01*
G01X1830000Y1336400D02*
X2313600D01*
G01X1830000Y1364500D02*
X2313600D01*
G01X1830000Y1392600D02*
X2313600D01*
G01X1830000Y1420700D02*
X2313600D01*
G01X1830000Y1448800D02*
X2313600D01*
G01X1830000Y1476900D02*
X2313600D01*
G01X1830000Y1505000D02*
X2313600D01*
G01X1841000Y1458150D02*
Y1470650D01*
X1846900D01*
G01X1844720Y1464610D02*
X1841000D01*
G01X1854490Y1470650D02*
X1858210D01*
G01X1856350D02*
Y1458150D01*
G01X1854490D02*
X1858210D01*
G01X1869680Y1464400D02*
X1872780D01*
Y1460650D01*
X1871850Y1459400D01*
X1870760Y1458570D01*
X1869220Y1458150D01*
X1867670Y1458570D01*
X1866580Y1459400D01*
X1865650Y1460650D01*
X1865030Y1462110D01*
X1864720Y1463770D01*
Y1465230D01*
X1865030Y1466480D01*
X1865650Y1467940D01*
X1866580Y1469190D01*
X1867510Y1470020D01*
X1868750Y1470650D01*
X1869830D01*
X1871070Y1470230D01*
X1872010Y1469400D01*
G01X1877740Y1470650D02*
Y1461690D01*
X1878360Y1459820D01*
X1879600Y1458570D01*
X1881150Y1458150D01*
X1882700Y1458570D01*
X1883940Y1459820D01*
X1884560Y1461690D01*
Y1470650D01*
G01X1890450Y1458150D02*
Y1470650D01*
X1894320D01*
X1895560Y1470020D01*
X1896340Y1469190D01*
X1896650Y1467520D01*
X1896340Y1465860D01*
X1895410Y1464820D01*
X1894320Y1464190D01*
X1890450D01*
G01X1894320D02*
X1896650Y1458150D01*
G01X1909050D02*
X1902850D01*
Y1470650D01*
X1909050D01*
G01X1906570Y1464610D02*
X1902850D01*
G01X1919900Y1476900D02*
Y1055400D01*
G01X1913390Y1511250D02*
Y1523750D01*
X1916490D01*
X1917730Y1523120D01*
X1918660Y1522290D01*
X1919440Y1521040D01*
X1920060Y1519580D01*
X1920210Y1517500D01*
X1920060Y1515420D01*
X1919440Y1513960D01*
X1918660Y1512710D01*
X1917730Y1511870D01*
X1916490Y1511250D01*
X1913390D01*
G01X1926100D02*
Y1523750D01*
X1929970D01*
X1931210Y1523120D01*
X1931990Y1522290D01*
X1932300Y1520620D01*
X1931990Y1518960D01*
X1931060Y1517920D01*
X1929970Y1517290D01*
X1926100D01*
G01X1929970D02*
X1932300Y1511250D01*
G01X1939740Y1523750D02*
X1943460D01*
G01X1941600D02*
Y1511250D01*
G01X1939740D02*
X1943460D01*
G01X1950900Y1523750D02*
Y1511250D01*
X1957100D01*
G01X1963300Y1523750D02*
Y1511250D01*
X1969500D01*
G01X1994610Y1522710D02*
X1993680Y1523330D01*
X1992600Y1523750D01*
X1991360D01*
X1989960Y1523120D01*
X1988880Y1522080D01*
X1988100Y1520830D01*
X1987480Y1518750D01*
X1987320Y1516870D01*
X1987640Y1515000D01*
X1988100Y1513750D01*
X1989030Y1512500D01*
X1990120Y1511670D01*
X1991200Y1511250D01*
X1992280D01*
X1993370Y1511670D01*
X1994300Y1512290D01*
X1995080Y1513120D01*
G01X2000340Y1511250D02*
Y1523750D01*
G01X2006860D02*
Y1511250D01*
G01Y1517500D02*
X2000340D01*
G01X2012120Y1511250D02*
X2016000Y1523750D01*
X2019880Y1511250D01*
G01X2018480Y1515620D02*
X2013520D01*
G01X2025300Y1511250D02*
Y1523750D01*
X2029170D01*
X2030410Y1523120D01*
X2031190Y1522290D01*
X2031500Y1520620D01*
X2031190Y1518960D01*
X2030260Y1517920D01*
X2029170Y1517290D01*
X2025300D01*
G01X2029170D02*
X2031500Y1511250D01*
G01X2040800Y1523750D02*
Y1511250D01*
G01X2037240Y1523750D02*
X2044360D01*
G01X2053200Y1510830D02*
X2052890Y1511040D01*
Y1511460D01*
X2053200Y1511670D01*
X2053510Y1511460D01*
Y1511040D01*
X2053200Y1510830D01*
G01Y1516460D02*
X2052890Y1516670D01*
Y1517080D01*
X2053200Y1517290D01*
X2053510Y1517080D01*
Y1516670D01*
X2053200Y1516460D01*
G01X2078000Y1523750D02*
Y1511250D01*
G01X2074440Y1523750D02*
X2081560D01*
G01X2090400Y1511250D02*
X2089160Y1511460D01*
X2088080Y1512290D01*
X2087140Y1513540D01*
X2086520Y1515000D01*
X2086210Y1516670D01*
Y1518330D01*
X2086520Y1520000D01*
X2087140Y1521460D01*
X2088080Y1522710D01*
X2089160Y1523540D01*
X2090400Y1523750D01*
X2091640Y1523540D01*
X2092720Y1522710D01*
X2093660Y1521460D01*
X2094280Y1520000D01*
X2094590Y1518330D01*
Y1516670D01*
X2094280Y1515000D01*
X2093660Y1513540D01*
X2092720Y1512290D01*
X2091640Y1511460D01*
X2090400Y1511250D01*
G01X2099700D02*
Y1523750D01*
X2103420D01*
X2104660Y1523120D01*
X2105590Y1521670D01*
X2105900Y1520000D01*
X2105590Y1518330D01*
X2104810Y1517080D01*
X2103420Y1516460D01*
X2099700D01*
G01X2127600Y1523750D02*
Y1511250D01*
G01X2125430Y1519580D02*
X2129770D01*
G01X2140000Y1511250D02*
X2139070Y1511460D01*
X2138140Y1512290D01*
X2137520Y1513750D01*
X2137210Y1515420D01*
X2137520Y1517080D01*
X2138140Y1518540D01*
X2139070Y1519370D01*
X2140000Y1519580D01*
X2140930Y1519370D01*
X2141860Y1518540D01*
X2142480Y1517080D01*
X2142640Y1515420D01*
X2142480Y1513750D01*
X2141860Y1512290D01*
X2140930Y1511460D01*
X2140000Y1511250D01*
G01X2166040Y1517920D02*
X2166660Y1518540D01*
X2167120Y1519580D01*
X2167440Y1521040D01*
X2167120Y1522290D01*
X2166510Y1523120D01*
X2165420Y1523750D01*
X2161240D01*
Y1511250D01*
X2166350D01*
X2167440Y1512080D01*
X2168060Y1513330D01*
X2168360Y1514790D01*
X2168060Y1516250D01*
X2167120Y1517500D01*
X2166040Y1517920D01*
X2161240D01*
G01X2177200Y1511250D02*
X2175960Y1511460D01*
X2174880Y1512290D01*
X2173940Y1513540D01*
X2173320Y1515000D01*
X2173010Y1516670D01*
Y1518330D01*
X2173320Y1520000D01*
X2173940Y1521460D01*
X2174880Y1522710D01*
X2175960Y1523540D01*
X2177200Y1523750D01*
X2178440Y1523540D01*
X2179520Y1522710D01*
X2180460Y1521460D01*
X2181080Y1520000D01*
X2181390Y1518330D01*
Y1516670D01*
X2181080Y1515000D01*
X2180460Y1513540D01*
X2179520Y1512290D01*
X2178440Y1511460D01*
X2177200Y1511250D01*
G01X2189600Y1523750D02*
Y1511250D01*
G01X2186040Y1523750D02*
X2193160D01*
G01X2202000D02*
Y1511250D01*
G01X2198440Y1523750D02*
X2205560D01*
G01X2214400Y1511250D02*
X2213160Y1511460D01*
X2212080Y1512290D01*
X2211140Y1513540D01*
X2210520Y1515000D01*
X2210210Y1516670D01*
Y1518330D01*
X2210520Y1520000D01*
X2211140Y1521460D01*
X2212080Y1522710D01*
X2213160Y1523540D01*
X2214400Y1523750D01*
X2215640Y1523540D01*
X2216720Y1522710D01*
X2217660Y1521460D01*
X2218280Y1520000D01*
X2218590Y1518330D01*
Y1516670D01*
X2218280Y1515000D01*
X2217660Y1513540D01*
X2216720Y1512290D01*
X2215640Y1511460D01*
X2214400Y1511250D01*
G01X2222770D02*
Y1523750D01*
X2226800Y1513330D01*
X2230830Y1523750D01*
Y1511250D01*
G01X1943920Y1486250D02*
X1947800Y1498750D01*
X1951680Y1486250D01*
G01X1950280Y1490620D02*
X1945320D01*
G01X1957100Y1498750D02*
Y1486250D01*
X1963300D01*
G01X1969500Y1498750D02*
Y1486250D01*
X1975700D01*
G01X1993990Y1498750D02*
Y1489790D01*
X1994610Y1487920D01*
X1995850Y1486670D01*
X1997400Y1486250D01*
X1998950Y1486670D01*
X2000190Y1487920D01*
X2000810Y1489790D01*
Y1498750D01*
G01X2006240Y1486250D02*
Y1498750D01*
X2013360Y1486250D01*
Y1498750D01*
G01X2020340D02*
X2024060D01*
G01X2022200D02*
Y1486250D01*
G01X2020340D02*
X2024060D01*
G01X2034600Y1498750D02*
Y1486250D01*
G01X2031040Y1498750D02*
X2038160D01*
G01X2043740Y1487920D02*
X2044990Y1486870D01*
X2046380Y1486250D01*
X2047620D01*
X2048860Y1486870D01*
X2049790Y1487920D01*
X2050260Y1489380D01*
X2049950Y1490830D01*
X2049170Y1492080D01*
X2047770Y1492920D01*
X2045920Y1493330D01*
X2044830Y1494170D01*
X2044360Y1495620D01*
X2044680Y1497080D01*
X2045450Y1498120D01*
X2046530Y1498750D01*
X2047620D01*
X2048710Y1498330D01*
X2049640Y1497290D01*
G01X2067920Y1486250D02*
X2071800Y1498750D01*
X2075680Y1486250D01*
G01X2074280Y1490620D02*
X2069320D01*
G01X2081100Y1486250D02*
Y1498750D01*
X2084970D01*
X2086210Y1498120D01*
X2086990Y1497290D01*
X2087300Y1495620D01*
X2086990Y1493960D01*
X2086060Y1492920D01*
X2084970Y1492290D01*
X2081100D01*
G01X2084970D02*
X2087300Y1486250D01*
G01X2099700D02*
X2093500D01*
Y1498750D01*
X2099700D01*
G01X2097220Y1492710D02*
X2093500D01*
G01X2119540Y1498750D02*
X2123260D01*
G01X2121400D02*
Y1486250D01*
G01X2119540D02*
X2123260D01*
G01X2130240D02*
Y1498750D01*
X2137360Y1486250D01*
Y1498750D01*
G01X2154570Y1486250D02*
Y1498750D01*
X2158600Y1488330D01*
X2162630Y1498750D01*
Y1486250D01*
G01X2169140Y1498750D02*
X2172860D01*
G01X2171000D02*
Y1486250D01*
G01X2169140D02*
X2172860D01*
G01X2180300Y1498750D02*
Y1486250D01*
X2186500D01*
G01X2192540Y1487920D02*
X2193790Y1486870D01*
X2195180Y1486250D01*
X2196420D01*
X2197660Y1486870D01*
X2198590Y1487920D01*
X2199060Y1489380D01*
X2198750Y1490830D01*
X2197970Y1492080D01*
X2196570Y1492920D01*
X2194720Y1493330D01*
X2193630Y1494170D01*
X2193160Y1495620D01*
X2193480Y1497080D01*
X2194250Y1498120D01*
X2195330Y1498750D01*
X2196420D01*
X2197510Y1498330D01*
X2198440Y1497290D01*
G01X1986700Y1073620D02*
X1987640Y1074870D01*
X1988720Y1075490D01*
X1989960Y1075700D01*
X1991510Y1075280D01*
X1992600Y1074240D01*
X1992910Y1072990D01*
X1992750Y1071740D01*
X1992130Y1070700D01*
X1989030Y1068620D01*
X1987640Y1067160D01*
X1986700Y1065070D01*
X1986390Y1063200D01*
X1992910D01*
G01X1998640Y1065070D02*
X1999570Y1064030D01*
X2000650Y1063410D01*
X2002050Y1063200D01*
X2003450Y1063620D01*
X2004530Y1064450D01*
X2005310Y1065910D01*
X2005460Y1067570D01*
X2005150Y1069240D01*
X2004370Y1070280D01*
X2003290Y1071120D01*
X2002210Y1071320D01*
X2001120Y1071120D01*
X1999730Y1070280D01*
X2000190Y1075700D01*
X2004370D01*
G01X2014450D02*
X2013210Y1075280D01*
X2012280Y1074240D01*
X2011660Y1072990D01*
X2011190Y1071320D01*
X2011040Y1069450D01*
X2011190Y1067570D01*
X2011660Y1065910D01*
X2012280Y1064660D01*
X2013210Y1063620D01*
X2014450Y1063200D01*
X2015690Y1063620D01*
X2016620Y1064660D01*
X2017240Y1065910D01*
X2017710Y1067570D01*
X2017860Y1069450D01*
X2017710Y1071320D01*
X2017240Y1072990D01*
X2016620Y1074240D01*
X2015690Y1075280D01*
X2014450Y1075700D01*
G01X2026850Y1062780D02*
X2026540Y1062990D01*
Y1063410D01*
X2026850Y1063620D01*
X2027160Y1063410D01*
Y1062990D01*
X2026850Y1062780D01*
G01X2039250Y1075700D02*
X2038010Y1075280D01*
X2037080Y1074240D01*
X2036460Y1072990D01*
X2035990Y1071320D01*
X2035840Y1069450D01*
X2035990Y1067570D01*
X2036460Y1065910D01*
X2037080Y1064660D01*
X2038010Y1063620D01*
X2039250Y1063200D01*
X2040490Y1063620D01*
X2041420Y1064660D01*
X2042040Y1065910D01*
X2042510Y1067570D01*
X2042660Y1069450D01*
X2042510Y1071320D01*
X2042040Y1072990D01*
X2041420Y1074240D01*
X2040490Y1075280D01*
X2039250Y1075700D01*
G01X1989650Y1091300D02*
Y1103800D01*
X1987790Y1101300D01*
G01Y1091300D02*
X1991510D01*
G01X1998640Y1093170D02*
X1999570Y1092130D01*
X2000650Y1091510D01*
X2002050Y1091300D01*
X2003450Y1091720D01*
X2004530Y1092550D01*
X2005310Y1094010D01*
X2005460Y1095670D01*
X2005150Y1097340D01*
X2004370Y1098380D01*
X2003290Y1099220D01*
X2002210Y1099420D01*
X2001120Y1099220D01*
X1999730Y1098380D01*
X2000190Y1103800D01*
X2004370D01*
G01X2011500Y1096510D02*
X2012590Y1097970D01*
X2013520Y1098800D01*
X2014760Y1099220D01*
X2015850Y1098800D01*
X2016620Y1097970D01*
X2017240Y1096720D01*
X2017400Y1095260D01*
X2017240Y1094010D01*
X2016620Y1092760D01*
X2015690Y1091720D01*
X2014610Y1091300D01*
X2013370Y1091720D01*
X2012280Y1092970D01*
X2011660Y1094840D01*
X2011500Y1096920D01*
X2011810Y1099630D01*
X2012280Y1101090D01*
X2013050Y1102550D01*
X2014140Y1103590D01*
X2015220Y1103800D01*
X2016310Y1103380D01*
X2017090Y1102340D01*
G01X2026850Y1090880D02*
X2026540Y1091090D01*
Y1091510D01*
X2026850Y1091720D01*
X2027160Y1091510D01*
Y1091090D01*
X2026850Y1090880D01*
G01X2039250Y1103800D02*
X2038010Y1103380D01*
X2037080Y1102340D01*
X2036460Y1101090D01*
X2035990Y1099420D01*
X2035840Y1097550D01*
X2035990Y1095670D01*
X2036460Y1094010D01*
X2037080Y1092760D01*
X2038010Y1091720D01*
X2039250Y1091300D01*
X2040490Y1091720D01*
X2041420Y1092760D01*
X2042040Y1094010D01*
X2042510Y1095670D01*
X2042660Y1097550D01*
X2042510Y1099420D01*
X2042040Y1101090D01*
X2041420Y1102340D01*
X2040490Y1103380D01*
X2039250Y1103800D01*
G01X1989650Y1119400D02*
Y1131900D01*
X1987790Y1129400D01*
G01Y1119400D02*
X1991510D01*
G01X2002050Y1131900D02*
X2000810Y1131480D01*
X1999880Y1130440D01*
X1999260Y1129190D01*
X1998790Y1127520D01*
X1998640Y1125650D01*
X1998790Y1123770D01*
X1999260Y1122110D01*
X1999880Y1120860D01*
X2000810Y1119820D01*
X2002050Y1119400D01*
X2003290Y1119820D01*
X2004220Y1120860D01*
X2004840Y1122110D01*
X2005310Y1123770D01*
X2005460Y1125650D01*
X2005310Y1127520D01*
X2004840Y1129190D01*
X2004220Y1130440D01*
X2003290Y1131480D01*
X2002050Y1131900D01*
G01X2011810Y1120860D02*
X2012900Y1119820D01*
X2014140Y1119400D01*
X2015380Y1119820D01*
X2016460Y1121070D01*
X2017240Y1122940D01*
X2017550Y1124820D01*
Y1127110D01*
X2017240Y1128980D01*
X2016460Y1130650D01*
X2015530Y1131480D01*
X2014450Y1131900D01*
X2013210Y1131480D01*
X2012280Y1130650D01*
X2011660Y1129400D01*
X2011350Y1127730D01*
X2011660Y1126280D01*
X2012440Y1124820D01*
X2013370Y1123980D01*
X2014450Y1123770D01*
X2015690Y1124190D01*
X2016620Y1125230D01*
X2017550Y1127110D01*
G01X2026850Y1118980D02*
X2026540Y1119190D01*
Y1119610D01*
X2026850Y1119820D01*
X2027160Y1119610D01*
Y1119190D01*
X2026850Y1118980D01*
G01X2039250Y1131900D02*
X2038010Y1131480D01*
X2037080Y1130440D01*
X2036460Y1129190D01*
X2035990Y1127520D01*
X2035840Y1125650D01*
X2035990Y1123770D01*
X2036460Y1122110D01*
X2037080Y1120860D01*
X2038010Y1119820D01*
X2039250Y1119400D01*
X2040490Y1119820D01*
X2041420Y1120860D01*
X2042040Y1122110D01*
X2042510Y1123770D01*
X2042660Y1125650D01*
X2042510Y1127520D01*
X2042040Y1129190D01*
X2041420Y1130440D01*
X2040490Y1131480D01*
X2039250Y1131900D01*
G01X1989650Y1203700D02*
Y1216200D01*
X1987790Y1213700D01*
G01Y1203700D02*
X1991510D01*
G01X1998640Y1205570D02*
X1999570Y1204530D01*
X2000650Y1203910D01*
X2002050Y1203700D01*
X2003450Y1204120D01*
X2004530Y1204950D01*
X2005310Y1206410D01*
X2005460Y1208070D01*
X2005150Y1209740D01*
X2004370Y1210780D01*
X2003290Y1211620D01*
X2002210Y1211820D01*
X2001120Y1211620D01*
X1999730Y1210780D01*
X2000190Y1216200D01*
X2004370D01*
G01X2014450D02*
X2013210Y1215780D01*
X2012280Y1214740D01*
X2011660Y1213490D01*
X2011190Y1211820D01*
X2011040Y1209950D01*
X2011190Y1208070D01*
X2011660Y1206410D01*
X2012280Y1205160D01*
X2013210Y1204120D01*
X2014450Y1203700D01*
X2015690Y1204120D01*
X2016620Y1205160D01*
X2017240Y1206410D01*
X2017710Y1208070D01*
X2017860Y1209950D01*
X2017710Y1211820D01*
X2017240Y1213490D01*
X2016620Y1214740D01*
X2015690Y1215780D01*
X2014450Y1216200D01*
G01X2026850Y1203280D02*
X2026540Y1203490D01*
Y1203910D01*
X2026850Y1204120D01*
X2027160Y1203910D01*
Y1203490D01*
X2026850Y1203280D01*
G01X2039250Y1216200D02*
X2038010Y1215780D01*
X2037080Y1214740D01*
X2036460Y1213490D01*
X2035990Y1211820D01*
X2035840Y1209950D01*
X2035990Y1208070D01*
X2036460Y1206410D01*
X2037080Y1205160D01*
X2038010Y1204120D01*
X2039250Y1203700D01*
X2040490Y1204120D01*
X2041420Y1205160D01*
X2042040Y1206410D01*
X2042510Y1208070D01*
X2042660Y1209950D01*
X2042510Y1211820D01*
X2042040Y1213490D01*
X2041420Y1214740D01*
X2040490Y1215780D01*
X2039250Y1216200D01*
G01X1997710Y1147500D02*
Y1160000D01*
X1991970Y1151040D01*
X1999730D01*
G01X2008250Y1147500D02*
X2009330Y1147710D01*
X2010570Y1148330D01*
X2011350Y1149370D01*
X2011660Y1150830D01*
X2011350Y1152290D01*
X2010420Y1153540D01*
X2009020Y1154170D01*
X2007480D01*
X2006540Y1154580D01*
X2005770Y1155620D01*
X2005460Y1157080D01*
X2005930Y1158540D01*
X2007010Y1159580D01*
X2008250Y1160000D01*
X2009490Y1159580D01*
X2010570Y1158540D01*
X2011040Y1157080D01*
X2010730Y1155620D01*
X2009960Y1154580D01*
X2009020Y1154170D01*
X2007480D01*
X2006080Y1153540D01*
X2005150Y1152290D01*
X2004840Y1150830D01*
X2005150Y1149370D01*
X2005930Y1148330D01*
X2007170Y1147710D01*
X2008250Y1147500D01*
G01X2020650Y1147080D02*
X2020340Y1147290D01*
Y1147710D01*
X2020650Y1147920D01*
X2020960Y1147710D01*
Y1147290D01*
X2020650Y1147080D01*
G01X2033050Y1160000D02*
X2031810Y1159580D01*
X2030880Y1158540D01*
X2030260Y1157290D01*
X2029790Y1155620D01*
X2029640Y1153750D01*
X2029790Y1151870D01*
X2030260Y1150210D01*
X2030880Y1148960D01*
X2031810Y1147920D01*
X2033050Y1147500D01*
X2034290Y1147920D01*
X2035220Y1148960D01*
X2035840Y1150210D01*
X2036310Y1151870D01*
X2036460Y1153750D01*
X2036310Y1155620D01*
X2035840Y1157290D01*
X2035220Y1158540D01*
X2034290Y1159580D01*
X2033050Y1160000D01*
G01X1992440Y1178100D02*
X1993370Y1176640D01*
X1994610Y1175810D01*
X1996010Y1175600D01*
X1997250Y1175810D01*
X1998490Y1176850D01*
X1999260Y1178100D01*
X1999410Y1179350D01*
X1999110Y1180810D01*
X1998020Y1181850D01*
X1996930Y1182270D01*
X1995540D01*
G01X1996930D02*
X1997860Y1182890D01*
X1998640Y1183930D01*
X1998950Y1185180D01*
X1998640Y1186430D01*
X1997860Y1187470D01*
X1996470Y1188100D01*
X1995080Y1187890D01*
X1993680Y1187060D01*
G01X2004840Y1178100D02*
X2005770Y1176640D01*
X2007010Y1175810D01*
X2008410Y1175600D01*
X2009650Y1175810D01*
X2010890Y1176850D01*
X2011660Y1178100D01*
X2011810Y1179350D01*
X2011510Y1180810D01*
X2010420Y1181850D01*
X2009330Y1182270D01*
X2007940D01*
G01X2009330D02*
X2010260Y1182890D01*
X2011040Y1183930D01*
X2011350Y1185180D01*
X2011040Y1186430D01*
X2010260Y1187470D01*
X2008870Y1188100D01*
X2007480Y1187890D01*
X2006080Y1187060D01*
G01X2020650Y1175180D02*
X2020340Y1175390D01*
Y1175810D01*
X2020650Y1176020D01*
X2020960Y1175810D01*
Y1175390D01*
X2020650Y1175180D01*
G01X2033050Y1188100D02*
X2031810Y1187680D01*
X2030880Y1186640D01*
X2030260Y1185390D01*
X2029790Y1183720D01*
X2029640Y1181850D01*
X2029790Y1179970D01*
X2030260Y1178310D01*
X2030880Y1177060D01*
X2031810Y1176020D01*
X2033050Y1175600D01*
X2034290Y1176020D01*
X2035220Y1177060D01*
X2035840Y1178310D01*
X2036310Y1179970D01*
X2036460Y1181850D01*
X2036310Y1183720D01*
X2035840Y1185390D01*
X2035220Y1186640D01*
X2034290Y1187680D01*
X2033050Y1188100D01*
G01X1992440Y1233670D02*
X1993370Y1232630D01*
X1994450Y1232010D01*
X1995850Y1231800D01*
X1997250Y1232220D01*
X1998330Y1233050D01*
X1999110Y1234510D01*
X1999260Y1236170D01*
X1998950Y1237840D01*
X1998170Y1238880D01*
X1997090Y1239720D01*
X1996010Y1239920D01*
X1994920Y1239720D01*
X1993530Y1238880D01*
X1993990Y1244300D01*
X1998170D01*
G01X2004840Y1233670D02*
X2005770Y1232630D01*
X2006850Y1232010D01*
X2008250Y1231800D01*
X2009650Y1232220D01*
X2010730Y1233050D01*
X2011510Y1234510D01*
X2011660Y1236170D01*
X2011350Y1237840D01*
X2010570Y1238880D01*
X2009490Y1239720D01*
X2008410Y1239920D01*
X2007320Y1239720D01*
X2005930Y1238880D01*
X2006390Y1244300D01*
X2010570D01*
G01X2020650Y1231380D02*
X2020340Y1231590D01*
Y1232010D01*
X2020650Y1232220D01*
X2020960Y1232010D01*
Y1231590D01*
X2020650Y1231380D01*
G01X2033050Y1244300D02*
X2031810Y1243880D01*
X2030880Y1242840D01*
X2030260Y1241590D01*
X2029790Y1239920D01*
X2029640Y1238050D01*
X2029790Y1236170D01*
X2030260Y1234510D01*
X2030880Y1233260D01*
X2031810Y1232220D01*
X2033050Y1231800D01*
X2034290Y1232220D01*
X2035220Y1233260D01*
X2035840Y1234510D01*
X2036310Y1236170D01*
X2036460Y1238050D01*
X2036310Y1239920D01*
X2035840Y1241590D01*
X2035220Y1242840D01*
X2034290Y1243880D01*
X2033050Y1244300D01*
G01X1992440Y1261770D02*
X1993370Y1260730D01*
X1994450Y1260110D01*
X1995850Y1259900D01*
X1997250Y1260320D01*
X1998330Y1261150D01*
X1999110Y1262610D01*
X1999260Y1264270D01*
X1998950Y1265940D01*
X1998170Y1266980D01*
X1997090Y1267820D01*
X1996010Y1268020D01*
X1994920Y1267820D01*
X1993530Y1266980D01*
X1993990Y1272400D01*
X1998170D01*
G01X2008250D02*
X2007010Y1271980D01*
X2006080Y1270940D01*
X2005460Y1269690D01*
X2004990Y1268020D01*
X2004840Y1266150D01*
X2004990Y1264270D01*
X2005460Y1262610D01*
X2006080Y1261360D01*
X2007010Y1260320D01*
X2008250Y1259900D01*
X2009490Y1260320D01*
X2010420Y1261360D01*
X2011040Y1262610D01*
X2011510Y1264270D01*
X2011660Y1266150D01*
X2011510Y1268020D01*
X2011040Y1269690D01*
X2010420Y1270940D01*
X2009490Y1271980D01*
X2008250Y1272400D01*
G01X2020650Y1259480D02*
X2020340Y1259690D01*
Y1260110D01*
X2020650Y1260320D01*
X2020960Y1260110D01*
Y1259690D01*
X2020650Y1259480D01*
G01X2033050Y1272400D02*
X2031810Y1271980D01*
X2030880Y1270940D01*
X2030260Y1269690D01*
X2029790Y1268020D01*
X2029640Y1266150D01*
X2029790Y1264270D01*
X2030260Y1262610D01*
X2030880Y1261360D01*
X2031810Y1260320D01*
X2033050Y1259900D01*
X2034290Y1260320D01*
X2035220Y1261360D01*
X2035840Y1262610D01*
X2036310Y1264270D01*
X2036460Y1266150D01*
X2036310Y1268020D01*
X2035840Y1269690D01*
X2035220Y1270940D01*
X2034290Y1271980D01*
X2033050Y1272400D01*
G01X1997710Y1288000D02*
Y1300500D01*
X1991970Y1291540D01*
X1999730D01*
G01X2005300Y1298420D02*
X2006240Y1299670D01*
X2007320Y1300290D01*
X2008560Y1300500D01*
X2010110Y1300080D01*
X2011200Y1299040D01*
X2011510Y1297790D01*
X2011350Y1296540D01*
X2010730Y1295500D01*
X2007630Y1293420D01*
X2006240Y1291960D01*
X2005300Y1289870D01*
X2004990Y1288000D01*
X2011510D01*
G01X2020650Y1287580D02*
X2020340Y1287790D01*
Y1288210D01*
X2020650Y1288420D01*
X2020960Y1288210D01*
Y1287790D01*
X2020650Y1287580D01*
G01X2033050Y1300500D02*
X2031810Y1300080D01*
X2030880Y1299040D01*
X2030260Y1297790D01*
X2029790Y1296120D01*
X2029640Y1294250D01*
X2029790Y1292370D01*
X2030260Y1290710D01*
X2030880Y1289460D01*
X2031810Y1288420D01*
X2033050Y1288000D01*
X2034290Y1288420D01*
X2035220Y1289460D01*
X2035840Y1290710D01*
X2036310Y1292370D01*
X2036460Y1294250D01*
X2036310Y1296120D01*
X2035840Y1297790D01*
X2035220Y1299040D01*
X2034290Y1300080D01*
X2033050Y1300500D01*
G01X1992440Y1318600D02*
X1993370Y1317140D01*
X1994610Y1316310D01*
X1996010Y1316100D01*
X1997250Y1316310D01*
X1998490Y1317350D01*
X1999260Y1318600D01*
X1999410Y1319850D01*
X1999110Y1321310D01*
X1998020Y1322350D01*
X1996930Y1322770D01*
X1995540D01*
G01X1996930D02*
X1997860Y1323390D01*
X1998640Y1324430D01*
X1998950Y1325680D01*
X1998640Y1326930D01*
X1997860Y1327970D01*
X1996470Y1328600D01*
X1995080Y1328390D01*
X1993680Y1327560D01*
G01X2005300Y1321310D02*
X2006390Y1322770D01*
X2007320Y1323600D01*
X2008560Y1324020D01*
X2009650Y1323600D01*
X2010420Y1322770D01*
X2011040Y1321520D01*
X2011200Y1320060D01*
X2011040Y1318810D01*
X2010420Y1317560D01*
X2009490Y1316520D01*
X2008410Y1316100D01*
X2007170Y1316520D01*
X2006080Y1317770D01*
X2005460Y1319640D01*
X2005300Y1321720D01*
X2005610Y1324430D01*
X2006080Y1325890D01*
X2006850Y1327350D01*
X2007940Y1328390D01*
X2009020Y1328600D01*
X2010110Y1328180D01*
X2010890Y1327140D01*
G01X2020650Y1315680D02*
X2020340Y1315890D01*
Y1316310D01*
X2020650Y1316520D01*
X2020960Y1316310D01*
Y1315890D01*
X2020650Y1315680D01*
G01X2033050Y1328600D02*
X2031810Y1328180D01*
X2030880Y1327140D01*
X2030260Y1325890D01*
X2029790Y1324220D01*
X2029640Y1322350D01*
X2029790Y1320470D01*
X2030260Y1318810D01*
X2030880Y1317560D01*
X2031810Y1316520D01*
X2033050Y1316100D01*
X2034290Y1316520D01*
X2035220Y1317560D01*
X2035840Y1318810D01*
X2036310Y1320470D01*
X2036460Y1322350D01*
X2036310Y1324220D01*
X2035840Y1325890D01*
X2035220Y1327140D01*
X2034290Y1328180D01*
X2033050Y1328600D01*
G01X1992440Y1346700D02*
X1993370Y1345240D01*
X1994610Y1344410D01*
X1996010Y1344200D01*
X1997250Y1344410D01*
X1998490Y1345450D01*
X1999260Y1346700D01*
X1999410Y1347950D01*
X1999110Y1349410D01*
X1998020Y1350450D01*
X1996930Y1350870D01*
X1995540D01*
G01X1996930D02*
X1997860Y1351490D01*
X1998640Y1352530D01*
X1998950Y1353780D01*
X1998640Y1355030D01*
X1997860Y1356070D01*
X1996470Y1356700D01*
X1995080Y1356490D01*
X1993680Y1355660D01*
G01X2008250Y1344200D02*
Y1356700D01*
X2006390Y1354200D01*
G01Y1344200D02*
X2010110D01*
G01X2020650Y1343780D02*
X2020340Y1343990D01*
Y1344410D01*
X2020650Y1344620D01*
X2020960Y1344410D01*
Y1343990D01*
X2020650Y1343780D01*
G01X2029640Y1346070D02*
X2030570Y1345030D01*
X2031650Y1344410D01*
X2033050Y1344200D01*
X2034450Y1344620D01*
X2035530Y1345450D01*
X2036310Y1346910D01*
X2036460Y1348570D01*
X2036150Y1350240D01*
X2035370Y1351280D01*
X2034290Y1352120D01*
X2033210Y1352320D01*
X2032120Y1352120D01*
X2030730Y1351280D01*
X2031190Y1356700D01*
X2035370D01*
G01X1992900Y1382720D02*
X1993840Y1383970D01*
X1994920Y1384590D01*
X1996160Y1384800D01*
X1997710Y1384380D01*
X1998800Y1383340D01*
X1999110Y1382090D01*
X1998950Y1380840D01*
X1998330Y1379800D01*
X1995230Y1377720D01*
X1993840Y1376260D01*
X1992900Y1374170D01*
X1992590Y1372300D01*
X1999110D01*
G01X2004840Y1374170D02*
X2005770Y1373130D01*
X2006850Y1372510D01*
X2008250Y1372300D01*
X2009650Y1372720D01*
X2010730Y1373550D01*
X2011510Y1375010D01*
X2011660Y1376670D01*
X2011350Y1378340D01*
X2010570Y1379380D01*
X2009490Y1380220D01*
X2008410Y1380420D01*
X2007320Y1380220D01*
X2005930Y1379380D01*
X2006390Y1384800D01*
X2010570D01*
G01X2020650Y1371880D02*
X2020340Y1372090D01*
Y1372510D01*
X2020650Y1372720D01*
X2020960Y1372510D01*
Y1372090D01*
X2020650Y1371880D01*
G01X2033050Y1384800D02*
X2031810Y1384380D01*
X2030880Y1383340D01*
X2030260Y1382090D01*
X2029790Y1380420D01*
X2029640Y1378550D01*
X2029790Y1376670D01*
X2030260Y1375010D01*
X2030880Y1373760D01*
X2031810Y1372720D01*
X2033050Y1372300D01*
X2034290Y1372720D01*
X2035220Y1373760D01*
X2035840Y1375010D01*
X2036310Y1376670D01*
X2036460Y1378550D01*
X2036310Y1380420D01*
X2035840Y1382090D01*
X2035220Y1383340D01*
X2034290Y1384380D01*
X2033050Y1384800D01*
G01X1992900Y1410820D02*
X1993840Y1412070D01*
X1994920Y1412690D01*
X1996160Y1412900D01*
X1997710Y1412480D01*
X1998800Y1411440D01*
X1999110Y1410190D01*
X1998950Y1408940D01*
X1998330Y1407900D01*
X1995230Y1405820D01*
X1993840Y1404360D01*
X1992900Y1402270D01*
X1992590Y1400400D01*
X1999110D01*
G01X2008250D02*
Y1412900D01*
X2006390Y1410400D01*
G01Y1400400D02*
X2010110D01*
G01X2020650Y1399980D02*
X2020340Y1400190D01*
Y1400610D01*
X2020650Y1400820D01*
X2020960Y1400610D01*
Y1400190D01*
X2020650Y1399980D01*
G01X2033050Y1412900D02*
X2031810Y1412480D01*
X2030880Y1411440D01*
X2030260Y1410190D01*
X2029790Y1408520D01*
X2029640Y1406650D01*
X2029790Y1404770D01*
X2030260Y1403110D01*
X2030880Y1401860D01*
X2031810Y1400820D01*
X2033050Y1400400D01*
X2034290Y1400820D01*
X2035220Y1401860D01*
X2035840Y1403110D01*
X2036310Y1404770D01*
X2036460Y1406650D01*
X2036310Y1408520D01*
X2035840Y1410190D01*
X2035220Y1411440D01*
X2034290Y1412480D01*
X2033050Y1412900D01*
G01X1995850Y1428500D02*
Y1441000D01*
X1993990Y1438500D01*
G01Y1428500D02*
X1997710D01*
G01X2004840Y1431000D02*
X2005770Y1429540D01*
X2007010Y1428710D01*
X2008410Y1428500D01*
X2009650Y1428710D01*
X2010890Y1429750D01*
X2011660Y1431000D01*
X2011810Y1432250D01*
X2011510Y1433710D01*
X2010420Y1434750D01*
X2009330Y1435170D01*
X2007940D01*
G01X2009330D02*
X2010260Y1435790D01*
X2011040Y1436830D01*
X2011350Y1438080D01*
X2011040Y1439330D01*
X2010260Y1440370D01*
X2008870Y1441000D01*
X2007480Y1440790D01*
X2006080Y1439960D01*
G01X2020650Y1428080D02*
X2020340Y1428290D01*
Y1428710D01*
X2020650Y1428920D01*
X2020960Y1428710D01*
Y1428290D01*
X2020650Y1428080D01*
G01X2033050Y1441000D02*
X2031810Y1440580D01*
X2030880Y1439540D01*
X2030260Y1438290D01*
X2029790Y1436620D01*
X2029640Y1434750D01*
X2029790Y1432870D01*
X2030260Y1431210D01*
X2030880Y1429960D01*
X2031810Y1428920D01*
X2033050Y1428500D01*
X2034290Y1428920D01*
X2035220Y1429960D01*
X2035840Y1431210D01*
X2036310Y1432870D01*
X2036460Y1434750D01*
X2036310Y1436620D01*
X2035840Y1438290D01*
X2035220Y1439540D01*
X2034290Y1440580D01*
X2033050Y1441000D01*
G01X1992590Y1459820D02*
X1993840Y1458770D01*
X1995230Y1458150D01*
X1996470D01*
X1997710Y1458770D01*
X1998640Y1459820D01*
X1999110Y1461280D01*
X1998800Y1462730D01*
X1998020Y1463980D01*
X1996620Y1464820D01*
X1994770Y1465230D01*
X1993680Y1466070D01*
X1993210Y1467520D01*
X1993530Y1468980D01*
X1994300Y1470020D01*
X1995380Y1470650D01*
X1996470D01*
X1997560Y1470230D01*
X1998490Y1469190D01*
G01X2006390Y1470650D02*
X2010110D01*
G01X2008250D02*
Y1458150D01*
G01X2006390D02*
X2010110D01*
G01X2017700Y1470650D02*
X2023600D01*
X2017700Y1458150D01*
X2023600D01*
G01X2036150D02*
X2029950D01*
Y1470650D01*
X2036150D01*
G01X2033670Y1464610D02*
X2029950D01*
G01X2113190Y1063200D02*
Y1075700D01*
X2120310Y1063200D01*
Y1075700D01*
G01X2129150Y1063200D02*
X2127910Y1063410D01*
X2126830Y1064240D01*
X2125890Y1065490D01*
X2125270Y1066950D01*
X2124960Y1068620D01*
Y1070280D01*
X2125270Y1071950D01*
X2125890Y1073410D01*
X2126830Y1074660D01*
X2127910Y1075490D01*
X2129150Y1075700D01*
X2130390Y1075490D01*
X2131470Y1074660D01*
X2132410Y1073410D01*
X2133030Y1071950D01*
X2133340Y1070280D01*
Y1068620D01*
X2133030Y1066950D01*
X2132410Y1065490D01*
X2131470Y1064240D01*
X2130390Y1063410D01*
X2129150Y1063200D01*
G01X2137990D02*
Y1075700D01*
X2145110Y1063200D01*
Y1075700D01*
G01X2151940Y1067370D02*
X2155960D01*
G01X2163250Y1063200D02*
Y1075700D01*
X2166970D01*
X2168210Y1075070D01*
X2169140Y1073620D01*
X2169450Y1071950D01*
X2169140Y1070280D01*
X2168360Y1069030D01*
X2166970Y1068410D01*
X2163250D01*
G01X2175650Y1075700D02*
Y1063200D01*
X2181850D01*
G01X2187270D02*
X2191150Y1075700D01*
X2195030Y1063200D01*
G01X2193630Y1067570D02*
X2188670D01*
G01X2203550Y1075700D02*
Y1063200D01*
G01X2199990Y1075700D02*
X2207110D01*
G01X2219050Y1063200D02*
X2212850D01*
Y1075700D01*
X2219050D01*
G01X2216570Y1069660D02*
X2212850D01*
G01X2224940Y1063200D02*
Y1075700D01*
X2228040D01*
X2229280Y1075070D01*
X2230210Y1074240D01*
X2230990Y1072990D01*
X2231610Y1071530D01*
X2231760Y1069450D01*
X2231610Y1067370D01*
X2230990Y1065910D01*
X2230210Y1064660D01*
X2229280Y1063820D01*
X2228040Y1063200D01*
X2224940D01*
G01X2109000Y1476900D02*
Y1055400D01*
G01X2113190Y1091300D02*
Y1103800D01*
X2120310Y1091300D01*
Y1103800D01*
G01X2129150Y1091300D02*
X2127910Y1091510D01*
X2126830Y1092340D01*
X2125890Y1093590D01*
X2125270Y1095050D01*
X2124960Y1096720D01*
Y1098380D01*
X2125270Y1100050D01*
X2125890Y1101510D01*
X2126830Y1102760D01*
X2127910Y1103590D01*
X2129150Y1103800D01*
X2130390Y1103590D01*
X2131470Y1102760D01*
X2132410Y1101510D01*
X2133030Y1100050D01*
X2133340Y1098380D01*
Y1096720D01*
X2133030Y1095050D01*
X2132410Y1093590D01*
X2131470Y1092340D01*
X2130390Y1091510D01*
X2129150Y1091300D01*
G01X2137990D02*
Y1103800D01*
X2145110Y1091300D01*
Y1103800D01*
G01X2151940Y1095470D02*
X2155960D01*
G01X2163250Y1091300D02*
Y1103800D01*
X2166970D01*
X2168210Y1103170D01*
X2169140Y1101720D01*
X2169450Y1100050D01*
X2169140Y1098380D01*
X2168360Y1097130D01*
X2166970Y1096510D01*
X2163250D01*
G01X2175650Y1103800D02*
Y1091300D01*
X2181850D01*
G01X2187270D02*
X2191150Y1103800D01*
X2195030Y1091300D01*
G01X2193630Y1095670D02*
X2188670D01*
G01X2203550Y1103800D02*
Y1091300D01*
G01X2199990Y1103800D02*
X2207110D01*
G01X2219050Y1091300D02*
X2212850D01*
Y1103800D01*
X2219050D01*
G01X2216570Y1097760D02*
X2212850D01*
G01X2224940Y1091300D02*
Y1103800D01*
X2228040D01*
X2229280Y1103170D01*
X2230210Y1102340D01*
X2230990Y1101090D01*
X2231610Y1099630D01*
X2231760Y1097550D01*
X2231610Y1095470D01*
X2230990Y1094010D01*
X2230210Y1092760D01*
X2229280Y1091920D01*
X2228040Y1091300D01*
X2224940D01*
G01X2113190Y1119400D02*
Y1131900D01*
X2120310Y1119400D01*
Y1131900D01*
G01X2129150Y1119400D02*
X2127910Y1119610D01*
X2126830Y1120440D01*
X2125890Y1121690D01*
X2125270Y1123150D01*
X2124960Y1124820D01*
Y1126480D01*
X2125270Y1128150D01*
X2125890Y1129610D01*
X2126830Y1130860D01*
X2127910Y1131690D01*
X2129150Y1131900D01*
X2130390Y1131690D01*
X2131470Y1130860D01*
X2132410Y1129610D01*
X2133030Y1128150D01*
X2133340Y1126480D01*
Y1124820D01*
X2133030Y1123150D01*
X2132410Y1121690D01*
X2131470Y1120440D01*
X2130390Y1119610D01*
X2129150Y1119400D01*
G01X2137990D02*
Y1131900D01*
X2145110Y1119400D01*
Y1131900D01*
G01X2151940Y1123570D02*
X2155960D01*
G01X2163250Y1119400D02*
Y1131900D01*
X2166970D01*
X2168210Y1131270D01*
X2169140Y1129820D01*
X2169450Y1128150D01*
X2169140Y1126480D01*
X2168360Y1125230D01*
X2166970Y1124610D01*
X2163250D01*
G01X2175650Y1131900D02*
Y1119400D01*
X2181850D01*
G01X2187270D02*
X2191150Y1131900D01*
X2195030Y1119400D01*
G01X2193630Y1123770D02*
X2188670D01*
G01X2203550Y1131900D02*
Y1119400D01*
G01X2199990Y1131900D02*
X2207110D01*
G01X2219050Y1119400D02*
X2212850D01*
Y1131900D01*
X2219050D01*
G01X2216570Y1125860D02*
X2212850D01*
G01X2224940Y1119400D02*
Y1131900D01*
X2228040D01*
X2229280Y1131270D01*
X2230210Y1130440D01*
X2230990Y1129190D01*
X2231610Y1127730D01*
X2231760Y1125650D01*
X2231610Y1123570D01*
X2230990Y1122110D01*
X2230210Y1120860D01*
X2229280Y1120020D01*
X2228040Y1119400D01*
X2224940D01*
G01X2113190Y1147500D02*
Y1160000D01*
X2120310Y1147500D01*
Y1160000D01*
G01X2129150Y1147500D02*
X2127910Y1147710D01*
X2126830Y1148540D01*
X2125890Y1149790D01*
X2125270Y1151250D01*
X2124960Y1152920D01*
Y1154580D01*
X2125270Y1156250D01*
X2125890Y1157710D01*
X2126830Y1158960D01*
X2127910Y1159790D01*
X2129150Y1160000D01*
X2130390Y1159790D01*
X2131470Y1158960D01*
X2132410Y1157710D01*
X2133030Y1156250D01*
X2133340Y1154580D01*
Y1152920D01*
X2133030Y1151250D01*
X2132410Y1149790D01*
X2131470Y1148540D01*
X2130390Y1147710D01*
X2129150Y1147500D01*
G01X2137990D02*
Y1160000D01*
X2145110Y1147500D01*
Y1160000D01*
G01X2151940Y1151670D02*
X2155960D01*
G01X2163250Y1147500D02*
Y1160000D01*
X2166970D01*
X2168210Y1159370D01*
X2169140Y1157920D01*
X2169450Y1156250D01*
X2169140Y1154580D01*
X2168360Y1153330D01*
X2166970Y1152710D01*
X2163250D01*
G01X2175650Y1160000D02*
Y1147500D01*
X2181850D01*
G01X2187270D02*
X2191150Y1160000D01*
X2195030Y1147500D01*
G01X2193630Y1151870D02*
X2188670D01*
G01X2203550Y1160000D02*
Y1147500D01*
G01X2199990Y1160000D02*
X2207110D01*
G01X2219050Y1147500D02*
X2212850D01*
Y1160000D01*
X2219050D01*
G01X2216570Y1153960D02*
X2212850D01*
G01X2224940Y1147500D02*
Y1160000D01*
X2228040D01*
X2229280Y1159370D01*
X2230210Y1158540D01*
X2230990Y1157290D01*
X2231610Y1155830D01*
X2231760Y1153750D01*
X2231610Y1151670D01*
X2230990Y1150210D01*
X2230210Y1148960D01*
X2229280Y1148120D01*
X2228040Y1147500D01*
X2224940D01*
G01X2113190Y1175600D02*
Y1188100D01*
X2120310Y1175600D01*
Y1188100D01*
G01X2129150Y1175600D02*
X2127910Y1175810D01*
X2126830Y1176640D01*
X2125890Y1177890D01*
X2125270Y1179350D01*
X2124960Y1181020D01*
Y1182680D01*
X2125270Y1184350D01*
X2125890Y1185810D01*
X2126830Y1187060D01*
X2127910Y1187890D01*
X2129150Y1188100D01*
X2130390Y1187890D01*
X2131470Y1187060D01*
X2132410Y1185810D01*
X2133030Y1184350D01*
X2133340Y1182680D01*
Y1181020D01*
X2133030Y1179350D01*
X2132410Y1177890D01*
X2131470Y1176640D01*
X2130390Y1175810D01*
X2129150Y1175600D01*
G01X2137990D02*
Y1188100D01*
X2145110Y1175600D01*
Y1188100D01*
G01X2151940Y1179770D02*
X2155960D01*
G01X2163250Y1175600D02*
Y1188100D01*
X2166970D01*
X2168210Y1187470D01*
X2169140Y1186020D01*
X2169450Y1184350D01*
X2169140Y1182680D01*
X2168360Y1181430D01*
X2166970Y1180810D01*
X2163250D01*
G01X2175650Y1188100D02*
Y1175600D01*
X2181850D01*
G01X2187270D02*
X2191150Y1188100D01*
X2195030Y1175600D01*
G01X2193630Y1179970D02*
X2188670D01*
G01X2203550Y1188100D02*
Y1175600D01*
G01X2199990Y1188100D02*
X2207110D01*
G01X2219050Y1175600D02*
X2212850D01*
Y1188100D01*
X2219050D01*
G01X2216570Y1182060D02*
X2212850D01*
G01X2224940Y1175600D02*
Y1188100D01*
X2228040D01*
X2229280Y1187470D01*
X2230210Y1186640D01*
X2230990Y1185390D01*
X2231610Y1183930D01*
X2231760Y1181850D01*
X2231610Y1179770D01*
X2230990Y1178310D01*
X2230210Y1177060D01*
X2229280Y1176220D01*
X2228040Y1175600D01*
X2224940D01*
G01X2138450Y1203700D02*
Y1216200D01*
X2142170D01*
X2143410Y1215570D01*
X2144340Y1214120D01*
X2144650Y1212450D01*
X2144340Y1210780D01*
X2143560Y1209530D01*
X2142170Y1208910D01*
X2138450D01*
G01X2150850Y1216200D02*
Y1203700D01*
X2157050D01*
G01X2162470D02*
X2166350Y1216200D01*
X2170230Y1203700D01*
G01X2168830Y1208070D02*
X2163870D01*
G01X2178750Y1216200D02*
Y1203700D01*
G01X2175190Y1216200D02*
X2182310D01*
G01X2194250Y1203700D02*
X2188050D01*
Y1216200D01*
X2194250D01*
G01X2191770Y1210160D02*
X2188050D01*
G01X2200140Y1203700D02*
Y1216200D01*
X2203240D01*
X2204480Y1215570D01*
X2205410Y1214740D01*
X2206190Y1213490D01*
X2206810Y1212030D01*
X2206960Y1209950D01*
X2206810Y1207870D01*
X2206190Y1206410D01*
X2205410Y1205160D01*
X2204480Y1204320D01*
X2203240Y1203700D01*
X2200140D01*
G01X2138450Y1231800D02*
Y1244300D01*
X2142170D01*
X2143410Y1243670D01*
X2144340Y1242220D01*
X2144650Y1240550D01*
X2144340Y1238880D01*
X2143560Y1237630D01*
X2142170Y1237010D01*
X2138450D01*
G01X2150850Y1244300D02*
Y1231800D01*
X2157050D01*
G01X2162470D02*
X2166350Y1244300D01*
X2170230Y1231800D01*
G01X2168830Y1236170D02*
X2163870D01*
G01X2178750Y1244300D02*
Y1231800D01*
G01X2175190Y1244300D02*
X2182310D01*
G01X2194250Y1231800D02*
X2188050D01*
Y1244300D01*
X2194250D01*
G01X2191770Y1238260D02*
X2188050D01*
G01X2200140Y1231800D02*
Y1244300D01*
X2203240D01*
X2204480Y1243670D01*
X2205410Y1242840D01*
X2206190Y1241590D01*
X2206810Y1240130D01*
X2206960Y1238050D01*
X2206810Y1235970D01*
X2206190Y1234510D01*
X2205410Y1233260D01*
X2204480Y1232420D01*
X2203240Y1231800D01*
X2200140D01*
G01X2138450Y1259900D02*
Y1272400D01*
X2142170D01*
X2143410Y1271770D01*
X2144340Y1270320D01*
X2144650Y1268650D01*
X2144340Y1266980D01*
X2143560Y1265730D01*
X2142170Y1265110D01*
X2138450D01*
G01X2150850Y1272400D02*
Y1259900D01*
X2157050D01*
G01X2162470D02*
X2166350Y1272400D01*
X2170230Y1259900D01*
G01X2168830Y1264270D02*
X2163870D01*
G01X2178750Y1272400D02*
Y1259900D01*
G01X2175190Y1272400D02*
X2182310D01*
G01X2194250Y1259900D02*
X2188050D01*
Y1272400D01*
X2194250D01*
G01X2191770Y1266360D02*
X2188050D01*
G01X2200140Y1259900D02*
Y1272400D01*
X2203240D01*
X2204480Y1271770D01*
X2205410Y1270940D01*
X2206190Y1269690D01*
X2206810Y1268230D01*
X2206960Y1266150D01*
X2206810Y1264070D01*
X2206190Y1262610D01*
X2205410Y1261360D01*
X2204480Y1260520D01*
X2203240Y1259900D01*
X2200140D01*
G01X2138450Y1288000D02*
Y1300500D01*
X2142170D01*
X2143410Y1299870D01*
X2144340Y1298420D01*
X2144650Y1296750D01*
X2144340Y1295080D01*
X2143560Y1293830D01*
X2142170Y1293210D01*
X2138450D01*
G01X2150850Y1300500D02*
Y1288000D01*
X2157050D01*
G01X2162470D02*
X2166350Y1300500D01*
X2170230Y1288000D01*
G01X2168830Y1292370D02*
X2163870D01*
G01X2178750Y1300500D02*
Y1288000D01*
G01X2175190Y1300500D02*
X2182310D01*
G01X2194250Y1288000D02*
X2188050D01*
Y1300500D01*
X2194250D01*
G01X2191770Y1294460D02*
X2188050D01*
G01X2200140Y1288000D02*
Y1300500D01*
X2203240D01*
X2204480Y1299870D01*
X2205410Y1299040D01*
X2206190Y1297790D01*
X2206810Y1296330D01*
X2206960Y1294250D01*
X2206810Y1292170D01*
X2206190Y1290710D01*
X2205410Y1289460D01*
X2204480Y1288620D01*
X2203240Y1288000D01*
X2200140D01*
G01X2138450Y1316100D02*
Y1328600D01*
X2142170D01*
X2143410Y1327970D01*
X2144340Y1326520D01*
X2144650Y1324850D01*
X2144340Y1323180D01*
X2143560Y1321930D01*
X2142170Y1321310D01*
X2138450D01*
G01X2150850Y1328600D02*
Y1316100D01*
X2157050D01*
G01X2162470D02*
X2166350Y1328600D01*
X2170230Y1316100D01*
G01X2168830Y1320470D02*
X2163870D01*
G01X2178750Y1328600D02*
Y1316100D01*
G01X2175190Y1328600D02*
X2182310D01*
G01X2194250Y1316100D02*
X2188050D01*
Y1328600D01*
X2194250D01*
G01X2191770Y1322560D02*
X2188050D01*
G01X2200140Y1316100D02*
Y1328600D01*
X2203240D01*
X2204480Y1327970D01*
X2205410Y1327140D01*
X2206190Y1325890D01*
X2206810Y1324430D01*
X2206960Y1322350D01*
X2206810Y1320270D01*
X2206190Y1318810D01*
X2205410Y1317560D01*
X2204480Y1316720D01*
X2203240Y1316100D01*
X2200140D01*
G01X2138450Y1344200D02*
Y1356700D01*
X2142170D01*
X2143410Y1356070D01*
X2144340Y1354620D01*
X2144650Y1352950D01*
X2144340Y1351280D01*
X2143560Y1350030D01*
X2142170Y1349410D01*
X2138450D01*
G01X2150850Y1356700D02*
Y1344200D01*
X2157050D01*
G01X2162470D02*
X2166350Y1356700D01*
X2170230Y1344200D01*
G01X2168830Y1348570D02*
X2163870D01*
G01X2178750Y1356700D02*
Y1344200D01*
G01X2175190Y1356700D02*
X2182310D01*
G01X2194250Y1344200D02*
X2188050D01*
Y1356700D01*
X2194250D01*
G01X2191770Y1350660D02*
X2188050D01*
G01X2200140Y1344200D02*
Y1356700D01*
X2203240D01*
X2204480Y1356070D01*
X2205410Y1355240D01*
X2206190Y1353990D01*
X2206810Y1352530D01*
X2206960Y1350450D01*
X2206810Y1348370D01*
X2206190Y1346910D01*
X2205410Y1345660D01*
X2204480Y1344820D01*
X2203240Y1344200D01*
X2200140D01*
G01X2138450Y1372300D02*
Y1384800D01*
X2142170D01*
X2143410Y1384170D01*
X2144340Y1382720D01*
X2144650Y1381050D01*
X2144340Y1379380D01*
X2143560Y1378130D01*
X2142170Y1377510D01*
X2138450D01*
G01X2150850Y1384800D02*
Y1372300D01*
X2157050D01*
G01X2162470D02*
X2166350Y1384800D01*
X2170230Y1372300D01*
G01X2168830Y1376670D02*
X2163870D01*
G01X2178750Y1384800D02*
Y1372300D01*
G01X2175190Y1384800D02*
X2182310D01*
G01X2194250Y1372300D02*
X2188050D01*
Y1384800D01*
X2194250D01*
G01X2191770Y1378760D02*
X2188050D01*
G01X2200140Y1372300D02*
Y1384800D01*
X2203240D01*
X2204480Y1384170D01*
X2205410Y1383340D01*
X2206190Y1382090D01*
X2206810Y1380630D01*
X2206960Y1378550D01*
X2206810Y1376470D01*
X2206190Y1375010D01*
X2205410Y1373760D01*
X2204480Y1372920D01*
X2203240Y1372300D01*
X2200140D01*
G01X2138450Y1400400D02*
Y1412900D01*
X2142170D01*
X2143410Y1412270D01*
X2144340Y1410820D01*
X2144650Y1409150D01*
X2144340Y1407480D01*
X2143560Y1406230D01*
X2142170Y1405610D01*
X2138450D01*
G01X2150850Y1412900D02*
Y1400400D01*
X2157050D01*
G01X2162470D02*
X2166350Y1412900D01*
X2170230Y1400400D01*
G01X2168830Y1404770D02*
X2163870D01*
G01X2178750Y1412900D02*
Y1400400D01*
G01X2175190Y1412900D02*
X2182310D01*
G01X2194250Y1400400D02*
X2188050D01*
Y1412900D01*
X2194250D01*
G01X2191770Y1406860D02*
X2188050D01*
G01X2200140Y1400400D02*
Y1412900D01*
X2203240D01*
X2204480Y1412270D01*
X2205410Y1411440D01*
X2206190Y1410190D01*
X2206810Y1408730D01*
X2206960Y1406650D01*
X2206810Y1404570D01*
X2206190Y1403110D01*
X2205410Y1401860D01*
X2204480Y1401020D01*
X2203240Y1400400D01*
X2200140D01*
G01X2138450Y1428500D02*
Y1441000D01*
X2142170D01*
X2143410Y1440370D01*
X2144340Y1438920D01*
X2144650Y1437250D01*
X2144340Y1435580D01*
X2143560Y1434330D01*
X2142170Y1433710D01*
X2138450D01*
G01X2150850Y1441000D02*
Y1428500D01*
X2157050D01*
G01X2162470D02*
X2166350Y1441000D01*
X2170230Y1428500D01*
G01X2168830Y1432870D02*
X2163870D01*
G01X2178750Y1441000D02*
Y1428500D01*
G01X2175190Y1441000D02*
X2182310D01*
G01X2194250Y1428500D02*
X2188050D01*
Y1441000D01*
X2194250D01*
G01X2191770Y1434960D02*
X2188050D01*
G01X2200140Y1428500D02*
Y1441000D01*
X2203240D01*
X2204480Y1440370D01*
X2205410Y1439540D01*
X2206190Y1438290D01*
X2206810Y1436830D01*
X2206960Y1434750D01*
X2206810Y1432670D01*
X2206190Y1431210D01*
X2205410Y1429960D01*
X2204480Y1429120D01*
X2203240Y1428500D01*
X2200140D01*
G01X2138450Y1458150D02*
Y1470650D01*
X2142170D01*
X2143410Y1470020D01*
X2144340Y1468570D01*
X2144650Y1466900D01*
X2144340Y1465230D01*
X2143560Y1463980D01*
X2142170Y1463360D01*
X2138450D01*
G01X2150850Y1470650D02*
Y1458150D01*
X2157050D01*
G01X2162470D02*
X2166350Y1470650D01*
X2170230Y1458150D01*
G01X2168830Y1462520D02*
X2163870D01*
G01X2178750Y1470650D02*
Y1458150D01*
G01X2175190Y1470650D02*
X2182310D01*
G01X2194250Y1458150D02*
X2188050D01*
Y1470650D01*
X2194250D01*
G01X2191770Y1464610D02*
X2188050D01*
G01X2200140Y1458150D02*
Y1470650D01*
X2203240D01*
X2204480Y1470020D01*
X2205410Y1469190D01*
X2206190Y1467940D01*
X2206810Y1466480D01*
X2206960Y1464400D01*
X2206810Y1462320D01*
X2206190Y1460860D01*
X2205410Y1459610D01*
X2204480Y1458770D01*
X2203240Y1458150D01*
X2200140D01*
G01X2236100Y1476900D02*
Y1055400D01*
G01X2268650Y1063200D02*
Y1075700D01*
X2266790Y1073200D01*
G01Y1063200D02*
X2270510D01*
G01X2278100Y1073620D02*
X2279040Y1074870D01*
X2280120Y1075490D01*
X2281360Y1075700D01*
X2282910Y1075280D01*
X2284000Y1074240D01*
X2284310Y1072990D01*
X2284150Y1071740D01*
X2283530Y1070700D01*
X2280430Y1068620D01*
X2279040Y1067160D01*
X2278100Y1065070D01*
X2277790Y1063200D01*
X2284310D01*
G01X2268650Y1288000D02*
Y1300500D01*
X2266790Y1298000D01*
G01Y1288000D02*
X2270510D01*
G01X2281050Y1300500D02*
X2279810Y1300080D01*
X2278880Y1299040D01*
X2278260Y1297790D01*
X2277790Y1296120D01*
X2277640Y1294250D01*
X2277790Y1292370D01*
X2278260Y1290710D01*
X2278880Y1289460D01*
X2279810Y1288420D01*
X2281050Y1288000D01*
X2282290Y1288420D01*
X2283220Y1289460D01*
X2283840Y1290710D01*
X2284310Y1292370D01*
X2284460Y1294250D01*
X2284310Y1296120D01*
X2283840Y1297790D01*
X2283220Y1299040D01*
X2282290Y1300080D01*
X2281050Y1300500D01*
G01X2259040Y1318600D02*
X2259970Y1317140D01*
X2261210Y1316310D01*
X2262610Y1316100D01*
X2263850Y1316310D01*
X2265090Y1317350D01*
X2265860Y1318600D01*
X2266010Y1319850D01*
X2265710Y1321310D01*
X2264620Y1322350D01*
X2263530Y1322770D01*
X2262140D01*
G01X2263530D02*
X2264460Y1323390D01*
X2265240Y1324430D01*
X2265550Y1325680D01*
X2265240Y1326930D01*
X2264460Y1327970D01*
X2263070Y1328600D01*
X2261680Y1328390D01*
X2260280Y1327560D01*
G01X2271900Y1321310D02*
X2272990Y1322770D01*
X2273920Y1323600D01*
X2275160Y1324020D01*
X2276250Y1323600D01*
X2277020Y1322770D01*
X2277640Y1321520D01*
X2277800Y1320060D01*
X2277640Y1318810D01*
X2277020Y1317560D01*
X2276090Y1316520D01*
X2275010Y1316100D01*
X2273770Y1316520D01*
X2272680Y1317770D01*
X2272060Y1319640D01*
X2271900Y1321720D01*
X2272210Y1324430D01*
X2272680Y1325890D01*
X2273450Y1327350D01*
X2274540Y1328390D01*
X2275620Y1328600D01*
X2276710Y1328180D01*
X2277490Y1327140D01*
G01X2287250Y1316100D02*
X2288330Y1316310D01*
X2289570Y1316930D01*
X2290350Y1317970D01*
X2290660Y1319430D01*
X2290350Y1320890D01*
X2289420Y1322140D01*
X2288020Y1322770D01*
X2286480D01*
X2285540Y1323180D01*
X2284770Y1324220D01*
X2284460Y1325680D01*
X2284930Y1327140D01*
X2286010Y1328180D01*
X2287250Y1328600D01*
X2288490Y1328180D01*
X2289570Y1327140D01*
X2290040Y1325680D01*
X2289730Y1324220D01*
X2288960Y1323180D01*
X2288020Y1322770D01*
X2286480D01*
X2285080Y1322140D01*
X2284150Y1320890D01*
X2283840Y1319430D01*
X2284150Y1317970D01*
X2284930Y1316930D01*
X2286170Y1316310D01*
X2287250Y1316100D01*
G01X2265240Y1346700D02*
X2266170Y1345240D01*
X2267410Y1344410D01*
X2268810Y1344200D01*
X2270050Y1344410D01*
X2271290Y1345450D01*
X2272060Y1346700D01*
X2272210Y1347950D01*
X2271910Y1349410D01*
X2270820Y1350450D01*
X2269730Y1350870D01*
X2268340D01*
G01X2269730D02*
X2270660Y1351490D01*
X2271440Y1352530D01*
X2271750Y1353780D01*
X2271440Y1355030D01*
X2270660Y1356070D01*
X2269270Y1356700D01*
X2267880Y1356490D01*
X2266480Y1355660D01*
G01X2278100Y1349410D02*
X2279190Y1350870D01*
X2280120Y1351700D01*
X2281360Y1352120D01*
X2282450Y1351700D01*
X2283220Y1350870D01*
X2283840Y1349620D01*
X2284000Y1348160D01*
X2283840Y1346910D01*
X2283220Y1345660D01*
X2282290Y1344620D01*
X2281210Y1344200D01*
X2279970Y1344620D01*
X2278880Y1345870D01*
X2278260Y1347740D01*
X2278100Y1349820D01*
X2278410Y1352530D01*
X2278880Y1353990D01*
X2279650Y1355450D01*
X2280740Y1356490D01*
X2281820Y1356700D01*
X2282910Y1356280D01*
X2283690Y1355240D01*
G01X2265240Y1374800D02*
X2266170Y1373340D01*
X2267410Y1372510D01*
X2268810Y1372300D01*
X2270050Y1372510D01*
X2271290Y1373550D01*
X2272060Y1374800D01*
X2272210Y1376050D01*
X2271910Y1377510D01*
X2270820Y1378550D01*
X2269730Y1378970D01*
X2268340D01*
G01X2269730D02*
X2270660Y1379590D01*
X2271440Y1380630D01*
X2271750Y1381880D01*
X2271440Y1383130D01*
X2270660Y1384170D01*
X2269270Y1384800D01*
X2267880Y1384590D01*
X2266480Y1383760D01*
G01X2277640Y1374170D02*
X2278570Y1373130D01*
X2279650Y1372510D01*
X2281050Y1372300D01*
X2282450Y1372720D01*
X2283530Y1373550D01*
X2284310Y1375010D01*
X2284460Y1376670D01*
X2284150Y1378340D01*
X2283370Y1379380D01*
X2282290Y1380220D01*
X2281210Y1380420D01*
X2280120Y1380220D01*
X2278730Y1379380D01*
X2279190Y1384800D01*
X2283370D01*
G01X2265700Y1405610D02*
X2266790Y1407070D01*
X2267720Y1407900D01*
X2268960Y1408320D01*
X2270050Y1407900D01*
X2270820Y1407070D01*
X2271440Y1405820D01*
X2271600Y1404360D01*
X2271440Y1403110D01*
X2270820Y1401860D01*
X2269890Y1400820D01*
X2268810Y1400400D01*
X2267570Y1400820D01*
X2266480Y1402070D01*
X2265860Y1403940D01*
X2265700Y1406020D01*
X2266010Y1408730D01*
X2266480Y1410190D01*
X2267250Y1411650D01*
X2268340Y1412690D01*
X2269420Y1412900D01*
X2270510Y1412480D01*
X2271290Y1411440D01*
G01X2282910Y1400400D02*
Y1412900D01*
X2277170Y1403940D01*
X2284930D01*
G01X2256250Y1428500D02*
Y1441000D01*
X2254390Y1438500D01*
G01Y1428500D02*
X2258110D01*
G01X2268650D02*
Y1441000D01*
X2266790Y1438500D01*
G01Y1428500D02*
X2270510D01*
G01X2277640Y1431000D02*
X2278570Y1429540D01*
X2279810Y1428710D01*
X2281210Y1428500D01*
X2282450Y1428710D01*
X2283690Y1429750D01*
X2284460Y1431000D01*
X2284610Y1432250D01*
X2284310Y1433710D01*
X2283220Y1434750D01*
X2282130Y1435170D01*
X2280740D01*
G01X2282130D02*
X2283060Y1435790D01*
X2283840Y1436830D01*
X2284150Y1438080D01*
X2283840Y1439330D01*
X2283060Y1440370D01*
X2281670Y1441000D01*
X2280280Y1440790D01*
X2278880Y1439960D01*
G01X2290040Y1431000D02*
X2290970Y1429540D01*
X2292210Y1428710D01*
X2293610Y1428500D01*
X2294850Y1428710D01*
X2296090Y1429750D01*
X2296860Y1431000D01*
X2297010Y1432250D01*
X2296710Y1433710D01*
X2295620Y1434750D01*
X2294530Y1435170D01*
X2293140D01*
G01X2294530D02*
X2295460Y1435790D01*
X2296240Y1436830D01*
X2296550Y1438080D01*
X2296240Y1439330D01*
X2295460Y1440370D01*
X2294070Y1441000D01*
X2292680Y1440790D01*
X2291280Y1439960D01*
G01X2262450Y1458150D02*
X2261210Y1458360D01*
X2260130Y1459190D01*
X2259190Y1460440D01*
X2258570Y1461900D01*
X2258260Y1463570D01*
Y1465230D01*
X2258570Y1466900D01*
X2259190Y1468360D01*
X2260130Y1469610D01*
X2261210Y1470440D01*
X2262450Y1470650D01*
X2263690Y1470440D01*
X2264770Y1469610D01*
X2265710Y1468360D01*
X2266330Y1466900D01*
X2266640Y1465230D01*
Y1463570D01*
X2266330Y1461900D01*
X2265710Y1460440D01*
X2264770Y1459190D01*
X2263690Y1458360D01*
X2262450Y1458150D01*
G01X2263690Y1461480D02*
X2265550Y1458150D01*
G01X2274850Y1470650D02*
Y1458150D01*
G01X2271290Y1470650D02*
X2278410D01*
G01X2287250Y1458150D02*
Y1463770D01*
X2284150Y1470650D01*
G01X2290350D02*
X2287250Y1463770D01*
G01X2276710Y1091300D02*
Y1103800D01*
X2270970Y1094840D01*
X2278730D01*
G01X2271900Y1129820D02*
X2272840Y1131070D01*
X2273920Y1131690D01*
X2275160Y1131900D01*
X2276710Y1131480D01*
X2277800Y1130440D01*
X2278110Y1129190D01*
X2277950Y1127940D01*
X2277330Y1126900D01*
X2274230Y1124820D01*
X2272840Y1123360D01*
X2271900Y1121270D01*
X2271590Y1119400D01*
X2278110D01*
G01X2271900Y1157920D02*
X2272840Y1159170D01*
X2273920Y1159790D01*
X2275160Y1160000D01*
X2276710Y1159580D01*
X2277800Y1158540D01*
X2278110Y1157290D01*
X2277950Y1156040D01*
X2277330Y1155000D01*
X2274230Y1152920D01*
X2272840Y1151460D01*
X2271900Y1149370D01*
X2271590Y1147500D01*
X2278110D01*
G01X2271900Y1186020D02*
X2272840Y1187270D01*
X2273920Y1187890D01*
X2275160Y1188100D01*
X2276710Y1187680D01*
X2277800Y1186640D01*
X2278110Y1185390D01*
X2277950Y1184140D01*
X2277330Y1183100D01*
X2274230Y1181020D01*
X2272840Y1179560D01*
X2271900Y1177470D01*
X2271590Y1175600D01*
X2278110D01*
G01X2271900Y1214120D02*
X2272840Y1215370D01*
X2273920Y1215990D01*
X2275160Y1216200D01*
X2276710Y1215780D01*
X2277800Y1214740D01*
X2278110Y1213490D01*
X2277950Y1212240D01*
X2277330Y1211200D01*
X2274230Y1209120D01*
X2272840Y1207660D01*
X2271900Y1205570D01*
X2271590Y1203700D01*
X2278110D01*
G01X2271900Y1237010D02*
X2272990Y1238470D01*
X2273920Y1239300D01*
X2275160Y1239720D01*
X2276250Y1239300D01*
X2277020Y1238470D01*
X2277640Y1237220D01*
X2277800Y1235760D01*
X2277640Y1234510D01*
X2277020Y1233260D01*
X2276090Y1232220D01*
X2275010Y1231800D01*
X2273770Y1232220D01*
X2272680Y1233470D01*
X2272060Y1235340D01*
X2271900Y1237420D01*
X2272210Y1240130D01*
X2272680Y1241590D01*
X2273450Y1243050D01*
X2274540Y1244090D01*
X2275620Y1244300D01*
X2276710Y1243880D01*
X2277490Y1242840D01*
G01X2276710Y1259900D02*
Y1272400D01*
X2270970Y1263440D01*
X2278730D01*
G54D14*
X204950Y432200D03*
X214950D03*
X224950D03*
X282550Y432400D03*
X302550D03*
X292550D03*
X1874950Y1238050D03*
G54D15*
X214950Y489700D03*
X292550Y489900D03*
X1874950Y1209950D03*
G54D16*
X240000Y355000D03*
Y395000D03*
X297500Y355000D03*
Y395000D03*
X335000Y355000D03*
Y395000D03*
X395000Y355000D03*
Y395000D03*
X450000Y355000D03*
Y395000D03*
X1874950Y1294250D03*
G54D17*
X236250Y673750D03*
X396250D03*
X1874950Y1125650D03*
G54D18*
X500000Y870000D03*
Y1103000D03*
X1245000Y870000D03*
Y1106000D03*
X1874950Y1097550D03*
G54D19*
X597500Y1322500D03*
Y1312500D03*
Y1317500D03*
X1160000Y1214000D03*
Y1250000D03*
X1157500Y1361500D03*
Y1397500D03*
X1182500Y1214000D03*
Y1250000D03*
X1180000Y1361500D03*
Y1397500D03*
X1287500Y1214000D03*
Y1250000D03*
X1282500Y1361500D03*
Y1397500D03*
X1310000Y1214000D03*
Y1250000D03*
X1305000Y1361500D03*
Y1397500D03*
X1415000Y1214000D03*
Y1250000D03*
X1412500Y1361500D03*
Y1397500D03*
X1437500Y1214000D03*
Y1250000D03*
X1435000Y1360000D03*
Y1396000D03*
X1542500Y1216500D03*
Y1252500D03*
X1540000Y1361500D03*
Y1397500D03*
X1565000Y1216500D03*
Y1252500D03*
X1562500Y1361500D03*
Y1397500D03*
X1874950Y1378550D03*
M02*
