G04 ================== begin FILE IDENTIFICATION RECORD ==================*
G04 Layout Name:  TubiiPCB_V6.brd*
G04 Film Name:    GND_BOT_test*
G04 File Format:  Gerber RS274X*
G04 File Origin:  Cadence Allegro 16.6-P004*
G04 Origin Date:  Thu May 21 14:55:10 2015*
G04 *
G04 Layer:  ETCH/GND_BOT*
G04 Layer:  PIN/GND_BOT*
G04 Layer:  VIA CLASS/GND_BOT*
G04 *
G04 Offset:    (0.0 0.0)*
G04 Mirror:    No*
G04 Mode:      Positive*
G04 Rotation:  0*
G04 FullContactRelief:  No*
G04 UndefLineWidth:     1.0*
G04 ================== end FILE IDENTIFICATION RECORD ====================*
%FSLAX55Y55*MOIN*%
%IR0*IPPOS*OFA0.00000B0.00000*MIA0B0*SFA1.00000B1.00000*%
%ADD15C,.15*%
%ADD16C,.109*%
%ADD17C,.03*%
%ADD18C,.04*%
%ADD10C,.05*%
%ADD12C,.024*%
%ADD20C,.07*%
%ADD11C,.055*%
%ADD14C,.065*%
%ADD13C,.0354*%
%ADD19R,.055X.055*%
%ADD21C,.007*%
%ADD28C,.1664*%
%ADD29R,.2002X.2002*%
%ADD23R,.4002X.4002*%
%ADD36R,.28X.23*%
%ADD30R,.2502X.2502*%
%ADD26C,.0404*%
%ADD33C,.0504*%
%ADD25C,.0344*%
%ADD35C,.0804*%
%ADD31C,.0644*%
%ADD24C,.0654*%
%ADD27C,.0754*%
%ADD32C,.0494*%
%ADD22C,.0458*%
%ADD34R,.0652X.0652*%
G75*
%LPD*%
G75*
G36*
G01X80010Y260000D02*
Y1579990D01*
X1599990D01*
Y260000D01*
X80010D01*
G37*
%LPC*%
G75*
G36*
G01X1531700Y1429070D02*
Y1406070D01*
X1503700D01*
Y1420960D01*
G03X1503090Y1421300I-400J0D01*
G02Y1424700I-1090J1700D01*
G03X1503700Y1425040I210J340D01*
G01Y1429070D01*
X1531700D01*
G37*
G36*
G01X1149000Y1429000D02*
Y1406000D01*
X1121000D01*
Y1420460D01*
G03X1120390Y1420800I-400J0D01*
G02Y1424200I-1090J1700D01*
G03X1121000Y1424540I210J340D01*
G01Y1429000D01*
X1149000D01*
G37*
G36*
G01X1403820Y1428850D02*
Y1405850D01*
X1375820D01*
Y1422040D01*
G03X1375190Y1422360I-398J-3D01*
G02Y1425640I-1190J1640D01*
G03X1375820Y1425960I232J323D01*
G01Y1428850D01*
X1403820D01*
G37*
G36*
G01X1273940D02*
Y1405850D01*
X1245940D01*
Y1420460D01*
G03X1245330Y1420800I-400J0D01*
G02Y1424200I-1090J1700D01*
G03X1245940Y1424540I210J340D01*
G01Y1428850D01*
X1273940D01*
G37*
G36*
G01X318890Y878880D02*
G03X319470I290J270D01*
G02Y876120I1480J-1380D01*
G03X318890I-290J-270D01*
G02Y878880I-1480J1380D01*
G37*
G36*
G01X345290Y863020D02*
G03X344710I-290J-270D01*
G02Y865780I-1480J1380D01*
G03X345290I290J270D01*
G02Y863020I1480J-1380D01*
G37*
G36*
G01X1188880Y810790D02*
G03Y810210I270J-290D01*
G02X1186120I-1380J-1480D01*
G03Y810790I-270J290D01*
G02X1188880I1380J1480D01*
G37*
G36*
G01X1052790Y803620D02*
G03X1052210I-290J-270D01*
G02Y806380I-1480J1380D01*
G03X1052790I290J270D01*
G02Y803620I1480J-1380D01*
G37*
G36*
G01X1188290Y793870D02*
G03X1187710I-290J-270D01*
G02Y796630I-1480J1380D01*
G03X1188290I290J270D01*
G02Y793870I1480J-1380D01*
G37*
G36*
G01X1068520Y783620D02*
G03X1067940I-290J-270D01*
G02Y786380I-1480J1380D01*
G03X1068520I290J270D01*
G02Y783620I1480J-1380D01*
G37*
G36*
G01X1166380Y778290D02*
G03Y777710I270J-290D01*
G02X1163620I-1380J-1480D01*
G03Y778290I-270J290D01*
G02X1166380I1380J1480D01*
G37*
G36*
G01X1259790Y766120D02*
G03X1259210I-290J-270D01*
G02Y768880I-1480J1380D01*
G03X1259790I290J270D01*
G02Y766120I1480J-1380D01*
G37*
G36*
G01X1422050Y742980D02*
G03Y742400I270J-290D01*
G02X1419290I-1380J-1480D01*
G03Y742980I-270J290D01*
G02X1422050I1380J1480D01*
G37*
G36*
G01X1339180Y720980D02*
G03Y720400I270J-290D01*
G02X1336420I-1380J-1480D01*
G03Y720980I-270J290D01*
G02X1339180I1380J1480D01*
G37*
G36*
G01X1530090Y708620D02*
G03X1529510I-290J-270D01*
G02Y711380I-1480J1380D01*
G03X1530090I290J270D01*
G02Y708620I1480J-1380D01*
G37*
G36*
G01X1196380Y710790D02*
G03Y710210I270J-290D01*
G02X1193620I-1380J-1480D01*
G03Y710790I-270J290D01*
G02X1196380I1380J1480D01*
G37*
G36*
G01X1332290Y706120D02*
G03X1331710I-290J-270D01*
G02Y708880I-1480J1380D01*
G03X1332290I290J270D01*
G02Y706120I1480J-1380D01*
G37*
G36*
G01X1207290Y678620D02*
G03X1206710I-290J-270D01*
G02Y681380I-1480J1380D01*
G03X1207290I290J270D01*
G02Y678620I1480J-1380D01*
G37*
G36*
G01X1364180Y681210D02*
G03Y680630I270J-290D01*
G02X1361420I-1380J-1480D01*
G03Y681210I-270J290D01*
G02X1364180I1380J1480D01*
G37*
G36*
G01X1414980Y630700D02*
G03X1414520Y630280I-60J-396D01*
G02X1412890Y631910I-1720J-90D01*
G03X1413310Y632370I24J400D01*
G02X1414980Y630700I1990J320D01*
G37*
G36*
G01X1153870Y471700D02*
G03X1153290I-290J-270D01*
G02Y474460I-1480J1380D01*
G03X1153870I290J270D01*
G02Y471700I1480J-1380D01*
G37*
G36*
G01X1366230Y465680D02*
G03X1365650I-290J-270D01*
G02Y468440I-1480J1380D01*
G03X1366230I290J270D01*
G02Y465680I1480J-1380D01*
G37*
G36*
G01X1055400Y443540D02*
G03X1054840I-280J-291D01*
G02Y446460I-1390J1460D01*
G03X1055400I280J291D01*
G02Y443540I1390J-1460D01*
G37*
G36*
G01X1052290Y433620D02*
G03X1051710I-290J-270D01*
G02Y436380I-1480J1380D01*
G03X1052290I290J270D01*
G02Y433620I1480J-1380D01*
G37*
G36*
G01X1534130Y1261200D02*
X1506130D01*
Y1277310D01*
G03X1505440Y1277590I-401J1D01*
G02Y1280410I-1440J1410D01*
G03X1506130Y1280690I289J279D01*
G01Y1284200D01*
X1534130D01*
Y1261200D01*
G37*
G36*
G01X1406240Y1258460D02*
X1378240D01*
Y1275430D01*
G03X1377540Y1275690I-399J-2D01*
G02Y1278310I-1540J1310D01*
G03X1378240Y1278570I301J262D01*
G01Y1281460D01*
X1406240D01*
Y1258460D01*
G37*
G36*
G01X1279100D02*
X1251100D01*
Y1275280D01*
G03X1250420Y1275560I-399J-3D01*
G02Y1278440I-1420J1440D01*
G03X1251100Y1278720I281J283D01*
G01Y1281460D01*
X1279100D01*
Y1258460D01*
G37*
G36*
G01X1133660Y474010D02*
G02X1133000Y472240I1342J-1508D01*
G03X1132340Y472490I-398J-53D01*
G02X1133000Y474260I-1342J1508D01*
G03X1133660Y474010I398J53D01*
G37*
G54D28*
X214950Y489700D03*
X292550Y489900D03*
G54D29*
X236250Y673750D03*
X396250D03*
G54D23*
X105000Y305000D03*
Y781500D03*
Y1135000D03*
Y1555000D03*
X565000Y305000D03*
Y1555000D03*
X1125000Y305000D03*
Y1555000D03*
X1575000Y305000D03*
Y715000D03*
Y1135000D03*
Y1555000D03*
G54D36*
X1144940Y1324740D03*
X1137420Y1270110D03*
X1147550Y1177500D03*
X1270150Y1324780D03*
X1275110Y1177600D03*
X1402660Y1177500D03*
X1400150Y1325310D03*
X1527510Y1325100D03*
X1529830Y1179930D03*
G54D30*
X500000Y870000D03*
Y1103000D03*
X1245000Y870000D03*
Y1106000D03*
G54D26*
X115000Y1050000D03*
X105000Y1197500D03*
X115000Y1200000D03*
X120000Y1290000D03*
X125000Y1300000D03*
X115000D03*
Y1365000D03*
Y1375000D03*
X152500Y877500D03*
Y1037500D03*
X130000Y1022500D03*
Y1055000D03*
X145000D03*
Y1082500D03*
Y1192500D03*
X150000Y1187500D03*
X140000Y1227500D03*
X147500Y1237500D03*
X147600Y1267600D03*
X152500Y1262500D03*
X140000Y1305000D03*
X147500Y1310000D03*
X132500Y1365000D03*
Y1375000D03*
X172500Y912500D03*
Y919640D03*
X160000Y942500D03*
Y920000D03*
X170000Y997500D03*
X165000Y1067500D03*
X170000Y1157500D03*
X160000Y1235000D03*
X165000Y1297500D03*
X166000Y1284000D03*
X172500Y1310000D03*
X180100Y1449900D03*
X167500Y1455000D03*
X177500Y1437500D03*
X195000Y870000D03*
X187000Y893000D03*
X190000Y915000D03*
Y897500D03*
X205000Y912500D03*
X190000Y967500D03*
X205000Y950000D03*
X185000D03*
X190000Y982500D03*
X202500Y997500D03*
X205000Y1020000D03*
X200000Y1072500D03*
X185000Y1052500D03*
X200000Y1090000D03*
X205000Y1107500D03*
X185000Y1217500D03*
X197500Y1232500D03*
X192500Y1245000D03*
X185000Y1362500D03*
Y1407500D03*
X205000Y1440000D03*
X187500Y1445000D03*
X192500Y1450000D03*
X217500Y827500D03*
X225000Y882500D03*
X220000Y917500D03*
X227500Y940000D03*
X220000Y965000D03*
X230000Y952500D03*
X210000Y957500D03*
X222500Y987500D03*
X230000Y1020000D03*
X225000Y997500D03*
X215000Y1025000D03*
X225000Y1067500D03*
X207500Y1187500D03*
Y1227500D03*
X227500Y1290000D03*
Y1277500D03*
X217500Y1290000D03*
Y1277500D03*
X215000Y1375000D03*
X227500Y1392500D03*
X217500Y1395000D03*
X207500Y1425000D03*
X222500Y1412500D03*
X217500Y1437500D03*
X210000Y1445000D03*
X227500Y1435000D03*
X237000Y879000D03*
X255000Y907500D03*
X240000Y922500D03*
X247500Y975000D03*
Y983250D03*
X252500Y1002500D03*
X241440Y998940D03*
X247500Y1077500D03*
X245000Y1117500D03*
X255000Y1435000D03*
X276000Y727000D03*
X263000Y777000D03*
X270000Y892500D03*
X277500Y907500D03*
X278560Y933560D03*
X262500Y947500D03*
X272500Y952500D03*
X277500Y992500D03*
X262500Y980000D03*
X277500Y1010000D03*
X265000Y1017500D03*
X262500Y1010000D03*
X267500Y1070000D03*
X272500D03*
X270000Y1055000D03*
X272500Y1117500D03*
X257500D03*
X270000Y1347500D03*
X260000Y1370000D03*
X270000Y1397500D03*
X307500Y737500D03*
X300000Y870000D03*
X285000Y892500D03*
Y930000D03*
X292500Y1122500D03*
X300000Y1115000D03*
X285000Y1425000D03*
X325000Y600000D03*
X312500Y737500D03*
Y757500D03*
X325000Y760000D03*
X322500Y822500D03*
X332500D03*
X315000Y855000D03*
X327500Y937500D03*
X317500D03*
Y980000D03*
Y1025000D03*
X327500Y1105000D03*
X320000Y1187500D03*
X312500Y1330000D03*
X330000Y1445000D03*
X340000Y460000D03*
Y440000D03*
Y480000D03*
X351560Y540440D03*
X342500Y588500D03*
X337500Y837500D03*
X357500Y880000D03*
X337500Y927500D03*
X357500Y967500D03*
X337500D03*
X357500Y982500D03*
Y972500D03*
X347600Y1094900D03*
X335000Y1112500D03*
X352500Y1295000D03*
Y1307500D03*
X350000Y1340000D03*
X355000Y1387500D03*
X340000Y1425000D03*
X337500Y1460000D03*
X382500Y850000D03*
Y892500D03*
X374500Y873000D03*
X362500Y895000D03*
X377500Y930000D03*
X360000Y937500D03*
X373940Y947500D03*
X372500Y982500D03*
Y972500D03*
X382500Y1287500D03*
X377500Y1350000D03*
X362500D03*
X365000Y1340000D03*
X375000Y1330000D03*
X380000Y1372500D03*
X375000Y1377500D03*
Y1426000D03*
X360000Y1447500D03*
Y1430000D03*
X370000D03*
Y1447500D03*
X381000Y1436000D03*
X395000Y460000D03*
X396000Y442500D03*
X395000Y480000D03*
Y862500D03*
X385000Y905000D03*
Y995000D03*
X387500Y1072500D03*
X407500Y1290000D03*
X389500Y1323000D03*
X395000Y1335000D03*
Y1330000D03*
X405000Y1362500D03*
Y1392500D03*
X387500Y1382500D03*
X397500Y1450000D03*
X387500Y1460000D03*
X431060Y436560D03*
X412000Y760000D03*
X417500Y905000D03*
X427500Y1162500D03*
X412500Y1292500D03*
Y1345000D03*
X415000Y1362500D03*
X427500Y1397500D03*
X432500Y1417500D03*
X430000Y1575000D03*
Y1560000D03*
X460000Y770000D03*
X450000Y815000D03*
X440000Y910000D03*
X450000Y915000D03*
X442500Y1362500D03*
X457500Y1405000D03*
X477500Y815000D03*
X484000D03*
X499790Y535150D03*
Y585150D03*
X510250Y1137750D03*
X531000Y480000D03*
X535000Y725000D03*
X525000Y737500D03*
X530000Y732500D03*
X517500Y742500D03*
X525000Y810000D03*
X520000D03*
X530000D03*
X527500Y1097500D03*
X522940Y1154060D03*
X517060Y1175060D03*
X537500Y445000D03*
X544620Y467460D03*
X562630D03*
X547500Y477500D03*
X548920Y462460D03*
X557500Y502500D03*
X537500Y810000D03*
Y922500D03*
X542500Y1385000D03*
X560000Y1389000D03*
X554700Y1445000D03*
X562500D03*
X587500Y445000D03*
X572120Y438070D03*
X580000Y466000D03*
X567370Y477460D03*
X587500Y495000D03*
X565000Y737500D03*
X582500D03*
X587500Y862500D03*
Y847500D03*
X567500Y867500D03*
X582500Y845000D03*
X587500Y950000D03*
X585000Y970000D03*
X587060Y1118060D03*
X587500Y1352500D03*
X580000Y1395000D03*
X565000Y1389000D03*
X585000Y1412500D03*
X572500Y1445000D03*
X607370Y451060D03*
X599000Y481000D03*
X597510Y466570D03*
X595000Y476000D03*
X598000Y495000D03*
X605000Y740000D03*
X590000Y737500D03*
X597500D03*
X602500Y842500D03*
X610000D03*
X597500Y862500D03*
Y847500D03*
X595000Y955000D03*
X597500Y992500D03*
X594800Y1144800D03*
X603000Y1170000D03*
X602500Y1182500D03*
X602000Y1205000D03*
X612500Y1285000D03*
X597500Y1322500D03*
Y1312500D03*
Y1317500D03*
X612500Y1352500D03*
X630000Y482500D03*
X639000Y509000D03*
X617500Y920000D03*
X637500Y937500D03*
Y932500D03*
X617500Y1310000D03*
X633000Y1352000D03*
X615000Y1402500D03*
X657500Y445000D03*
Y937500D03*
Y925000D03*
X645000Y920000D03*
X654800Y1139800D03*
X655000Y1245000D03*
X647500Y1320000D03*
X645000Y1352500D03*
X640000Y1350000D03*
X657500Y1370000D03*
X650000Y1402500D03*
X645000Y1382500D03*
X675000Y910000D03*
X682500Y915000D03*
X667500Y937500D03*
Y925000D03*
X678000Y1168000D03*
Y1193000D03*
Y1205000D03*
X665000Y1312500D03*
X670000Y1327500D03*
X685000Y1302500D03*
X682500Y1322500D03*
X672500Y1317500D03*
Y1307500D03*
X685000Y1367500D03*
X670000Y1365000D03*
X665000Y1367500D03*
Y1402500D03*
Y1382500D03*
X672500Y1420000D03*
Y1435000D03*
X715000Y407500D03*
X707500Y937500D03*
X695000Y1272500D03*
Y1300000D03*
X719000Y678000D03*
X720000Y672000D03*
X719000Y707000D03*
X717500Y740000D03*
X732500Y1022500D03*
X737500Y1332500D03*
X745000Y690000D03*
X747500Y670000D03*
Y680000D03*
Y685000D03*
Y665000D03*
X745000Y695000D03*
Y702500D03*
X742500Y742500D03*
X745000Y880000D03*
X760000Y1405000D03*
X767500Y405000D03*
X777500Y637500D03*
X775000Y645000D03*
X786000Y673000D03*
X769000Y708000D03*
X779000Y709000D03*
X782500Y1310000D03*
X787890Y1402500D03*
X770000Y1390000D03*
X805000Y458000D03*
X810000Y490000D03*
X801060Y500060D03*
X805000Y530000D03*
X811000Y560000D03*
X802500Y730000D03*
X817500D03*
X805000Y883000D03*
X807500Y1045000D03*
X805000Y1152500D03*
X817500Y1160000D03*
X805000Y1300000D03*
X795000D03*
X805000Y1315000D03*
X795000D03*
X792500Y1367500D03*
X810000Y1402500D03*
X805000Y1395000D03*
X842000Y374000D03*
X832500Y435000D03*
X840000Y425000D03*
X825000Y427500D03*
X832700Y440200D03*
X838560Y481000D03*
X820000Y650000D03*
X832500Y730000D03*
X835000Y842500D03*
X837500Y847500D03*
X842500Y1127500D03*
X832500Y1155000D03*
X822500Y1150000D03*
X830100Y1394900D03*
X843940Y391060D03*
X847300Y440200D03*
X847500Y522500D03*
Y517500D03*
X865000D03*
X850000Y715000D03*
X860000Y885000D03*
X865000Y892500D03*
X855000Y897500D03*
X860000Y1050000D03*
X855000Y1102500D03*
X852500Y1140000D03*
X857500Y1142500D03*
X860000Y1147500D03*
X855000Y1152500D03*
X847500Y1155000D03*
X882500Y440000D03*
X880000Y493000D03*
X870000Y520000D03*
X880000Y515000D03*
X872000Y560000D03*
X891000Y706500D03*
X880000Y892500D03*
X887500Y882500D03*
X870000Y900000D03*
X875000Y895000D03*
X883000Y1113000D03*
X887500Y1140000D03*
Y1145000D03*
Y1150000D03*
Y1155000D03*
X869000D03*
X870000Y1160000D03*
X895000Y440000D03*
X907560Y486000D03*
X907500Y514000D03*
X897000Y560000D03*
X895000Y671000D03*
X898000Y677000D03*
X897000Y882000D03*
X917500Y992500D03*
Y1122500D03*
Y1160000D03*
X933560Y377440D03*
X941440Y393440D03*
X940000Y432500D03*
X942500Y425000D03*
X935200Y437300D03*
X936440Y480440D03*
X941500Y709000D03*
X920000Y1478000D03*
Y1557500D03*
X950000Y471000D03*
X947500Y525000D03*
X962500D03*
X947500Y515000D03*
X962500D03*
X963000Y560000D03*
X953000Y677000D03*
X960000Y900000D03*
X970000D03*
Y932500D03*
X956000Y1285000D03*
X962500Y1555000D03*
Y1532500D03*
X982500Y440000D03*
X972500Y489000D03*
Y513000D03*
Y672500D03*
X975000Y950000D03*
X995000Y1285000D03*
X1012500Y1005000D03*
X1000000Y1137500D03*
X1019390Y1365000D03*
X1000000Y1452500D03*
Y1555000D03*
X1032500Y445000D03*
X1025000Y485000D03*
X1030000Y470000D03*
Y465000D03*
X1027500Y987500D03*
X1045000Y992500D03*
X1042500Y1130000D03*
Y1157500D03*
X1030000Y1272000D03*
X1027500Y1257500D03*
X1025000Y1302500D03*
X1044750Y1354750D03*
X1027500Y1495000D03*
X1065000Y480000D03*
Y465000D03*
X1060000Y487500D03*
X1050000Y498000D03*
X1067500Y632500D03*
Y625000D03*
X1070000Y1030000D03*
X1072500Y1040000D03*
X1047500Y1285000D03*
X1057400Y1347400D03*
X1055000Y1415000D03*
X1070000Y1432500D03*
X1077500Y442500D03*
X1080000Y461000D03*
X1083000Y457000D03*
X1080000Y481000D03*
X1095000Y475000D03*
Y495000D03*
X1080000Y490000D03*
X1092500Y517500D03*
X1087000Y977000D03*
X1077500Y1045000D03*
X1082500Y1050000D03*
X1080000Y1115000D03*
X1092500Y1172500D03*
X1090000Y1320000D03*
X1095000Y1500000D03*
X1101000Y470000D03*
X1114560Y499560D03*
X1110000Y495000D03*
X1101060Y512500D03*
X1100000Y807500D03*
X1107500Y980000D03*
X1117500Y1085000D03*
X1120000Y1080000D03*
X1104900Y1129900D03*
X1121000Y1276000D03*
X1102500Y1290000D03*
X1137500Y445000D03*
X1130200Y484800D03*
X1128940Y512500D03*
X1138560Y686060D03*
X1142500Y737500D03*
Y755000D03*
X1137500Y945000D03*
X1132500Y1077500D03*
X1140000Y1135000D03*
X1137690Y1152000D03*
X1131190Y1242000D03*
X1142500Y1290000D03*
X1129000Y1309000D03*
X1128190Y1389000D03*
X1140000Y1451000D03*
X1142500Y1440000D03*
X1132500Y1480000D03*
X1127500Y1485000D03*
X1165000Y452500D03*
Y497500D03*
X1166060Y668560D03*
X1162500Y685000D03*
X1150000Y737500D03*
X1172500D03*
X1157500D03*
X1152500Y755000D03*
X1167500Y767500D03*
X1166000Y808000D03*
X1152500Y850000D03*
X1167500Y915000D03*
X1157500Y900000D03*
X1162500Y940000D03*
X1160000Y1132500D03*
X1169000Y1178000D03*
X1160000Y1260000D03*
X1159500Y1271000D03*
X1157500Y1407500D03*
X1163000Y1413000D03*
X1150000Y1477500D03*
X1165000Y1492500D03*
X1182500Y602500D03*
Y622500D03*
X1177500Y662500D03*
X1182500Y735000D03*
X1197500Y722500D03*
X1192500Y780000D03*
X1183000Y823000D03*
X1177500Y885000D03*
X1197500Y942500D03*
X1185000Y922500D03*
X1177500D03*
X1185000Y970000D03*
X1177000Y1327000D03*
X1195000Y1425000D03*
X1223220Y551380D03*
X1203220Y548880D03*
X1218220Y538880D03*
X1205720Y566380D03*
X1205620Y581280D03*
X1205000Y660000D03*
X1220000Y675000D03*
X1225000Y695000D03*
Y707500D03*
X1210000Y782500D03*
Y1117500D03*
X1220000Y1172500D03*
X1215000Y1320000D03*
X1207000Y1425000D03*
X1228220Y548880D03*
X1250000Y660000D03*
X1230000Y712500D03*
X1242500Y692500D03*
X1250000Y715000D03*
Y1296000D03*
X1250250Y1390000D03*
X1227500Y1520000D03*
X1274000Y404000D03*
X1273220Y513880D03*
X1260000Y540000D03*
X1258220Y586380D03*
X1262500Y620000D03*
X1267500Y622500D03*
X1274900Y672600D03*
X1267500Y692500D03*
Y720000D03*
X1264000Y1150000D03*
X1255250Y1245000D03*
X1270000Y1292500D03*
X1259690Y1299000D03*
X1267500Y1437500D03*
Y1432500D03*
X1300720Y341380D03*
X1290000Y417500D03*
X1295000Y497860D03*
X1287500Y540000D03*
X1300720Y541380D03*
X1297280Y581280D03*
X1284280Y579940D03*
X1282500Y570000D03*
X1278220Y606380D03*
X1292190Y635190D03*
X1278220Y621380D03*
X1287800Y655200D03*
X1292800Y732690D03*
X1285300Y760190D03*
Y745190D03*
X1292800Y940190D03*
X1298000Y1180000D03*
X1287500Y1260000D03*
X1290000Y1271000D03*
X1302000Y1334560D03*
X1282500Y1407500D03*
X1286000Y1418000D03*
X1308220Y491380D03*
X1305000Y525000D03*
X1313720Y554380D03*
X1315720Y626380D03*
X1307800Y655190D03*
X1315300Y830190D03*
X1327500Y825000D03*
X1317800Y880190D03*
Y897690D03*
X1320300Y990190D03*
X1338220Y476380D03*
X1328220D03*
X1338220Y491380D03*
X1328220D03*
X1343220Y531380D03*
X1328220Y528880D03*
X1330000Y540000D03*
X1333000Y579000D03*
X1338000Y578000D03*
X1335720Y623880D03*
X1330300Y665190D03*
X1335300Y675190D03*
Y820190D03*
X1347500Y830000D03*
X1327800Y880190D03*
Y897690D03*
X1347500Y1172500D03*
X1350000Y1294000D03*
X1345000Y1320000D03*
X1340000Y1422500D03*
X1372500Y520000D03*
X1355880Y578880D03*
X1370300Y662300D03*
X1360300Y655190D03*
X1370300Y707690D03*
X1375300Y740080D03*
X1362800Y725190D03*
X1365300Y765190D03*
Y777690D03*
X1355300Y845190D03*
X1377000Y1250000D03*
X1374190Y1399000D03*
X1393000Y476000D03*
X1390940Y463060D03*
X1395000Y552500D03*
X1402800Y580190D03*
Y597690D03*
Y635190D03*
X1395300Y685190D03*
X1382800Y710190D03*
Y700190D03*
X1390300Y730190D03*
X1395300Y817690D03*
X1385300Y842690D03*
X1395300Y832690D03*
X1392750Y1150000D03*
X1402500Y1290000D03*
X1390250Y1299000D03*
X1395000Y1447500D03*
Y1432500D03*
X1417000Y535000D03*
X1412800Y577690D03*
Y597690D03*
X1428860Y629140D03*
X1425300Y647690D03*
X1412800Y682690D03*
X1417800Y670190D03*
X1412800Y667690D03*
X1425300Y687690D03*
X1410300Y707690D03*
X1405300Y815190D03*
X1422690Y825190D03*
X1405300Y832690D03*
X1427000Y1179000D03*
X1415000Y1260000D03*
Y1270000D03*
X1420000Y1326000D03*
X1412500Y1407500D03*
X1418000Y1419000D03*
X1453300Y525190D03*
X1445000Y525000D03*
X1437800Y655190D03*
X1440300Y682690D03*
X1445300Y702690D03*
X1440300Y695190D03*
X1435300Y717690D03*
X1447500Y717500D03*
X1435300Y762690D03*
X1447500Y1437500D03*
X1445000Y1495000D03*
X1478300Y565190D03*
X1473300D03*
X1470300Y595190D03*
X1455300Y627500D03*
X1462800Y660190D03*
X1477800Y687690D03*
X1465300Y680190D03*
X1462800Y667690D03*
X1470300Y665190D03*
X1480300Y677690D03*
X1465300Y688050D03*
Y672690D03*
X1455300Y717690D03*
X1475000Y1175000D03*
Y1287500D03*
X1472500Y1320000D03*
X1495800Y532690D03*
X1505300Y580000D03*
Y610190D03*
Y600190D03*
X1482800Y642690D03*
X1497800Y752690D03*
X1495300Y767690D03*
Y782690D03*
X1520300Y610190D03*
Y600190D03*
X1527800Y735190D03*
Y782690D03*
X1530000Y1155000D03*
X1511000Y1248000D03*
X1529210Y1295160D03*
X1511000Y1305000D03*
X1512690Y1390000D03*
X1553000Y1181000D03*
X1542500Y1262500D03*
X1542000Y1273000D03*
X1552500Y1325000D03*
X1540000Y1407500D03*
X1547500Y1427500D03*
X1092500Y510000D03*
X1095000Y505000D03*
G54D33*
X1092500Y1157500D03*
Y1167500D03*
Y1217500D03*
Y1227500D03*
X1090000Y1305000D03*
Y1315000D03*
Y1365000D03*
Y1375000D03*
X1102500Y1157500D03*
Y1167500D03*
Y1217500D03*
Y1227500D03*
X1100000Y1305000D03*
Y1315000D03*
Y1365000D03*
Y1375000D03*
X1220000Y1157500D03*
Y1167500D03*
Y1217500D03*
Y1227500D03*
X1225000Y1305000D03*
Y1315000D03*
X1215000Y1305000D03*
Y1315000D03*
X1225000Y1365000D03*
Y1375000D03*
X1215000Y1365000D03*
Y1375000D03*
X1230000Y1157500D03*
Y1167500D03*
Y1217500D03*
Y1227500D03*
X1347500Y1157500D03*
Y1167500D03*
Y1217500D03*
Y1227500D03*
X1345000Y1305000D03*
Y1315000D03*
Y1365000D03*
Y1375000D03*
X1357500Y1157500D03*
Y1167500D03*
Y1217500D03*
Y1227500D03*
X1355000Y1305000D03*
Y1315000D03*
Y1365000D03*
Y1375000D03*
X1475000Y1160000D03*
Y1170000D03*
Y1220000D03*
Y1230000D03*
X1472500Y1305000D03*
Y1315000D03*
Y1365000D03*
Y1375000D03*
X1485000Y1160000D03*
Y1170000D03*
Y1220000D03*
Y1230000D03*
X1482500Y1305000D03*
Y1315000D03*
Y1365000D03*
Y1375000D03*
G54D25*
X95000Y1055000D03*
X110000Y1060000D03*
X105000Y1287500D03*
X127500Y1310000D03*
X150000Y832500D03*
X135000Y1187500D03*
X142400Y1257600D03*
X145000Y1300000D03*
X152500Y1365000D03*
X170000Y455000D03*
X157500Y1275000D03*
X172500Y1297500D03*
X167500Y1365000D03*
X180100Y1455100D03*
X200000Y930000D03*
Y947500D03*
Y1017500D03*
Y1002500D03*
X190000Y1037500D03*
Y1052500D03*
X192500Y1187500D03*
X207500Y1212500D03*
X227500Y1322500D03*
Y1310000D03*
X230000Y1442500D03*
X253560Y473560D03*
X250000Y723000D03*
X242500Y855000D03*
X232500Y1370000D03*
X270000Y723000D03*
X257500Y787500D03*
X275000Y860000D03*
X262500Y1032500D03*
X257500Y1035000D03*
X305000Y610000D03*
X302500Y827500D03*
X305000Y847500D03*
X295000Y855000D03*
X305000Y907500D03*
Y897500D03*
X290000D03*
X307500Y975000D03*
X287500D03*
X327500Y797500D03*
X325000Y905000D03*
X322500Y982500D03*
X327500Y1040000D03*
X312500Y1072500D03*
X355000Y810000D03*
X342990Y887990D03*
X350000Y905000D03*
X342500Y925000D03*
X337500Y982500D03*
X342400Y1094900D03*
X347500Y1075000D03*
X335000Y1307500D03*
X381000Y435000D03*
X374000Y480000D03*
X363000D03*
X380000Y1032500D03*
X372500Y1212500D03*
X382500D03*
X372500Y1240000D03*
X382500D03*
X360000Y1375000D03*
X395000Y920000D03*
X393000Y968000D03*
X402500Y960000D03*
X438940Y436560D03*
Y487440D03*
X510060Y489940D03*
X511000Y502000D03*
X515000Y450000D03*
X527500Y1092500D03*
X547500Y1150000D03*
X542500Y1202500D03*
X550250Y1382750D03*
X542500Y1405000D03*
X582500Y450000D03*
X569060Y485000D03*
X572500Y902500D03*
X582500Y1150000D03*
X572500Y1465000D03*
X597500Y882500D03*
Y897500D03*
X604900Y942400D03*
X607500Y1145000D03*
X595000Y1150000D03*
X630000Y433000D03*
X627500Y500000D03*
X642500Y1145000D03*
X655000D03*
Y1252500D03*
Y1297500D03*
X640000D03*
Y1322500D03*
X660000Y1327500D03*
X645000D03*
X640000Y1307500D03*
X655000Y1442500D03*
X682000Y480000D03*
X667500Y955000D03*
Y972500D03*
X680000Y1180000D03*
X680050Y1235050D03*
X714000Y766000D03*
Y756000D03*
X713000Y747000D03*
X715000Y776000D03*
X720000Y407500D03*
X735000Y452500D03*
X720000Y649000D03*
Y687000D03*
Y665000D03*
X722000Y696000D03*
Y737000D03*
X718000Y728000D03*
X717000Y718000D03*
X746000D03*
X772500Y405000D03*
X787500Y455000D03*
X768000Y644000D03*
Y676000D03*
X772000Y665000D03*
X769000Y687000D03*
X768000Y696000D03*
X769000Y737000D03*
Y728000D03*
X768000Y766000D03*
X769000Y756000D03*
Y747000D03*
X768000Y777000D03*
X817500Y522860D03*
X815000Y893000D03*
X807500Y1105000D03*
X802500Y1135000D03*
X815000Y1130000D03*
X805000Y1350000D03*
Y1335000D03*
X792500Y1395000D03*
X830610Y446630D03*
X830000Y525000D03*
X840000Y852500D03*
Y1400000D03*
X846000Y853000D03*
X860000Y1045000D03*
X888000Y684000D03*
X893500Y728000D03*
Y737500D03*
X893000Y746500D03*
X892500Y756500D03*
Y1122500D03*
X882500Y1132500D03*
X907500Y440000D03*
X915000Y522500D03*
X895000Y645000D03*
Y652500D03*
Y696500D03*
X897420Y716380D03*
X895500Y765500D03*
X897000Y778000D03*
X907500Y1160000D03*
X935000Y442500D03*
X927500Y444890D03*
X930000Y525000D03*
X945000Y662500D03*
Y677500D03*
Y687500D03*
X943000Y696500D03*
X942500Y717500D03*
X943000Y727500D03*
X944500Y765500D03*
Y756000D03*
Y747000D03*
X943000Y776500D03*
X947500Y435000D03*
Y647500D03*
Y1272500D03*
X1019800Y486800D03*
X1002500Y1255000D03*
X1005000Y1430000D03*
X1042500Y1495000D03*
X1060000Y473000D03*
X1057500Y1340000D03*
X1072500Y1360000D03*
X1070000Y1422500D03*
X1090250Y1072750D03*
X1097020Y1117980D03*
X1075000Y1212500D03*
X1095000Y1245000D03*
X1087000Y1278000D03*
X1092500Y1392500D03*
X1120000Y449000D03*
Y1512500D03*
X1125000Y475000D03*
X1142500Y700000D03*
Y720000D03*
Y900000D03*
X1132500Y935000D03*
X1145630Y1152500D03*
X1144000Y1221000D03*
X1146000Y1249000D03*
X1147500Y1295000D03*
X1141000Y1366000D03*
X1141690Y1397500D03*
X1160000Y1085000D03*
X1150000Y1132500D03*
X1162000Y1197000D03*
X1168000Y1286440D03*
X1161000Y1341000D03*
X1153000Y1432000D03*
X1150000Y1470000D03*
X1179000Y669000D03*
X1190000Y917500D03*
X1184900Y964900D03*
X1197500Y970000D03*
X1182500Y1260000D03*
X1197500Y1360000D03*
X1180000Y1409060D03*
X1200000Y1421000D03*
X1210820Y581280D03*
X1220000Y812500D03*
Y792500D03*
X1212500Y920000D03*
X1220000Y975000D03*
X1202500Y1212500D03*
X1222500Y1242500D03*
X1215000Y1278000D03*
X1217500Y1392500D03*
X1229000Y441000D03*
X1240000Y930000D03*
X1232500Y957500D03*
X1263120Y411280D03*
X1268320Y501280D03*
X1274900Y667400D03*
X1270000Y1150000D03*
X1271000Y1221060D03*
Y1252000D03*
X1267000Y1363000D03*
X1266690Y1397500D03*
X1280820Y506480D03*
X1300000Y590000D03*
X1284000Y637000D03*
X1292800Y727690D03*
Y932800D03*
X1297000Y1201000D03*
X1290000Y1292500D03*
X1277000Y1305000D03*
X1290000Y1347500D03*
Y1439000D03*
X1325300Y680190D03*
X1317800Y847690D03*
Y862690D03*
X1320300Y917690D03*
X1310300D03*
X1302800Y965190D03*
X1310000Y1260000D03*
X1327500Y1360000D03*
X1305000Y1407000D03*
X1346000Y477000D03*
X1338220Y511380D03*
Y526380D03*
X1330300Y687690D03*
X1330000Y1212500D03*
X1350000Y1245000D03*
X1342000Y1278000D03*
X1347500Y1392500D03*
X1329000Y1419000D03*
X1373220Y403880D03*
X1355880Y563880D03*
X1375300Y732690D03*
Y850190D03*
X1399000Y509000D03*
X1380300Y677690D03*
X1402800D03*
X1400300Y712690D03*
X1395300Y782690D03*
Y797690D03*
X1400750Y1150000D03*
X1401000Y1221060D03*
X1400000Y1250000D03*
X1392500Y1365000D03*
X1397190Y1396000D03*
X1406000Y464000D03*
X1410000Y510000D03*
X1408160Y630190D03*
X1422800Y902690D03*
X1420000Y1195000D03*
X1422000Y1286000D03*
X1405690Y1306000D03*
X1412500Y1342500D03*
X1405000Y1437500D03*
X1448300Y562690D03*
X1437500Y1260000D03*
X1455000Y1360000D03*
X1435000Y1405000D03*
X1467500Y525000D03*
X1470300Y610190D03*
X1457500Y1214000D03*
X1477500Y1247500D03*
X1465000Y1281000D03*
X1475000Y1392500D03*
X1467000Y1426000D03*
X1495800Y527690D03*
X1485300Y610190D03*
X1490300Y652690D03*
X1500000Y680000D03*
X1491800Y710000D03*
X1485300Y732690D03*
X1487800Y752690D03*
X1517800Y660190D03*
X1509000Y1155000D03*
X1527500Y1227500D03*
X1529000Y1252000D03*
X1522500Y1367500D03*
X1524690Y1397500D03*
X1556000Y1202000D03*
X1542500Y1295000D03*
X1537000Y1305000D03*
X1547500Y1347500D03*
X1545000Y1442500D03*
X1565000Y1260000D03*
X1562500Y1408000D03*
G54D35*
X1323420Y361180D03*
Y341580D03*
X1343020Y361180D03*
Y341580D03*
G54D31*
X745000Y623150D03*
X920000D03*
G54D24*
X100000Y507500D03*
Y517500D03*
X97700Y1024300D03*
X100000Y1250000D03*
Y1240000D03*
X127400Y925000D03*
Y935000D03*
X127700Y963100D03*
Y953200D03*
Y999400D03*
Y1009500D03*
X178100Y785200D03*
X172500Y817500D03*
X182500D03*
X172500Y827500D03*
X182500D03*
X175800Y1102300D03*
X189300Y785200D03*
X192500Y817500D03*
Y827500D03*
X199900Y847500D03*
X194950Y1102550D03*
X191500Y1549000D03*
X201500D03*
X191500Y1561500D03*
X201500D03*
X191500Y1574000D03*
X201500D03*
X223000Y787700D03*
X220000Y870000D03*
X229950Y1100050D03*
X240500Y301740D03*
X240000Y355000D03*
Y395000D03*
X245550Y532550D03*
X234200Y787700D03*
X240000Y817500D03*
X250000D03*
X240000Y827500D03*
X250000D03*
X249950Y922550D03*
X279800Y301740D03*
X260200D03*
X266050Y532550D03*
X281250Y678750D03*
X271250D03*
X281250Y668750D03*
X271250D03*
X260000Y817500D03*
Y827500D03*
X269800Y1309800D03*
X299500Y301740D03*
X297500Y355000D03*
Y395000D03*
X301250Y678750D03*
X291250D03*
X301250Y668750D03*
X291250D03*
X299800Y1027800D03*
Y1039000D03*
X294950Y1102550D03*
X335500Y301740D03*
X335000Y355000D03*
Y395000D03*
X331250Y678750D03*
X321250D03*
X311250D03*
X331250Y668750D03*
X321250D03*
X311250D03*
X317450Y992550D03*
X322500Y1532500D03*
X332500Y1532400D03*
Y1557500D03*
X322500D03*
X322400Y1545100D03*
X332600Y1544900D03*
X322500Y1570000D03*
X332500D03*
X355200Y301740D03*
X348560Y502550D03*
X361250Y678750D03*
X351250D03*
X341250D03*
X361250Y668750D03*
X351250D03*
X341250D03*
X374800Y301740D03*
X365000Y785000D03*
X382500Y1220000D03*
X372500D03*
X362500D03*
X382500Y1230000D03*
X372500D03*
X362500D03*
X394500Y301740D03*
X395000Y355000D03*
Y395000D03*
X388940Y502550D03*
X402500Y1220000D03*
X392500D03*
X402500Y1230000D03*
X392500D03*
X390000Y1539000D03*
X400000Y1569000D03*
X436160Y300000D03*
X431060Y502550D03*
X412300Y886600D03*
Y987900D03*
X455840Y300000D03*
X450000Y355000D03*
Y395000D03*
X452290Y607650D03*
X476000Y547000D03*
X486000Y577000D03*
X476000Y597000D03*
X477500Y1564900D03*
X477600Y1575000D03*
X465000Y1565000D03*
Y1575000D03*
X490100Y1564900D03*
Y1574900D03*
X577370Y412460D03*
X587370D03*
X577370Y422460D03*
X587370D03*
Y532460D03*
X577370D03*
X567370D03*
X587370Y522460D03*
X577370D03*
X567370D03*
X597370Y412460D03*
X607370D03*
X597370Y422460D03*
X607370D03*
Y532460D03*
X597370D03*
X607370Y522460D03*
X597370D03*
X610100Y1533750D03*
X609950Y1556500D03*
X610100Y1545050D03*
X609950Y1570200D03*
X637000Y296000D03*
X617370Y412460D03*
Y422460D03*
X620200Y1533750D03*
Y1545050D03*
Y1556150D03*
X620000Y1570100D03*
X647000Y296000D03*
X647300Y1572400D03*
X657100Y1572300D03*
X682700Y1562450D03*
Y1573550D03*
X672600Y1562450D03*
Y1573300D03*
X717700Y1551450D03*
X707600D03*
X717700Y1562650D03*
Y1572350D03*
X707600Y1562650D03*
X707300Y1572900D03*
X737600Y1560600D03*
Y1571700D03*
X747700Y1560600D03*
Y1571700D03*
X778750Y331250D03*
X788750D03*
X778750Y341250D03*
X788750D03*
X790000Y1047500D03*
Y1062500D03*
X782500Y1170000D03*
X785000Y1270000D03*
X775000D03*
X774000Y1557300D03*
X785400Y1557200D03*
X773200Y1572300D03*
X784600Y1572200D03*
X798750Y331250D03*
X808750D03*
X818750D03*
X798750Y341250D03*
X808750D03*
X818750D03*
X820000Y1170000D03*
X807500D03*
X795000D03*
X815000Y1270000D03*
X805000D03*
X795000D03*
X819100Y1557300D03*
X818900Y1572300D03*
X828750Y331250D03*
X838750D03*
X828750Y341250D03*
X838750D03*
X845000Y1170000D03*
X832500D03*
X845000Y1270000D03*
X835000D03*
X825000D03*
X830500Y1557200D03*
X830300Y1572200D03*
X848750Y331250D03*
X858750D03*
X868750D03*
X848750Y341250D03*
X858750D03*
X868750D03*
X870000Y1170000D03*
X857500D03*
X865000Y1270000D03*
X855000D03*
X878750Y331250D03*
X888750D03*
X878750Y341250D03*
X888750D03*
X895000Y1270000D03*
X885000D03*
X875000D03*
X898750Y331250D03*
X908750D03*
X918750D03*
X898750Y341250D03*
X908750D03*
X918750D03*
X915000Y1270000D03*
X905000D03*
X928750Y331250D03*
Y341250D03*
X925000Y1270000D03*
X1020000Y860000D03*
Y850000D03*
X1040000Y860000D03*
Y850000D03*
X1030000Y860000D03*
Y850000D03*
X1065000Y415000D03*
Y425000D03*
Y535000D03*
Y525000D03*
X1070000Y860000D03*
Y850000D03*
X1060000Y860000D03*
Y850000D03*
X1050000Y860000D03*
Y850000D03*
X1062200Y1562700D03*
X1052200D03*
X1062300Y1573700D03*
X1052300D03*
X1075000Y415000D03*
X1085000D03*
X1095000D03*
X1075000Y425000D03*
X1085000D03*
X1095000D03*
Y535000D03*
X1085000D03*
X1075000D03*
X1095000Y525000D03*
X1085000D03*
X1075000D03*
X1105000Y415000D03*
Y425000D03*
Y535000D03*
Y525000D03*
X1160000Y1214000D03*
X1157500Y1361500D03*
X1195000Y433500D03*
Y472500D03*
X1182500Y1250000D03*
X1180000Y1397500D03*
X1187500Y1552500D03*
X1197600Y1552400D03*
X1187500Y1565000D03*
X1197500D03*
X1215000Y433500D03*
Y472500D03*
X1227500Y612500D03*
X1217500D03*
X1227500Y622500D03*
X1217500D03*
X1220000Y1462500D03*
X1225000Y1540000D03*
Y1552500D03*
Y1565000D03*
X1237500Y612500D03*
Y622500D03*
X1236000Y1462500D03*
X1244000D03*
X1252000D03*
X1235000Y1552500D03*
X1235100Y1539900D03*
Y1564900D03*
X1260000Y1462500D03*
X1255000Y1555000D03*
X1265000D03*
X1255100Y1565100D03*
X1265100D03*
X1292160Y568930D03*
X1292800Y787690D03*
Y797690D03*
X1287500Y1214000D03*
X1282500Y1361500D03*
X1295000Y1527500D03*
X1284900Y1527600D03*
X1295000Y1540000D03*
X1285000Y1552500D03*
Y1540000D03*
X1295000Y1552500D03*
Y1565000D03*
X1285000D03*
X1325000Y295000D03*
X1305300Y787690D03*
X1317800D03*
X1305300Y797690D03*
X1317800D03*
X1310000Y1250000D03*
X1305000Y1397500D03*
X1307500Y1462500D03*
X1323500D03*
X1335000Y295000D03*
X1330300Y787690D03*
X1342800D03*
X1355300D03*
X1330300Y797690D03*
X1342800D03*
X1355300D03*
X1331500Y1462500D03*
X1339500D03*
X1347500D03*
X1372500Y1530000D03*
Y1542500D03*
Y1555000D03*
Y1567500D03*
X1392000Y1463000D03*
X1382600Y1529900D03*
X1402500Y1542500D03*
Y1555000D03*
X1382600Y1554900D03*
Y1542400D03*
Y1567400D03*
X1402500Y1567500D03*
X1415000Y1214000D03*
X1412500Y1361500D03*
X1408000Y1463000D03*
X1416000D03*
X1424000D03*
X1412600Y1555000D03*
Y1542400D03*
X1412500Y1567500D03*
X1437500Y1250000D03*
X1435000Y1396000D03*
X1432000Y1463000D03*
X1452500Y1527500D03*
Y1517500D03*
Y1547500D03*
Y1537500D03*
X1452400Y1557600D03*
Y1567600D03*
X1470000Y1463000D03*
X1462600Y1527400D03*
Y1517400D03*
X1462500Y1557500D03*
X1462600Y1547400D03*
Y1537400D03*
X1462500Y1567500D03*
X1486000Y1463000D03*
X1494000D03*
X1502000D03*
X1505000Y1567500D03*
X1494900Y1567600D03*
X1510000Y1463000D03*
X1532500Y1557500D03*
X1522500Y1547500D03*
X1532500D03*
X1522400Y1557600D03*
X1532500Y1567500D03*
X1522400Y1567600D03*
X1542500Y1216500D03*
X1540000Y1361500D03*
X1580000Y492500D03*
Y502500D03*
X1575000Y1187500D03*
Y1177500D03*
X1565000Y1252500D03*
X1562500Y1397500D03*
X1181000Y400000D03*
X1220000D03*
G54D27*
X204950Y432200D03*
X214950D03*
X224950D03*
X282550Y432400D03*
X302550D03*
X292550D03*
G54D32*
X745000Y816850D03*
X920000D03*
G54D22*
X1190000Y520000D03*
Y510160D03*
X159000Y1539280D03*
Y1549120D03*
Y1561780D03*
Y1571620D03*
X241500Y1564280D03*
Y1574120D03*
X280000Y1540160D03*
Y1550000D03*
Y1574600D03*
Y1564760D03*
X862500Y1517660D03*
Y1527500D03*
Y1542780D03*
Y1552620D03*
Y1565280D03*
Y1575120D03*
X897800Y1542850D03*
Y1552690D03*
X897500Y1574720D03*
Y1564880D03*
X940300Y1517780D03*
Y1527620D03*
Y1549810D03*
Y1539970D03*
X940000Y1562780D03*
Y1572620D03*
X980000Y1537660D03*
Y1547500D03*
Y1572460D03*
Y1562620D03*
X1017500Y1537780D03*
Y1547620D03*
Y1572100D03*
Y1562260D03*
G54D34*
X1160000Y1250000D03*
X1157500Y1397500D03*
X1182500Y1214000D03*
X1180000Y1361500D03*
X1287500Y1250000D03*
X1282500Y1397500D03*
X1310000Y1214000D03*
X1305000Y1361500D03*
X1415000Y1250000D03*
X1412500Y1397500D03*
X1437500Y1214000D03*
X1435000Y1360000D03*
X1542500Y1252500D03*
X1540000Y1397500D03*
X1565000Y1216500D03*
X1562500Y1361500D03*
%LPD*%
G75*
G54D10*
X105000Y305000D03*
Y781500D03*
Y1135000D03*
Y1555000D03*
X500000Y870000D03*
Y1103000D03*
X565000Y305000D03*
Y1555000D03*
X1125000Y305000D03*
Y1555000D03*
X1245000Y870000D03*
Y1106000D03*
X1575000Y305000D03*
Y715000D03*
Y1135000D03*
Y1555000D03*
G54D11*
X100000Y507500D03*
Y517500D03*
X97700Y1024300D03*
X100000Y1250000D03*
Y1240000D03*
X127400Y925000D03*
Y935000D03*
X127700Y963100D03*
Y953200D03*
Y999400D03*
Y1009500D03*
X178100Y785200D03*
X172500Y817500D03*
X182500D03*
X172500Y827500D03*
X182500D03*
X175800Y1102300D03*
X189300Y785200D03*
X192500Y817500D03*
Y827500D03*
X199900Y847500D03*
X194950Y1102550D03*
X191500Y1549000D03*
X201500D03*
X191500Y1561500D03*
X201500D03*
X191500Y1574000D03*
X201500D03*
X223000Y787700D03*
X220000Y870000D03*
X229950Y1100050D03*
X240500Y301740D03*
X240000Y355000D03*
Y395000D03*
X245550Y532550D03*
X234200Y787700D03*
X240000Y817500D03*
X250000D03*
X240000Y827500D03*
X250000D03*
X249950Y922550D03*
X279800Y301740D03*
X260200D03*
X266050Y532550D03*
X281250Y678750D03*
X271250D03*
X281250Y668750D03*
X271250D03*
X260000Y817500D03*
Y827500D03*
X269800Y1309800D03*
X299500Y301740D03*
X297500Y355000D03*
Y395000D03*
X301250Y678750D03*
X291250D03*
X301250Y668750D03*
X291250D03*
X299800Y1027800D03*
Y1039000D03*
X294950Y1102550D03*
X335500Y301740D03*
X335000Y355000D03*
Y395000D03*
X331250Y678750D03*
X321250D03*
X311250D03*
X331250Y668750D03*
X321250D03*
X311250D03*
X317450Y992550D03*
X322500Y1532500D03*
X332500Y1532400D03*
Y1557500D03*
X322500D03*
X322400Y1545100D03*
X332600Y1544900D03*
X322500Y1570000D03*
X332500D03*
X355200Y301740D03*
X348560Y502550D03*
X361250Y678750D03*
X351250D03*
X341250D03*
X361250Y668750D03*
X351250D03*
X341250D03*
X374800Y301740D03*
X365000Y785000D03*
X382500Y1220000D03*
X372500D03*
X362500D03*
X382500Y1230000D03*
X372500D03*
X362500D03*
X394500Y301740D03*
X395000Y355000D03*
Y395000D03*
X388940Y502550D03*
X402500Y1220000D03*
X392500D03*
X402500Y1230000D03*
X392500D03*
X390000Y1539000D03*
X400000Y1569000D03*
X390000Y1589000D03*
X436160Y300000D03*
X431060Y502550D03*
X412300Y886600D03*
Y987900D03*
X455840Y300000D03*
X450000Y355000D03*
Y395000D03*
X452290Y607650D03*
X476000Y547000D03*
X486000Y577000D03*
X476000Y597000D03*
X477500Y1564900D03*
X477600Y1575000D03*
X465000Y1565000D03*
Y1575000D03*
X490100Y1564900D03*
Y1574900D03*
X577370Y412460D03*
X587370D03*
X577370Y422460D03*
X587370D03*
Y532460D03*
X577370D03*
X567370D03*
X587370Y522460D03*
X577370D03*
X567370D03*
X597370Y412460D03*
X607370D03*
X597370Y422460D03*
X607370D03*
Y532460D03*
X597370D03*
X607370Y522460D03*
X597370D03*
X610100Y1533750D03*
X609950Y1556500D03*
X610100Y1545050D03*
X609950Y1570200D03*
X637000Y296000D03*
X617370Y412460D03*
Y422460D03*
X620200Y1533750D03*
Y1545050D03*
Y1556150D03*
X620000Y1570100D03*
X647000Y296000D03*
X647300Y1572400D03*
X657100Y1572300D03*
X682700Y1562450D03*
Y1573550D03*
X672600Y1562450D03*
Y1573300D03*
X717700Y1551450D03*
X707600D03*
X717700Y1562650D03*
Y1572350D03*
X707600Y1562650D03*
X707300Y1572900D03*
X737600Y1560600D03*
Y1571700D03*
X747700Y1560600D03*
Y1571700D03*
X778750Y331250D03*
X788750D03*
X778750Y341250D03*
X788750D03*
X790000Y1047500D03*
Y1062500D03*
X782500Y1170000D03*
X785000Y1270000D03*
X775000D03*
X774000Y1557300D03*
X785400Y1557200D03*
X773200Y1572300D03*
X784600Y1572200D03*
X798750Y331250D03*
X808750D03*
X818750D03*
X798750Y341250D03*
X808750D03*
X818750D03*
X820000Y1170000D03*
X807500D03*
X795000D03*
X815000Y1270000D03*
X805000D03*
X795000D03*
X819100Y1557300D03*
X818900Y1572300D03*
X828750Y331250D03*
X838750D03*
X828750Y341250D03*
X838750D03*
X845000Y1170000D03*
X832500D03*
X845000Y1270000D03*
X835000D03*
X825000D03*
X830500Y1557200D03*
X830300Y1572200D03*
X848750Y331250D03*
X858750D03*
X868750D03*
X848750Y341250D03*
X858750D03*
X868750D03*
X870000Y1170000D03*
X857500D03*
X865000Y1270000D03*
X855000D03*
X878750Y331250D03*
X888750D03*
X878750Y341250D03*
X888750D03*
X895000Y1270000D03*
X885000D03*
X875000D03*
X898750Y331250D03*
X908750D03*
X918750D03*
X898750Y341250D03*
X908750D03*
X918750D03*
X915000Y1270000D03*
X905000D03*
X928750Y331250D03*
Y341250D03*
X925000Y1270000D03*
X1020000Y860000D03*
Y850000D03*
X1040000Y860000D03*
Y850000D03*
X1030000Y860000D03*
Y850000D03*
X1065000Y415000D03*
Y425000D03*
Y535000D03*
Y525000D03*
X1070000Y860000D03*
Y850000D03*
X1060000Y860000D03*
Y850000D03*
X1050000Y860000D03*
Y850000D03*
X1062200Y1562700D03*
X1052200D03*
X1062300Y1573700D03*
X1052300D03*
X1075000Y415000D03*
X1085000D03*
X1095000D03*
X1075000Y425000D03*
X1085000D03*
X1095000D03*
Y535000D03*
X1085000D03*
X1075000D03*
X1095000Y525000D03*
X1085000D03*
X1075000D03*
X1105000Y415000D03*
Y425000D03*
Y535000D03*
Y525000D03*
X1160000Y1214000D03*
X1157500Y1361500D03*
X1181000Y400000D03*
X1195000Y433500D03*
Y472500D03*
X1182500Y1250000D03*
X1180000Y1397500D03*
X1187500Y1552500D03*
X1197600Y1552400D03*
X1187500Y1565000D03*
X1197500D03*
X1220000Y400000D03*
X1215000Y433500D03*
Y472500D03*
X1227500Y612500D03*
X1217500D03*
X1227500Y622500D03*
X1217500D03*
X1220000Y1462500D03*
X1225000Y1540000D03*
Y1552500D03*
Y1565000D03*
X1237500Y612500D03*
Y622500D03*
X1236000Y1462500D03*
X1244000D03*
X1252000D03*
X1235000Y1552500D03*
X1235100Y1539900D03*
Y1564900D03*
X1260000Y1462500D03*
X1255000Y1555000D03*
X1265000D03*
X1255100Y1565100D03*
X1265100D03*
X1292160Y568930D03*
X1292800Y787690D03*
Y797690D03*
X1287500Y1214000D03*
X1282500Y1361500D03*
X1295000Y1527500D03*
X1284900Y1527600D03*
X1295000Y1540000D03*
X1285000Y1552500D03*
Y1540000D03*
X1295000Y1552500D03*
Y1565000D03*
X1285000D03*
X1325000Y295000D03*
X1305300Y787690D03*
X1317800D03*
X1305300Y797690D03*
X1317800D03*
X1310000Y1250000D03*
X1305000Y1397500D03*
X1307500Y1462500D03*
X1323500D03*
X1335000Y295000D03*
X1330300Y787690D03*
X1342800D03*
X1355300D03*
X1330300Y797690D03*
X1342800D03*
X1355300D03*
X1331500Y1462500D03*
X1339500D03*
X1347500D03*
X1372500Y1530000D03*
Y1542500D03*
Y1555000D03*
Y1567500D03*
X1392000Y1463000D03*
X1382600Y1529900D03*
X1402500Y1542500D03*
Y1555000D03*
X1382600Y1554900D03*
Y1542400D03*
Y1567400D03*
X1402500Y1567500D03*
X1415000Y1214000D03*
X1412500Y1361500D03*
X1408000Y1463000D03*
X1416000D03*
X1424000D03*
X1412600Y1555000D03*
Y1542400D03*
X1412500Y1567500D03*
X1437500Y1250000D03*
X1435000Y1396000D03*
X1432000Y1463000D03*
X1452500Y1527500D03*
Y1517500D03*
Y1547500D03*
Y1537500D03*
X1452400Y1557600D03*
Y1567600D03*
X1470000Y1463000D03*
X1462600Y1527400D03*
Y1517400D03*
X1462500Y1557500D03*
X1462600Y1547400D03*
Y1537400D03*
X1462500Y1567500D03*
X1486000Y1463000D03*
X1494000D03*
X1502000D03*
X1505000Y1567500D03*
X1494900Y1567600D03*
X1510000Y1463000D03*
X1532500Y1557500D03*
X1522500Y1547500D03*
X1532500D03*
X1522400Y1557600D03*
X1532500Y1567500D03*
X1522400Y1567600D03*
X1542500Y1216500D03*
X1540000Y1361500D03*
X1580000Y492500D03*
Y502500D03*
X1575000Y1187500D03*
Y1177500D03*
X1565000Y1252500D03*
X1562500Y1397500D03*
G54D20*
X1323420Y361180D03*
Y341580D03*
X1343020Y361180D03*
Y341580D03*
G54D21*
G01X97350Y514850D02*
X100000Y517500D01*
G01D02*
X102650Y520150D01*
G01X97350D02*
X100000Y517500D01*
G01D02*
X102650Y514850D01*
G01X93450Y1053450D02*
X95000Y1055000D01*
G01D02*
X96550Y1056550D01*
G01X93450D02*
X95000Y1055000D01*
G01D02*
X96550Y1053450D01*
G01X97350Y1237350D02*
X100000Y1240000D01*
G01D02*
X102650Y1242650D01*
G01X97350D02*
X100000Y1240000D01*
G01D02*
X102650Y1237350D01*
G01X108450Y1058450D02*
X110000Y1060000D01*
G01D02*
X111550Y1061550D01*
G01X108450D02*
X110000Y1060000D01*
G01D02*
X111550Y1058450D01*
G01X103450Y1285950D02*
X105000Y1287500D01*
G01D02*
X106550Y1289050D01*
G01X103450D02*
X105000Y1287500D01*
G01D02*
X106550Y1285950D01*
G01X125950Y1308450D02*
X127500Y1310000D01*
G01D02*
X129050Y1311550D01*
G01X125950D02*
X127500Y1310000D01*
G01D02*
X129050Y1308450D01*
G01X148450Y830950D02*
X150000Y832500D01*
G01D02*
X151550Y834050D01*
G01X148450D02*
X150000Y832500D01*
G01D02*
X151550Y830950D01*
G01X133450Y1185950D02*
X135000Y1187500D01*
G01D02*
X136550Y1189050D01*
G01X133450D02*
X135000Y1187500D01*
G01D02*
X136550Y1185950D01*
G01X140850Y1256050D02*
X142400Y1257600D01*
G01D02*
X143950Y1259150D01*
G01X140850D02*
X142400Y1257600D01*
G01D02*
X143950Y1256050D01*
G01X143450Y1298450D02*
X145000Y1300000D01*
G01D02*
X146550Y1301550D01*
G01X143450D02*
X145000Y1300000D01*
G01D02*
X146550Y1298450D01*
G01X150950Y1363450D02*
X152500Y1365000D01*
G01D02*
X154050Y1366550D01*
G01X150950D02*
X152500Y1365000D01*
G01D02*
X154050Y1363450D01*
G01X168450Y453450D02*
X170000Y455000D01*
G01D02*
X171550Y456550D01*
G01X168450D02*
X170000Y455000D01*
G01D02*
X171550Y453450D01*
G01X155950Y1273450D02*
X157500Y1275000D01*
G01D02*
X159050Y1273450D01*
G01X170950Y1295950D02*
X172500Y1297500D01*
G01D02*
X174050Y1299050D01*
G01X170950D02*
X172500Y1297500D01*
G01D02*
X174050Y1295950D01*
G01X157500Y1275000D02*
X159050Y1276550D01*
G01X155950D02*
X157500Y1275000D01*
G01X165950Y1363450D02*
X167500Y1365000D01*
G01D02*
X169050Y1366550D01*
G01X165950D02*
X167500Y1365000D01*
G01D02*
X169050Y1363450D01*
G01X178550Y1453550D02*
X180100Y1455100D01*
G01X178550Y1456650D02*
X180100Y1455100D01*
G01X157050Y1547170D02*
X159000Y1549120D01*
G01D02*
X160950Y1551070D01*
G01X157050D02*
X159000Y1549120D01*
G01D02*
X160950Y1547170D01*
G01X157050Y1569670D02*
X159000Y1571620D01*
G01D02*
X160950Y1573570D01*
G01X157050D02*
X159000Y1571620D01*
G01D02*
X160950Y1569670D01*
G01X198450Y928450D02*
X200000Y930000D01*
G01D02*
X201550Y931550D01*
G01X198450D02*
X200000Y930000D01*
G01D02*
X201550Y928450D01*
G01X198450Y945950D02*
X200000Y947500D01*
G01D02*
X201550Y949050D01*
G01X198450D02*
X200000Y947500D01*
G01D02*
X201550Y945950D01*
G01X198450Y1000950D02*
X200000Y1002500D01*
G01D02*
X201550Y1004050D01*
G01X198450D02*
X200000Y1002500D01*
G01D02*
X201550Y1000950D01*
G01X198450Y1015950D02*
X200000Y1017500D01*
G01D02*
X201550Y1019050D01*
G01X198450D02*
X200000Y1017500D01*
G01D02*
X201550Y1015950D01*
G01X188450Y1035950D02*
X190000Y1037500D01*
G01D02*
X191550Y1039050D01*
G01X188450D02*
X190000Y1037500D01*
G01D02*
X191550Y1035950D01*
G01X188450Y1050950D02*
X190000Y1052500D01*
G01D02*
X191550Y1054050D01*
G01X188450D02*
X190000Y1052500D01*
G01D02*
X191550Y1050950D01*
G01X190950Y1185950D02*
X192500Y1187500D01*
G01D02*
X194050Y1189050D01*
G01X190950D02*
X192500Y1187500D01*
G01D02*
X194050Y1185950D01*
G01X180100Y1455100D02*
X181650Y1456650D01*
G01X180100Y1455100D02*
X181650Y1453550D01*
G01X198850Y1571350D02*
X201500Y1574000D01*
G01D02*
X204150Y1576650D01*
G01X198850D02*
X201500Y1574000D01*
G01D02*
X204150Y1571350D01*
G01X211950Y429200D02*
X214950Y432200D01*
G01D02*
X217950Y435200D01*
G01X211950D02*
X214950Y432200D01*
G01D02*
X217950Y429200D01*
G01X205950Y1210950D02*
X207500Y1212500D01*
G01D02*
X209050Y1214050D01*
G01X205950D02*
X207500Y1212500D01*
G01D02*
X209050Y1210950D01*
G01X225950Y1308450D02*
X227500Y1310000D01*
G01D02*
X229050Y1311550D01*
G01X225950D02*
X227500Y1310000D01*
G01D02*
X229050Y1308450D01*
G01X225950Y1320950D02*
X227500Y1322500D01*
G01D02*
X229050Y1324050D01*
G01X225950D02*
X227500Y1322500D01*
G01D02*
X229050Y1320950D01*
G01X228450Y1440950D02*
X230000Y1442500D01*
G01X228450Y1444050D02*
X230000Y1442500D01*
G01X252010Y472010D02*
X253560Y473560D01*
G01D02*
X255110Y475110D01*
G01X252010D02*
X253560Y473560D01*
G01D02*
X255110Y472010D01*
G01X248450Y721450D02*
X250000Y723000D01*
G01D02*
X251550Y724550D01*
G01X248450D02*
X250000Y723000D01*
G01D02*
X251550Y721450D01*
G01X240950Y853450D02*
X242500Y855000D01*
G01D02*
X244050Y856550D01*
G01X240950D02*
X242500Y855000D01*
G01D02*
X244050Y853450D01*
G01X230950Y1368450D02*
X232500Y1370000D01*
G01D02*
X234050Y1371550D01*
G01X230950D02*
X232500Y1370000D01*
G01D02*
X234050Y1368450D01*
G01X230000Y1442500D02*
X231550Y1444050D01*
G01X230000Y1442500D02*
X231550Y1440950D01*
G01X239550Y1572170D02*
X241500Y1574120D01*
G01D02*
X243450Y1576070D01*
G01X239550D02*
X241500Y1574120D01*
G01D02*
X243450Y1572170D01*
G01X257550Y299090D02*
X260200Y301740D01*
G01D02*
X262850Y304390D01*
G01X257550D02*
X260200Y301740D01*
G01D02*
X262850Y299090D01*
G01X277150D02*
X279800Y301740D01*
G01D02*
X282450Y304390D01*
G01X277150D02*
X279800Y301740D01*
G01D02*
X282450Y299090D01*
G01X279550Y429400D02*
X282550Y432400D01*
G01X279550Y435400D02*
X282550Y432400D01*
G01X268600Y666100D02*
X271250Y668750D01*
G01D02*
X273900Y671400D01*
G01X268600D02*
X271250Y668750D01*
G01D02*
X273900Y666100D01*
G01X278600D02*
X281250Y668750D01*
G01X278600Y671400D02*
X281250Y668750D01*
G01X268450Y721450D02*
X270000Y723000D01*
G01D02*
X271550Y724550D01*
G01X268450D02*
X270000Y723000D01*
G01D02*
X271550Y721450D01*
G01X255950Y785950D02*
X257500Y787500D01*
G01D02*
X259050Y789050D01*
G01X255950D02*
X257500Y787500D01*
G01D02*
X259050Y785950D01*
G01X273450Y858450D02*
X275000Y860000D01*
G01D02*
X276550Y861550D01*
G01X273450D02*
X275000Y860000D01*
G01D02*
X276550Y858450D01*
G01X255950Y1033450D02*
X257500Y1035000D01*
G01D02*
X259050Y1036550D01*
G01X255950D02*
X257500Y1035000D01*
G01D02*
X259050Y1033450D01*
G01X260950Y1030950D02*
X262500Y1032500D01*
G01D02*
X264050Y1034050D01*
G01X260950D02*
X262500Y1032500D01*
G01D02*
X264050Y1030950D01*
G01X278050Y1548050D02*
X280000Y1550000D01*
G01D02*
X281950Y1551950D01*
G01X278050D02*
X280000Y1550000D01*
G01D02*
X281950Y1548050D01*
G01X278050Y1562810D02*
X280000Y1564760D01*
G01D02*
X281950Y1566710D01*
G01X278050D02*
X280000Y1564760D01*
G01D02*
X281950Y1562810D01*
G01X282550Y432400D02*
X285550Y435400D01*
G01X282550Y432400D02*
X285550Y429400D01*
G01X303450Y608450D02*
X305000Y610000D01*
G01D02*
X306550Y611550D01*
G01X303450D02*
X305000Y610000D01*
G01D02*
X306550Y608450D01*
G01X281250Y668750D02*
X283900Y671400D01*
G01X281250Y668750D02*
X283900Y666100D01*
G01X300950Y825950D02*
X302500Y827500D01*
G01D02*
X304050Y829050D01*
G01X300950D02*
X302500Y827500D01*
G01D02*
X304050Y825950D01*
G01X293450Y853450D02*
X295000Y855000D01*
G01D02*
X296550Y856550D01*
G01X293450D02*
X295000Y855000D01*
G01D02*
X296550Y853450D01*
G01X303450Y845950D02*
X305000Y847500D01*
G01D02*
X306550Y849050D01*
G01X303450D02*
X305000Y847500D01*
G01D02*
X306550Y845950D01*
G01X288450Y895950D02*
X290000Y897500D01*
G01D02*
X291550Y899050D01*
G01X288450D02*
X290000Y897500D01*
G01D02*
X291550Y895950D01*
G01X303450D02*
X305000Y897500D01*
G01D02*
X306550Y899050D01*
G01X303450D02*
X305000Y897500D01*
G01D02*
X306550Y895950D01*
G01X303450Y905950D02*
X305000Y907500D01*
G01D02*
X306550Y909050D01*
G01X303450D02*
X305000Y907500D01*
G01D02*
X306550Y905950D01*
G01X285950Y973450D02*
X287500Y975000D01*
G01D02*
X289050Y976550D01*
G01X285950D02*
X287500Y975000D01*
G01D02*
X289050Y973450D01*
G01X305950D02*
X307500Y975000D01*
G01X305950Y976550D02*
X307500Y975000D01*
G01X308600Y666100D02*
X311250Y668750D01*
G01D02*
X313900Y671400D01*
G01X308600D02*
X311250Y668750D01*
G01D02*
X313900Y666100D01*
G01X318600D02*
X321250Y668750D01*
G01D02*
X323900Y671400D01*
G01X318600D02*
X321250Y668750D01*
G01D02*
X323900Y666100D01*
G01X328600D02*
X331250Y668750D01*
G01D02*
X333900Y671400D01*
G01X328600D02*
X331250Y668750D01*
G01D02*
X333900Y666100D01*
G01X325950Y795950D02*
X327500Y797500D01*
G01D02*
X329050Y799050D01*
G01X325950D02*
X327500Y797500D01*
G01D02*
X329050Y795950D01*
G01X323450Y903450D02*
X325000Y905000D01*
G01D02*
X326550Y906550D01*
G01X323450D02*
X325000Y905000D01*
G01D02*
X326550Y903450D01*
G01X320950Y980950D02*
X322500Y982500D01*
G01D02*
X324050Y984050D01*
G01X320950D02*
X322500Y982500D01*
G01D02*
X324050Y980950D01*
G01X307500Y975000D02*
X309050Y976550D01*
G01X307500Y975000D02*
X309050Y973450D01*
G01X325950Y1038450D02*
X327500Y1040000D01*
G01D02*
X329050Y1041550D01*
G01X325950D02*
X327500Y1040000D01*
G01D02*
X329050Y1038450D01*
G01X310950Y1070950D02*
X312500Y1072500D01*
G01D02*
X314050Y1070950D01*
G01X312500Y1072500D02*
X314050Y1074050D01*
G01X310950D02*
X312500Y1072500D01*
G01X329850Y1529750D02*
X332500Y1532400D01*
G01X319750Y1542450D02*
X322400Y1545100D01*
G01D02*
X325050Y1547750D01*
G01X319750D02*
X322400Y1545100D01*
G01D02*
X325050Y1542450D01*
G01X329850Y1535050D02*
X332500Y1532400D01*
G01X352550Y299090D02*
X355200Y301740D01*
G01D02*
X357850Y304390D01*
G01X352550D02*
X355200Y301740D01*
G01D02*
X357850Y299090D01*
G01X338600Y666100D02*
X341250Y668750D01*
G01D02*
X343900Y671400D01*
G01X338600D02*
X341250Y668750D01*
G01D02*
X343900Y666100D01*
G01X348600D02*
X351250Y668750D01*
G01D02*
X353900Y671400D01*
G01X348600D02*
X351250Y668750D01*
G01D02*
X353900Y666100D01*
G01X353450Y808450D02*
X355000Y810000D01*
G01D02*
X356550Y811550D01*
G01X353450D02*
X355000Y810000D01*
G01D02*
X356550Y808450D01*
G01X341440Y886440D02*
X342990Y887990D01*
G01D02*
X344540Y889540D01*
G01X341440D02*
X342990Y887990D01*
G01D02*
X344540Y886440D01*
G01X348450Y903450D02*
X350000Y905000D01*
G01D02*
X351550Y906550D01*
G01X348450D02*
X350000Y905000D01*
G01D02*
X351550Y903450D01*
G01X340950Y923450D02*
X342500Y925000D01*
G01D02*
X344050Y926550D01*
G01X340950D02*
X342500Y925000D01*
G01D02*
X344050Y923450D01*
G01X335950Y980950D02*
X337500Y982500D01*
G01D02*
X339050Y984050D01*
G01X335950D02*
X337500Y982500D01*
G01D02*
X339050Y980950D01*
G01X345950Y1073450D02*
X347500Y1075000D01*
G01D02*
X349050Y1076550D01*
G01X345950D02*
X347500Y1075000D01*
G01D02*
X349050Y1073450D01*
G01X340850Y1093350D02*
X342400Y1094900D01*
G01D02*
X343950Y1096450D01*
G01X340850D02*
X342400Y1094900D01*
G01D02*
X343950Y1093350D01*
G01X333450Y1305950D02*
X335000Y1307500D01*
G01D02*
X336550Y1309050D01*
G01X333450D02*
X335000Y1307500D01*
G01D02*
X336550Y1305950D01*
G01X332500Y1532400D02*
X335150Y1529750D01*
G01X332500Y1532400D02*
X335150Y1535050D01*
G01X372150Y299090D02*
X374800Y301740D01*
G01D02*
X377450Y304390D01*
G01X372150D02*
X374800Y301740D01*
G01D02*
X377450Y299090D01*
G01X379450Y433450D02*
X381000Y435000D01*
G01D02*
X382550Y433450D01*
G01X381000Y435000D02*
X382550Y436550D01*
G01X379450D02*
X381000Y435000D01*
G01X361450Y478450D02*
X363000Y480000D01*
G01D02*
X364550Y481550D01*
G01X361450D02*
X363000Y480000D01*
G01D02*
X364550Y478450D01*
G01X372450D02*
X374000Y480000D01*
G01D02*
X375550Y481550D01*
G01X372450D02*
X374000Y480000D01*
G01D02*
X375550Y478450D01*
G01X358600Y666100D02*
X361250Y668750D01*
G01D02*
X363900Y671400D01*
G01X358600D02*
X361250Y668750D01*
G01D02*
X363900Y666100D01*
G01X378450Y1030950D02*
X380000Y1032500D01*
G01D02*
X381550Y1034050D01*
G01X378450D02*
X380000Y1032500D01*
G01D02*
X381550Y1030950D01*
G01X380950Y1210950D02*
X382500Y1212500D01*
G01D02*
X384050Y1214050D01*
G01X380950D02*
X382500Y1212500D01*
G01D02*
X384050Y1210950D01*
G01X370950D02*
X372500Y1212500D01*
G01D02*
X374050Y1214050D01*
G01X370950D02*
X372500Y1212500D01*
G01D02*
X374050Y1210950D01*
G01X369850Y1217350D02*
X372500Y1220000D01*
G01D02*
X375150Y1222650D01*
G01X369850D02*
X372500Y1220000D01*
G01D02*
X375150Y1217350D01*
G01X379850D02*
X382500Y1220000D01*
G01D02*
X385150Y1222650D01*
G01X379850D02*
X382500Y1220000D01*
G01D02*
X385150Y1217350D01*
G01X380950Y1238450D02*
X382500Y1240000D01*
G01D02*
X384050Y1241550D01*
G01X380950D02*
X382500Y1240000D01*
G01D02*
X384050Y1238450D01*
G01X370950D02*
X372500Y1240000D01*
G01D02*
X374050Y1241550D01*
G01X370950D02*
X372500Y1240000D01*
G01D02*
X374050Y1238450D01*
G01X369850Y1227350D02*
X372500Y1230000D01*
G01D02*
X375150Y1232650D01*
G01X369850D02*
X372500Y1230000D01*
G01D02*
X375150Y1227350D01*
G01X379850D02*
X382500Y1230000D01*
G01D02*
X385150Y1232650D01*
G01X379850D02*
X382500Y1230000D01*
G01D02*
X385150Y1227350D01*
G01X358450Y1373450D02*
X360000Y1375000D01*
G01D02*
X361550Y1376550D01*
G01X358450D02*
X360000Y1375000D01*
G01D02*
X361550Y1373450D01*
G01X393450Y918450D02*
X395000Y920000D01*
G01D02*
X396550Y921550D01*
G01X393450D02*
X395000Y920000D01*
G01D02*
X396550Y918450D01*
G01X400950Y958450D02*
X402500Y960000D01*
G01D02*
X404050Y961550D01*
G01X400950D02*
X402500Y960000D01*
G01D02*
X404050Y958450D01*
G01X391450Y966450D02*
X393000Y968000D01*
G01D02*
X394550Y969550D01*
G01X391450D02*
X393000Y968000D01*
G01D02*
X394550Y966450D01*
G01X387350Y1536350D02*
X390000Y1539000D01*
G01D02*
X392650Y1541650D01*
G01X387350D02*
X390000Y1539000D01*
G01D02*
X392650Y1536350D01*
G01X433510Y297350D02*
X436160Y300000D01*
G01X433510Y302650D02*
X436160Y300000D01*
G01D02*
X438810Y302650D01*
G01X436160Y300000D02*
X438810Y297350D01*
G01X437390Y435010D02*
X438940Y436560D01*
G01D02*
X440490Y438110D01*
G01X437390D02*
X438940Y436560D01*
G01D02*
X440490Y435010D01*
G01X437390Y485890D02*
X438940Y487440D01*
G01D02*
X440490Y488990D01*
G01X437390D02*
X438940Y487440D01*
G01D02*
X440490Y485890D01*
G01X509450Y500450D02*
X511000Y502000D01*
G01X509450Y503550D02*
X511000Y502000D01*
G01X508510Y488390D02*
X510060Y489940D01*
G01D02*
X511610Y491490D01*
G01X508510D02*
X510060Y489940D01*
G01D02*
X511610Y488390D01*
G01X487450Y1572250D02*
X490100Y1574900D01*
G01D02*
X492750Y1577550D01*
G01X487450D02*
X490100Y1574900D01*
G01D02*
X492750Y1572250D01*
G01X487450Y1562250D02*
X490100Y1564900D01*
G01D02*
X492750Y1567550D01*
G01X487450D02*
X490100Y1564900D01*
G01D02*
X492750Y1562250D01*
G01X513450Y448450D02*
X515000Y450000D01*
G01D02*
X516550Y451550D01*
G01X513450D02*
X515000Y450000D01*
G01D02*
X516550Y448450D01*
G01X511000Y502000D02*
X512550Y503550D01*
G01X511000Y502000D02*
X512550Y500450D01*
G01X525950Y1090950D02*
X527500Y1092500D01*
G01D02*
X529050Y1094050D01*
G01X525950D02*
X527500Y1092500D01*
G01D02*
X529050Y1090950D01*
G01X545950Y1148450D02*
X547500Y1150000D01*
G01D02*
X549050Y1151550D01*
G01X545950D02*
X547500Y1150000D01*
G01D02*
X549050Y1148450D01*
G01X540950Y1200950D02*
X542500Y1202500D01*
G01D02*
X544050Y1204050D01*
G01X540950D02*
X542500Y1202500D01*
G01D02*
X544050Y1200950D01*
G01X548700Y1381200D02*
X550250Y1382750D01*
G01D02*
X551800Y1384300D01*
G01X548700D02*
X550250Y1382750D01*
G01D02*
X551800Y1381200D01*
G01X540950Y1403450D02*
X542500Y1405000D01*
G01D02*
X544050Y1406550D01*
G01X540950D02*
X542500Y1405000D01*
G01D02*
X544050Y1403450D01*
G01X580950Y448450D02*
X582500Y450000D01*
G01D02*
X584050Y451550D01*
G01X580950D02*
X582500Y450000D01*
G01D02*
X584050Y448450D01*
G01X567510Y483450D02*
X569060Y485000D01*
G01D02*
X570610Y483450D01*
G01X569060Y485000D02*
X570610Y486550D01*
G01X567510D02*
X569060Y485000D01*
G01X570950Y900950D02*
X572500Y902500D01*
G01D02*
X574050Y904050D01*
G01X570950D02*
X572500Y902500D01*
G01D02*
X574050Y900950D01*
G01X580950Y1148450D02*
X582500Y1150000D01*
G01D02*
X584050Y1151550D01*
G01X580950D02*
X582500Y1150000D01*
G01D02*
X584050Y1148450D01*
G01X570950Y1463450D02*
X572500Y1465000D01*
G01D02*
X574050Y1466550D01*
G01X570950D02*
X572500Y1465000D01*
G01D02*
X574050Y1463450D01*
G01X595950Y880950D02*
X597500Y882500D01*
G01D02*
X599050Y884050D01*
G01X595950D02*
X597500Y882500D01*
G01D02*
X599050Y880950D01*
G01X595950Y895950D02*
X597500Y897500D01*
G01D02*
X599050Y899050D01*
G01X595950D02*
X597500Y897500D01*
G01D02*
X599050Y895950D01*
G01X603350Y940850D02*
X604900Y942400D01*
G01D02*
X606450Y943950D01*
G01X603350D02*
X604900Y942400D01*
G01D02*
X606450Y940850D01*
G01X605950Y1143450D02*
X607500Y1145000D01*
G01D02*
X609050Y1146550D01*
G01X605950D02*
X607500Y1145000D01*
G01D02*
X609050Y1143450D01*
G01X593450Y1148450D02*
X595000Y1150000D01*
G01D02*
X596550Y1151550D01*
G01X593450D02*
X595000Y1150000D01*
G01D02*
X596550Y1148450D01*
G01X628450Y431450D02*
X630000Y433000D01*
G01D02*
X631550Y434550D01*
G01X628450D02*
X630000Y433000D01*
G01D02*
X631550Y431450D01*
G01X625950Y498450D02*
X627500Y500000D01*
G01D02*
X629050Y501550D01*
G01X625950D02*
X627500Y500000D01*
G01D02*
X629050Y498450D01*
G01X617550Y1553500D02*
X620200Y1556150D01*
G01D02*
X622850Y1553500D01*
G01X617550Y1542400D02*
X620200Y1545050D01*
G01D02*
X622850Y1547700D01*
G01X617550D02*
X620200Y1545050D01*
G01D02*
X622850Y1542400D01*
G01X617550Y1531100D02*
X620200Y1533750D01*
G01D02*
X622850Y1536400D01*
G01X617550D02*
X620200Y1533750D01*
G01D02*
X622850Y1531100D01*
G01X620200Y1556150D02*
X622850Y1558800D01*
G01X617550D02*
X620200Y1556150D01*
G01X644350Y293350D02*
X647000Y296000D01*
G01D02*
X649650Y298650D01*
G01X644350D02*
X647000Y296000D01*
G01D02*
X649650Y293350D01*
G01X653450Y1143450D02*
X655000Y1145000D01*
G01D02*
X656550Y1146550D01*
G01X653450D02*
X655000Y1145000D01*
G01D02*
X656550Y1143450D01*
G01X640950D02*
X642500Y1145000D01*
G01D02*
X644050Y1146550D01*
G01X640950D02*
X642500Y1145000D01*
G01D02*
X644050Y1143450D01*
G01X653450Y1250950D02*
X655000Y1252500D01*
G01D02*
X656550Y1254050D01*
G01X653450D02*
X655000Y1252500D01*
G01D02*
X656550Y1250950D01*
G01X638450Y1295950D02*
X640000Y1297500D01*
G01D02*
X641550Y1299050D01*
G01X638450D02*
X640000Y1297500D01*
G01D02*
X641550Y1295950D01*
G01X653450D02*
X655000Y1297500D01*
G01D02*
X656550Y1299050D01*
G01X653450D02*
X655000Y1297500D01*
G01D02*
X656550Y1295950D01*
G01X638450Y1305950D02*
X640000Y1307500D01*
G01D02*
X641550Y1309050D01*
G01X638450D02*
X640000Y1307500D01*
G01D02*
X641550Y1305950D01*
G01X643450Y1325950D02*
X645000Y1327500D01*
G01D02*
X646550Y1325950D01*
G01X658450D02*
X660000Y1327500D01*
G01D02*
X661550Y1325950D01*
G01X638450Y1320950D02*
X640000Y1322500D01*
G01D02*
X641550Y1324050D01*
G01X638450D02*
X640000Y1322500D01*
G01D02*
X641550Y1320950D01*
G01X645000Y1327500D02*
X646550Y1329050D01*
G01X643450D02*
X645000Y1327500D01*
G01X660000D02*
X661550Y1329050D01*
G01X658450D02*
X660000Y1327500D01*
G01X653450Y1440950D02*
X655000Y1442500D01*
G01D02*
X656550Y1444050D01*
G01X653450D02*
X655000Y1442500D01*
G01D02*
X656550Y1440950D01*
G01X680450Y478450D02*
X682000Y480000D01*
G01D02*
X683550Y481550D01*
G01X680450D02*
X682000Y480000D01*
G01D02*
X683550Y478450D01*
G01X665950Y953450D02*
X667500Y955000D01*
G01D02*
X669050Y956550D01*
G01X665950D02*
X667500Y955000D01*
G01D02*
X669050Y953450D01*
G01X665950Y970950D02*
X667500Y972500D01*
G01D02*
X669050Y974050D01*
G01X665950D02*
X667500Y972500D01*
G01D02*
X669050Y970950D01*
G01X678450Y1178450D02*
X680000Y1180000D01*
G01D02*
X681550Y1181550D01*
G01X678450D02*
X680000Y1180000D01*
G01D02*
X681550Y1178450D01*
G01X678500Y1233500D02*
X680050Y1235050D01*
G01D02*
X681600Y1236600D01*
G01X678500D02*
X680050Y1235050D01*
G01D02*
X681600Y1233500D01*
G01X680050Y1570900D02*
X682700Y1573550D01*
G01D02*
X685350Y1576200D01*
G01X680050D02*
X682700Y1573550D01*
G01D02*
X685350Y1570900D01*
G01X680050Y1559800D02*
X682700Y1562450D01*
G01D02*
X685350Y1565100D01*
G01X680050D02*
X682700Y1562450D01*
G01D02*
X685350Y1559800D01*
G01X711450Y745450D02*
X713000Y747000D01*
G01D02*
X714550Y748550D01*
G01X711450D02*
X713000Y747000D01*
G01D02*
X714550Y745450D01*
G01X712450Y754450D02*
X714000Y756000D01*
G01D02*
X715550Y757550D01*
G01X712450D02*
X714000Y756000D01*
G01D02*
X715550Y754450D01*
G01X712450Y764450D02*
X714000Y766000D01*
G01X713450Y774450D02*
X715000Y776000D01*
G01X713450Y777550D02*
X715000Y776000D01*
G01X714000Y766000D02*
X715550Y767550D01*
G01X712450D02*
X714000Y766000D01*
G01D02*
X715550Y764450D01*
G01X718450Y405950D02*
X720000Y407500D01*
G01D02*
X721550Y409050D01*
G01X718450D02*
X720000Y407500D01*
G01D02*
X721550Y405950D01*
G01X733450Y450950D02*
X735000Y452500D01*
G01D02*
X736550Y454050D01*
G01X733450D02*
X735000Y452500D01*
G01D02*
X736550Y450950D01*
G01X718450Y647450D02*
X720000Y649000D01*
G01D02*
X721550Y650550D01*
G01X718450D02*
X720000Y649000D01*
G01D02*
X721550Y647450D01*
G01X718450Y663450D02*
X720000Y665000D01*
G01D02*
X721550Y666550D01*
G01X718450D02*
X720000Y665000D01*
G01D02*
X721550Y663450D01*
G01X718450Y685450D02*
X720000Y687000D01*
G01D02*
X721550Y688550D01*
G01X718450D02*
X720000Y687000D01*
G01D02*
X721550Y685450D01*
G01X720450Y694450D02*
X722000Y696000D01*
G01D02*
X723550Y697550D01*
G01X720450D02*
X722000Y696000D01*
G01D02*
X723550Y694450D01*
G01X715450Y716450D02*
X717000Y718000D01*
G01D02*
X718550Y719550D01*
G01X715450D02*
X717000Y718000D01*
G01D02*
X718550Y716450D01*
G01X716450Y726450D02*
X718000Y728000D01*
G01D02*
X719550Y729550D01*
G01X716450D02*
X718000Y728000D01*
G01D02*
X719550Y726450D01*
G01X720450Y735450D02*
X722000Y737000D01*
G01D02*
X723550Y738550D01*
G01X720450D02*
X722000Y737000D01*
G01D02*
X723550Y735450D01*
G01X715000Y776000D02*
X716550Y777550D01*
G01X715000Y776000D02*
X716550Y774450D01*
G01X715050Y1548800D02*
X717700Y1551450D01*
G01D02*
X720350Y1554100D01*
G01X715050D02*
X717700Y1551450D01*
G01D02*
X720350Y1548800D01*
G01X715050Y1569700D02*
X717700Y1572350D01*
G01D02*
X720350Y1575000D01*
G01X715050D02*
X717700Y1572350D01*
G01D02*
X720350Y1569700D01*
G01X715050Y1560000D02*
X717700Y1562650D01*
G01D02*
X720350Y1565300D01*
G01X715050D02*
X717700Y1562650D01*
G01D02*
X720350Y1560000D01*
G01X744450Y716450D02*
X746000Y718000D01*
G01D02*
X747550Y719550D01*
G01X744450D02*
X746000Y718000D01*
G01D02*
X747550Y716450D01*
G01X745050Y1569050D02*
X747700Y1571700D01*
G01D02*
X750350Y1574350D01*
G01X745050D02*
X747700Y1571700D01*
G01D02*
X750350Y1569050D01*
G01X745050Y1557950D02*
X747700Y1560600D01*
G01D02*
X750350Y1563250D01*
G01X745050D02*
X747700Y1560600D01*
G01D02*
X750350Y1557950D01*
G01X786100Y328600D02*
X788750Y331250D01*
G01D02*
X791400Y333900D01*
G01X786100D02*
X788750Y331250D01*
G01D02*
X791400Y328600D01*
G01X776100D02*
X778750Y331250D01*
G01D02*
X781400Y333900D01*
G01X776100D02*
X778750Y331250D01*
G01D02*
X781400Y328600D01*
G01X770950Y403450D02*
X772500Y405000D01*
G01D02*
X774050Y406550D01*
G01X770950D02*
X772500Y405000D01*
G01D02*
X774050Y403450D01*
G01X785950Y453450D02*
X787500Y455000D01*
G01D02*
X789050Y456550D01*
G01X785950D02*
X787500Y455000D01*
G01D02*
X789050Y453450D01*
G01X766450Y642450D02*
X768000Y644000D01*
G01D02*
X769550Y645550D01*
G01X766450D02*
X768000Y644000D01*
G01D02*
X769550Y642450D01*
G01X767450Y685450D02*
X769000Y687000D01*
G01D02*
X770550Y688550D01*
G01X767450D02*
X769000Y687000D01*
G01D02*
X770550Y685450D01*
G01X770450Y663450D02*
X772000Y665000D01*
G01D02*
X773550Y666550D01*
G01X770450D02*
X772000Y665000D01*
G01D02*
X773550Y663450D01*
G01X766450Y674450D02*
X768000Y676000D01*
G01D02*
X769550Y677550D01*
G01X766450D02*
X768000Y676000D01*
G01D02*
X769550Y674450D01*
G01X766450Y694450D02*
X768000Y696000D01*
G01D02*
X769550Y697550D01*
G01X766450D02*
X768000Y696000D01*
G01D02*
X769550Y694450D01*
G01X767450Y726450D02*
X769000Y728000D01*
G01D02*
X770550Y729550D01*
G01X767450D02*
X769000Y728000D01*
G01D02*
X770550Y726450D01*
G01X767450Y735450D02*
X769000Y737000D01*
G01D02*
X770550Y738550D01*
G01X767450D02*
X769000Y737000D01*
G01D02*
X770550Y735450D01*
G01X767450Y745450D02*
X769000Y747000D01*
G01D02*
X770550Y748550D01*
G01X767450D02*
X769000Y747000D01*
G01D02*
X770550Y745450D01*
G01X767450Y754450D02*
X769000Y756000D01*
G01D02*
X770550Y757550D01*
G01X767450D02*
X769000Y756000D01*
G01D02*
X770550Y754450D01*
G01X766450Y764450D02*
X768000Y766000D01*
G01D02*
X769550Y764450D01*
G01X766450Y775450D02*
X768000Y777000D01*
G01D02*
X769550Y778550D01*
G01X766450D02*
X768000Y777000D01*
G01D02*
X769550Y775450D01*
G01X768000Y766000D02*
X769550Y767550D01*
G01X766450D02*
X768000Y766000D01*
G01X772350Y1267350D02*
X775000Y1270000D01*
G01D02*
X777650Y1272650D01*
G01X772350D02*
X775000Y1270000D01*
G01D02*
X777650Y1267350D01*
G01X782750Y1554550D02*
X785400Y1557200D01*
G01D02*
X788050Y1554550D01*
G01X781950Y1569550D02*
X784600Y1572200D01*
G01D02*
X787250Y1574850D01*
G01X781950D02*
X784600Y1572200D01*
G01D02*
X787250Y1569550D01*
G01X785400Y1557200D02*
X788050Y1559850D01*
G01X782750D02*
X785400Y1557200D01*
G01X816100Y328600D02*
X818750Y331250D01*
G01X806100Y328600D02*
X808750Y331250D01*
G01D02*
X811400Y333900D01*
G01X806100D02*
X808750Y331250D01*
G01D02*
X811400Y328600D01*
G01X796100D02*
X798750Y331250D01*
G01D02*
X801400Y333900D01*
G01X796100D02*
X798750Y331250D01*
G01D02*
X801400Y328600D01*
G01X816100Y333900D02*
X818750Y331250D01*
G01X815950Y521310D02*
X817500Y522860D01*
G01X815950Y524410D02*
X817500Y522860D01*
G01X813450Y891450D02*
X815000Y893000D01*
G01D02*
X816550Y891450D01*
G01X815000Y893000D02*
X816550Y894550D01*
G01X813450D02*
X815000Y893000D01*
G01X805950Y1103450D02*
X807500Y1105000D01*
G01D02*
X809050Y1106550D01*
G01X805950D02*
X807500Y1105000D01*
G01D02*
X809050Y1103450D01*
G01X813450Y1128450D02*
X815000Y1130000D01*
G01D02*
X816550Y1131550D01*
G01X813450D02*
X815000Y1130000D01*
G01D02*
X816550Y1128450D01*
G01X800950Y1133450D02*
X802500Y1135000D01*
G01D02*
X804050Y1136550D01*
G01X800950D02*
X802500Y1135000D01*
G01D02*
X804050Y1133450D01*
G01X803450Y1333450D02*
X805000Y1335000D01*
G01D02*
X806550Y1336550D01*
G01X803450D02*
X805000Y1335000D01*
G01D02*
X806550Y1333450D01*
G01X803450Y1348450D02*
X805000Y1350000D01*
G01D02*
X806550Y1351550D01*
G01X803450D02*
X805000Y1350000D01*
G01D02*
X806550Y1348450D01*
G01X790950Y1393450D02*
X792500Y1395000D01*
G01D02*
X794050Y1396550D01*
G01X790950D02*
X792500Y1395000D01*
G01D02*
X794050Y1393450D01*
G01X836100Y328600D02*
X838750Y331250D01*
G01D02*
X841400Y333900D01*
G01X836100D02*
X838750Y331250D01*
G01D02*
X841400Y328600D01*
G01X826100D02*
X828750Y331250D01*
G01D02*
X831400Y333900D01*
G01X826100D02*
X828750Y331250D01*
G01D02*
X831400Y328600D01*
G01X818750Y331250D02*
X821400Y333900D01*
G01X818750Y331250D02*
X821400Y328600D01*
G01X829060Y445080D02*
X830610Y446630D01*
G01D02*
X832160Y448180D01*
G01X829060D02*
X830610Y446630D01*
G01D02*
X832160Y445080D01*
G01X828450Y523450D02*
X830000Y525000D01*
G01D02*
X831550Y526550D01*
G01X828450D02*
X830000Y525000D01*
G01D02*
X831550Y523450D01*
G01X817500Y522860D02*
X819050Y524410D01*
G01X817500Y522860D02*
X819050Y521310D01*
G01X838450Y850950D02*
X840000Y852500D01*
G01D02*
X841550Y854050D01*
G01X838450D02*
X840000Y852500D01*
G01D02*
X841550Y850950D01*
G01X838450Y1398450D02*
X840000Y1400000D01*
G01D02*
X841550Y1401550D01*
G01X838450D02*
X840000Y1400000D01*
G01D02*
X841550Y1398450D01*
G01X827850Y1554550D02*
X830500Y1557200D01*
G01D02*
X833150Y1554550D01*
G01X827650Y1569550D02*
X830300Y1572200D01*
G01D02*
X832950Y1574850D01*
G01X827650D02*
X830300Y1572200D01*
G01D02*
X832950Y1569550D01*
G01X830500Y1557200D02*
X833150Y1559850D01*
G01X827850D02*
X830500Y1557200D01*
G01X866100Y328600D02*
X868750Y331250D01*
G01X856100Y328600D02*
X858750Y331250D01*
G01D02*
X861400Y333900D01*
G01X856100D02*
X858750Y331250D01*
G01D02*
X861400Y328600D01*
G01X846100D02*
X848750Y331250D01*
G01D02*
X851400Y333900D01*
G01X846100D02*
X848750Y331250D01*
G01D02*
X851400Y328600D01*
G01X866100Y333900D02*
X868750Y331250D01*
G01X844450Y851450D02*
X846000Y853000D01*
G01D02*
X847550Y854550D01*
G01X844450D02*
X846000Y853000D01*
G01D02*
X847550Y851450D01*
G01X858450Y1043450D02*
X860000Y1045000D01*
G01D02*
X861550Y1046550D01*
G01X858450D02*
X860000Y1045000D01*
G01D02*
X861550Y1043450D01*
G01X860550Y1525550D02*
X862500Y1527500D01*
G01D02*
X864450Y1529450D01*
G01X860550D02*
X862500Y1527500D01*
G01D02*
X864450Y1525550D01*
G01X860550Y1550670D02*
X862500Y1552620D01*
G01D02*
X864450Y1554570D01*
G01X860550D02*
X862500Y1552620D01*
G01D02*
X864450Y1550670D01*
G01X860550Y1573170D02*
X862500Y1575120D01*
G01D02*
X864450Y1577070D01*
G01X860550D02*
X862500Y1575120D01*
G01D02*
X864450Y1573170D01*
G01X886100Y328600D02*
X888750Y331250D01*
G01D02*
X891400Y333900D01*
G01X886100D02*
X888750Y331250D01*
G01D02*
X891400Y328600D01*
G01X876100D02*
X878750Y331250D01*
G01D02*
X881400Y333900D01*
G01X876100D02*
X878750Y331250D01*
G01D02*
X881400Y328600D01*
G01X868750Y331250D02*
X871400Y333900D01*
G01X868750Y331250D02*
X871400Y328600D01*
G01X886450Y682450D02*
X888000Y684000D01*
G01D02*
X889550Y685550D01*
G01X886450D02*
X888000Y684000D01*
G01D02*
X889550Y682450D01*
G01X891950Y735950D02*
X893500Y737500D01*
G01X891950Y739050D02*
X893500Y737500D01*
G01X891950Y726450D02*
X893500Y728000D01*
G01X891950Y729550D02*
X893500Y728000D01*
G01X890950Y754950D02*
X892500Y756500D01*
G01D02*
X894050Y758050D01*
G01X890950D02*
X892500Y756500D01*
G01D02*
X894050Y754950D01*
G01X891450Y744950D02*
X893000Y746500D01*
G01X891450Y748050D02*
X893000Y746500D01*
G01X890950Y1120950D02*
X892500Y1122500D01*
G01X880950Y1130950D02*
X882500Y1132500D01*
G01D02*
X884050Y1134050D01*
G01X880950D02*
X882500Y1132500D01*
G01D02*
X884050Y1130950D01*
G01X892500Y1122500D02*
X894050Y1124050D01*
G01X890950D02*
X892500Y1122500D01*
G01D02*
X894050Y1120950D01*
G01X916100Y328600D02*
X918750Y331250D01*
G01X906100Y328600D02*
X908750Y331250D01*
G01D02*
X911400Y333900D01*
G01X906100D02*
X908750Y331250D01*
G01D02*
X911400Y328600D01*
G01X896100D02*
X898750Y331250D01*
G01D02*
X901400Y333900D01*
G01X896100D02*
X898750Y331250D01*
G01D02*
X901400Y328600D01*
G01X916100Y333900D02*
X918750Y331250D01*
G01X905950Y438450D02*
X907500Y440000D01*
G01D02*
X909050Y441550D01*
G01X905950D02*
X907500Y440000D01*
G01D02*
X909050Y438450D01*
G01X913450Y520950D02*
X915000Y522500D01*
G01D02*
X916550Y524050D01*
G01X913450D02*
X915000Y522500D01*
G01D02*
X916550Y520950D01*
G01X893450Y650950D02*
X895000Y652500D01*
G01D02*
X896550Y654050D01*
G01X893450D02*
X895000Y652500D01*
G01D02*
X896550Y650950D01*
G01X893450Y643450D02*
X895000Y645000D01*
G01D02*
X896550Y646550D01*
G01X893450D02*
X895000Y645000D01*
G01D02*
X896550Y643450D01*
G01X893450Y694950D02*
X895000Y696500D01*
G01D02*
X896550Y698050D01*
G01X893450D02*
X895000Y696500D01*
G01D02*
X896550Y694950D01*
G01X895870Y714830D02*
X897420Y716380D01*
G01D02*
X898970Y717930D01*
G01X895870D02*
X897420Y716380D01*
G01D02*
X898970Y714830D01*
G01X893500Y737500D02*
X895050Y739050D01*
G01X893500Y737500D02*
X895050Y735950D01*
G01X893500Y728000D02*
X895050Y729550D01*
G01X893500Y728000D02*
X895050Y726450D01*
G01X893950Y763950D02*
X895500Y765500D01*
G01D02*
X897050Y763950D01*
G01X893000Y746500D02*
X894550Y748050D01*
G01X893000Y746500D02*
X894550Y744950D01*
G01X895450Y776450D02*
X897000Y778000D01*
G01D02*
X898550Y779550D01*
G01X895450D02*
X897000Y778000D01*
G01D02*
X898550Y776450D01*
G01X895500Y765500D02*
X897050Y767050D01*
G01X893950D02*
X895500Y765500D01*
G01X905950Y1158450D02*
X907500Y1160000D01*
G01D02*
X909050Y1161550D01*
G01X905950D02*
X907500Y1160000D01*
G01D02*
X909050Y1158450D01*
G01X895850Y1550740D02*
X897800Y1552690D01*
G01D02*
X899750Y1554640D01*
G01X895850D02*
X897800Y1552690D01*
G01D02*
X899750Y1550740D01*
G01X895550Y1562930D02*
X897500Y1564880D01*
G01D02*
X899450Y1566830D01*
G01X895550D02*
X897500Y1564880D01*
G01D02*
X899450Y1562930D01*
G01X926100Y328600D02*
X928750Y331250D01*
G01D02*
X931400Y333900D01*
G01X926100D02*
X928750Y331250D01*
G01D02*
X931400Y328600D01*
G01X918750Y331250D02*
X921400Y333900D01*
G01X918750Y331250D02*
X921400Y328600D01*
G01X925950Y443340D02*
X927500Y444890D01*
G01D02*
X929050Y446440D01*
G01X925950D02*
X927500Y444890D01*
G01D02*
X929050Y443340D01*
G01X933450Y440950D02*
X935000Y442500D01*
G01D02*
X936550Y444050D01*
G01X933450D02*
X935000Y442500D01*
G01D02*
X936550Y440950D01*
G01X928450Y523450D02*
X930000Y525000D01*
G01D02*
X931550Y526550D01*
G01X928450D02*
X930000Y525000D01*
G01D02*
X931550Y523450D01*
G01X943450Y660950D02*
X945000Y662500D01*
G01X943450Y685950D02*
X945000Y687500D01*
G01X943450Y675950D02*
X945000Y677500D01*
G01X943450Y679050D02*
X945000Y677500D01*
G01X943450Y664050D02*
X945000Y662500D01*
G01X941450Y694950D02*
X943000Y696500D01*
G01D02*
X944550Y698050D01*
G01X941450D02*
X943000Y696500D01*
G01D02*
X944550Y694950D01*
G01X943450Y689050D02*
X945000Y687500D01*
G01X941450Y725950D02*
X943000Y727500D01*
G01D02*
X944550Y729050D01*
G01X941450D02*
X943000Y727500D01*
G01D02*
X944550Y725950D01*
G01X940950Y715950D02*
X942500Y717500D01*
G01D02*
X944050Y719050D01*
G01X940950D02*
X942500Y717500D01*
G01D02*
X944050Y715950D01*
G01X942950Y745450D02*
X944500Y747000D01*
G01X942950Y748550D02*
X944500Y747000D01*
G01X942950Y754450D02*
X944500Y756000D01*
G01X942950Y757550D02*
X944500Y756000D01*
G01X942950Y763950D02*
X944500Y765500D01*
G01X941450Y774950D02*
X943000Y776500D01*
G01D02*
X944550Y778050D01*
G01X941450D02*
X943000Y776500D01*
G01D02*
X944550Y774950D01*
G01X942950Y767050D02*
X944500Y765500D01*
G01X938350Y1525670D02*
X940300Y1527620D01*
G01D02*
X942250Y1529570D01*
G01X938350D02*
X940300Y1527620D01*
G01D02*
X942250Y1525670D01*
G01X938350Y1538020D02*
X940300Y1539970D01*
G01D02*
X942250Y1541920D01*
G01X938350D02*
X940300Y1539970D01*
G01D02*
X942250Y1538020D01*
G01X938050Y1560830D02*
X940000Y1562780D01*
G01D02*
X941950Y1564730D01*
G01X938050D02*
X940000Y1562780D01*
G01D02*
X941950Y1560830D01*
G01X945950Y433450D02*
X947500Y435000D01*
G01D02*
X949050Y433450D01*
G01X947500Y435000D02*
X949050Y436550D01*
G01X945950D02*
X947500Y435000D01*
G01X945950Y645950D02*
X947500Y647500D01*
G01D02*
X949050Y649050D01*
G01X945950D02*
X947500Y647500D01*
G01D02*
X949050Y645950D01*
G01X945000Y662500D02*
X946550Y664050D01*
G01X945000Y662500D02*
X946550Y660950D01*
G01X945000Y687500D02*
X946550Y689050D01*
G01X945000Y687500D02*
X946550Y685950D01*
G01X945000Y677500D02*
X946550Y679050D01*
G01X945000Y677500D02*
X946550Y675950D01*
G01X944500Y747000D02*
X946050Y748550D01*
G01X944500Y747000D02*
X946050Y745450D01*
G01X944500Y756000D02*
X946050Y757550D01*
G01X944500Y756000D02*
X946050Y754450D01*
G01X944500Y765500D02*
X946050Y763950D01*
G01X944500Y765500D02*
X946050Y767050D01*
G01X945950Y1270950D02*
X947500Y1272500D01*
G01D02*
X949050Y1274050D01*
G01X945950D02*
X947500Y1272500D01*
G01D02*
X949050Y1270950D01*
G01X978050Y1535710D02*
X980000Y1537660D01*
G01D02*
X981950Y1539610D01*
G01X978050D02*
X980000Y1537660D01*
G01D02*
X981950Y1535710D01*
G01X978050Y1560670D02*
X980000Y1562620D01*
G01D02*
X981950Y1564570D01*
G01X978050D02*
X980000Y1562620D01*
G01D02*
X981950Y1560670D01*
G01X1018250Y485250D02*
X1019800Y486800D01*
G01D02*
X1021350Y488350D01*
G01X1018250D02*
X1019800Y486800D01*
G01D02*
X1021350Y485250D01*
G01X1000950Y1253450D02*
X1002500Y1255000D01*
G01D02*
X1004050Y1256550D01*
G01X1000950D02*
X1002500Y1255000D01*
G01D02*
X1004050Y1253450D01*
G01X1003450Y1428450D02*
X1005000Y1430000D01*
G01D02*
X1006550Y1431550D01*
G01X1003450D02*
X1005000Y1430000D01*
G01D02*
X1006550Y1428450D01*
G01X1015550Y1535830D02*
X1017500Y1537780D01*
G01D02*
X1019450Y1539730D01*
G01X1015550D02*
X1017500Y1537780D01*
G01D02*
X1019450Y1535830D01*
G01X1015550Y1560310D02*
X1017500Y1562260D01*
G01D02*
X1019450Y1564210D01*
G01X1015550D02*
X1017500Y1562260D01*
G01D02*
X1019450Y1560310D01*
G01X1037350Y847350D02*
X1040000Y850000D01*
G01D02*
X1042650Y852650D01*
G01X1037350D02*
X1040000Y850000D01*
G01D02*
X1042650Y847350D01*
G01X1040950Y1493450D02*
X1042500Y1495000D01*
G01D02*
X1044050Y1496550D01*
G01X1040950D02*
X1042500Y1495000D01*
G01D02*
X1044050Y1493450D01*
G01X1058450Y471450D02*
X1060000Y473000D01*
G01D02*
X1061550Y474550D01*
G01X1058450D02*
X1060000Y473000D01*
G01D02*
X1061550Y471450D01*
G01X1047350Y847350D02*
X1050000Y850000D01*
G01D02*
X1052650Y852650D01*
G01X1047350D02*
X1050000Y850000D01*
G01D02*
X1052650Y847350D01*
G01X1055950Y1338450D02*
X1057500Y1340000D01*
G01D02*
X1059050Y1341550D01*
G01X1055950D02*
X1057500Y1340000D01*
G01D02*
X1059050Y1338450D01*
G01X1070950Y1358450D02*
X1072500Y1360000D01*
G01X1070950Y1361550D02*
X1072500Y1360000D01*
G01X1068450Y1420950D02*
X1070000Y1422500D01*
G01D02*
X1071550Y1424050D01*
G01X1068450D02*
X1070000Y1422500D01*
G01D02*
X1071550Y1420950D01*
G01X1049650Y1571050D02*
X1052300Y1573700D01*
G01D02*
X1054950Y1576350D01*
G01X1049650D02*
X1052300Y1573700D01*
G01D02*
X1054950Y1571050D01*
G01X1049550Y1560050D02*
X1052200Y1562700D01*
G01D02*
X1054850Y1565350D01*
G01X1049550D02*
X1052200Y1562700D01*
G01D02*
X1054850Y1560050D01*
G01X1088700Y1071200D02*
X1090250Y1072750D01*
G01D02*
X1091800Y1074300D01*
G01X1088700D02*
X1090250Y1072750D01*
G01D02*
X1091800Y1071200D01*
G01X1095470Y1116430D02*
X1097020Y1117980D01*
G01X1095470Y1119530D02*
X1097020Y1117980D01*
G01X1073450Y1210950D02*
X1075000Y1212500D01*
G01D02*
X1076550Y1214050D01*
G01X1073450D02*
X1075000Y1212500D01*
G01D02*
X1076550Y1210950D01*
G01X1093450Y1243450D02*
X1095000Y1245000D01*
G01D02*
X1096550Y1246550D01*
G01X1093450D02*
X1095000Y1245000D01*
G01D02*
X1096550Y1243450D01*
G01X1085450Y1276450D02*
X1087000Y1278000D01*
G01D02*
X1088550Y1279550D01*
G01X1085450D02*
X1087000Y1278000D01*
G01D02*
X1088550Y1276450D01*
G01X1072500Y1360000D02*
X1074050Y1361550D01*
G01X1072500Y1360000D02*
X1074050Y1358450D01*
G01X1090950Y1390950D02*
X1092500Y1392500D01*
G01D02*
X1094050Y1394050D01*
G01X1090950D02*
X1092500Y1392500D01*
G01D02*
X1094050Y1390950D01*
G01X1118450Y447450D02*
X1120000Y449000D01*
G01D02*
X1121550Y450550D01*
G01X1118450D02*
X1120000Y449000D01*
G01D02*
X1121550Y447450D01*
G01X1097020Y1117980D02*
X1098570Y1119530D01*
G01X1097020Y1117980D02*
X1098570Y1116430D01*
G01X1118450Y1510950D02*
X1120000Y1512500D01*
G01D02*
X1121550Y1514050D01*
G01X1118450D02*
X1120000Y1512500D01*
G01D02*
X1121550Y1510950D01*
G01X1123450Y473450D02*
X1125000Y475000D01*
G01D02*
X1126550Y476550D01*
G01X1123450D02*
X1125000Y475000D01*
G01D02*
X1126550Y473450D01*
G01X1140950Y698450D02*
X1142500Y700000D01*
G01D02*
X1144050Y701550D01*
G01X1140950D02*
X1142500Y700000D01*
G01D02*
X1144050Y698450D01*
G01X1140950Y718450D02*
X1142500Y720000D01*
G01D02*
X1144050Y721550D01*
G01X1140950D02*
X1142500Y720000D01*
G01D02*
X1144050Y718450D01*
G01X1140950Y898450D02*
X1142500Y900000D01*
G01D02*
X1144050Y901550D01*
G01X1140950D02*
X1142500Y900000D01*
G01D02*
X1144050Y898450D01*
G01X1130950Y933450D02*
X1132500Y935000D01*
G01D02*
X1134050Y936550D01*
G01X1130950D02*
X1132500Y935000D01*
G01D02*
X1134050Y933450D01*
G01X1144080Y1150950D02*
X1145630Y1152500D01*
G01D02*
X1147180Y1154050D01*
G01X1144080D02*
X1145630Y1152500D01*
G01D02*
X1147180Y1150950D01*
G01X1142450Y1219450D02*
X1144000Y1221000D01*
G01D02*
X1145550Y1222550D01*
G01X1142450D02*
X1144000Y1221000D01*
G01D02*
X1145550Y1219450D01*
G01X1144450Y1247450D02*
X1146000Y1249000D01*
G01D02*
X1147550Y1250550D01*
G01X1144450D02*
X1146000Y1249000D01*
G01D02*
X1147550Y1247450D01*
G01X1145950Y1293450D02*
X1147500Y1295000D01*
G01D02*
X1149050Y1296550D01*
G01X1145950D02*
X1147500Y1295000D01*
G01D02*
X1149050Y1293450D01*
G01X1139450Y1364450D02*
X1141000Y1366000D01*
G01D02*
X1142550Y1367550D01*
G01X1139450D02*
X1141000Y1366000D01*
G01D02*
X1142550Y1364450D01*
G01X1140140Y1395950D02*
X1141690Y1397500D01*
G01D02*
X1143240Y1399050D01*
G01X1140140D02*
X1141690Y1397500D01*
G01D02*
X1143240Y1395950D01*
G01X1158450Y1083450D02*
X1160000Y1085000D01*
G01D02*
X1161550Y1086550D01*
G01X1158450D02*
X1160000Y1085000D01*
G01D02*
X1161550Y1083450D01*
G01X1148450Y1130950D02*
X1150000Y1132500D01*
G01D02*
X1151550Y1134050D01*
G01X1148450D02*
X1150000Y1132500D01*
G01D02*
X1151550Y1130950D01*
G01X1160450Y1195450D02*
X1162000Y1197000D01*
G01D02*
X1163550Y1198550D01*
G01X1160450D02*
X1162000Y1197000D01*
G01D02*
X1163550Y1195450D01*
G01X1166450Y1284890D02*
X1168000Y1286440D01*
G01D02*
X1169550Y1287990D01*
G01X1166450D02*
X1168000Y1286440D01*
G01D02*
X1169550Y1284890D01*
G01X1159450Y1339450D02*
X1161000Y1341000D01*
G01D02*
X1162550Y1342550D01*
G01X1159450D02*
X1161000Y1341000D01*
G01D02*
X1162550Y1339450D01*
G01X1151450Y1430450D02*
X1153000Y1432000D01*
G01D02*
X1154550Y1433550D01*
G01X1151450D02*
X1153000Y1432000D01*
G01D02*
X1154550Y1430450D01*
G01X1148450Y1468450D02*
X1150000Y1470000D01*
G01D02*
X1151550Y1471550D01*
G01X1148450D02*
X1150000Y1470000D01*
G01D02*
X1151550Y1468450D01*
G01X1188050Y518050D02*
X1190000Y520000D01*
G01D02*
X1191950Y521950D01*
G01X1188050D02*
X1190000Y520000D01*
G01D02*
X1191950Y518050D01*
G01X1177450Y667450D02*
X1179000Y669000D01*
G01D02*
X1180550Y670550D01*
G01X1177450D02*
X1179000Y669000D01*
G01D02*
X1180550Y667450D01*
G01X1188450Y915950D02*
X1190000Y917500D01*
G01D02*
X1191550Y919050D01*
G01X1188450D02*
X1190000Y917500D01*
G01D02*
X1191550Y915950D01*
G01X1195950Y968450D02*
X1197500Y970000D01*
G01X1183350Y963350D02*
X1184900Y964900D01*
G01D02*
X1186450Y966450D01*
G01X1183350D02*
X1184900Y964900D01*
G01D02*
X1186450Y963350D01*
G01X1197500Y970000D02*
X1199050Y971550D01*
G01X1195950D02*
X1197500Y970000D01*
G01D02*
X1199050Y968450D01*
G01X1179850Y1247350D02*
X1182500Y1250000D01*
G01D02*
X1185150Y1247350D01*
G01X1180950Y1258450D02*
X1182500Y1260000D01*
G01D02*
X1184050Y1261550D01*
G01X1180950D02*
X1182500Y1260000D01*
G01D02*
X1184050Y1258450D01*
G01X1182500Y1250000D02*
X1185150Y1252650D01*
G01X1179850D02*
X1182500Y1250000D01*
G01X1195950Y1358450D02*
X1197500Y1360000D01*
G01D02*
X1199050Y1361550D01*
G01X1195950D02*
X1197500Y1360000D01*
G01D02*
X1199050Y1358450D01*
G01X1177350Y1394850D02*
X1180000Y1397500D01*
G01D02*
X1182650Y1400150D01*
G01X1177350D02*
X1180000Y1397500D01*
G01D02*
X1182650Y1394850D01*
G01X1198450Y1419450D02*
X1200000Y1421000D01*
G01X1198450Y1422550D02*
X1200000Y1421000D01*
G01X1178450Y1407510D02*
X1180000Y1409060D01*
G01D02*
X1181550Y1410610D01*
G01X1178450D02*
X1180000Y1409060D01*
G01D02*
X1181550Y1407510D01*
G01X1194950Y1549750D02*
X1197600Y1552400D01*
G01D02*
X1200250Y1555050D01*
G01X1194950D02*
X1197600Y1552400D01*
G01D02*
X1200250Y1549750D01*
G01X1194850Y1562350D02*
X1197500Y1565000D01*
G01D02*
X1200150Y1567650D01*
G01X1194850D02*
X1197500Y1565000D01*
G01D02*
X1200150Y1562350D01*
G01X1209270Y579730D02*
X1210820Y581280D01*
G01D02*
X1212370Y582830D01*
G01X1209270D02*
X1210820Y581280D01*
G01D02*
X1212370Y579730D01*
G01X1218450Y790950D02*
X1220000Y792500D01*
G01D02*
X1221550Y794050D01*
G01X1218450D02*
X1220000Y792500D01*
G01D02*
X1221550Y790950D01*
G01X1218450Y810950D02*
X1220000Y812500D01*
G01D02*
X1221550Y814050D01*
G01X1218450D02*
X1220000Y812500D01*
G01D02*
X1221550Y810950D01*
G01X1210950Y918450D02*
X1212500Y920000D01*
G01D02*
X1214050Y921550D01*
G01X1210950D02*
X1212500Y920000D01*
G01D02*
X1214050Y918450D01*
G01X1218450Y973450D02*
X1220000Y975000D01*
G01D02*
X1221550Y976550D01*
G01X1218450D02*
X1220000Y975000D01*
G01D02*
X1221550Y973450D01*
G01X1200950Y1210950D02*
X1202500Y1212500D01*
G01D02*
X1204050Y1214050D01*
G01X1200950D02*
X1202500Y1212500D01*
G01D02*
X1204050Y1210950D01*
G01X1220950Y1240950D02*
X1222500Y1242500D01*
G01D02*
X1224050Y1244050D01*
G01X1220950D02*
X1222500Y1242500D01*
G01D02*
X1224050Y1240950D01*
G01X1213450Y1276450D02*
X1215000Y1278000D01*
G01D02*
X1216550Y1279550D01*
G01X1213450D02*
X1215000Y1278000D01*
G01D02*
X1216550Y1276450D01*
G01X1215950Y1390950D02*
X1217500Y1392500D01*
G01D02*
X1219050Y1394050D01*
G01X1215950D02*
X1217500Y1392500D01*
G01D02*
X1219050Y1390950D01*
G01X1200000Y1421000D02*
X1201550Y1422550D01*
G01X1200000Y1421000D02*
X1201550Y1419450D01*
G01X1227450Y439450D02*
X1229000Y441000D01*
G01D02*
X1230550Y442550D01*
G01X1227450D02*
X1229000Y441000D01*
G01D02*
X1230550Y439450D01*
G01X1238450Y928450D02*
X1240000Y930000D01*
G01D02*
X1241550Y931550D01*
G01X1238450D02*
X1240000Y930000D01*
G01D02*
X1241550Y928450D01*
G01X1230950Y955950D02*
X1232500Y957500D01*
G01D02*
X1234050Y959050D01*
G01X1230950D02*
X1232500Y957500D01*
G01D02*
X1234050Y955950D01*
G01X1232450Y1537250D02*
X1235100Y1539900D01*
G01D02*
X1237750Y1542550D01*
G01X1232450D02*
X1235100Y1539900D01*
G01D02*
X1237750Y1537250D01*
G01X1232350Y1549850D02*
X1235000Y1552500D01*
G01D02*
X1237650Y1555150D01*
G01X1232350D02*
X1235000Y1552500D01*
G01D02*
X1237650Y1549850D01*
G01X1232450Y1562250D02*
X1235100Y1564900D01*
G01D02*
X1237750Y1567550D01*
G01X1232450D02*
X1235100Y1564900D01*
G01D02*
X1237750Y1562250D01*
G01X1261570Y409730D02*
X1263120Y411280D01*
G01D02*
X1264670Y412830D01*
G01X1261570D02*
X1263120Y411280D01*
G01D02*
X1264670Y409730D01*
G01X1266770Y499730D02*
X1268320Y501280D01*
G01D02*
X1269870Y502830D01*
G01X1266770D02*
X1268320Y501280D01*
G01D02*
X1269870Y499730D01*
G01X1273350Y665850D02*
X1274900Y667400D01*
G01D02*
X1276450Y668950D01*
G01X1273350D02*
X1274900Y667400D01*
G01D02*
X1276450Y665850D01*
G01X1268450Y1148450D02*
X1270000Y1150000D01*
G01D02*
X1271550Y1151550D01*
G01X1268450D02*
X1270000Y1150000D01*
G01D02*
X1271550Y1148450D01*
G01X1269450Y1219510D02*
X1271000Y1221060D01*
G01D02*
X1272550Y1222610D01*
G01X1269450D02*
X1271000Y1221060D01*
G01D02*
X1272550Y1219510D01*
G01X1269450Y1250450D02*
X1271000Y1252000D01*
G01D02*
X1272550Y1253550D01*
G01X1269450D02*
X1271000Y1252000D01*
G01D02*
X1272550Y1250450D01*
G01X1265450Y1361450D02*
X1267000Y1363000D01*
G01D02*
X1268550Y1364550D01*
G01X1265450D02*
X1267000Y1363000D01*
G01D02*
X1268550Y1361450D01*
G01X1265140Y1395950D02*
X1266690Y1397500D01*
G01D02*
X1268240Y1399050D01*
G01X1265140D02*
X1266690Y1397500D01*
G01D02*
X1268240Y1395950D01*
G01X1262450Y1562450D02*
X1265100Y1565100D01*
G01D02*
X1267750Y1567750D01*
G01X1262450D02*
X1265100Y1565100D01*
G01D02*
X1267750Y1562450D01*
G01X1252450D02*
X1255100Y1565100D01*
G01D02*
X1257750Y1567750D01*
G01X1252450D02*
X1255100Y1565100D01*
G01D02*
X1257750Y1562450D01*
G01X1279270Y504930D02*
X1280820Y506480D01*
G01D02*
X1282370Y508030D01*
G01X1279270D02*
X1280820Y506480D01*
G01D02*
X1282370Y504930D01*
G01X1298450Y588450D02*
X1300000Y590000D01*
G01D02*
X1301550Y591550D01*
G01X1298450D02*
X1300000Y590000D01*
G01D02*
X1301550Y588450D01*
G01X1282450Y635450D02*
X1284000Y637000D01*
G01D02*
X1285550Y638550D01*
G01X1282450D02*
X1284000Y637000D01*
G01D02*
X1285550Y635450D01*
G01X1291250Y726140D02*
X1292800Y727690D01*
G01D02*
X1294350Y729240D01*
G01X1291250D02*
X1292800Y727690D01*
G01D02*
X1294350Y726140D01*
G01X1291250Y931250D02*
X1292800Y932800D01*
G01D02*
X1294350Y934350D01*
G01X1291250D02*
X1292800Y932800D01*
G01D02*
X1294350Y931250D01*
G01X1295450Y1199450D02*
X1297000Y1201000D01*
G01D02*
X1298550Y1202550D01*
G01X1295450D02*
X1297000Y1201000D01*
G01D02*
X1298550Y1199450D01*
G01X1288450Y1290950D02*
X1290000Y1292500D01*
G01D02*
X1291550Y1294050D01*
G01X1288450D02*
X1290000Y1292500D01*
G01D02*
X1291550Y1290950D01*
G01X1275450Y1303450D02*
X1277000Y1305000D01*
G01D02*
X1278550Y1306550D01*
G01X1275450D02*
X1277000Y1305000D01*
G01D02*
X1278550Y1303450D01*
G01X1288450Y1345950D02*
X1290000Y1347500D01*
G01D02*
X1291550Y1349050D01*
G01X1288450D02*
X1290000Y1347500D01*
G01D02*
X1291550Y1345950D01*
G01X1288450Y1437450D02*
X1290000Y1439000D01*
G01D02*
X1291550Y1440550D01*
G01X1288450D02*
X1290000Y1439000D01*
G01D02*
X1291550Y1437450D01*
G01X1282250Y1524950D02*
X1284900Y1527600D01*
G01D02*
X1287550Y1530250D01*
G01X1282250D02*
X1284900Y1527600D01*
G01D02*
X1287550Y1524950D01*
G01X1292350Y1549850D02*
X1295000Y1552500D01*
G01D02*
X1297650Y1555150D01*
G01X1292350D02*
X1295000Y1552500D01*
G01D02*
X1297650Y1549850D01*
G01X1282350Y1537350D02*
X1285000Y1540000D01*
G01D02*
X1287650Y1542650D01*
G01X1282350D02*
X1285000Y1540000D01*
G01D02*
X1287650Y1537350D01*
G01X1282350Y1562350D02*
X1285000Y1565000D01*
G01D02*
X1287650Y1567650D01*
G01X1282350D02*
X1285000Y1565000D01*
G01D02*
X1287650Y1562350D01*
G01X1323750Y678640D02*
X1325300Y680190D01*
G01D02*
X1326850Y681740D01*
G01X1323750D02*
X1325300Y680190D01*
G01D02*
X1326850Y678640D01*
G01X1316250Y861140D02*
X1317800Y862690D01*
G01D02*
X1319350Y864240D01*
G01X1316250D02*
X1317800Y862690D01*
G01D02*
X1319350Y861140D01*
G01X1316250Y846140D02*
X1317800Y847690D01*
G01D02*
X1319350Y849240D01*
G01X1316250D02*
X1317800Y847690D01*
G01D02*
X1319350Y846140D01*
G01X1308750Y916140D02*
X1310300Y917690D01*
G01D02*
X1311850Y919240D01*
G01X1308750D02*
X1310300Y917690D01*
G01D02*
X1311850Y916140D01*
G01X1318750D02*
X1320300Y917690D01*
G01D02*
X1321850Y919240D01*
G01X1318750D02*
X1320300Y917690D01*
G01D02*
X1321850Y916140D01*
G01X1301250Y963640D02*
X1302800Y965190D01*
G01D02*
X1304350Y966740D01*
G01X1301250D02*
X1302800Y965190D01*
G01D02*
X1304350Y963640D01*
G01X1307350Y1247350D02*
X1310000Y1250000D01*
G01D02*
X1312650Y1247350D01*
G01X1308450Y1258450D02*
X1310000Y1260000D01*
G01D02*
X1311550Y1261550D01*
G01X1308450D02*
X1310000Y1260000D01*
G01D02*
X1311550Y1258450D01*
G01X1310000Y1250000D02*
X1312650Y1252650D01*
G01X1307350D02*
X1310000Y1250000D01*
G01X1325950Y1358450D02*
X1327500Y1360000D01*
G01X1325950Y1361550D02*
X1327500Y1360000D01*
G01X1302350Y1394850D02*
X1305000Y1397500D01*
G01D02*
X1307650Y1400150D01*
G01X1302350D02*
X1305000Y1397500D01*
G01D02*
X1307650Y1394850D01*
G01X1303450Y1405450D02*
X1305000Y1407000D01*
G01D02*
X1306550Y1408550D01*
G01X1303450D02*
X1305000Y1407000D01*
G01D02*
X1306550Y1405450D01*
G01X1332350Y292350D02*
X1335000Y295000D01*
G01D02*
X1337650Y297650D01*
G01X1332350D02*
X1335000Y295000D01*
G01D02*
X1337650Y292350D01*
G01X1344450Y475450D02*
X1346000Y477000D01*
G01D02*
X1347550Y478550D01*
G01X1344450D02*
X1346000Y477000D01*
G01D02*
X1347550Y475450D01*
G01X1336670Y509830D02*
X1338220Y511380D01*
G01D02*
X1339770Y509830D01*
G01X1336670Y524830D02*
X1338220Y526380D01*
G01D02*
X1339770Y527930D01*
G01X1336670D02*
X1338220Y526380D01*
G01D02*
X1339770Y524830D01*
G01X1338220Y511380D02*
X1339770Y512930D01*
G01X1336670D02*
X1338220Y511380D01*
G01X1328750Y686140D02*
X1330300Y687690D01*
G01D02*
X1331850Y689240D01*
G01X1328750D02*
X1330300Y687690D01*
G01D02*
X1331850Y686140D01*
G01X1328450Y1210950D02*
X1330000Y1212500D01*
G01D02*
X1331550Y1214050D01*
G01X1328450D02*
X1330000Y1212500D01*
G01D02*
X1331550Y1210950D01*
G01X1348450Y1243450D02*
X1350000Y1245000D01*
G01D02*
X1351550Y1246550D01*
G01X1348450D02*
X1350000Y1245000D01*
G01D02*
X1351550Y1243450D01*
G01X1340450Y1276450D02*
X1342000Y1278000D01*
G01D02*
X1343550Y1279550D01*
G01X1340450D02*
X1342000Y1278000D01*
G01D02*
X1343550Y1276450D01*
G01X1327500Y1360000D02*
X1329050Y1361550D01*
G01X1327500Y1360000D02*
X1329050Y1358450D01*
G01X1345950Y1390950D02*
X1347500Y1392500D01*
G01D02*
X1349050Y1394050D01*
G01X1345950D02*
X1347500Y1392500D01*
G01D02*
X1349050Y1390950D01*
G01X1327450Y1417450D02*
X1329000Y1419000D01*
G01D02*
X1330550Y1420550D01*
G01X1327450D02*
X1329000Y1419000D01*
G01D02*
X1330550Y1417450D01*
G01X1371670Y402330D02*
X1373220Y403880D01*
G01D02*
X1374770Y405430D01*
G01X1371670D02*
X1373220Y403880D01*
G01D02*
X1374770Y402330D01*
G01X1354330Y562330D02*
X1355880Y563880D01*
G01D02*
X1357430Y565430D01*
G01X1354330D02*
X1355880Y563880D01*
G01D02*
X1357430Y562330D01*
G01X1373750Y731140D02*
X1375300Y732690D01*
G01D02*
X1376850Y734240D01*
G01X1373750D02*
X1375300Y732690D01*
G01D02*
X1376850Y731140D01*
G01X1373750Y848640D02*
X1375300Y850190D01*
G01D02*
X1376850Y851740D01*
G01X1373750D02*
X1375300Y850190D01*
G01D02*
X1376850Y848640D01*
G01X1397450Y507450D02*
X1399000Y509000D01*
G01D02*
X1400550Y510550D01*
G01X1397450D02*
X1399000Y509000D01*
G01D02*
X1400550Y507450D01*
G01X1401250Y676140D02*
X1402800Y677690D01*
G01X1401250Y679240D02*
X1402800Y677690D01*
G01X1378750Y676140D02*
X1380300Y677690D01*
G01D02*
X1381850Y679240D01*
G01X1378750D02*
X1380300Y677690D01*
G01D02*
X1381850Y676140D01*
G01X1398750Y711140D02*
X1400300Y712690D01*
G01D02*
X1401850Y714240D01*
G01X1398750D02*
X1400300Y712690D01*
G01D02*
X1401850Y711140D01*
G01X1393750Y781140D02*
X1395300Y782690D01*
G01D02*
X1396850Y784240D01*
G01X1393750D02*
X1395300Y782690D01*
G01D02*
X1396850Y781140D01*
G01X1393750Y796140D02*
X1395300Y797690D01*
G01D02*
X1396850Y799240D01*
G01X1393750D02*
X1395300Y797690D01*
G01D02*
X1396850Y796140D01*
G01X1399200Y1148450D02*
X1400750Y1150000D01*
G01D02*
X1402300Y1151550D01*
G01X1399200D02*
X1400750Y1150000D01*
G01D02*
X1402300Y1148450D01*
G01X1399450Y1219510D02*
X1401000Y1221060D01*
G01D02*
X1402550Y1222610D01*
G01X1399450D02*
X1401000Y1221060D01*
G01D02*
X1402550Y1219510D01*
G01X1398450Y1248450D02*
X1400000Y1250000D01*
G01D02*
X1401550Y1248450D01*
G01X1400000Y1250000D02*
X1401550Y1251550D01*
G01X1398450D02*
X1400000Y1250000D01*
G01X1390950Y1363450D02*
X1392500Y1365000D01*
G01D02*
X1394050Y1366550D01*
G01X1390950D02*
X1392500Y1365000D01*
G01D02*
X1394050Y1363450D01*
G01X1395640Y1394450D02*
X1397190Y1396000D01*
G01D02*
X1398740Y1397550D01*
G01X1395640D02*
X1397190Y1396000D01*
G01D02*
X1398740Y1394450D01*
G01X1379950Y1527250D02*
X1382600Y1529900D01*
G01D02*
X1385250Y1527250D01*
G01X1379950Y1539750D02*
X1382600Y1542400D01*
G01D02*
X1385250Y1545050D01*
G01X1379950D02*
X1382600Y1542400D01*
G01D02*
X1385250Y1539750D01*
G01X1379950Y1552250D02*
X1382600Y1554900D01*
G01D02*
X1385250Y1557550D01*
G01X1379950D02*
X1382600Y1554900D01*
G01D02*
X1385250Y1552250D01*
G01X1382600Y1529900D02*
X1385250Y1532550D01*
G01X1379950D02*
X1382600Y1529900D01*
G01X1399850Y1564850D02*
X1402500Y1567500D01*
G01X1399850Y1570150D02*
X1402500Y1567500D01*
G01X1379950Y1564750D02*
X1382600Y1567400D01*
G01D02*
X1385250Y1570050D01*
G01X1379950D02*
X1382600Y1567400D01*
G01D02*
X1385250Y1564750D01*
G01X1404450Y462450D02*
X1406000Y464000D01*
G01D02*
X1407550Y465550D01*
G01X1404450D02*
X1406000Y464000D01*
G01D02*
X1407550Y462450D01*
G01X1408450Y508450D02*
X1410000Y510000D01*
G01D02*
X1411550Y511550D01*
G01X1408450D02*
X1410000Y510000D01*
G01D02*
X1411550Y508450D01*
G01X1411250Y628640D02*
X1412800Y630190D01*
G01X1411250Y631740D02*
X1412800Y630190D01*
G01D02*
X1414350Y628640D01*
G01X1406610D02*
X1408160Y630190D01*
G01D02*
X1409710Y631740D01*
G01X1406610D02*
X1408160Y630190D01*
G01D02*
X1409710Y628640D01*
G01X1402800Y677690D02*
X1404350Y679240D01*
G01X1402800Y677690D02*
X1404350Y676140D01*
G01X1421250Y901140D02*
X1422800Y902690D01*
G01D02*
X1424350Y904240D01*
G01X1421250D02*
X1422800Y902690D01*
G01D02*
X1424350Y901140D01*
G01X1418450Y1193450D02*
X1420000Y1195000D01*
G01D02*
X1421550Y1196550D01*
G01X1418450D02*
X1420000Y1195000D01*
G01D02*
X1421550Y1193450D01*
G01X1420450Y1284450D02*
X1422000Y1286000D01*
G01D02*
X1423550Y1287550D01*
G01X1420450D02*
X1422000Y1286000D01*
G01D02*
X1423550Y1284450D01*
G01X1404140Y1304450D02*
X1405690Y1306000D01*
G01D02*
X1407240Y1307550D01*
G01X1404140D02*
X1405690Y1306000D01*
G01D02*
X1407240Y1304450D01*
G01X1410950Y1340950D02*
X1412500Y1342500D01*
G01D02*
X1414050Y1344050D01*
G01X1410950D02*
X1412500Y1342500D01*
G01D02*
X1414050Y1340950D01*
G01X1403450Y1435950D02*
X1405000Y1437500D01*
G01D02*
X1406550Y1439050D01*
G01X1403450D02*
X1405000Y1437500D01*
G01D02*
X1406550Y1435950D01*
G01X1409950Y1539750D02*
X1412600Y1542400D01*
G01D02*
X1415250Y1545050D01*
G01X1409950D02*
X1412600Y1542400D01*
G01D02*
X1415250Y1539750D01*
G01X1409950Y1552350D02*
X1412600Y1555000D01*
G01D02*
X1415250Y1557650D01*
G01X1409950D02*
X1412600Y1555000D01*
G01D02*
X1415250Y1552350D01*
G01X1402500Y1567500D02*
X1405150Y1570150D01*
G01X1402500Y1567500D02*
X1405150Y1564850D01*
G01X1446750Y561140D02*
X1448300Y562690D01*
G01D02*
X1449850Y561140D01*
G01X1448300Y562690D02*
X1449850Y564240D01*
G01X1446750D02*
X1448300Y562690D01*
G01X1434850Y1247350D02*
X1437500Y1250000D01*
G01D02*
X1440150Y1247350D01*
G01X1435950Y1258450D02*
X1437500Y1260000D01*
G01D02*
X1439050Y1261550D01*
G01X1435950D02*
X1437500Y1260000D01*
G01D02*
X1439050Y1258450D01*
G01X1437500Y1250000D02*
X1440150Y1252650D01*
G01X1434850D02*
X1437500Y1250000D01*
G01X1432350Y1393350D02*
X1435000Y1396000D01*
G01D02*
X1437650Y1398650D01*
G01X1432350D02*
X1435000Y1396000D01*
G01D02*
X1437650Y1393350D01*
G01X1433450Y1403450D02*
X1435000Y1405000D01*
G01D02*
X1436550Y1406550D01*
G01X1433450D02*
X1435000Y1405000D01*
G01D02*
X1436550Y1403450D01*
G01X1449750Y1554950D02*
X1452400Y1557600D01*
G01X1449750Y1564950D02*
X1452400Y1567600D01*
G01D02*
X1455050Y1570250D01*
G01X1449750D02*
X1452400Y1567600D01*
G01D02*
X1455050Y1564950D01*
G01X1452400Y1557600D02*
X1455050Y1560250D01*
G01X1449750D02*
X1452400Y1557600D01*
G01D02*
X1455050Y1554950D01*
G01X1465950Y523450D02*
X1467500Y525000D01*
G01D02*
X1469050Y526550D01*
G01X1465950D02*
X1467500Y525000D01*
G01D02*
X1469050Y523450D01*
G01X1468750Y608640D02*
X1470300Y610190D01*
G01D02*
X1471850Y611740D01*
G01X1468750D02*
X1470300Y610190D01*
G01D02*
X1471850Y608640D01*
G01X1455950Y1212450D02*
X1457500Y1214000D01*
G01D02*
X1459050Y1215550D01*
G01X1455950D02*
X1457500Y1214000D01*
G01D02*
X1459050Y1212450D01*
G01X1475950Y1245950D02*
X1477500Y1247500D01*
G01D02*
X1479050Y1249050D01*
G01X1475950D02*
X1477500Y1247500D01*
G01D02*
X1479050Y1245950D01*
G01X1463450Y1279450D02*
X1465000Y1281000D01*
G01D02*
X1466550Y1282550D01*
G01X1463450D02*
X1465000Y1281000D01*
G01D02*
X1466550Y1279450D01*
G01X1453450Y1358450D02*
X1455000Y1360000D01*
G01D02*
X1456550Y1361550D01*
G01X1453450D02*
X1455000Y1360000D01*
G01D02*
X1456550Y1358450D01*
G01X1473450Y1390950D02*
X1475000Y1392500D01*
G01D02*
X1476550Y1394050D01*
G01X1473450D02*
X1475000Y1392500D01*
G01D02*
X1476550Y1390950D01*
G01X1465450Y1424450D02*
X1467000Y1426000D01*
G01D02*
X1468550Y1427550D01*
G01X1465450D02*
X1467000Y1426000D01*
G01D02*
X1468550Y1424450D01*
G01X1459950Y1514750D02*
X1462600Y1517400D01*
G01D02*
X1465250Y1520050D01*
G01X1459950D02*
X1462600Y1517400D01*
G01D02*
X1465250Y1514750D01*
G01X1459950Y1524750D02*
X1462600Y1527400D01*
G01D02*
X1465250Y1530050D01*
G01X1459950D02*
X1462600Y1527400D01*
G01D02*
X1465250Y1524750D01*
G01X1459950Y1534750D02*
X1462600Y1537400D01*
G01D02*
X1465250Y1540050D01*
G01X1459950D02*
X1462600Y1537400D01*
G01D02*
X1465250Y1534750D01*
G01X1459950Y1544750D02*
X1462600Y1547400D01*
G01D02*
X1465250Y1550050D01*
G01X1459950D02*
X1462600Y1547400D01*
G01D02*
X1465250Y1544750D01*
G01X1494250Y526140D02*
X1495800Y527690D01*
G01D02*
X1497350Y529240D01*
G01X1494250D02*
X1495800Y527690D01*
G01D02*
X1497350Y526140D01*
G01X1483750Y608640D02*
X1485300Y610190D01*
G01D02*
X1486850Y611740D01*
G01X1483750D02*
X1485300Y610190D01*
G01D02*
X1486850Y608640D01*
G01X1488750Y651140D02*
X1490300Y652690D01*
G01D02*
X1491850Y654240D01*
G01X1488750D02*
X1490300Y652690D01*
G01D02*
X1491850Y651140D01*
G01X1498450Y678450D02*
X1500000Y680000D01*
G01D02*
X1501550Y681550D01*
G01X1498450D02*
X1500000Y680000D01*
G01D02*
X1501550Y678450D01*
G01X1490250Y708450D02*
X1491800Y710000D01*
G01D02*
X1493350Y711550D01*
G01X1490250D02*
X1491800Y710000D01*
G01D02*
X1493350Y708450D01*
G01X1483750Y731140D02*
X1485300Y732690D01*
G01D02*
X1486850Y734240D01*
G01X1483750D02*
X1485300Y732690D01*
G01D02*
X1486850Y731140D01*
G01X1486250Y751140D02*
X1487800Y752690D01*
G01D02*
X1489350Y754240D01*
G01X1486250D02*
X1487800Y752690D01*
G01D02*
X1489350Y751140D01*
G01X1492250Y1564950D02*
X1494900Y1567600D01*
G01D02*
X1497550Y1570250D01*
G01X1492250D02*
X1494900Y1567600D01*
G01D02*
X1497550Y1564950D01*
G01X1516250Y658640D02*
X1517800Y660190D01*
G01D02*
X1519350Y661740D01*
G01X1516250D02*
X1517800Y660190D01*
G01D02*
X1519350Y658640D01*
G01X1507450Y1153450D02*
X1509000Y1155000D01*
G01D02*
X1510550Y1156550D01*
G01X1507450D02*
X1509000Y1155000D01*
G01D02*
X1510550Y1153450D01*
G01X1525950Y1225950D02*
X1527500Y1227500D01*
G01D02*
X1529050Y1229050D01*
G01X1525950D02*
X1527500Y1227500D01*
G01D02*
X1529050Y1225950D01*
G01X1527450Y1250450D02*
X1529000Y1252000D01*
G01D02*
X1530550Y1253550D01*
G01X1527450D02*
X1529000Y1252000D01*
G01D02*
X1530550Y1250450D01*
G01X1520950Y1365950D02*
X1522500Y1367500D01*
G01D02*
X1524050Y1369050D01*
G01X1520950D02*
X1522500Y1367500D01*
G01D02*
X1524050Y1365950D01*
G01X1523140Y1395950D02*
X1524690Y1397500D01*
G01D02*
X1526240Y1399050D01*
G01X1523140D02*
X1524690Y1397500D01*
G01D02*
X1526240Y1395950D01*
G01X1519750Y1554950D02*
X1522400Y1557600D01*
G01D02*
X1525050Y1554950D01*
G01X1529850Y1544850D02*
X1532500Y1547500D01*
G01X1529850Y1550150D02*
X1532500Y1547500D01*
G01X1519750Y1564950D02*
X1522400Y1567600D01*
G01D02*
X1525050Y1570250D01*
G01X1519750D02*
X1522400Y1567600D01*
G01D02*
X1525050Y1564950D01*
G01X1522400Y1557600D02*
X1525050Y1560250D01*
G01X1519750D02*
X1522400Y1557600D01*
G01X1554450Y1200450D02*
X1556000Y1202000D01*
G01X1554450Y1203550D02*
X1556000Y1202000D01*
G01X1540950Y1293450D02*
X1542500Y1295000D01*
G01D02*
X1544050Y1296550D01*
G01X1540950D02*
X1542500Y1295000D01*
G01D02*
X1544050Y1293450D01*
G01X1535450Y1303450D02*
X1537000Y1305000D01*
G01D02*
X1538550Y1306550D01*
G01X1535450D02*
X1537000Y1305000D01*
G01D02*
X1538550Y1303450D01*
G01X1545950Y1345950D02*
X1547500Y1347500D01*
G01D02*
X1549050Y1349050D01*
G01X1545950D02*
X1547500Y1347500D01*
G01D02*
X1549050Y1345950D01*
G01X1543450Y1440950D02*
X1545000Y1442500D01*
G01D02*
X1546550Y1444050D01*
G01X1543450D02*
X1545000Y1442500D01*
G01D02*
X1546550Y1440950D01*
G01X1532500Y1547500D02*
X1535150Y1550150D01*
G01X1532500Y1547500D02*
X1535150Y1544850D01*
G01X1577350Y499850D02*
X1580000Y502500D01*
G01D02*
X1582650Y505150D01*
G01X1577350D02*
X1580000Y502500D01*
G01D02*
X1582650Y499850D01*
G01X1572350Y1174850D02*
X1575000Y1177500D01*
G01D02*
X1577650Y1180150D01*
G01X1572350D02*
X1575000Y1177500D01*
G01D02*
X1577650Y1174850D01*
G01X1556000Y1202000D02*
X1557550Y1203550D01*
G01X1556000Y1202000D02*
X1557550Y1200450D01*
G01X1563450Y1258450D02*
X1565000Y1260000D01*
G01D02*
X1566550Y1261550D01*
G01X1563450D02*
X1565000Y1260000D01*
G01D02*
X1566550Y1258450D01*
G01X1562350Y1249850D02*
X1565000Y1252500D01*
G01D02*
X1567650Y1255150D01*
G01X1562350D02*
X1565000Y1252500D01*
G01D02*
X1567650Y1249850D01*
G01X1559850Y1394850D02*
X1562500Y1397500D01*
G01D02*
X1565150Y1400150D01*
G01X1559850D02*
X1562500Y1397500D01*
G01D02*
X1565150Y1394850D01*
G01X1560950Y1406450D02*
X1562500Y1408000D01*
G01D02*
X1564050Y1409550D01*
G01X1560950D02*
X1562500Y1408000D01*
G01D02*
X1564050Y1406450D01*
G54D12*
X95000Y1055000D03*
X110000Y1060000D03*
X115000Y1050000D03*
X105000Y1197500D03*
X115000Y1200000D03*
X105000Y1287500D03*
X120000Y1290000D03*
X125000Y1300000D03*
X115000D03*
X127500Y1310000D03*
X115000Y1365000D03*
Y1375000D03*
X150000Y832500D03*
X152500Y877500D03*
Y1037500D03*
X130000Y1022500D03*
Y1055000D03*
X145000D03*
Y1082500D03*
X135000Y1187500D03*
X145000Y1192500D03*
X150000Y1187500D03*
X140000Y1227500D03*
X147500Y1237500D03*
X142400Y1257600D03*
X147600Y1267600D03*
X152500Y1262500D03*
X145000Y1300000D03*
X140000Y1305000D03*
X147500Y1310000D03*
X152500Y1365000D03*
X132500D03*
Y1375000D03*
X170000Y455000D03*
X172500Y912500D03*
Y919640D03*
X160000Y942500D03*
Y920000D03*
X170000Y997500D03*
X165000Y1067500D03*
X170000Y1157500D03*
X160000Y1235000D03*
X157500Y1275000D03*
X172500Y1297500D03*
X165000D03*
X166000Y1284000D03*
X172500Y1310000D03*
X167500Y1365000D03*
X180100Y1455100D03*
Y1449900D03*
X167500Y1455000D03*
X177500Y1437500D03*
X195000Y870000D03*
X187000Y893000D03*
X190000Y915000D03*
Y897500D03*
X205000Y912500D03*
X200000Y930000D03*
Y947500D03*
X190000Y967500D03*
X205000Y950000D03*
X185000D03*
X190000Y982500D03*
X200000Y1017500D03*
Y1002500D03*
X202500Y997500D03*
X205000Y1020000D03*
X190000Y1037500D03*
Y1052500D03*
X200000Y1072500D03*
X185000Y1052500D03*
X200000Y1090000D03*
X205000Y1107500D03*
X192500Y1187500D03*
X185000Y1217500D03*
X197500Y1232500D03*
X192500Y1245000D03*
X185000Y1362500D03*
Y1407500D03*
X205000Y1440000D03*
X187500Y1445000D03*
X192500Y1450000D03*
X217500Y827500D03*
X225000Y882500D03*
X220000Y917500D03*
X227500Y940000D03*
X220000Y965000D03*
X230000Y952500D03*
X210000Y957500D03*
X222500Y987500D03*
X230000Y1020000D03*
X225000Y997500D03*
X215000Y1025000D03*
X225000Y1067500D03*
X207500Y1187500D03*
Y1212500D03*
Y1227500D03*
X227500Y1290000D03*
Y1277500D03*
X217500Y1290000D03*
Y1277500D03*
X227500Y1322500D03*
Y1310000D03*
X215000Y1375000D03*
X227500Y1392500D03*
X217500Y1395000D03*
X207500Y1425000D03*
X222500Y1412500D03*
X230000Y1442500D03*
X217500Y1437500D03*
X210000Y1445000D03*
X227500Y1435000D03*
X253560Y473560D03*
X250000Y723000D03*
X242500Y855000D03*
X237000Y879000D03*
X255000Y907500D03*
X240000Y922500D03*
X247500Y975000D03*
Y983250D03*
X252500Y1002500D03*
X241440Y998940D03*
X247500Y1077500D03*
X245000Y1117500D03*
X232500Y1370000D03*
X255000Y1435000D03*
X270000Y723000D03*
X276000Y727000D03*
X257500Y787500D03*
X263000Y777000D03*
X275000Y860000D03*
X270000Y892500D03*
X277500Y907500D03*
X278560Y933560D03*
X262500Y947500D03*
X272500Y952500D03*
X277500Y992500D03*
X262500Y980000D03*
X277500Y1010000D03*
X265000Y1017500D03*
X262500Y1010000D03*
Y1032500D03*
X257500Y1035000D03*
X267500Y1070000D03*
X272500D03*
X270000Y1055000D03*
X272500Y1117500D03*
X257500D03*
X270000Y1347500D03*
X260000Y1370000D03*
X270000Y1397500D03*
X305000Y610000D03*
X307500Y737500D03*
X302500Y827500D03*
X305000Y847500D03*
X295000Y855000D03*
X300000Y870000D03*
X285000Y892500D03*
X305000Y907500D03*
Y897500D03*
X290000D03*
X285000Y930000D03*
X307500Y975000D03*
X287500D03*
X292500Y1122500D03*
X300000Y1115000D03*
X285000Y1425000D03*
X325000Y600000D03*
X312500Y737500D03*
Y757500D03*
X325000Y760000D03*
X327500Y797500D03*
X322500Y822500D03*
X332500D03*
X315000Y855000D03*
X320950Y877500D03*
X317410D03*
X325000Y905000D03*
X327500Y937500D03*
X317500D03*
X322500Y982500D03*
X317500Y980000D03*
X327500Y1040000D03*
X317500Y1025000D03*
X312500Y1072500D03*
X327500Y1105000D03*
X320000Y1187500D03*
X312500Y1330000D03*
X330000Y1445000D03*
X340000Y460000D03*
Y440000D03*
Y480000D03*
X351560Y540440D03*
X342500Y588500D03*
X355000Y810000D03*
X337500Y837500D03*
X346770Y864400D03*
X343230D03*
X342990Y887990D03*
X357500Y880000D03*
X350000Y905000D03*
X342500Y925000D03*
X337500Y927500D03*
X357500Y967500D03*
X337500D03*
Y982500D03*
X357500D03*
Y972500D03*
X342400Y1094900D03*
X347500Y1075000D03*
X347600Y1094900D03*
X335000Y1112500D03*
X352500Y1295000D03*
X335000Y1307500D03*
X352500D03*
X350000Y1340000D03*
X355000Y1387500D03*
X340000Y1425000D03*
X337500Y1460000D03*
X381000Y435000D03*
X374000Y480000D03*
X363000D03*
X382500Y850000D03*
Y892500D03*
X374500Y873000D03*
X362500Y895000D03*
X377500Y930000D03*
X360000Y937500D03*
X373940Y947500D03*
X372500Y982500D03*
Y972500D03*
X380000Y1032500D03*
X372500Y1212500D03*
X382500D03*
X372500Y1240000D03*
X382500D03*
Y1287500D03*
X377500Y1350000D03*
X362500D03*
X365000Y1340000D03*
X375000Y1330000D03*
X360000Y1375000D03*
X380000Y1372500D03*
X375000Y1377500D03*
Y1426000D03*
X360000Y1447500D03*
Y1430000D03*
X370000D03*
Y1447500D03*
X381000Y1436000D03*
X395000Y460000D03*
X396000Y442500D03*
X395000Y480000D03*
Y862500D03*
X385000Y905000D03*
X395000Y920000D03*
X393000Y968000D03*
X402500Y960000D03*
X385000Y995000D03*
X387500Y1072500D03*
X407500Y1290000D03*
X389500Y1323000D03*
X395000Y1335000D03*
Y1330000D03*
X405000Y1362500D03*
Y1392500D03*
X387500Y1382500D03*
X397500Y1450000D03*
X387500Y1460000D03*
X431060Y436560D03*
X412000Y760000D03*
X417500Y905000D03*
X427500Y1162500D03*
X412500Y1292500D03*
Y1345000D03*
X415000Y1362500D03*
X427500Y1397500D03*
X432500Y1417500D03*
X430000Y1575000D03*
Y1560000D03*
X438940Y436560D03*
Y487440D03*
X460000Y770000D03*
X450000Y815000D03*
X440000Y910000D03*
X450000Y915000D03*
X442500Y1362500D03*
X457500Y1405000D03*
X477500Y815000D03*
X484000D03*
X510060Y489940D03*
X511000Y502000D03*
X499790Y535150D03*
Y585150D03*
X510250Y1137750D03*
X515000Y450000D03*
X531000Y480000D03*
X535000Y725000D03*
X525000Y737500D03*
X530000Y732500D03*
X517500Y742500D03*
X525000Y810000D03*
X520000D03*
X530000D03*
X527500Y1092500D03*
Y1097500D03*
X522940Y1154060D03*
X517060Y1175060D03*
X537500Y445000D03*
X544620Y467460D03*
X562630D03*
X547500Y477500D03*
X548920Y462460D03*
X557500Y502500D03*
X537500Y810000D03*
Y922500D03*
X547500Y1150000D03*
X542500Y1202500D03*
X550250Y1382750D03*
X542500Y1385000D03*
X560000Y1389000D03*
X542500Y1405000D03*
X554700Y1445000D03*
X562500D03*
X582500Y450000D03*
X587500Y445000D03*
X572120Y438070D03*
X569060Y485000D03*
X580000Y466000D03*
X567370Y477460D03*
X587500Y495000D03*
X565000Y737500D03*
X582500D03*
X587500Y862500D03*
Y847500D03*
X567500Y867500D03*
X582500Y845000D03*
X572500Y902500D03*
X587500Y950000D03*
X585000Y970000D03*
X587060Y1118060D03*
X582500Y1150000D03*
X587500Y1352500D03*
X580000Y1395000D03*
X565000Y1389000D03*
X585000Y1412500D03*
X572500Y1445000D03*
Y1465000D03*
X607370Y451060D03*
X599000Y481000D03*
X597510Y466570D03*
X595000Y476000D03*
X598000Y495000D03*
X605000Y740000D03*
X590000Y737500D03*
X597500D03*
X602500Y842500D03*
X610000D03*
X597500Y862500D03*
Y847500D03*
Y882500D03*
Y897500D03*
X604900Y942400D03*
X595000Y955000D03*
X597500Y992500D03*
X607500Y1145000D03*
X594800Y1144800D03*
X595000Y1150000D03*
X603000Y1170000D03*
X602500Y1182500D03*
X602000Y1205000D03*
X612500Y1285000D03*
Y1352500D03*
X630000Y433000D03*
Y482500D03*
X627500Y500000D03*
X639000Y509000D03*
X617500Y920000D03*
X637500Y937500D03*
Y932500D03*
X617500Y1310000D03*
X633000Y1352000D03*
X615000Y1402500D03*
X657500Y445000D03*
Y937500D03*
Y925000D03*
X645000Y920000D03*
X642500Y1145000D03*
X655000D03*
X654800Y1139800D03*
X655000Y1245000D03*
Y1252500D03*
Y1297500D03*
X640000D03*
Y1322500D03*
X660000Y1327500D03*
X645000D03*
X640000Y1307500D03*
X647500Y1320000D03*
X645000Y1352500D03*
X640000Y1350000D03*
X657500Y1370000D03*
X650000Y1402500D03*
X645000Y1382500D03*
X655000Y1442500D03*
X682000Y480000D03*
X675000Y910000D03*
X682500Y915000D03*
X667500Y937500D03*
Y925000D03*
Y955000D03*
Y972500D03*
X678000Y1168000D03*
X680000Y1180000D03*
X678000Y1193000D03*
Y1205000D03*
X680050Y1235050D03*
X665000Y1312500D03*
X670000Y1327500D03*
X685000Y1302500D03*
X682500Y1322500D03*
X672500Y1317500D03*
Y1307500D03*
X685000Y1367500D03*
X670000Y1365000D03*
X665000Y1367500D03*
Y1402500D03*
Y1382500D03*
X672500Y1420000D03*
Y1435000D03*
X715000Y407500D03*
X714000Y766000D03*
Y756000D03*
X713000Y747000D03*
X715000Y776000D03*
X707500Y937500D03*
X695000Y1272500D03*
Y1300000D03*
X720000Y407500D03*
X735000Y452500D03*
X720000Y649000D03*
Y687000D03*
Y665000D03*
X719000Y678000D03*
X720000Y672000D03*
X722000Y696000D03*
X719000Y707000D03*
X722000Y737000D03*
X718000Y728000D03*
X717000Y718000D03*
X717500Y740000D03*
X732500Y1022500D03*
X737500Y1332500D03*
X745000Y690000D03*
X747500Y670000D03*
Y680000D03*
Y685000D03*
Y665000D03*
X745000Y695000D03*
Y702500D03*
X746000Y718000D03*
X742500Y742500D03*
X745000Y880000D03*
X760000Y1405000D03*
X772500Y405000D03*
X767500D03*
X787500Y455000D03*
X777500Y637500D03*
X768000Y644000D03*
X775000Y645000D03*
X772000Y665000D03*
X768000Y676000D03*
X769000Y687000D03*
X786000Y673000D03*
X768000Y696000D03*
X769000Y708000D03*
X779000Y709000D03*
X769000Y737000D03*
Y728000D03*
X768000Y766000D03*
X769000Y756000D03*
Y747000D03*
X768000Y777000D03*
X782500Y1310000D03*
X787890Y1402500D03*
X770000Y1390000D03*
X805000Y458000D03*
X810000Y490000D03*
X801060Y500060D03*
X817500Y522860D03*
X805000Y530000D03*
X811000Y560000D03*
X802500Y730000D03*
X817500D03*
X815000Y893000D03*
X805000Y883000D03*
X807500Y1045000D03*
Y1105000D03*
X802500Y1135000D03*
X815000Y1130000D03*
X805000Y1152500D03*
X817500Y1160000D03*
X805000Y1300000D03*
X795000D03*
X805000Y1315000D03*
X795000D03*
X805000Y1350000D03*
Y1335000D03*
X792500Y1367500D03*
Y1395000D03*
X810000Y1402500D03*
X805000Y1395000D03*
X842000Y374000D03*
X832500Y435000D03*
X840000Y425000D03*
X825000Y427500D03*
X830610Y446630D03*
X832700Y440200D03*
X838560Y481000D03*
X830000Y525000D03*
X820000Y650000D03*
X832500Y730000D03*
X835000Y842500D03*
X840000Y852500D03*
X837500Y847500D03*
X842500Y1127500D03*
X832500Y1155000D03*
X822500Y1150000D03*
X840000Y1400000D03*
X830100Y1394900D03*
X843940Y391060D03*
X847300Y440200D03*
X847500Y522500D03*
Y517500D03*
X865000D03*
X850000Y715000D03*
X846000Y853000D03*
X860000Y885000D03*
X865000Y892500D03*
X855000Y897500D03*
X860000Y1045000D03*
Y1050000D03*
X855000Y1102500D03*
X852500Y1140000D03*
X857500Y1142500D03*
X860000Y1147500D03*
X855000Y1152500D03*
X847500Y1155000D03*
X882500Y440000D03*
X880000Y493000D03*
X870000Y520000D03*
X880000Y515000D03*
X872000Y560000D03*
X888000Y684000D03*
X891000Y706500D03*
X893500Y728000D03*
Y737500D03*
X893000Y746500D03*
X892500Y756500D03*
X880000Y892500D03*
X887500Y882500D03*
X870000Y900000D03*
X875000Y895000D03*
X892500Y1122500D03*
X883000Y1113000D03*
X887500Y1140000D03*
Y1145000D03*
X882500Y1132500D03*
X887500Y1150000D03*
Y1155000D03*
X869000D03*
X870000Y1160000D03*
X907500Y440000D03*
X895000D03*
X907560Y486000D03*
X915000Y522500D03*
X907500Y514000D03*
X897000Y560000D03*
X895000Y645000D03*
Y652500D03*
Y671000D03*
X898000Y677000D03*
X895000Y696500D03*
X897420Y716380D03*
X895500Y765500D03*
X897000Y778000D03*
Y882000D03*
X917500Y992500D03*
Y1122500D03*
X907500Y1160000D03*
X917500D03*
X933560Y377440D03*
X941440Y393440D03*
X940000Y432500D03*
X942500Y425000D03*
X935000Y442500D03*
X927500Y444890D03*
X935200Y437300D03*
X936440Y480440D03*
X930000Y525000D03*
X945000Y662500D03*
Y677500D03*
Y687500D03*
X943000Y696500D03*
X941500Y709000D03*
X942500Y717500D03*
X943000Y727500D03*
X944500Y765500D03*
Y756000D03*
Y747000D03*
X943000Y776500D03*
X920000Y1478000D03*
Y1557500D03*
X947500Y435000D03*
X950000Y471000D03*
X947500Y525000D03*
X962500D03*
X947500Y515000D03*
X962500D03*
X963000Y560000D03*
X947500Y647500D03*
X953000Y677000D03*
X960000Y900000D03*
X970000D03*
Y932500D03*
X947500Y1272500D03*
X956000Y1285000D03*
X962500Y1555000D03*
Y1532500D03*
X982500Y440000D03*
X972500Y489000D03*
Y513000D03*
Y672500D03*
X975000Y950000D03*
X995000Y1285000D03*
X1019800Y486800D03*
X1012500Y1005000D03*
X1000000Y1137500D03*
X1002500Y1255000D03*
X1019390Y1365000D03*
X1005000Y1430000D03*
X1000000Y1452500D03*
Y1555000D03*
X1032500Y445000D03*
X1025000Y485000D03*
X1030000Y470000D03*
Y465000D03*
X1027500Y987500D03*
X1045000Y992500D03*
X1042500Y1130000D03*
Y1157500D03*
X1030000Y1272000D03*
X1027500Y1257500D03*
X1025000Y1302500D03*
X1044750Y1354750D03*
X1042500Y1495000D03*
X1027500D03*
X1050230Y435000D03*
X1053770D03*
X1053450Y445000D03*
X1056790D03*
X1060000Y473000D03*
X1065000Y480000D03*
Y465000D03*
X1060000Y487500D03*
X1050000Y498000D03*
X1067500Y632500D03*
Y625000D03*
X1070000Y785000D03*
X1066460D03*
X1054270Y805000D03*
X1050730D03*
X1070000Y1030000D03*
X1072500Y1040000D03*
X1047500Y1285000D03*
X1057500Y1340000D03*
X1057400Y1347400D03*
X1072500Y1360000D03*
X1070000Y1422500D03*
X1055000Y1415000D03*
X1070000Y1432500D03*
X1077500Y442500D03*
X1080000Y461000D03*
X1083000Y457000D03*
X1080000Y481000D03*
X1095000Y475000D03*
Y495000D03*
X1080000Y490000D03*
X1095000Y505000D03*
X1092500Y510000D03*
Y517500D03*
X1087000Y977000D03*
X1077500Y1045000D03*
X1090250Y1072750D03*
X1082500Y1050000D03*
X1097020Y1117980D03*
X1080000Y1115000D03*
X1092500Y1172500D03*
X1075000Y1212500D03*
X1095000Y1245000D03*
X1087000Y1278000D03*
X1090000Y1320000D03*
X1092500Y1392500D03*
X1095000Y1500000D03*
X1120000Y449000D03*
X1101000Y470000D03*
X1114560Y499560D03*
X1110000Y495000D03*
X1101060Y512500D03*
X1100000Y807500D03*
X1107500Y980000D03*
X1117500Y1085000D03*
X1120000Y1080000D03*
X1104900Y1129900D03*
X1121000Y1276000D03*
X1102500Y1290000D03*
X1119300Y1422500D03*
X1120000Y1512500D03*
X1137500Y445000D03*
X1125000Y475000D03*
X1130200Y484800D03*
X1131000Y474000D03*
X1135000Y472500D03*
X1128940Y512500D03*
X1138560Y686060D03*
X1142500Y700000D03*
Y720000D03*
Y737500D03*
Y755000D03*
Y900000D03*
X1132500Y935000D03*
X1137500Y945000D03*
X1132500Y1077500D03*
X1140000Y1135000D03*
X1145630Y1152500D03*
X1137690Y1152000D03*
X1145000Y1180000D03*
X1144000Y1221000D03*
X1146000Y1249000D03*
X1131190Y1242000D03*
X1147500Y1295000D03*
X1142500Y1290000D03*
Y1327500D03*
X1129000Y1309000D03*
X1141000Y1366000D03*
X1141690Y1397500D03*
X1128190Y1389000D03*
X1140000Y1451000D03*
X1142500Y1440000D03*
X1132500Y1480000D03*
X1127500Y1485000D03*
X1165000Y452500D03*
X1151810Y473080D03*
X1155350D03*
X1165000Y497500D03*
X1166060Y668560D03*
X1162500Y685000D03*
X1150000Y737500D03*
X1172500D03*
X1157500D03*
X1152500Y755000D03*
X1167500Y767500D03*
X1165000Y776230D03*
Y779770D03*
X1166000Y808000D03*
X1152500Y850000D03*
X1167500Y915000D03*
X1157500Y900000D03*
X1162500Y940000D03*
X1160000Y1085000D03*
X1150000Y1132500D03*
X1160000D03*
X1162000Y1197000D03*
X1169000Y1178000D03*
X1160000Y1260000D03*
X1159500Y1271000D03*
X1168000Y1286440D03*
X1161000Y1341000D03*
X1157500Y1407500D03*
X1163000Y1413000D03*
X1153000Y1432000D03*
X1150000Y1470000D03*
Y1477500D03*
X1165000Y1492500D03*
X1182500Y602500D03*
Y622500D03*
X1177500Y662500D03*
X1179000Y669000D03*
X1195000Y708730D03*
Y712270D03*
X1182500Y735000D03*
X1197500Y722500D03*
X1192500Y780000D03*
X1187500Y808730D03*
Y812270D03*
X1186230Y795250D03*
X1189770D03*
X1183000Y823000D03*
X1177500Y885000D03*
X1190000Y917500D03*
X1197500Y942500D03*
X1185000Y922500D03*
X1177500D03*
X1184900Y964900D03*
X1197500Y970000D03*
X1185000D03*
X1182500Y1260000D03*
X1177000Y1327000D03*
X1197500Y1360000D03*
X1180000Y1409060D03*
X1200000Y1421000D03*
X1195000Y1425000D03*
X1223220Y551380D03*
X1203220Y548880D03*
X1218220Y538880D03*
X1210820Y581280D03*
X1205720Y566380D03*
X1205620Y581280D03*
X1205000Y660000D03*
X1220000Y675000D03*
X1205230Y680000D03*
X1208770D03*
X1225000Y695000D03*
Y707500D03*
X1210000Y782500D03*
X1220000Y812500D03*
Y792500D03*
X1212500Y920000D03*
X1220000Y975000D03*
X1210000Y1117500D03*
X1220000Y1172500D03*
X1202500Y1212500D03*
X1222500Y1242500D03*
X1215000Y1278000D03*
Y1320000D03*
X1217500Y1392500D03*
X1207000Y1425000D03*
X1229000Y441000D03*
X1228220Y548880D03*
X1250000Y660000D03*
X1230000Y712500D03*
X1242500Y692500D03*
X1250000Y715000D03*
X1240000Y930000D03*
X1232500Y957500D03*
X1250000Y1296000D03*
X1249000Y1277000D03*
X1250250Y1390000D03*
X1244240Y1422500D03*
X1227500Y1520000D03*
X1274000Y404000D03*
X1263120Y411280D03*
X1268320Y501280D03*
X1273220Y513880D03*
X1260000Y540000D03*
X1258220Y586380D03*
X1262500Y620000D03*
X1267500Y622500D03*
X1274900Y667400D03*
Y672600D03*
X1267500Y692500D03*
Y720000D03*
X1261270Y767500D03*
X1257730D03*
X1270000Y1150000D03*
X1264000D03*
X1272500Y1180000D03*
X1271000Y1221060D03*
X1255250Y1245000D03*
X1271000Y1252000D03*
X1270000Y1292500D03*
X1259690Y1299000D03*
X1267500Y1327500D03*
X1267000Y1363000D03*
X1266690Y1397500D03*
X1267500Y1437500D03*
Y1432500D03*
X1300720Y341380D03*
X1290000Y417500D03*
X1280820Y506480D03*
X1295000Y497860D03*
X1287500Y540000D03*
X1300720Y541380D03*
X1297280Y581280D03*
X1284280Y579940D03*
X1282500Y570000D03*
X1300000Y590000D03*
X1278220Y606380D03*
X1284000Y637000D03*
X1292190Y635190D03*
X1278220Y621380D03*
X1287800Y655200D03*
X1292800Y727690D03*
Y732690D03*
X1285300Y760190D03*
Y745190D03*
X1292800Y932800D03*
Y940190D03*
X1298000Y1180000D03*
X1297000Y1201000D03*
X1287500Y1260000D03*
X1290000Y1271000D03*
Y1292500D03*
X1277000Y1305000D03*
X1290000Y1347500D03*
X1302000Y1334560D03*
X1282500Y1407500D03*
X1286000Y1418000D03*
X1290000Y1439000D03*
X1308220Y491380D03*
X1305000Y525000D03*
X1313720Y554380D03*
X1315720Y626380D03*
X1307800Y655190D03*
X1325300Y680190D03*
X1315300Y830190D03*
X1327500Y825000D03*
X1317800Y847690D03*
Y862690D03*
Y880190D03*
X1320300Y917690D03*
X1310300D03*
X1317800Y897690D03*
X1302800Y965190D03*
X1320300Y990190D03*
X1310000Y1260000D03*
X1327500Y1360000D03*
X1305000Y1407000D03*
X1346000Y477000D03*
X1338220Y476380D03*
X1328220D03*
X1338220Y511380D03*
Y491380D03*
X1328220D03*
X1338220Y526380D03*
X1343220Y531380D03*
X1328220Y528880D03*
X1330000Y540000D03*
X1333000Y579000D03*
X1338000Y578000D03*
X1335720Y623880D03*
X1330300Y687690D03*
Y665190D03*
X1335300Y675190D03*
X1333770Y707500D03*
X1330230D03*
X1337800Y722460D03*
Y718920D03*
X1335300Y820190D03*
X1347500Y830000D03*
X1327800Y880190D03*
Y897690D03*
X1347500Y1172500D03*
X1330000Y1212500D03*
X1350000Y1245000D03*
X1342000Y1278000D03*
X1350000Y1294000D03*
X1345000Y1320000D03*
X1347500Y1392500D03*
X1329000Y1419000D03*
X1340000Y1422500D03*
X1373220Y403880D03*
X1364170Y467060D03*
X1367710D03*
X1372500Y520000D03*
X1355880Y563880D03*
Y578880D03*
X1370300Y662300D03*
X1360300Y655190D03*
X1362800Y679150D03*
Y682690D03*
X1370300Y707690D03*
X1375300Y732690D03*
Y740080D03*
X1362800Y725190D03*
X1365300Y765190D03*
Y777690D03*
X1375300Y850190D03*
X1355300Y845190D03*
X1377000Y1250000D03*
X1376000Y1277000D03*
X1374190Y1399000D03*
X1374000Y1424000D03*
X1393000Y476000D03*
X1390940Y463060D03*
X1399000Y509000D03*
X1395000Y552500D03*
X1402800Y580190D03*
Y597690D03*
Y635190D03*
X1380300Y677690D03*
X1402800D03*
X1395300Y685190D03*
X1400300Y712690D03*
X1382800Y710190D03*
Y700190D03*
X1390300Y730190D03*
X1395300Y782690D03*
Y797690D03*
Y817690D03*
X1385300Y842690D03*
X1395300Y832690D03*
X1400750Y1150000D03*
X1392750D03*
X1400000Y1180000D03*
X1401000Y1221060D03*
X1400000Y1250000D03*
X1402500Y1290000D03*
X1390250Y1299000D03*
X1397500Y1327500D03*
X1392500Y1365000D03*
X1397190Y1396000D03*
X1395000Y1447500D03*
Y1432500D03*
X1406000Y464000D03*
X1410000Y510000D03*
X1417000Y535000D03*
X1412800Y577690D03*
Y597690D03*
X1408160Y630190D03*
X1412800D03*
X1428860Y629140D03*
X1415300Y632690D03*
X1425300Y647690D03*
X1412800Y682690D03*
X1417800Y670190D03*
X1412800Y667690D03*
X1425300Y687690D03*
X1410300Y707690D03*
X1420670Y740920D03*
Y744460D03*
X1405300Y815190D03*
X1422690Y825190D03*
X1405300Y832690D03*
X1422800Y902690D03*
X1420000Y1195000D03*
X1427000Y1179000D03*
X1415000Y1260000D03*
Y1270000D03*
X1422000Y1286000D03*
X1405690Y1306000D03*
X1420000Y1326000D03*
X1412500Y1342500D03*
Y1407500D03*
X1418000Y1419000D03*
X1405000Y1437500D03*
X1453300Y525190D03*
X1445000Y525000D03*
X1448300Y562690D03*
X1437800Y655190D03*
X1440300Y682690D03*
X1445300Y702690D03*
X1440300Y695190D03*
X1435300Y717690D03*
X1447500Y717500D03*
X1435300Y762690D03*
X1437500Y1260000D03*
X1455000Y1360000D03*
X1435000Y1405000D03*
X1447500Y1437500D03*
X1445000Y1495000D03*
X1467500Y525000D03*
X1478300Y565190D03*
X1473300D03*
X1470300Y610190D03*
Y595190D03*
X1455300Y627500D03*
X1462800Y660190D03*
X1477800Y687690D03*
X1465300Y680190D03*
X1462800Y667690D03*
X1470300Y665190D03*
X1480300Y677690D03*
X1465300Y688050D03*
Y672690D03*
X1455300Y717690D03*
X1475000Y1175000D03*
X1457500Y1214000D03*
X1477500Y1247500D03*
X1465000Y1281000D03*
X1475000Y1287500D03*
X1472500Y1320000D03*
X1475000Y1392500D03*
X1467000Y1426000D03*
X1495800Y527690D03*
Y532690D03*
X1505300Y580000D03*
X1485300Y610190D03*
X1505300D03*
Y600190D03*
X1490300Y652690D03*
X1482800Y642690D03*
X1500000Y680000D03*
X1491800Y710000D03*
X1485300Y732690D03*
X1487800Y752690D03*
X1497800D03*
X1495300Y767690D03*
Y782690D03*
X1504000Y1279000D03*
X1502000Y1423000D03*
X1520300Y610190D03*
Y600190D03*
X1517800Y660190D03*
X1531570Y710000D03*
X1528030D03*
X1527800Y735190D03*
Y782690D03*
X1509000Y1155000D03*
X1530000D03*
X1527500Y1182500D03*
Y1227500D03*
X1511000Y1248000D03*
X1529000Y1252000D03*
X1529210Y1295160D03*
X1525000Y1327500D03*
X1511000Y1305000D03*
X1522500Y1367500D03*
X1524690Y1397500D03*
X1512690Y1390000D03*
X1553000Y1181000D03*
X1556000Y1202000D03*
X1542500Y1262500D03*
X1542000Y1273000D03*
X1542500Y1295000D03*
X1537000Y1305000D03*
X1552500Y1325000D03*
X1547500Y1347500D03*
X1540000Y1407500D03*
X1547500Y1427500D03*
X1545000Y1442500D03*
X1565000Y1260000D03*
X1562500Y1408000D03*
G54D13*
X159000Y1539280D03*
Y1549120D03*
Y1561780D03*
Y1571620D03*
X241500Y1564280D03*
Y1574120D03*
X280000Y1540160D03*
Y1550000D03*
Y1574600D03*
Y1564760D03*
X862500Y1517660D03*
Y1527500D03*
Y1542780D03*
Y1552620D03*
Y1565280D03*
Y1575120D03*
X897800Y1542850D03*
Y1552690D03*
X897500Y1574720D03*
Y1564880D03*
X940300Y1517780D03*
Y1527620D03*
Y1549810D03*
Y1539970D03*
X940000Y1562780D03*
Y1572620D03*
X980000Y1537660D03*
Y1547500D03*
Y1572460D03*
Y1562620D03*
X1017500Y1537780D03*
Y1547620D03*
Y1572100D03*
Y1562260D03*
X1190000Y510160D03*
Y520000D03*
G54D14*
X204950Y432200D03*
X214950D03*
X224950D03*
X282550Y432400D03*
X302550D03*
X292550D03*
G54D15*
X214950Y489700D03*
X292550Y489900D03*
G54D16*
X236250Y673750D03*
X396250D03*
G54D17*
X597500Y1322500D03*
Y1312500D03*
Y1317500D03*
G54D18*
X1092500Y1157500D03*
Y1167500D03*
Y1217500D03*
Y1227500D03*
X1090000Y1305000D03*
Y1315000D03*
Y1365000D03*
Y1375000D03*
X1102500Y1157500D03*
Y1167500D03*
Y1217500D03*
Y1227500D03*
X1100000Y1305000D03*
Y1315000D03*
Y1365000D03*
Y1375000D03*
X1220000Y1157500D03*
Y1167500D03*
Y1217500D03*
Y1227500D03*
X1225000Y1305000D03*
Y1315000D03*
X1215000Y1305000D03*
Y1315000D03*
X1225000Y1365000D03*
Y1375000D03*
X1215000Y1365000D03*
Y1375000D03*
X1230000Y1157500D03*
Y1167500D03*
Y1217500D03*
Y1227500D03*
X1347500Y1157500D03*
Y1167500D03*
Y1217500D03*
Y1227500D03*
X1345000Y1305000D03*
Y1315000D03*
Y1365000D03*
Y1375000D03*
X1357500Y1157500D03*
Y1167500D03*
Y1217500D03*
Y1227500D03*
X1355000Y1305000D03*
Y1315000D03*
Y1365000D03*
Y1375000D03*
X1475000Y1160000D03*
Y1170000D03*
Y1220000D03*
Y1230000D03*
X1472500Y1305000D03*
Y1315000D03*
Y1365000D03*
Y1375000D03*
X1485000Y1160000D03*
Y1170000D03*
Y1220000D03*
Y1230000D03*
X1482500Y1305000D03*
Y1315000D03*
Y1365000D03*
Y1375000D03*
G54D19*
X1160000Y1250000D03*
X1157500Y1397500D03*
X1182500Y1214000D03*
X1180000Y1361500D03*
X1287500Y1250000D03*
X1282500Y1397500D03*
X1310000Y1214000D03*
X1305000Y1361500D03*
X1415000Y1250000D03*
X1412500Y1397500D03*
X1437500Y1214000D03*
X1435000Y1360000D03*
X1542500Y1252500D03*
X1540000Y1397500D03*
X1565000Y1216500D03*
X1562500Y1361500D03*
M02*
