G04 ================== begin FILE IDENTIFICATION RECORD ==================*
G04 Layout Name:  TubiiPCB_V6.brd*
G04 Film Name:    marzece_TUBII_6_5_SolderMask_Top_Production*
G04 File Format:  Gerber RS274X*
G04 File Origin:  Cadence Allegro 16.6-P004*
G04 Origin Date:  Fri Jun 05 10:55:50 2015*
G04 *
G04 Layer:  VIA CLASS/SOLDERMASK_TOP*
G04 Layer:  PIN/SOLDERMASK_TOP*
G04 Layer:  DRC ERROR CLASS/SOLDERMASK_TOP*
G04 *
G04 Offset:    (0.0 0.0)*
G04 Mirror:    No*
G04 Mode:      Positive*
G04 Rotation:  0*
G04 FullContactRelief:  No*
G04 UndefLineWidth:     0.0*
G04 ================== end FILE IDENTIFICATION RECORD ====================*
%FSLAX55Y55*MOIN*%
%IR0*IPPOS*OFA0.00000B0.00000*MIA0B0*SFA1.00000B1.00000*%
%ADD27C,.1*%
%ADD33C,.2*%
%ADD10C,.3*%
%ADD24C,.17*%
%ADD28R,.063X.1181*%
%ADD26C,.129*%
%ADD30C,.185*%
%ADD39R,.08X.02*%
%ADD31R,.022X.025*%
%ADD32R,.025X.022*%
%ADD15R,.03X.055*%
%ADD12R,.055X.03*%
%ADD22R,.03X.055*%
%ADD16R,.055X.03*%
%ADD14R,.05X.054*%
%ADD23R,.035X.025*%
%ADD17R,.054X.05*%
%ADD18R,.025X.035*%
%ADD25C,.08*%
%ADD13C,.044*%
%ADD36C,.045*%
%ADD29C,.09*%
%ADD38R,.018X.075*%
%ADD19C,.075*%
%ADD35R,.075X.018*%
%ADD21C,.095*%
%ADD40R,.08X.08*%
%ADD37R,.059X.064*%
%ADD34R,.064X.059*%
%ADD20C,.0394*%
%ADD11R,.075X.075*%
%ADD41R,.0827X.0906*%
%LPD*%
G75*
G54D10*
X105000Y305000D03*
Y781500D03*
Y1135000D03*
Y1555000D03*
X565000Y305000D03*
Y1555000D03*
X1125000Y305000D03*
Y1555000D03*
X1575000Y305000D03*
Y715000D03*
Y1135000D03*
Y1555000D03*
G54D11*
X100000Y386000D03*
Y376000D03*
X98000Y628000D03*
Y618000D03*
X98500Y838000D03*
Y828000D03*
X97700Y1024300D03*
X99000Y1099000D03*
Y1109000D03*
X96000Y1424000D03*
Y1434000D03*
X127400Y925000D03*
Y935000D03*
X127700Y963100D03*
Y953200D03*
Y999400D03*
Y1009500D03*
X173000Y286000D03*
X163000D03*
X178100Y785200D03*
X175800Y1102300D03*
X189300Y785200D03*
X192500Y827500D03*
X199900Y847500D03*
X194950Y1102550D03*
X201000Y1573000D03*
X191000D03*
X201000Y1563000D03*
X191000D03*
X223000Y787700D03*
X220000Y870000D03*
X229950Y1100050D03*
X211000Y1573000D03*
X245550Y532550D03*
X256000Y533000D03*
X254000Y563000D03*
X234200Y787700D03*
X249950Y922550D03*
X266050Y532550D03*
X263000Y563500D03*
X271250Y668750D03*
X260000Y827500D03*
X269800Y1309800D03*
X299800Y1027800D03*
Y1039000D03*
X294950Y1102550D03*
X317450Y992550D03*
X333000Y1559000D03*
X323000D03*
Y1538000D03*
X333000D03*
X323000Y1548000D03*
X333000D03*
X313000Y1569500D03*
X323000D03*
X333000D03*
X348560Y485050D03*
X366000Y485500D03*
Y774000D03*
X388940Y485050D03*
X411000Y485500D03*
X400000Y511000D03*
X390000Y525000D03*
X431060Y485050D03*
X412300Y886600D03*
Y987900D03*
X446250Y664750D03*
X477500Y1564900D03*
X477600Y1575000D03*
X465000Y1565000D03*
Y1575000D03*
X490100Y1564900D03*
Y1574900D03*
X538000Y278000D03*
X528000D03*
X532000Y706000D03*
X561370Y531460D03*
X545500Y707000D03*
X610000Y1558000D03*
Y1548000D03*
Y1538000D03*
X600000Y1568000D03*
X610000D03*
X617370Y422460D03*
X628650Y616710D03*
X620000Y1558000D03*
Y1548000D03*
Y1538000D03*
X637000Y1572000D03*
X620000Y1568000D03*
X642000Y882000D03*
Y872000D03*
Y892000D03*
X652000Y882500D03*
Y892000D03*
X662000D03*
X657000Y1572000D03*
X647000D03*
X683000Y1563000D03*
X673000D03*
X683000Y1573000D03*
X673000D03*
X717000Y1553000D03*
X707000D03*
X717000Y1563000D03*
X707000D03*
X717000Y1573000D03*
X707000D03*
X734000Y281000D03*
X738000Y1562000D03*
Y1572000D03*
X744000Y281000D03*
X758000Y1562000D03*
X748000D03*
Y1572000D03*
X790000Y1047500D03*
Y1062500D03*
X782500Y1170000D03*
X783000Y1572000D03*
X773000D03*
X783000Y1562000D03*
X773000D03*
X820000Y1170000D03*
X807500D03*
X795000D03*
X819000Y1572000D03*
Y1562000D03*
X845000Y1170000D03*
X832500D03*
X829000Y1572000D03*
Y1562000D03*
X870000Y1170000D03*
X857500D03*
X929750Y290250D03*
X966000Y814000D03*
Y804000D03*
Y824000D03*
X968000Y926000D03*
X976000Y794000D03*
X986000D03*
X976000Y814000D03*
Y804000D03*
X986000D03*
X976000Y824000D03*
X1020000Y850000D03*
X1071000Y277000D03*
X1050750Y574750D03*
X1052000Y1563000D03*
X1062000D03*
X1052000Y1573000D03*
X1062000D03*
X1081000Y277000D03*
X1195000Y433500D03*
X1198000Y1555000D03*
X1188000D03*
X1198000Y1565000D03*
X1188000D03*
X1220000Y400000D03*
X1215000Y472500D03*
X1217500Y612500D03*
X1225000Y1541000D03*
Y1551000D03*
Y1561000D03*
X1235000Y1541000D03*
Y1551000D03*
Y1561000D03*
X1260000Y1462500D03*
X1265000Y1555000D03*
X1255000D03*
X1265000Y1565000D03*
X1255000D03*
X1292160Y568930D03*
X1292800Y787690D03*
Y797690D03*
X1285000Y1533000D03*
X1295000D03*
Y1553000D03*
X1285000D03*
Y1543000D03*
X1295000D03*
X1285000Y1563000D03*
X1295000D03*
X1305300Y787690D03*
X1317800D03*
X1305300Y797690D03*
X1317800D03*
X1330300Y787690D03*
X1342800D03*
X1355300D03*
X1330300Y797690D03*
X1342800D03*
X1355300D03*
X1347500Y1462500D03*
X1373000Y1548000D03*
Y1558000D03*
Y1538000D03*
Y1568000D03*
X1402000Y1557000D03*
Y1547000D03*
X1383000Y1548000D03*
Y1558000D03*
Y1538000D03*
X1402000Y1567000D03*
X1383000Y1568000D03*
X1412000Y1557000D03*
Y1547000D03*
Y1567000D03*
X1432000Y1463000D03*
X1452000Y1517000D03*
X1453000Y1528000D03*
Y1558000D03*
Y1538000D03*
Y1548000D03*
Y1568000D03*
X1462000Y1517000D03*
X1463000Y1528000D03*
Y1558000D03*
Y1538000D03*
Y1548000D03*
Y1568000D03*
X1494000Y274000D03*
X1484000D03*
X1495000Y1568000D03*
X1505000D03*
X1510000Y1463000D03*
X1522000Y1558000D03*
X1532000D03*
Y1548000D03*
X1522000D03*
Y1568000D03*
X1532000D03*
X1581000Y386000D03*
Y396000D03*
Y588000D03*
Y578000D03*
X1582000Y958000D03*
Y948000D03*
X1583000Y1196000D03*
Y1186000D03*
X1578000Y1507000D03*
Y1517000D03*
G54D20*
X159000Y1539280D03*
Y1549120D03*
Y1561780D03*
Y1571620D03*
X241500Y1564280D03*
Y1574120D03*
X280000Y1540160D03*
Y1550000D03*
Y1574600D03*
Y1564760D03*
X862500Y1517660D03*
Y1527500D03*
Y1542780D03*
Y1552620D03*
Y1565280D03*
Y1575120D03*
X897800Y1542850D03*
Y1552690D03*
X897500Y1574720D03*
Y1564880D03*
X940300Y1517780D03*
Y1527620D03*
Y1549810D03*
Y1539970D03*
X940000Y1562780D03*
Y1572620D03*
X980000Y1537660D03*
Y1547500D03*
Y1572460D03*
Y1562620D03*
X1017500Y1537780D03*
Y1547620D03*
Y1572100D03*
Y1562260D03*
X1190000Y510160D03*
Y520000D03*
G54D21*
X204950Y432200D03*
X207150Y540750D03*
X214950Y432200D03*
X224950D03*
X217150Y540750D03*
X227150D03*
X282550Y432400D03*
X302550D03*
X292550D03*
G54D12*
X103000Y1050000D03*
Y1060000D03*
Y1065000D03*
Y1070000D03*
Y1055000D03*
X125500Y1360000D03*
Y1365000D03*
Y1370000D03*
Y1375000D03*
Y1380000D03*
X137000Y1070000D03*
Y1065000D03*
Y1060000D03*
Y1055000D03*
Y1050000D03*
X159500Y1370000D03*
Y1365000D03*
Y1360000D03*
Y1375000D03*
Y1380000D03*
X205500Y1360000D03*
Y1365000D03*
Y1370000D03*
Y1375000D03*
Y1380000D03*
X200500Y1425000D03*
Y1430000D03*
Y1435000D03*
Y1440000D03*
Y1445000D03*
Y1450000D03*
Y1455000D03*
X239500Y1370000D03*
Y1365000D03*
Y1360000D03*
Y1375000D03*
Y1380000D03*
X244500Y1425000D03*
Y1430000D03*
Y1435000D03*
Y1440000D03*
Y1445000D03*
Y1450000D03*
Y1455000D03*
X263000Y892500D03*
Y897500D03*
Y902500D03*
Y907500D03*
Y912500D03*
X297000Y892500D03*
Y912500D03*
Y902500D03*
Y897500D03*
Y907500D03*
X330500Y890000D03*
Y885000D03*
Y880000D03*
Y910000D03*
Y905000D03*
Y900000D03*
Y895000D03*
Y967500D03*
Y977500D03*
Y982500D03*
Y987500D03*
Y972500D03*
X374500Y890000D03*
Y885000D03*
Y880000D03*
Y910000D03*
Y905000D03*
Y900000D03*
Y895000D03*
X364500Y967500D03*
Y987500D03*
Y982500D03*
Y977500D03*
Y972500D03*
X578000Y935000D03*
Y940000D03*
Y945000D03*
Y950000D03*
Y955000D03*
X612000Y940000D03*
Y935000D03*
Y955000D03*
Y945000D03*
Y950000D03*
X633000Y1297500D03*
Y1322500D03*
Y1317500D03*
Y1312500D03*
Y1307500D03*
Y1302500D03*
Y1327500D03*
X638000Y1382500D03*
Y1392500D03*
Y1397500D03*
Y1402500D03*
Y1387500D03*
X677000Y1297500D03*
Y1322500D03*
Y1317500D03*
Y1312500D03*
Y1307500D03*
Y1302500D03*
Y1327500D03*
X672000Y1402500D03*
Y1397500D03*
Y1392500D03*
Y1387500D03*
Y1382500D03*
X824000Y459000D03*
Y469000D03*
Y474000D03*
Y479000D03*
Y464000D03*
X858000Y459000D03*
Y479000D03*
Y474000D03*
Y469000D03*
Y464000D03*
X921500Y459000D03*
Y469000D03*
Y474000D03*
Y479000D03*
Y464000D03*
X955500Y459000D03*
Y479000D03*
Y474000D03*
Y469000D03*
Y464000D03*
X1012700Y1387300D03*
Y1392300D03*
Y1397300D03*
Y1402300D03*
Y1407300D03*
Y1412300D03*
Y1417300D03*
Y1422300D03*
Y1427300D03*
Y1432300D03*
X1038000Y465000D03*
Y470000D03*
Y475000D03*
Y480000D03*
Y485000D03*
X1047300Y1402300D03*
Y1397300D03*
Y1392300D03*
Y1387300D03*
Y1427300D03*
Y1422300D03*
Y1417300D03*
Y1412300D03*
Y1407300D03*
Y1432300D03*
X1072000Y485000D03*
Y475000D03*
Y470000D03*
Y465000D03*
Y480000D03*
X1198000Y767500D03*
Y772500D03*
Y777500D03*
Y782500D03*
Y787500D03*
Y792500D03*
Y797500D03*
X1242000Y767500D03*
Y772500D03*
Y777500D03*
Y782500D03*
Y787500D03*
Y792500D03*
Y797500D03*
X1313720Y558880D03*
Y563880D03*
Y568880D03*
Y573880D03*
Y578880D03*
X1347720Y558880D03*
Y578880D03*
Y568880D03*
Y563880D03*
Y573880D03*
X1380700Y857690D03*
Y862690D03*
Y867690D03*
Y872690D03*
Y877690D03*
Y882690D03*
Y887690D03*
Y892690D03*
Y897690D03*
Y902690D03*
X1415300Y867690D03*
Y862690D03*
Y857690D03*
Y892690D03*
Y887690D03*
Y882690D03*
Y877690D03*
Y872690D03*
Y902690D03*
Y897690D03*
X1478300Y595190D03*
Y605190D03*
Y610190D03*
Y600190D03*
Y615190D03*
X1473300Y672690D03*
Y677690D03*
Y682690D03*
Y687690D03*
Y692690D03*
X1512300Y610190D03*
Y605190D03*
Y600190D03*
Y595190D03*
Y615190D03*
X1507300Y682690D03*
Y677690D03*
Y672690D03*
Y687690D03*
Y692690D03*
G54D30*
X379650Y630650D03*
G54D40*
X1160000Y1250000D03*
X1157500Y1397500D03*
X1182500Y1214000D03*
X1180000Y1361500D03*
X1287500Y1250000D03*
X1282500Y1397500D03*
X1310000Y1214000D03*
X1305000Y1361500D03*
X1415000Y1250000D03*
X1412500Y1397500D03*
X1437500Y1214000D03*
X1435000Y1360000D03*
X1542500Y1252500D03*
X1540000Y1397500D03*
X1565000Y1216500D03*
X1562500Y1361500D03*
G54D13*
X95000Y1055000D03*
X101000Y1197000D03*
X100500Y1229500D03*
X110000Y1060000D03*
X115000Y1050000D03*
X118000Y1199000D03*
X104500Y1204500D03*
X105000Y1287500D03*
X120000Y1290000D03*
X125000Y1300000D03*
X115000D03*
X127500Y1310000D03*
X115000Y1365000D03*
Y1375000D03*
X150200Y818200D03*
X141500Y846000D03*
X152500Y877500D03*
Y1037500D03*
X130000Y1022500D03*
Y1055000D03*
X145000D03*
Y1082500D03*
X153500Y1214500D03*
X142400Y1257600D03*
X147600Y1267600D03*
X152500Y1262500D03*
X145000Y1300000D03*
X140000Y1305000D03*
X147500Y1310000D03*
X152500Y1365000D03*
X132500D03*
Y1375000D03*
X170000Y455000D03*
X180000Y597500D03*
X156940Y796060D03*
X172500Y912500D03*
Y919640D03*
X160000Y942500D03*
X170000Y997500D03*
X165000Y1067500D03*
X170000Y1157500D03*
X155500Y1234500D03*
X167100Y1233100D03*
X157000Y1226000D03*
X161900Y1239900D03*
X157500Y1275000D03*
X172500Y1297500D03*
X165000D03*
X166000Y1284000D03*
X172500Y1310000D03*
X167500Y1365000D03*
X180100Y1455100D03*
Y1449900D03*
X167500Y1455000D03*
X177500Y1437500D03*
X188940Y522560D03*
X200000Y587500D03*
X201560Y784560D03*
X191060Y869940D03*
X187000Y893000D03*
X190000Y915000D03*
Y897500D03*
X205000Y912500D03*
X200000Y930000D03*
Y947500D03*
X190000Y967500D03*
X205000Y950000D03*
X185000D03*
X190000Y982500D03*
X200000Y1017500D03*
Y1002500D03*
X202500Y997500D03*
X205000Y1020000D03*
X190000Y1037500D03*
Y1052500D03*
X200000Y1072500D03*
X185000Y1052500D03*
X200000Y1090000D03*
X205000Y1107500D03*
X187500Y1217500D03*
X190500Y1204500D03*
X206000Y1256000D03*
X185000Y1362500D03*
Y1407500D03*
X205000Y1440000D03*
X187500Y1445000D03*
X192500Y1450000D03*
X222500Y823120D03*
X225000Y882500D03*
X220000Y917500D03*
X227500Y940000D03*
X220000Y965000D03*
X230000Y952500D03*
X210000Y957500D03*
X222500Y987500D03*
X230000Y1020000D03*
X225000Y997500D03*
X215000Y1025000D03*
X225000Y1067500D03*
X208000Y1232000D03*
X227500Y1290000D03*
Y1277500D03*
X217500Y1290000D03*
Y1277500D03*
X227500Y1322500D03*
Y1310000D03*
X215000Y1375000D03*
X227500Y1392500D03*
X217500Y1395000D03*
X207500Y1425000D03*
X222500Y1408000D03*
X230000Y1442500D03*
X210000Y1435000D03*
Y1445000D03*
X227500Y1435000D03*
X253560Y473560D03*
X250000Y723000D03*
X242500Y855000D03*
X237000Y879000D03*
X255000Y907500D03*
X240000Y922500D03*
X247500Y975000D03*
Y983250D03*
X252500Y1002500D03*
X241440Y998940D03*
X247500Y1077500D03*
X245000Y1117500D03*
X244000Y1215000D03*
X253000Y1233000D03*
X247000Y1245000D03*
X242000Y1229000D03*
X232500Y1370000D03*
X255000Y1435000D03*
X270000Y723000D03*
X268000Y760000D03*
X257500Y787500D03*
X276060Y771060D03*
X270000Y805000D03*
X275000Y860000D03*
X282500Y855000D03*
X270000Y892500D03*
X277500Y907500D03*
X278560Y933560D03*
X262500Y947500D03*
X272500Y952500D03*
X277500Y992500D03*
X262500Y980000D03*
X277500Y1010000D03*
X265000Y1017500D03*
X262500Y1010000D03*
Y1032500D03*
X257500Y1035000D03*
X267500Y1070000D03*
X272500D03*
X270000Y1055000D03*
X272500Y1117500D03*
X257500D03*
X270000Y1347500D03*
X260000Y1370000D03*
X270000Y1397500D03*
X307500Y737500D03*
X283940Y724060D03*
Y771060D03*
X287500Y805000D03*
X302500Y827500D03*
X305000Y847500D03*
X295000Y855000D03*
X300000Y870000D03*
X285000Y892500D03*
X305000Y907500D03*
Y897500D03*
X290000D03*
X285000Y930000D03*
X307500Y975000D03*
X287500D03*
X292500Y1122500D03*
X300000Y1115000D03*
X285000Y1425000D03*
X321000Y532000D03*
X315000Y737000D03*
X312500Y757500D03*
X325000Y760000D03*
X327500Y797500D03*
X318000Y807000D03*
X322500Y822500D03*
X332500D03*
X317500Y840000D03*
X315000Y855000D03*
X320950Y877500D03*
X317410D03*
X325000Y905000D03*
X327500Y937500D03*
X317500D03*
X322500Y982500D03*
X317500Y980000D03*
X327500Y1040000D03*
X317500Y1025000D03*
X310000Y1073000D03*
X332500Y1080000D03*
X327500Y1105000D03*
X320000Y1187500D03*
X312500Y1330000D03*
X330000Y1445000D03*
X340000Y422500D03*
Y442500D03*
Y462500D03*
X336000Y755000D03*
X355000Y792500D03*
X337500Y837500D03*
X335000Y850000D03*
X346770Y864400D03*
X343230D03*
X342990Y887990D03*
X357500Y880000D03*
X350000Y905000D03*
X342500Y925000D03*
X337500Y927500D03*
X357500Y967500D03*
X337500D03*
Y982500D03*
X357500D03*
Y972500D03*
X354750Y1032250D03*
X342400Y1094900D03*
X347500Y1075000D03*
X347600Y1094900D03*
X335000Y1112500D03*
X352500Y1295000D03*
X335000Y1307500D03*
X352500D03*
X334000Y1345000D03*
X350000Y1340000D03*
X334000Y1360000D03*
X355000Y1387500D03*
X340000Y1425000D03*
X337500Y1460000D03*
X381000Y417500D03*
X374000Y462500D03*
X363000D03*
X360000Y532000D03*
X376000Y815000D03*
X377500Y795000D03*
X365000Y821000D03*
X382500Y850000D03*
Y892500D03*
X374500Y873000D03*
X362500Y895000D03*
X377500Y930000D03*
X360000Y937500D03*
X373940Y947500D03*
X372500Y982500D03*
Y972500D03*
X380000Y1032500D03*
X382500Y1212500D03*
Y1240000D03*
Y1287500D03*
X377500Y1350000D03*
X362500D03*
X365000Y1340000D03*
X375000Y1330000D03*
X360000Y1375000D03*
X380000Y1355000D03*
Y1372500D03*
X375000Y1377500D03*
X360000Y1412500D03*
X370000D03*
X375000Y1426000D03*
X360000Y1447500D03*
Y1430000D03*
X370000D03*
Y1447500D03*
X381000Y1436000D03*
X396000Y425000D03*
X395000Y442500D03*
Y462500D03*
X404000Y774000D03*
X393000Y817000D03*
X395000Y862500D03*
X385000Y905000D03*
X395000Y920000D03*
X393000Y968000D03*
X402500Y960000D03*
X385000Y995000D03*
X387500Y1072500D03*
X407500Y1290000D03*
X405000Y1314000D03*
X389500Y1323000D03*
X396000Y1340000D03*
X395000Y1335000D03*
Y1330000D03*
X405000Y1362500D03*
Y1392500D03*
X387500Y1382500D03*
X397500Y1450000D03*
X387500Y1460000D03*
X431060Y419060D03*
X411500Y523500D03*
X412000Y760000D03*
X417500Y905000D03*
X427500Y1162500D03*
X412500Y1292500D03*
Y1345000D03*
X415000Y1362500D03*
X427500Y1397500D03*
X432500Y1417500D03*
X430000Y1575000D03*
Y1560000D03*
X438940Y419060D03*
Y469940D03*
X460000Y770000D03*
X450000Y815000D03*
X440000Y910000D03*
X450000Y915000D03*
X442500Y1362500D03*
Y1403000D03*
X457500Y1405000D03*
X470000Y534000D03*
X477500Y815000D03*
X484000D03*
X510060Y489940D03*
X511000Y502000D03*
X510250Y1137750D03*
X515000Y450000D03*
X536540Y442460D03*
X531000Y480000D03*
X535000Y605000D03*
Y725000D03*
X525000Y737500D03*
X530000Y732500D03*
X517500Y742500D03*
X525000Y810000D03*
X520000D03*
X530000D03*
X530500Y1066500D03*
X527500Y1092500D03*
Y1097500D03*
X522940Y1154060D03*
X517060Y1175060D03*
X551310Y436310D03*
X544620Y467460D03*
X562630D03*
X547500Y477500D03*
X548920Y462460D03*
X547330Y510000D03*
X538090Y508000D03*
X556000Y682000D03*
X552000Y741000D03*
X537500Y810000D03*
X555000Y850000D03*
X541000Y846000D03*
X537500Y922500D03*
X543000Y1074000D03*
X557000Y1075000D03*
X553500Y1117500D03*
X547500Y1150000D03*
X542500Y1202500D03*
X543000Y1229000D03*
X550250Y1382750D03*
X542500Y1385000D03*
X560000Y1389000D03*
X542500Y1405000D03*
X541000Y1443000D03*
X562500Y1445000D03*
X582500Y450000D03*
X587040Y443960D03*
X567500Y437500D03*
X569060Y485000D03*
X580000Y466000D03*
X567370Y477460D03*
X587500Y495000D03*
X585790Y568210D03*
X586000Y670000D03*
X579000Y674200D03*
X582500Y690000D03*
X565000Y711000D03*
Y737500D03*
X582500D03*
X570000Y782000D03*
X575500Y856500D03*
X587500Y862500D03*
Y847500D03*
X567500Y867500D03*
X582500Y845000D03*
X572500Y902500D03*
X587500Y950000D03*
X585000Y970000D03*
X587060Y1118060D03*
X582500Y1150000D03*
X587500Y1352500D03*
X580000Y1395000D03*
X565000Y1389000D03*
X585000Y1412500D03*
X572500Y1445000D03*
Y1465000D03*
X600810Y449810D03*
X607370Y451060D03*
X599000Y481000D03*
X597510Y466570D03*
X595000Y476000D03*
X601310Y508690D03*
X590000Y510000D03*
X605000Y740000D03*
X590000Y737500D03*
X597500D03*
X612300Y796000D03*
X602500Y842500D03*
X610000D03*
X597500Y862500D03*
Y847500D03*
Y882500D03*
Y897500D03*
X604900Y942400D03*
X595000Y955000D03*
X597500Y992500D03*
X607500Y1145000D03*
X594800Y1144800D03*
X595000Y1150000D03*
X603000Y1170000D03*
X602500Y1182500D03*
X602000Y1205000D03*
X612500Y1285000D03*
Y1352500D03*
X630000Y433000D03*
X627000Y460000D03*
X635000Y445000D03*
X630000Y482500D03*
X638000Y509000D03*
X627500Y500000D03*
X633790Y568210D03*
X628000Y802700D03*
X632200Y877500D03*
X622500Y897500D03*
X617500Y920000D03*
X637500Y937500D03*
Y932500D03*
X617500Y1310000D03*
X633000Y1352000D03*
X615000Y1402500D03*
X656570Y443000D03*
X650310Y496310D03*
X657980Y724020D03*
X657500Y937500D03*
Y925000D03*
X645000Y920000D03*
X640000Y1000000D03*
X655000D03*
X642500Y1145000D03*
X655000D03*
X654800Y1139800D03*
X655000Y1245000D03*
Y1252500D03*
Y1297500D03*
X640000D03*
Y1322500D03*
X660000Y1327500D03*
X645000D03*
X640000Y1307500D03*
X647500Y1320000D03*
X645000Y1352500D03*
X640000Y1350000D03*
X657500Y1370000D03*
X650000Y1402500D03*
X645000Y1382500D03*
X661060Y1421060D03*
X655000Y1442500D03*
X682000Y480000D03*
X683000Y701000D03*
X666000Y692000D03*
X684000Y730000D03*
X668000Y719000D03*
X669000Y727000D03*
X679000Y737000D03*
X665000Y747500D03*
X690000Y747000D03*
X671000Y758000D03*
X690000Y765000D03*
X677000Y859000D03*
X682000Y873000D03*
X681100Y879100D03*
X671000Y874000D03*
X675000Y910000D03*
X682500Y915000D03*
X667500Y937500D03*
Y925000D03*
Y955000D03*
Y972500D03*
X678000Y1168000D03*
X680000Y1180000D03*
X678000Y1193000D03*
Y1205000D03*
X680050Y1235050D03*
X665000Y1312500D03*
X670000Y1327500D03*
X685000Y1302500D03*
X682500Y1322500D03*
X672500Y1317500D03*
Y1307500D03*
X685000Y1367500D03*
X670000Y1365000D03*
X665000Y1367500D03*
Y1402500D03*
Y1382500D03*
X672500Y1420000D03*
Y1435000D03*
X707300Y409300D03*
X701300Y419300D03*
X697000Y710000D03*
X691000D03*
X714000Y766000D03*
Y756000D03*
X713000Y747000D03*
X715000Y776000D03*
X693000Y790000D03*
Y778000D03*
X710000Y784570D03*
X694000Y801000D03*
X705000Y892500D03*
X707500Y937500D03*
X695000Y1272500D03*
Y1300000D03*
X733000Y387000D03*
X720000Y649000D03*
Y687000D03*
Y665000D03*
X722520Y677480D03*
X716330Y674330D03*
X722000Y696000D03*
X725020Y708980D03*
X719000Y707000D03*
X722000Y737000D03*
X718000Y728000D03*
X717000Y718000D03*
X723580Y781420D03*
X720660Y881660D03*
X732500Y1022500D03*
X737500Y1332500D03*
X754900Y408100D03*
X749200Y417800D03*
X745000Y690000D03*
X747500Y670000D03*
Y680000D03*
Y685000D03*
Y665000D03*
X747670Y674330D03*
X766000Y674000D03*
X742000Y683000D03*
X741670Y674330D03*
X748170Y705830D03*
X743980Y708980D03*
X745000Y695000D03*
Y702500D03*
X746000Y718000D03*
X745000Y763000D03*
X748000Y776000D03*
X745000Y770000D03*
X760000Y1405000D03*
X757500Y1547500D03*
X785000Y388000D03*
X768000Y644000D03*
X778000Y652000D03*
X772000Y665000D03*
X769000Y687000D03*
X775000Y676000D03*
X768000Y696000D03*
X773000Y706000D03*
X767570Y707850D03*
X782000Y708000D03*
X769000Y737000D03*
Y728000D03*
X768000Y766000D03*
X769000Y756000D03*
Y747000D03*
X782500Y762500D03*
X768000Y777000D03*
X787500Y770000D03*
X775000Y780000D03*
X782000Y851000D03*
X792300Y853700D03*
X790000Y1160000D03*
X782500Y1310000D03*
X787890Y1402500D03*
X770000Y1390000D03*
X806000Y407000D03*
X811000Y439000D03*
X802060Y449060D03*
X806000Y479000D03*
X812000Y509000D03*
X804000Y722500D03*
X811000Y816870D03*
X799980Y809020D03*
X814500Y822500D03*
X799980Y834020D03*
X797000Y850000D03*
X817000Y852000D03*
X794000Y864000D03*
X802500Y847500D03*
Y855000D03*
X815000Y893000D03*
X805000Y883000D03*
X799900Y1041100D03*
X807500Y1045000D03*
Y1105000D03*
X802000Y1133000D03*
X815000Y1130000D03*
X805000Y1152500D03*
X817500Y1160000D03*
X805000Y1300000D03*
X795000D03*
X805000Y1315000D03*
X795000D03*
X805000Y1350000D03*
Y1335000D03*
X792500Y1367500D03*
Y1395000D03*
X810000Y1402500D03*
X805000Y1395000D03*
X843000Y323000D03*
X833500Y384000D03*
X841000Y374000D03*
X826000Y376500D03*
X831610Y395630D03*
X833700Y389200D03*
X839560Y430000D03*
X818500Y471860D03*
X831000Y474000D03*
X839000Y515000D03*
X831000Y571000D03*
X820000Y656500D03*
X830000Y667000D03*
X818000Y722500D03*
X834000D03*
X820000Y806000D03*
X825000Y815000D03*
X835000Y842500D03*
X843000Y837000D03*
X837500Y847500D03*
X842500Y1127500D03*
X832500Y1155000D03*
X822500Y1150000D03*
X840000Y1400000D03*
X830100Y1394900D03*
X844940Y340060D03*
X848300Y389200D03*
X848500Y471500D03*
Y466500D03*
X866000D03*
X853000Y531000D03*
X865000Y676000D03*
X862000Y713000D03*
X850000Y765000D03*
X855080Y749920D03*
X846000Y853000D03*
X860000Y885000D03*
X865000Y892500D03*
X860000Y1045000D03*
Y1050000D03*
X855000Y1102500D03*
X852500Y1140000D03*
X857500Y1142500D03*
X860000Y1147500D03*
X855000Y1152500D03*
X847500Y1155000D03*
X883500Y389000D03*
X881000Y442000D03*
X871000Y469000D03*
X888000Y470000D03*
X873000Y509000D03*
X875000Y571000D03*
Y643000D03*
X888000Y684000D03*
X887500Y665000D03*
X891000Y706500D03*
X879800Y707300D03*
X893500Y728000D03*
Y737500D03*
X893000Y746500D03*
X892500Y756500D03*
X875000Y772500D03*
X893000Y768820D03*
X882000Y837000D03*
X880000Y830000D03*
X876000Y866000D03*
X870000Y871000D03*
X880000Y892500D03*
X870000Y900000D03*
X875000Y895000D03*
X892500Y1122500D03*
X883000Y1113000D03*
X887500Y1140000D03*
Y1145000D03*
X882500Y1132500D03*
X887500Y1150000D03*
Y1155000D03*
X869000D03*
X870000Y1160000D03*
X890200Y1288800D03*
X908500Y389000D03*
X896000D03*
X908560Y435000D03*
X908500Y463000D03*
X898000Y509000D03*
X905200Y535800D03*
X904000Y524000D03*
X897000Y577000D03*
X895000Y645000D03*
Y652500D03*
X919000Y669000D03*
X918000Y681000D03*
X896000Y671000D03*
X898480Y677480D03*
X895000Y696500D03*
X897420Y716380D03*
X895500Y765500D03*
X918920Y749920D03*
X897000Y778000D03*
Y882000D03*
X917500Y992500D03*
Y1122500D03*
X907500Y1160000D03*
X917500D03*
X905000Y1285000D03*
X934560Y326440D03*
X942440Y342440D03*
X941000Y381500D03*
X943500Y374000D03*
X936000Y391500D03*
X928500Y393890D03*
X936200Y386300D03*
X936380Y429000D03*
X931000Y474000D03*
X945000Y662500D03*
X922000Y664000D03*
X945000Y687500D03*
X939520Y677480D03*
X921000Y678000D03*
X943000Y696500D03*
X941500Y709000D03*
X920000Y692500D03*
X942500Y717500D03*
X943000Y727500D03*
X944500Y765500D03*
Y756000D03*
Y747000D03*
X943000Y776500D03*
X930200Y1289800D03*
X920000Y1478000D03*
Y1557500D03*
X948500Y384000D03*
X951000Y420000D03*
X948500Y474000D03*
X963500D03*
X948500Y464000D03*
X963500D03*
X964000Y509000D03*
X947500Y647500D03*
Y677500D03*
X945870Y790870D03*
Y864130D03*
X959000Y872000D03*
X952000Y922000D03*
X947500Y1272500D03*
X956000Y1285000D03*
X962500Y1555000D03*
Y1532500D03*
X983500Y389000D03*
X973500Y438000D03*
Y462000D03*
X989000Y761000D03*
X975940Y860060D03*
X973000Y911940D03*
X983000Y915000D03*
X993000Y923000D03*
X990000Y965000D03*
X995000Y958000D03*
Y1285000D03*
X1019800Y486800D03*
X1000000Y647500D03*
X1011000Y736000D03*
X1015000Y767500D03*
X1012500Y1005000D03*
X1000000Y1137500D03*
X1018000Y1237000D03*
X1000000Y1239000D03*
X1019390Y1365000D03*
X1005000Y1430000D03*
X1000000Y1452500D03*
X1020000Y1503000D03*
X1019000Y1515000D03*
X1000000Y1555000D03*
X1032500Y445000D03*
X1025000Y485000D03*
X1030000Y470000D03*
Y465000D03*
Y505000D03*
X1047000Y732000D03*
X1030460Y766460D03*
X1043000Y780000D03*
X1032800Y783800D03*
X1027500Y987500D03*
X1045000Y992500D03*
X1042500Y1157500D03*
X1030000Y1245000D03*
Y1272000D03*
X1027500Y1257500D03*
X1025000Y1296000D03*
X1047000Y1278000D03*
X1032500Y1361000D03*
X1044750Y1354750D03*
X1027000Y1494000D03*
X1034800Y1494200D03*
X1042060Y1543940D03*
X1050230Y435000D03*
X1053770D03*
X1053450Y445000D03*
X1056790D03*
X1060000Y473000D03*
X1065000Y480000D03*
Y465000D03*
X1060000Y487500D03*
X1050000Y498000D03*
X1067500Y632500D03*
X1064140Y736860D03*
X1054000Y740000D03*
X1064100Y747100D03*
X1064020Y741980D03*
X1070000Y785000D03*
X1066460D03*
X1054270Y805000D03*
X1050730D03*
X1070000Y1030000D03*
X1072500Y1040000D03*
X1052000Y1266000D03*
X1047500Y1285000D03*
X1050000Y1310000D03*
X1057500Y1340000D03*
X1057400Y1347400D03*
X1072500Y1360000D03*
X1069000Y1402000D03*
X1070000Y1422500D03*
X1055000Y1415000D03*
X1070000Y1432500D03*
X1077500Y442500D03*
X1080000Y461000D03*
X1083000Y457000D03*
X1080000Y481000D03*
X1095000Y475000D03*
Y495000D03*
X1075000Y500000D03*
X1080000Y490000D03*
X1095000Y505000D03*
X1092500Y510000D03*
Y517500D03*
X1087000Y977000D03*
X1077500Y1045000D03*
X1090250Y1072750D03*
X1082500Y1050000D03*
X1097020Y1117980D03*
X1080000Y1115000D03*
X1092500Y1172500D03*
X1075000Y1212500D03*
X1095000Y1245000D03*
X1080000Y1260000D03*
X1076060Y1268940D03*
X1087000Y1278000D03*
X1090000Y1320000D03*
X1092500Y1392500D03*
X1085000Y1423000D03*
X1077500Y1405000D03*
Y1415000D03*
X1097000Y1500000D03*
X1085000Y1494000D03*
X1120000Y449000D03*
X1101000Y470000D03*
X1114560Y499560D03*
X1110000Y495000D03*
X1101060Y512500D03*
X1101540Y744540D03*
X1101660Y749660D03*
X1100000Y807500D03*
X1100500Y951500D03*
X1107500Y980000D03*
X1117500Y1085000D03*
X1120000Y1080000D03*
X1104900Y1129900D03*
X1121000Y1276000D03*
X1102500Y1290000D03*
X1119300Y1422500D03*
X1120000Y1512500D03*
X1137500Y445000D03*
X1125000Y475000D03*
X1130200Y484800D03*
X1131000Y474000D03*
X1135000Y472500D03*
X1128940Y512500D03*
X1138560Y686060D03*
X1142500Y700000D03*
Y720000D03*
Y737500D03*
Y755000D03*
X1145000Y880000D03*
X1127500Y923500D03*
X1138500Y943500D03*
X1143500Y994500D03*
X1128600Y1008100D03*
X1138900Y1002900D03*
X1132500Y1077500D03*
X1140000Y1135000D03*
X1145630Y1152500D03*
X1137690Y1152000D03*
X1130000Y1180000D03*
X1144000Y1221000D03*
X1146000Y1249000D03*
X1131190Y1242000D03*
X1147500Y1295000D03*
X1142500Y1290000D03*
X1127500Y1327500D03*
X1129000Y1309000D03*
X1141000Y1366000D03*
X1141690Y1397500D03*
X1128190Y1389000D03*
X1140000Y1451000D03*
X1132500Y1480000D03*
X1127500Y1485000D03*
X1165000Y452500D03*
X1151810Y473080D03*
X1155350D03*
X1165000Y497500D03*
X1166060Y668560D03*
X1162500Y685000D03*
X1150000Y737500D03*
X1172500D03*
X1157500D03*
X1152500Y755000D03*
X1167500Y767500D03*
X1165000Y776230D03*
Y779770D03*
X1166000Y808000D03*
X1170000Y860000D03*
X1152500Y850000D03*
X1160000Y879000D03*
X1161000Y870000D03*
X1165000Y930000D03*
X1168500Y945500D03*
X1158500Y994500D03*
X1160000Y1085000D03*
X1150000Y1132500D03*
X1160000D03*
X1162000Y1197000D03*
X1169000Y1178000D03*
X1159500Y1271000D03*
X1168000Y1286440D03*
X1161000Y1341000D03*
X1163000Y1413000D03*
X1153000Y1432000D03*
X1150000Y1470000D03*
Y1477500D03*
X1165000Y1492500D03*
X1182500Y602500D03*
Y622500D03*
X1177500Y662500D03*
X1179000Y669000D03*
X1195000Y708730D03*
Y712270D03*
X1182500Y735000D03*
X1197500Y722500D03*
X1192500Y780000D03*
X1187500Y808730D03*
Y812270D03*
X1186230Y795250D03*
X1189770D03*
X1183000Y823000D03*
X1193000Y875000D03*
X1178000Y917000D03*
Y896000D03*
X1191250Y930250D03*
X1197500Y942500D03*
X1185000Y922500D03*
X1197500Y970000D03*
X1190000Y979000D03*
X1182500Y1260000D03*
X1177500Y1295500D03*
X1177000Y1327000D03*
X1197500Y1360000D03*
X1180000Y1409060D03*
X1200000Y1421000D03*
X1195000Y1425000D03*
X1177500Y1440500D03*
X1223220Y551380D03*
X1203220Y548880D03*
X1218220Y538880D03*
X1210820Y581280D03*
X1205720Y566380D03*
X1205620Y581280D03*
X1205000Y660000D03*
X1217500Y672500D03*
X1225000Y695000D03*
Y707500D03*
X1210000Y782500D03*
X1220000Y812500D03*
Y792500D03*
X1212500Y920000D03*
X1207500Y923000D03*
X1220000Y975000D03*
X1207500Y1057500D03*
X1210000Y1117500D03*
X1220000Y1172500D03*
X1202500Y1212500D03*
X1222500Y1242500D03*
X1208560Y1261060D03*
Y1268940D03*
X1215000Y1278000D03*
Y1320000D03*
X1217500Y1392500D03*
X1202500Y1407500D03*
X1207000Y1425000D03*
X1237420Y358580D03*
X1229000Y441000D03*
X1228220Y548880D03*
X1250000Y660000D03*
X1235000Y688000D03*
X1230000Y712500D03*
X1244610Y695390D03*
X1250000Y716000D03*
X1240000Y930000D03*
X1227500Y920000D03*
X1232500Y957500D03*
X1226000Y959000D03*
X1239000Y1075000D03*
X1244200Y1075800D03*
X1233000Y1109000D03*
X1248000D03*
X1250000Y1296000D03*
X1249000Y1277000D03*
X1250250Y1390000D03*
X1244240Y1422500D03*
X1227500Y1520000D03*
X1274000Y404000D03*
X1263120Y411280D03*
X1268320Y501280D03*
X1273220Y513880D03*
X1260000Y540000D03*
X1258220Y586380D03*
X1262500Y620000D03*
X1267500Y622500D03*
X1274900Y667400D03*
Y672600D03*
X1267500Y692500D03*
Y720000D03*
X1261270Y767500D03*
X1257730D03*
X1270000Y1150000D03*
X1264000D03*
X1257500Y1180000D03*
X1271000Y1221060D03*
X1255250Y1245000D03*
X1271000Y1252000D03*
X1270000Y1292500D03*
X1259690Y1299000D03*
X1252500Y1327500D03*
X1267000Y1363000D03*
X1266690Y1397500D03*
X1267500Y1437500D03*
X1280820Y506480D03*
X1295000Y497860D03*
X1287500Y540000D03*
X1300720Y541380D03*
X1297280Y581280D03*
X1284280Y579940D03*
X1282500Y570000D03*
X1300000Y590000D03*
X1278220Y606380D03*
X1284000Y637000D03*
X1292190Y635190D03*
X1278220Y621380D03*
X1287800Y655200D03*
X1292800Y727690D03*
Y732690D03*
X1280000Y720000D03*
X1285300Y760190D03*
Y745190D03*
X1292800Y932800D03*
Y940190D03*
X1283000Y1088000D03*
X1279800Y1129800D03*
X1298000Y1180000D03*
X1297000Y1201000D03*
X1290000Y1271000D03*
Y1292500D03*
X1277000Y1305000D03*
X1290000Y1347500D03*
X1302000Y1334560D03*
X1286000Y1418000D03*
X1290000Y1439000D03*
X1308220Y491380D03*
X1305000Y525000D03*
X1313720Y554380D03*
X1315720Y626380D03*
X1307800Y655190D03*
X1325300Y680190D03*
X1315300Y830190D03*
X1327500Y825000D03*
X1317800Y847690D03*
Y862690D03*
Y880190D03*
X1320300Y917690D03*
X1310300D03*
X1317800Y897690D03*
X1302800Y965190D03*
X1320300Y990190D03*
X1310000Y1260000D03*
X1306000Y1298000D03*
X1327500Y1360000D03*
X1305000Y1407000D03*
Y1442000D03*
X1346000Y477000D03*
X1338220Y476380D03*
X1328220D03*
X1338220Y511380D03*
Y491380D03*
X1328220D03*
X1338220Y526380D03*
X1343220Y531380D03*
X1328220Y528880D03*
X1330000Y540000D03*
X1333000Y579000D03*
X1338000Y578000D03*
X1335720Y623880D03*
X1330300Y687690D03*
Y665190D03*
X1335300Y675190D03*
X1337800Y722460D03*
Y718920D03*
X1340000Y740000D03*
X1335300Y820190D03*
X1347500Y830000D03*
X1327800Y880190D03*
Y897690D03*
X1347500Y1172500D03*
X1330000Y1212500D03*
X1350000Y1245000D03*
X1332500Y1262500D03*
Y1267500D03*
X1342000Y1278000D03*
X1350000Y1294000D03*
X1345000Y1320000D03*
X1332500Y1402500D03*
X1347500Y1392500D03*
X1329000Y1419000D03*
X1340000Y1422500D03*
X1365880Y388880D03*
X1359000Y431000D03*
X1365000Y462500D03*
X1370000D03*
X1372500Y520000D03*
X1355880Y563880D03*
Y578880D03*
X1370300Y662300D03*
X1360300Y655190D03*
X1362800Y679150D03*
Y682690D03*
X1370300Y707690D03*
X1375300Y732690D03*
Y740080D03*
X1357940Y737060D03*
X1362800Y725190D03*
X1365300Y765190D03*
Y777690D03*
X1369000Y812000D03*
X1375300Y850190D03*
X1355300Y845190D03*
X1377000Y1250000D03*
X1376000Y1277000D03*
X1374190Y1399000D03*
X1374000Y1424000D03*
X1396000Y417000D03*
X1393000Y476000D03*
X1390940Y463060D03*
X1399000Y509000D03*
X1395000Y552500D03*
X1390800Y588200D03*
X1402800Y580190D03*
Y597690D03*
Y635190D03*
X1380300Y677690D03*
X1402800D03*
X1395300Y685190D03*
X1400300Y712690D03*
X1382800Y710190D03*
Y700190D03*
X1390300Y730190D03*
X1395300Y782690D03*
Y797690D03*
Y817690D03*
X1385300Y842690D03*
X1395300Y832690D03*
X1400750Y1150000D03*
X1392750D03*
X1385000Y1180000D03*
X1401000Y1221060D03*
X1400000Y1250000D03*
X1402500Y1290000D03*
X1390250Y1299000D03*
X1382500Y1327500D03*
X1392500Y1365000D03*
X1397190Y1396000D03*
X1395000Y1447500D03*
X1413000Y409000D03*
Y426000D03*
X1429500Y443500D03*
X1406000Y464000D03*
X1410000Y510000D03*
X1417000Y535000D03*
X1412800Y577690D03*
Y597690D03*
X1408160Y630190D03*
X1412800D03*
X1428860Y629140D03*
X1415300Y632690D03*
X1425300Y647690D03*
X1412800Y682690D03*
X1417800Y670190D03*
X1412800Y667690D03*
X1425300Y687690D03*
X1410300Y707690D03*
X1420670Y740920D03*
Y744460D03*
X1405300Y815190D03*
X1422690Y825190D03*
X1405300Y832690D03*
X1422690Y867690D03*
X1422800Y902690D03*
X1420000Y1195000D03*
X1427000Y1179000D03*
X1415000Y1270000D03*
X1422000Y1286000D03*
X1405690Y1306000D03*
X1420000Y1326000D03*
X1412500Y1342500D03*
X1418000Y1419000D03*
X1405000Y1437500D03*
X1453300Y525190D03*
X1445000Y525000D03*
X1448300Y562690D03*
X1437800Y655190D03*
X1440300Y682690D03*
X1445300Y702690D03*
X1440300Y695190D03*
X1435300Y717690D03*
X1447500Y717500D03*
X1435300Y762690D03*
X1437500Y1260000D03*
X1432500Y1295500D03*
X1455000Y1360000D03*
X1435000Y1405000D03*
X1430000Y1442000D03*
X1445000Y1495000D03*
X1467500Y525000D03*
X1478300Y565190D03*
X1473300D03*
X1470300Y610190D03*
Y595190D03*
X1455300Y627500D03*
X1462800Y660190D03*
X1477800Y687690D03*
X1465300Y680190D03*
X1462800Y667690D03*
X1470300Y665190D03*
X1480300Y677690D03*
X1465300Y688050D03*
Y672690D03*
X1455300Y717690D03*
X1475000Y1175000D03*
X1457500Y1214000D03*
X1477500Y1247500D03*
X1462500Y1262500D03*
X1463560Y1271440D03*
X1465000Y1281000D03*
X1475000Y1287500D03*
X1472500Y1320000D03*
X1460000Y1402500D03*
X1475000Y1392500D03*
X1467000Y1426000D03*
X1460000Y1420000D03*
X1495800Y527690D03*
Y532690D03*
X1505300Y580000D03*
X1485300Y610190D03*
X1505300D03*
Y600190D03*
X1490300Y652690D03*
X1482800Y642690D03*
X1500000Y680000D03*
X1491800Y710000D03*
X1485300Y732690D03*
X1487800Y752690D03*
X1497800D03*
X1495300Y767690D03*
Y782690D03*
X1504000Y1279000D03*
X1502000Y1423000D03*
X1520300Y610190D03*
Y600190D03*
X1517800Y660190D03*
X1531570Y710000D03*
X1528030D03*
X1527800Y735190D03*
Y782690D03*
X1509000Y1155000D03*
X1530000D03*
X1512500Y1185000D03*
X1527500Y1227500D03*
X1511000Y1248000D03*
X1529000Y1252000D03*
X1529210Y1295160D03*
X1510000Y1327500D03*
X1511000Y1305000D03*
X1522500Y1367500D03*
X1524690Y1397500D03*
X1512690Y1390000D03*
X1553000Y1181000D03*
X1556000Y1202000D03*
X1542000Y1273000D03*
X1542500Y1295000D03*
X1537000Y1305000D03*
X1552500Y1325000D03*
X1547500Y1347500D03*
Y1427500D03*
X1545000Y1442500D03*
X1557500Y1298500D03*
X1562500Y1408000D03*
X1559000Y1445000D03*
G54D22*
X205000Y905500D03*
X200000D03*
X195000D03*
X190000D03*
X185000D03*
Y939500D03*
X195000D03*
X200000D03*
X205000D03*
X190000D03*
X205000Y975500D03*
X200000D03*
X195000D03*
X190000D03*
X185000D03*
Y1009500D03*
X195000D03*
X200000D03*
X205000D03*
X190000D03*
X205000Y1045500D03*
X195000D03*
X190000D03*
X185000D03*
X200000D03*
X185000Y1079500D03*
X190000D03*
X195000D03*
X200000D03*
X205000D03*
X227500Y1283000D03*
X222500D03*
X217500D03*
X212500D03*
Y1317000D03*
X222500D03*
X227500D03*
X217500D03*
X252500Y1043000D03*
Y1077000D03*
X232500Y1283000D03*
Y1317000D03*
X262500Y958000D03*
X267500D03*
X272500D03*
X277500D03*
X262500Y1002000D03*
X267500D03*
X272500D03*
X277500D03*
X272500Y1043000D03*
X262500D03*
X257500D03*
X267500D03*
X257500Y1077000D03*
X262500D03*
X267500D03*
X272500D03*
X282500Y958000D03*
X287500D03*
X292500D03*
X282500Y1002000D03*
X287500D03*
X292500D03*
X355000Y1323000D03*
X350000D03*
X355000Y1367000D03*
X350000D03*
X355000Y1403000D03*
Y1437000D03*
X380000Y1323000D03*
X375000D03*
X370000D03*
X365000D03*
X360000D03*
X380000Y1367000D03*
X375000D03*
X370000D03*
X365000D03*
X360000D03*
X375000Y1403000D03*
X365000D03*
X360000D03*
X370000D03*
X360000Y1437000D03*
X365000D03*
X370000D03*
X375000D03*
X557500Y1438000D03*
Y1472000D03*
X587500Y855500D03*
X582500D03*
Y889500D03*
X587500D03*
X577500Y1438000D03*
X572500D03*
X567500D03*
X562500D03*
X567500Y1472000D03*
X572500D03*
X577500D03*
X562500D03*
X602500Y855500D03*
X597500D03*
X592500D03*
Y889500D03*
X597500D03*
X602500D03*
X662500Y930500D03*
X657500D03*
X652500D03*
Y964500D03*
X662500D03*
X657500D03*
X672500Y930500D03*
X667500D03*
Y964500D03*
X672500D03*
X790000Y1308000D03*
Y1342000D03*
Y1378000D03*
Y1412000D03*
X812500Y1060400D03*
X807500D03*
Y1095000D03*
X812500D03*
X810000Y1308000D03*
X805000D03*
X800000D03*
X795000D03*
X800000Y1342000D03*
X805000D03*
X810000D03*
X795000D03*
X810000Y1378000D03*
X805000D03*
X800000D03*
X795000D03*
X800000Y1412000D03*
X805000D03*
X810000D03*
X795000D03*
X841000Y364500D03*
X836000D03*
X831000D03*
X826000D03*
X841000Y408500D03*
X836000D03*
X831000D03*
X826000D03*
X842500Y1060400D03*
X837500D03*
X832500D03*
X827500D03*
X822500D03*
X817500D03*
Y1095000D03*
X822500D03*
X827500D03*
X832500D03*
X837500D03*
X842500D03*
X856000Y364500D03*
X851000D03*
X846000D03*
X856000Y408500D03*
X851000D03*
X846000D03*
X852500Y1060400D03*
X847500D03*
Y1095000D03*
X852500D03*
X943500Y367000D03*
X938500D03*
X933500D03*
X928500D03*
X923500D03*
X943500Y411000D03*
X938500D03*
X933500D03*
X928500D03*
X923500D03*
X953500Y367000D03*
X948500D03*
X953500Y411000D03*
X948500D03*
X1120000Y458000D03*
X1115000D03*
Y492000D03*
X1120000D03*
X1135000Y458000D03*
X1125000D03*
X1130000D03*
X1125000Y492000D03*
X1130000D03*
X1135000D03*
X1147500Y710500D03*
X1142500D03*
X1137500D03*
Y744500D03*
X1142500D03*
X1147500D03*
X1157500Y710500D03*
X1152500D03*
Y744500D03*
X1157500D03*
X1170000Y1077900D03*
X1165000D03*
X1160000D03*
Y1112500D03*
X1165000D03*
X1170000D03*
X1195000Y1077900D03*
X1190000D03*
X1185000D03*
X1180000D03*
X1175000D03*
Y1112500D03*
X1180000D03*
X1185000D03*
X1190000D03*
X1195000D03*
X1205000Y1077900D03*
X1200000D03*
Y1112500D03*
X1205000D03*
X1323220Y484380D03*
Y518380D03*
X1325300Y655690D03*
X1320300D03*
X1315300D03*
X1325300Y699690D03*
X1320300D03*
X1315300D03*
X1322800Y855690D03*
X1317800D03*
X1312800D03*
Y889690D03*
X1317800D03*
X1322800D03*
X1343220Y484380D03*
X1338220D03*
X1333220D03*
X1328220D03*
X1333220Y518380D03*
X1338220D03*
X1343220D03*
X1328220D03*
X1345300Y655690D03*
X1340300D03*
X1335300D03*
X1330300D03*
X1345300Y699690D03*
X1340300D03*
X1335300D03*
X1330300D03*
X1332800Y855690D03*
X1327800D03*
Y889690D03*
X1332800D03*
X1399500Y485500D03*
X1394500D03*
Y519500D03*
X1399500D03*
X1402800Y588190D03*
X1397800D03*
Y622190D03*
X1402800D03*
X1395300Y655690D03*
X1400300D03*
X1395300Y699690D03*
X1400300D03*
Y790690D03*
X1395300D03*
X1390300D03*
Y824690D03*
X1395300D03*
X1400300D03*
X1414500Y485500D03*
X1409500D03*
X1404500D03*
Y519500D03*
X1409500D03*
X1414500D03*
X1417800Y588190D03*
X1412800D03*
X1407800D03*
Y622190D03*
X1412800D03*
X1417800D03*
X1405300Y655690D03*
X1410300D03*
X1415300D03*
X1420300D03*
X1425300D03*
X1405300Y699690D03*
X1410300D03*
X1415300D03*
X1420300D03*
X1425300D03*
X1410300Y790690D03*
X1405300D03*
Y824690D03*
X1410300D03*
X1500300Y740690D03*
X1490300D03*
X1485300D03*
X1480300D03*
X1495300D03*
X1480300Y774690D03*
X1485300D03*
X1490300D03*
X1495300D03*
X1500300D03*
G54D31*
X369800Y789500D03*
X362300D03*
X366000Y796500D03*
X369750Y804450D03*
X362250D03*
X365950Y811450D03*
X393300Y789500D03*
X385800D03*
X393300Y804500D03*
X385800D03*
X389500Y811500D03*
Y796500D03*
X676250Y1248500D03*
X683750D03*
X680050Y1241500D03*
G54D41*
X1243220Y423110D03*
Y439650D03*
X1253220Y423110D03*
X1263220D03*
Y439650D03*
X1253220D03*
G54D23*
X185000Y1449900D03*
Y1455100D03*
X532500Y1092300D03*
Y1097500D03*
X590000Y1144800D03*
Y1150000D03*
X650000Y1139800D03*
Y1145000D03*
X707300Y419300D03*
Y414100D03*
X754900Y417800D03*
Y412600D03*
X816400Y861200D03*
Y856000D03*
X815000Y888200D03*
Y883000D03*
X799900Y1045900D03*
Y1051100D03*
X830000Y677000D03*
Y671800D03*
X835000Y1394900D03*
Y1400100D03*
X852500Y1044800D03*
Y1050000D03*
X875000Y649800D03*
Y655000D03*
X881700Y841400D03*
Y846600D03*
X897000Y583800D03*
Y589000D03*
X1050000Y1299000D03*
Y1304200D03*
X1133500Y1002900D03*
Y1008100D03*
X1170000Y865900D03*
Y871100D03*
X1185000Y664900D03*
Y670100D03*
X1197500Y965100D03*
Y959900D03*
X1270000Y672600D03*
Y667400D03*
X1288220Y506480D03*
Y501280D03*
X1300200Y727590D03*
Y732790D03*
X1297800Y940390D03*
Y935190D03*
X1303220Y581280D03*
Y586480D03*
X1399500Y467200D03*
Y472400D03*
X1380300Y732490D03*
Y737690D03*
X1412500Y420000D03*
Y414800D03*
X1490800Y532890D03*
Y527690D03*
G54D14*
X98560Y1280000D03*
Y1300000D03*
X106440Y1280000D03*
Y1300000D03*
X128560Y1407500D03*
X150060Y846000D03*
X143560Y1030000D03*
X151440D03*
X151060Y1080000D03*
X136440Y1407500D03*
X176060Y422500D03*
Y447500D03*
X178560Y560000D03*
Y547500D03*
Y587500D03*
Y572500D03*
X157940Y846000D03*
X158940Y1080000D03*
X178560Y1297500D03*
Y1310000D03*
X183940Y422500D03*
Y447500D03*
X188940Y530000D03*
X181060D03*
X186440Y560000D03*
Y547500D03*
Y587500D03*
Y572500D03*
X198940Y862500D03*
X191060D03*
X186440Y1297500D03*
Y1310000D03*
X256060Y417500D03*
X253560Y465000D03*
X256060Y940000D03*
X263940Y417500D03*
X261440Y465000D03*
X276060Y760000D03*
Y777500D03*
X266440Y797500D03*
X258560D03*
X266440Y865000D03*
X258560D03*
X263940Y940000D03*
X276060Y1527500D03*
X283940Y760000D03*
Y777500D03*
X293940Y865000D03*
X286060D03*
X283940Y1527500D03*
X356440Y422500D03*
X348560D03*
X356440Y442500D03*
X348560D03*
X356440Y462500D03*
X348560D03*
X351440Y1460000D03*
X343560D03*
X381060Y425000D03*
Y442500D03*
Y462500D03*
X368560Y850000D03*
X376440D03*
X366060Y937500D03*
X373940D03*
X361060Y1387500D03*
X368940D03*
X381440Y1460000D03*
X373560D03*
X388940Y425000D03*
Y442500D03*
Y462500D03*
X386060Y774000D03*
X393940D03*
Y937500D03*
X386060D03*
X393940Y960000D03*
X386060D03*
X431060Y425000D03*
Y445000D03*
Y462500D03*
X438940Y425000D03*
Y445000D03*
Y462500D03*
X448940Y1560000D03*
X441060D03*
X448940Y1575000D03*
X441060D03*
X516560Y1137750D03*
X524440D03*
X517060Y1182000D03*
X524940D03*
X551310Y442460D03*
X543430D03*
X551310Y502460D03*
X543430D03*
X549940Y839000D03*
X542060D03*
X553940Y922500D03*
X546060D03*
X538560Y1117500D03*
X546440D03*
X561060Y1182500D03*
X559060Y1215000D03*
Y1227000D03*
X570210Y568210D03*
X578090D03*
X587060Y1124000D03*
X588560Y1170000D03*
Y1182500D03*
X568940D03*
X588560Y1205000D03*
X566940Y1215000D03*
Y1227000D03*
X592930Y443960D03*
X600810D03*
X601310Y502460D03*
X593430D03*
X594940Y1124000D03*
X596440Y1170000D03*
X612060D03*
X596440Y1182500D03*
X608060Y1194000D03*
X596440Y1205000D03*
X626940Y443000D03*
X619060D03*
X620060Y492000D03*
X627940D03*
X625880Y568210D03*
X618000D03*
X619940Y1170000D03*
X632500Y1180000D03*
X615940Y1194000D03*
X624620Y1205000D03*
X632500D03*
X651310Y448460D03*
X643430D03*
X642430Y503460D03*
X650310D03*
X656440Y912500D03*
X648560D03*
X661060Y1165000D03*
X640380Y1180000D03*
X661060Y1193000D03*
Y1205000D03*
X663940Y1237500D03*
X656060D03*
X663940Y1262500D03*
X656060D03*
X661060Y1427500D03*
Y1442500D03*
X668940Y1165000D03*
Y1193000D03*
Y1205000D03*
Y1427500D03*
Y1442500D03*
X809940Y456500D03*
X802060D03*
X809940Y469000D03*
X802060D03*
X837060Y331500D03*
Y346500D03*
X827440Y439000D03*
X819560D03*
X839560D03*
X827440Y509000D03*
X819560D03*
X844940Y331500D03*
Y346500D03*
X847440Y439000D03*
X857060Y509000D03*
X864940D03*
X907060D03*
X914940D03*
X942440Y334000D03*
X934560D03*
Y349000D03*
X942440D03*
X936380Y436500D03*
X928500D03*
X957440Y509000D03*
X949560D03*
X968060Y866000D03*
X975940D03*
X1006440Y1270000D03*
X998560D03*
X1021060Y1319500D03*
Y1307500D03*
X1046880Y505000D03*
X1039000D03*
X1028940Y1319500D03*
Y1307500D03*
X1033940Y1503000D03*
X1026060D03*
X1033940Y1515000D03*
X1026060D03*
X1060000Y505000D03*
X1067880D03*
X1063940Y1463000D03*
X1056060D03*
X1063940Y1475000D03*
X1056060D03*
Y1522500D03*
X1063940D03*
X1097020Y1123830D03*
X1109060Y951500D03*
X1116940D03*
X1104900Y1123830D03*
X1117060Y1301000D03*
X1118180Y1450000D03*
X1146440Y692500D03*
X1138560D03*
X1145630Y1159500D03*
X1137750D03*
X1146440Y1197500D03*
X1138560D03*
Y1209000D03*
X1130680D03*
X1135630Y1249000D03*
X1127750D03*
X1124940Y1301000D03*
X1136440Y1290000D03*
X1128560D03*
X1143130Y1306000D03*
X1135250D03*
X1143940Y1345000D03*
X1136060D03*
Y1358000D03*
X1128180D03*
X1133130Y1398500D03*
X1125250D03*
X1126060Y1450000D03*
X1133940Y1437500D03*
X1126060D03*
X1166060Y675000D03*
X1173940D03*
X1166060Y692500D03*
X1173940D03*
Y760000D03*
X1166060D03*
X1173940Y800000D03*
X1166060D03*
X1151060Y1125000D03*
X1158940D03*
X1196440Y602500D03*
X1188560D03*
X1196440Y622500D03*
X1188560D03*
X1181060Y722500D03*
X1188940D03*
X1198940Y827500D03*
X1191060D03*
X1212940Y485000D03*
X1205060D03*
X1212940Y497000D03*
X1205060D03*
X1212160Y541380D03*
X1204280D03*
X1221060Y687500D03*
X1218560Y1480000D03*
X1244280Y541380D03*
X1228940Y687500D03*
X1250250Y1397500D03*
X1251060Y1437500D03*
X1226440Y1480000D03*
X1271780Y561380D03*
X1252160Y541380D03*
X1271780D03*
X1258560Y702500D03*
X1266440D03*
X1271440Y1158500D03*
X1263560D03*
X1273940Y1197500D03*
X1266060D03*
Y1209000D03*
X1258180D03*
X1263130Y1252000D03*
X1255250D03*
X1263940Y1290000D03*
X1256060D03*
X1268130Y1305000D03*
X1260250D03*
X1268940Y1345000D03*
X1261060D03*
Y1358000D03*
X1253180D03*
X1258130Y1397500D03*
X1258940Y1437500D03*
X1279660Y561380D03*
Y541380D03*
X1292160Y588880D03*
X1284280D03*
X1292160Y606380D03*
X1284280D03*
X1298860Y635190D03*
X1292160Y621380D03*
X1284280D03*
X1289240Y647690D03*
X1281360D03*
X1301740Y745190D03*
X1293860D03*
X1301740Y760190D03*
X1293860D03*
X1306740Y635190D03*
X1324240Y840190D03*
X1316360D03*
X1313940Y1480000D03*
X1306060D03*
X1348780Y388880D03*
X1356660D03*
X1371360Y765190D03*
Y777690D03*
X1400060Y535000D03*
X1381360Y720190D03*
X1389240D03*
X1401360D03*
X1379240Y765190D03*
Y777690D03*
X1400630Y1159500D03*
X1392750D03*
X1401440Y1197500D03*
X1393560D03*
Y1210000D03*
X1385680D03*
X1390630Y1250000D03*
X1382750D03*
X1391440Y1290000D03*
X1383560D03*
X1398130Y1306000D03*
X1390250D03*
X1398940Y1345000D03*
X1391060D03*
Y1357000D03*
X1383180D03*
X1388130Y1398500D03*
X1380250D03*
X1388940Y1437500D03*
X1381060D03*
X1398940Y1480000D03*
X1391060D03*
X1420440Y443500D03*
X1412560D03*
X1407940Y535000D03*
X1428860Y637690D03*
X1409240Y720190D03*
X1436740Y637690D03*
X1516060Y1155000D03*
X1523940D03*
X1528940Y1200000D03*
X1521060D03*
Y1212500D03*
X1513180D03*
X1518940Y1254500D03*
X1511060D03*
X1518940Y1292000D03*
X1511060D03*
X1526130Y1305000D03*
X1518250D03*
X1526440Y1345000D03*
X1518560D03*
Y1357000D03*
X1510680D03*
X1516130Y1399000D03*
X1508250D03*
X1516440Y1438940D03*
X1508560D03*
G54D32*
X416500Y1341250D03*
Y1348750D03*
X423500Y1345050D03*
X967000Y907800D03*
Y900300D03*
X960000Y904000D03*
G54D15*
X110000Y1043000D03*
X125000D03*
X120000D03*
X115000D03*
X110000Y1077000D03*
X115000D03*
X120000D03*
X125000D03*
X130000Y1043000D03*
Y1077000D03*
X152500Y1353000D03*
X147500D03*
X142500D03*
X137500D03*
X132500D03*
Y1387000D03*
X152500D03*
X137500D03*
X142500D03*
X147500D03*
X227500Y1353000D03*
X222500D03*
X217500D03*
X212500D03*
Y1387000D03*
X217500D03*
X222500D03*
X227500D03*
Y1418000D03*
X222500D03*
X217500D03*
X212500D03*
X207500D03*
X227500Y1462000D03*
X222500D03*
X217500D03*
X212500D03*
X207500D03*
X232500Y1353000D03*
Y1387000D03*
X237500Y1418000D03*
X232500D03*
X237500Y1462000D03*
X232500D03*
X280000Y885500D03*
X275000D03*
X270000D03*
Y919500D03*
X275000D03*
X280000D03*
X297500Y749000D03*
X302500D03*
X297500Y786000D03*
X302500D03*
X297500Y815250D03*
X302500D03*
Y834750D03*
X297500D03*
X290000Y885500D03*
X285000D03*
X290000Y919500D03*
X285000D03*
X307500Y749000D03*
X317500D03*
X312500D03*
X327500D03*
X322500D03*
X332500D03*
X307500Y786000D03*
X317500D03*
X312500D03*
X327500D03*
X322500D03*
X332500D03*
X307500Y815250D03*
X312500D03*
X317500D03*
X322500D03*
X327500D03*
X332500D03*
X307500Y834750D03*
X317500D03*
X312500D03*
X322500D03*
X332500D03*
X327500D03*
X337500Y873000D03*
X342500D03*
X347500D03*
X352500D03*
X357500D03*
X337500Y917000D03*
X342500D03*
X347500D03*
X352500D03*
X357500D03*
Y960500D03*
X337500D03*
X352500D03*
X347500D03*
X342500D03*
X337500Y994500D03*
X342500D03*
X347500D03*
X352500D03*
X357500D03*
X362500Y873000D03*
X367500D03*
X362500Y917000D03*
X367500D03*
X432500Y1429750D03*
X427500D03*
Y1410250D03*
X432500D03*
X437500Y1429750D03*
X442500D03*
X437500Y1410250D03*
X442500D03*
X545000Y1082750D03*
X550000D03*
X555000D03*
X560000D03*
X550000Y1102250D03*
X545000D03*
X555000D03*
X560000D03*
X557500Y1137750D03*
X552500D03*
X547500D03*
X557500Y1157250D03*
X552500D03*
X547500D03*
X560000Y1382750D03*
X555000D03*
X560000Y1402250D03*
X555000D03*
X585000Y928000D03*
Y962000D03*
X565000Y1082750D03*
X570000D03*
X575000D03*
X580000D03*
X565000Y1102250D03*
X570000D03*
X580000D03*
X575000D03*
X572500Y1137750D03*
X577500D03*
X567500D03*
X562500D03*
X577500Y1157250D03*
X572500D03*
X567500D03*
X562500D03*
X580000Y1382750D03*
X585000D03*
X575000D03*
X565000D03*
X570000D03*
X585000Y1402250D03*
X580000D03*
X575000D03*
X570000D03*
X565000D03*
X605000Y928000D03*
X600000D03*
X595000D03*
X590000D03*
X605000Y962000D03*
X590000D03*
X595000D03*
X600000D03*
X612500Y1132750D03*
X607500D03*
X612500Y1152250D03*
X607500D03*
X632500Y1132750D03*
X637500D03*
X627500D03*
X617500D03*
X622500D03*
X637500Y1152250D03*
X632500D03*
X627500D03*
X622500D03*
X617500D03*
X640000Y1290500D03*
X645000D03*
X650000D03*
X655000D03*
X660000D03*
X640000Y1334500D03*
X645000D03*
X650000D03*
X655000D03*
X660000D03*
X645000Y1375500D03*
X660000D03*
X655000D03*
X650000D03*
X645000Y1409500D03*
X650000D03*
X655000D03*
X660000D03*
X665000Y1290500D03*
X670000D03*
X665000Y1334500D03*
X670000D03*
X665000Y1375500D03*
Y1409500D03*
X831000Y452000D03*
X841000D03*
X836000D03*
X831000Y486000D03*
X836000D03*
X841000D03*
X851000Y452000D03*
X846000D03*
Y486000D03*
X851000D03*
X928500Y452000D03*
X943500D03*
X938500D03*
X933500D03*
X928500Y486000D03*
X933500D03*
X938500D03*
X943500D03*
X948500Y452000D03*
Y486000D03*
X1007500Y1335250D03*
X1012500D03*
X1017500D03*
X1012500Y1354750D03*
X1007500D03*
X1017500D03*
X1045000Y458000D03*
Y492000D03*
X1022500Y1335250D03*
X1027500D03*
X1032500D03*
X1037500D03*
X1027500Y1354750D03*
X1022500D03*
X1032500D03*
X1037500D03*
X1065000Y458000D03*
X1060000D03*
X1055000D03*
X1050000D03*
X1065000Y492000D03*
X1050000D03*
X1055000D03*
X1060000D03*
X1140000Y886500D03*
X1145000D03*
X1135000D03*
X1140000Y923500D03*
X1145000D03*
X1135000D03*
X1133500Y951500D03*
X1138500D03*
X1143500D03*
X1148500D03*
X1133500Y988500D03*
X1143500D03*
X1138500D03*
X1148500D03*
X1147500Y1490250D03*
X1137500D03*
X1142500D03*
X1132500D03*
X1127500D03*
X1147500Y1509750D03*
X1142500D03*
X1137500D03*
X1132500D03*
X1127500D03*
X1170000Y886500D03*
X1160000D03*
X1165000D03*
X1150000D03*
X1155000D03*
X1170000Y923500D03*
X1165000D03*
X1160000D03*
X1150000D03*
X1155000D03*
X1153500Y951500D03*
X1163500D03*
X1158500D03*
X1168500D03*
X1153500Y988500D03*
X1163500D03*
X1158500D03*
X1168500D03*
X1152500Y1490250D03*
X1157500D03*
Y1509750D03*
X1152500D03*
X1195000Y667750D03*
Y687250D03*
X1197500Y930250D03*
Y949750D03*
X1223220Y559130D03*
Y578630D03*
X1205000Y667750D03*
X1210000D03*
X1200000D03*
X1210000Y687250D03*
X1205000D03*
X1200000D03*
X1225000Y760500D03*
X1220000D03*
X1215000D03*
X1210000D03*
X1205000D03*
X1225000Y804500D03*
X1220000D03*
X1215000D03*
X1210000D03*
X1205000D03*
X1202500Y930250D03*
X1207500D03*
X1212500D03*
X1217500D03*
X1222500D03*
X1202500Y949750D03*
X1207500D03*
X1217500D03*
X1212500D03*
X1222500D03*
X1245720Y485430D03*
X1240720D03*
X1235720D03*
X1230720D03*
X1225720D03*
X1245720Y522430D03*
X1240720D03*
X1235720D03*
X1230720D03*
X1225720D03*
X1248220Y559130D03*
X1238220D03*
X1243220D03*
X1233220D03*
X1228220D03*
X1248220Y578630D03*
X1243220D03*
X1238220D03*
X1233220D03*
X1228220D03*
X1250000Y667750D03*
X1245000D03*
X1240000D03*
X1250000Y687250D03*
X1245000D03*
X1240000D03*
X1235000Y760500D03*
X1230000D03*
X1235000Y804500D03*
X1230000D03*
X1227500Y930250D03*
X1232500D03*
Y949750D03*
X1227500D03*
X1270720Y485430D03*
X1265720D03*
X1260720D03*
X1255720D03*
X1250720D03*
X1270720Y522430D03*
X1265720D03*
X1260720D03*
X1255720D03*
X1250720D03*
X1253220Y559130D03*
X1258220D03*
Y578630D03*
X1253220D03*
X1255000Y667750D03*
Y687250D03*
X1325720Y551880D03*
X1320720D03*
Y585880D03*
X1325720D03*
X1322800Y732940D03*
X1312800D03*
X1317800D03*
X1322800Y752440D03*
X1317800D03*
X1312800D03*
X1310300Y927940D03*
X1315300D03*
X1320300D03*
X1325300D03*
X1315300Y947440D03*
X1310300D03*
X1320300D03*
X1325300D03*
X1340720Y551880D03*
X1335720D03*
X1330720D03*
X1340720Y585880D03*
X1330720D03*
X1335720D03*
X1342800Y732940D03*
X1347800D03*
X1337800D03*
X1327800D03*
X1332800D03*
X1347800Y752440D03*
X1342800D03*
X1337800D03*
X1332800D03*
X1327800D03*
X1330300Y927940D03*
X1335300D03*
X1340300D03*
X1345300D03*
X1330300Y947440D03*
X1335300D03*
X1345300D03*
X1340300D03*
X1373220Y409130D03*
X1368220D03*
X1373220Y428630D03*
X1368220D03*
X1393220Y409130D03*
X1398220D03*
X1388220D03*
X1378220D03*
X1383220D03*
X1398220Y428630D03*
X1393220D03*
X1388220D03*
X1383220D03*
X1378220D03*
X1453300Y535440D03*
X1448300D03*
X1453300Y554940D03*
X1448300D03*
X1473300Y535440D03*
X1478300D03*
X1468300D03*
X1458300D03*
X1463300D03*
X1478300Y554940D03*
X1473300D03*
X1468300D03*
X1463300D03*
X1458300D03*
X1505300Y588190D03*
X1485300D03*
X1500300D03*
X1495300D03*
X1490300D03*
X1485300Y622190D03*
X1490300D03*
X1495300D03*
X1500300D03*
X1505300D03*
X1500300Y665690D03*
X1495300D03*
X1490300D03*
X1485300D03*
X1480300D03*
Y699690D03*
X1500300D03*
X1485300D03*
X1490300D03*
X1495300D03*
G54D24*
X214950Y489700D03*
X217150Y598250D03*
X292550Y489900D03*
G54D33*
X500000Y870000D03*
Y1103000D03*
X1245000Y870000D03*
Y1016500D03*
G54D34*
X552000Y733510D03*
Y722490D03*
X542500Y1181990D03*
Y1193010D03*
X1177500Y1276990D03*
Y1288010D03*
Y1421990D03*
Y1433010D03*
X1306000Y1288510D03*
Y1277490D03*
X1305000Y1424490D03*
Y1435510D03*
X1430000Y1424490D03*
Y1435510D03*
X1432500Y1276990D03*
Y1288010D03*
X1557500Y1290510D03*
Y1279490D03*
X1559000Y1425490D03*
Y1436510D03*
G54D25*
X240000Y355000D03*
Y395000D03*
X297500Y355000D03*
Y395000D03*
X335000Y355000D03*
Y395000D03*
X395000Y355000D03*
Y395000D03*
X429000Y508000D03*
X450000Y355000D03*
Y395000D03*
X469000Y508000D03*
X1160000Y1214000D03*
X1157500Y1361500D03*
X1182500Y1250000D03*
X1180000Y1397500D03*
X1287500Y1214000D03*
X1282500Y1361500D03*
X1310000Y1250000D03*
X1305000Y1397500D03*
X1415000Y1214000D03*
X1412500Y1361500D03*
X1437500Y1250000D03*
X1435000Y1396000D03*
X1542500Y1216500D03*
X1540000Y1361500D03*
X1565000Y1252500D03*
X1562500Y1397500D03*
G54D16*
X110000Y1219500D03*
Y1224500D03*
Y1209500D03*
Y1214500D03*
Y1204500D03*
Y1239500D03*
Y1234500D03*
Y1229500D03*
X147000Y1219500D03*
Y1224500D03*
Y1209500D03*
Y1214500D03*
Y1204500D03*
Y1239500D03*
Y1229500D03*
Y1234500D03*
X152250Y1275000D03*
X132750D03*
X152250Y1300000D03*
Y1290000D03*
Y1295000D03*
Y1285000D03*
Y1280000D03*
X132750Y1300000D03*
Y1295000D03*
Y1290000D03*
Y1285000D03*
Y1280000D03*
X152250Y1305000D03*
Y1310000D03*
X132750D03*
Y1305000D03*
X178000Y912500D03*
Y917500D03*
Y932500D03*
Y922500D03*
Y927500D03*
Y982500D03*
Y987500D03*
Y992500D03*
Y1002500D03*
Y997500D03*
Y1052500D03*
Y1057500D03*
Y1062500D03*
Y1067500D03*
Y1072500D03*
X198000Y1219500D03*
Y1224500D03*
Y1209500D03*
Y1214500D03*
Y1204500D03*
Y1239500D03*
Y1234500D03*
Y1229500D03*
X205500Y1290000D03*
Y1295000D03*
Y1300000D03*
Y1310000D03*
Y1305000D03*
X212000Y917500D03*
Y912500D03*
Y932500D03*
Y927500D03*
Y922500D03*
Y992500D03*
Y987500D03*
Y982500D03*
Y1002500D03*
Y997500D03*
Y1052500D03*
Y1067500D03*
Y1062500D03*
Y1057500D03*
Y1072500D03*
X255500Y965000D03*
Y970000D03*
Y975000D03*
Y980000D03*
Y985000D03*
Y990000D03*
Y995000D03*
X245500Y1050000D03*
Y1055000D03*
Y1060000D03*
Y1065000D03*
Y1070000D03*
X235000Y1219500D03*
Y1224500D03*
Y1209500D03*
Y1214500D03*
Y1204500D03*
Y1239500D03*
Y1229500D03*
Y1234500D03*
X239500Y1300000D03*
Y1295000D03*
Y1290000D03*
Y1310000D03*
Y1305000D03*
X279500Y1070000D03*
Y1050000D03*
Y1065000D03*
Y1060000D03*
Y1055000D03*
X299500Y965000D03*
Y970000D03*
Y975000D03*
Y980000D03*
Y985000D03*
Y990000D03*
Y995000D03*
X354750Y1040000D03*
Y1045000D03*
X335250D03*
Y1040000D03*
X354750Y1070000D03*
Y1065000D03*
Y1055000D03*
Y1060000D03*
Y1050000D03*
X335250Y1070000D03*
Y1065000D03*
Y1060000D03*
Y1055000D03*
Y1050000D03*
X354750Y1075000D03*
X335250D03*
X343000Y1350000D03*
Y1345000D03*
Y1340000D03*
Y1335000D03*
Y1330000D03*
Y1360000D03*
Y1355000D03*
X348000Y1410000D03*
Y1415000D03*
Y1420000D03*
Y1425000D03*
Y1430000D03*
X382000Y1410000D03*
Y1425000D03*
Y1420000D03*
Y1415000D03*
Y1430000D03*
X387000Y1350000D03*
Y1345000D03*
Y1340000D03*
Y1335000D03*
Y1330000D03*
Y1360000D03*
Y1355000D03*
X537620Y457460D03*
Y482460D03*
Y477460D03*
Y472460D03*
Y467460D03*
Y462460D03*
Y487460D03*
X557120Y457460D03*
Y482460D03*
Y477460D03*
Y467460D03*
Y472460D03*
Y462460D03*
Y487460D03*
X550500Y1445000D03*
Y1450000D03*
Y1465000D03*
Y1455000D03*
Y1460000D03*
X587620Y457460D03*
Y482460D03*
Y477460D03*
Y472460D03*
Y467460D03*
Y462460D03*
Y487460D03*
X575500Y862500D03*
Y867500D03*
Y882500D03*
Y872500D03*
Y877500D03*
X584500Y1450000D03*
Y1445000D03*
Y1465000D03*
Y1460000D03*
Y1455000D03*
X607120Y457460D03*
Y482460D03*
Y477460D03*
Y467460D03*
Y472460D03*
Y462460D03*
Y487460D03*
X609500Y867500D03*
Y862500D03*
Y882500D03*
Y877500D03*
Y872500D03*
X637620Y479960D03*
Y474960D03*
Y469960D03*
Y464960D03*
X657120Y474960D03*
Y479960D03*
Y469960D03*
Y464960D03*
X645500Y937500D03*
Y942500D03*
Y957500D03*
Y947500D03*
Y952500D03*
X679500Y942500D03*
Y937500D03*
Y957500D03*
Y952500D03*
Y947500D03*
X783000Y1315000D03*
Y1320000D03*
Y1325000D03*
Y1335000D03*
Y1330000D03*
Y1385000D03*
Y1390000D03*
Y1395000D03*
Y1400000D03*
Y1405000D03*
X817000Y1325000D03*
Y1320000D03*
Y1315000D03*
Y1335000D03*
Y1330000D03*
Y1400000D03*
Y1395000D03*
Y1390000D03*
Y1385000D03*
Y1405000D03*
X819000Y381500D03*
Y376500D03*
Y371500D03*
Y401500D03*
Y396500D03*
Y391500D03*
Y386500D03*
X863000Y381500D03*
Y376500D03*
Y371500D03*
Y401500D03*
Y396500D03*
Y391500D03*
Y386500D03*
X875250Y1135000D03*
Y1130000D03*
Y1140000D03*
Y1145000D03*
X894750Y1130000D03*
Y1135000D03*
Y1140000D03*
Y1145000D03*
X875250Y1150000D03*
Y1155000D03*
Y1160000D03*
X894750Y1150000D03*
Y1155000D03*
Y1160000D03*
X916500Y379000D03*
Y374000D03*
Y404000D03*
Y399000D03*
Y394000D03*
Y389000D03*
Y384000D03*
X960500Y379000D03*
Y374000D03*
Y404000D03*
Y399000D03*
Y394000D03*
Y389000D03*
Y384000D03*
X965250Y1295000D03*
Y1290000D03*
Y1285000D03*
Y1280000D03*
X984750Y1290000D03*
Y1295000D03*
Y1285000D03*
Y1280000D03*
X1017750Y1295000D03*
Y1290000D03*
Y1285000D03*
Y1280000D03*
X1037250Y1290000D03*
Y1295000D03*
Y1285000D03*
Y1280000D03*
X1069750Y1500000D03*
Y1505000D03*
Y1495000D03*
Y1490000D03*
X1050250Y1505000D03*
Y1500000D03*
Y1495000D03*
Y1490000D03*
X1090250Y1095000D03*
Y1090000D03*
Y1085000D03*
Y1080000D03*
Y1110000D03*
Y1105000D03*
Y1100000D03*
X1108000Y465000D03*
Y470000D03*
Y475000D03*
Y480000D03*
Y485000D03*
X1109750Y1090000D03*
Y1095000D03*
Y1085000D03*
Y1080000D03*
Y1105000D03*
Y1110000D03*
Y1100000D03*
X1142000Y485000D03*
Y465000D03*
Y480000D03*
Y475000D03*
Y470000D03*
X1130500Y717500D03*
Y722500D03*
Y727500D03*
Y732500D03*
Y737500D03*
X1137750Y1170000D03*
Y1185000D03*
Y1180000D03*
Y1175000D03*
X1147250Y1272500D03*
Y1267500D03*
Y1262500D03*
X1127750Y1272500D03*
Y1267500D03*
Y1262500D03*
X1147250Y1277500D03*
X1127750D03*
X1135250Y1322500D03*
Y1317500D03*
Y1332500D03*
Y1327500D03*
X1144750Y1420000D03*
Y1425000D03*
Y1415000D03*
Y1410000D03*
X1125250Y1425000D03*
Y1420000D03*
Y1415000D03*
Y1410000D03*
X1164500Y737500D03*
Y717500D03*
Y732500D03*
Y727500D03*
Y722500D03*
X1157250Y1170000D03*
Y1180000D03*
Y1185000D03*
Y1175000D03*
X1154750Y1322500D03*
Y1317500D03*
Y1327500D03*
Y1332500D03*
X1250250Y1423500D03*
Y1418500D03*
Y1413500D03*
Y1408500D03*
X1265250Y1170000D03*
Y1185000D03*
Y1180000D03*
Y1175000D03*
X1274750Y1272500D03*
Y1267500D03*
Y1262500D03*
X1255250Y1272500D03*
Y1267500D03*
Y1262500D03*
X1274750Y1277500D03*
X1255250D03*
X1260250Y1322500D03*
Y1317500D03*
Y1332500D03*
Y1327500D03*
X1269750Y1418500D03*
Y1423500D03*
Y1413500D03*
Y1408500D03*
X1284750Y1170000D03*
Y1180000D03*
Y1185000D03*
Y1175000D03*
X1279750Y1322500D03*
Y1317500D03*
Y1327500D03*
Y1332500D03*
X1316220Y491380D03*
Y496380D03*
Y501380D03*
Y506380D03*
Y511380D03*
X1308300Y662690D03*
Y687690D03*
Y682690D03*
Y677690D03*
Y672690D03*
Y667690D03*
Y692690D03*
X1305800Y862690D03*
Y867690D03*
Y872690D03*
Y877690D03*
Y882690D03*
X1350220Y506380D03*
Y501380D03*
Y496380D03*
Y491380D03*
Y511380D03*
X1352300Y662690D03*
Y687690D03*
Y682690D03*
Y677690D03*
Y672690D03*
Y667690D03*
Y692690D03*
X1339800Y862690D03*
Y867690D03*
Y882690D03*
Y877690D03*
Y872690D03*
X1387500Y492500D03*
Y497500D03*
Y502500D03*
Y507500D03*
Y512500D03*
X1390800Y595190D03*
Y600190D03*
Y605190D03*
Y610190D03*
Y615190D03*
X1388300Y662690D03*
Y667690D03*
Y672690D03*
Y677690D03*
Y682690D03*
Y687690D03*
Y692690D03*
X1390550Y740190D03*
Y745190D03*
Y750190D03*
Y755190D03*
X1383300Y797690D03*
Y802690D03*
Y807690D03*
Y812690D03*
Y817690D03*
X1392750Y1170000D03*
Y1185000D03*
Y1180000D03*
Y1175000D03*
X1402250Y1272500D03*
Y1267500D03*
Y1262500D03*
X1382750Y1272500D03*
Y1267500D03*
Y1262500D03*
X1402250Y1277500D03*
X1382750D03*
X1390250Y1322500D03*
Y1317500D03*
Y1332500D03*
Y1327500D03*
X1399750Y1419500D03*
Y1424500D03*
Y1414500D03*
Y1409500D03*
X1380250Y1424500D03*
Y1419500D03*
Y1414500D03*
Y1409500D03*
X1421500Y507500D03*
Y502500D03*
Y497500D03*
Y492500D03*
Y512500D03*
X1424800Y610190D03*
Y605190D03*
Y600190D03*
Y595190D03*
Y615190D03*
X1410050Y740190D03*
Y745190D03*
Y750190D03*
Y755190D03*
X1417300Y797690D03*
Y812690D03*
Y807690D03*
Y802690D03*
Y817690D03*
X1412250Y1170000D03*
Y1180000D03*
Y1185000D03*
Y1175000D03*
X1409750Y1322500D03*
Y1317500D03*
Y1327500D03*
Y1332500D03*
X1432300Y662690D03*
Y667690D03*
Y672690D03*
Y677690D03*
Y682690D03*
Y687690D03*
Y692690D03*
X1473300Y747690D03*
Y752690D03*
Y757690D03*
Y762690D03*
Y767690D03*
X1507300Y747690D03*
Y762690D03*
Y757690D03*
Y752690D03*
Y767690D03*
X1520250Y1172500D03*
Y1187500D03*
Y1182500D03*
Y1177500D03*
X1529750Y1275000D03*
Y1270000D03*
Y1265000D03*
X1510250Y1275000D03*
Y1270000D03*
Y1265000D03*
X1529750Y1280000D03*
X1510250D03*
X1518250Y1322500D03*
Y1317500D03*
Y1332500D03*
Y1327500D03*
X1527750Y1420500D03*
Y1425500D03*
Y1415500D03*
Y1410500D03*
X1508250Y1425500D03*
Y1420500D03*
Y1415500D03*
Y1410500D03*
X1539750Y1172500D03*
Y1182500D03*
Y1187500D03*
Y1177500D03*
X1537750Y1322500D03*
Y1317500D03*
Y1327500D03*
Y1332500D03*
G54D35*
X571700Y677390D03*
Y679950D03*
Y682510D03*
Y685070D03*
Y687630D03*
Y690190D03*
Y692750D03*
X573700Y787340D03*
Y789900D03*
Y792460D03*
Y795020D03*
Y797580D03*
Y800140D03*
Y802700D03*
X594300Y687630D03*
Y685070D03*
Y682510D03*
Y679950D03*
Y677390D03*
Y692750D03*
Y690190D03*
X596300Y789900D03*
Y787340D03*
Y802700D03*
Y800140D03*
Y797580D03*
Y795020D03*
Y792460D03*
X652700Y688840D03*
Y691400D03*
Y693960D03*
Y696520D03*
Y699080D03*
Y701640D03*
Y704200D03*
Y716340D03*
Y718900D03*
Y721460D03*
Y724020D03*
Y726580D03*
Y729140D03*
Y731700D03*
X675300Y688840D03*
Y704200D03*
Y701640D03*
Y699080D03*
Y696520D03*
Y693960D03*
Y691400D03*
Y731700D03*
Y729140D03*
Y726580D03*
Y724020D03*
Y721460D03*
Y718900D03*
Y716340D03*
X689700Y866300D03*
Y868860D03*
Y871420D03*
Y873980D03*
Y876540D03*
Y879100D03*
Y881660D03*
X712300Y866300D03*
Y881660D03*
Y879100D03*
Y876540D03*
Y873980D03*
Y871420D03*
Y868860D03*
X813700Y1136040D03*
Y1138600D03*
Y1141160D03*
Y1143720D03*
Y1146280D03*
Y1148840D03*
Y1151400D03*
Y1153960D03*
X841300Y1146280D03*
Y1143720D03*
Y1141160D03*
Y1138600D03*
Y1136040D03*
Y1153960D03*
Y1151400D03*
Y1148840D03*
X1022300Y763900D03*
Y761340D03*
X999700D03*
Y763900D03*
X1022300Y776700D03*
Y774140D03*
Y771580D03*
Y769020D03*
Y766460D03*
X999700D03*
Y769020D03*
Y771580D03*
Y774140D03*
Y776700D03*
X1071700Y734300D03*
Y736860D03*
Y739420D03*
Y741980D03*
Y744540D03*
Y747100D03*
Y749660D03*
X1094300Y739420D03*
Y736860D03*
Y734300D03*
Y749660D03*
Y747100D03*
Y744540D03*
Y741980D03*
X1255700Y1067300D03*
Y1069860D03*
Y1072420D03*
Y1074980D03*
Y1077540D03*
Y1080100D03*
Y1082660D03*
X1257200Y1109800D03*
Y1112360D03*
Y1114920D03*
Y1117480D03*
Y1120040D03*
Y1122600D03*
Y1125160D03*
X1278300Y1069860D03*
Y1067300D03*
Y1082660D03*
Y1080100D03*
Y1077540D03*
Y1074980D03*
Y1072420D03*
X1279800Y1120040D03*
Y1117480D03*
Y1114920D03*
Y1112360D03*
Y1109800D03*
Y1125160D03*
Y1122600D03*
G54D17*
X150000Y803940D03*
Y796060D03*
X150200Y831940D03*
Y824060D03*
X152500Y936060D03*
Y943940D03*
X185000Y1378940D03*
Y1371060D03*
Y1393560D03*
Y1401440D03*
Y1431060D03*
Y1438940D03*
X208000Y792440D03*
Y784560D03*
X212500Y1101060D03*
Y1108940D03*
X250000Y706060D03*
Y713940D03*
X242500Y861060D03*
Y868940D03*
X235000Y936060D03*
Y943940D03*
Y966440D03*
Y958560D03*
X237500Y1016060D03*
Y1023940D03*
X257500Y1101060D03*
Y1108940D03*
X245000Y1101060D03*
Y1108940D03*
X270000Y706060D03*
Y713940D03*
X272500Y1101060D03*
Y1108940D03*
X270000Y1331060D03*
Y1338940D03*
X305000Y1573940D03*
Y1566060D03*
X317500Y966060D03*
Y973940D03*
Y1031060D03*
Y1038940D03*
Y1063560D03*
Y1071440D03*
X330000Y1431060D03*
Y1438940D03*
X355000Y828940D03*
Y821060D03*
X385000Y981060D03*
Y988940D03*
X380000Y1046440D03*
Y1038560D03*
Y1063560D03*
Y1071440D03*
X395000Y878940D03*
Y871060D03*
Y903560D03*
Y911440D03*
X410000D03*
Y903560D03*
X405000Y1321060D03*
Y1348560D03*
Y1328940D03*
Y1356440D03*
Y1398560D03*
Y1406440D03*
X397500Y1443940D03*
Y1436060D03*
X442500Y1348560D03*
Y1356440D03*
X530500Y1081440D03*
Y1073560D03*
X516000Y1154060D03*
Y1161940D03*
X555000Y863940D03*
Y856060D03*
X543000Y1215000D03*
Y1222880D03*
X542500Y1391060D03*
Y1398940D03*
X590000Y986060D03*
Y993940D03*
X612500Y1301440D03*
Y1293560D03*
X595000Y1343560D03*
Y1351440D03*
X615000Y1388560D03*
Y1396440D03*
X640000Y986060D03*
Y993940D03*
X655000Y986060D03*
Y993940D03*
X682000Y464960D03*
Y472840D03*
X685000Y1373560D03*
Y1381440D03*
X760000Y1388560D03*
Y1396440D03*
X806000Y392560D03*
Y400440D03*
X842500Y1551440D03*
Y1543560D03*
X883500Y372560D03*
Y380440D03*
X881000Y457940D03*
Y450060D03*
Y477940D03*
Y470060D03*
X896000Y372560D03*
Y380440D03*
X908500Y442560D03*
Y450440D03*
Y471120D03*
Y479000D03*
X920000Y1526440D03*
Y1518560D03*
X951000Y427560D03*
Y435440D03*
X959000Y886940D03*
Y879060D03*
X946550Y905060D03*
Y912940D03*
X947500Y1278560D03*
Y1286440D03*
X983500Y372560D03*
Y380440D03*
X973500Y445060D03*
Y452940D03*
Y471120D03*
Y479000D03*
X976000Y886940D03*
Y879060D03*
X1014500Y1248060D03*
X1000000D03*
X1014500Y1255940D03*
X1000000D03*
X1037500Y1249620D03*
Y1257500D03*
X1072500Y1198940D03*
Y1191060D03*
X1050540Y1347400D03*
Y1339520D03*
X1070000Y1346440D03*
Y1338560D03*
X1069000Y1395940D03*
Y1388060D03*
X1062500Y1423560D03*
Y1431440D03*
X1050000Y1536060D03*
Y1543940D03*
X1087000Y1261060D03*
Y1268940D03*
X1085000Y1409060D03*
Y1416940D03*
X1120000Y1221000D03*
X1102500Y1241060D03*
Y1248940D03*
X1120000Y1228880D03*
X1115000Y1241060D03*
Y1248940D03*
Y1268940D03*
Y1261060D03*
Y1290000D03*
Y1282120D03*
X1122500Y1322500D03*
Y1314620D03*
Y1345000D03*
Y1337120D03*
X1117500Y1368560D03*
Y1376440D03*
X1100000Y1388560D03*
Y1396440D03*
X1112500Y1388560D03*
Y1396440D03*
Y1418940D03*
Y1411060D03*
Y1429620D03*
Y1437500D03*
X1125000Y1175000D03*
Y1167120D03*
Y1197500D03*
Y1189620D03*
X1135000Y1221000D03*
Y1228880D03*
X1132500Y1368560D03*
Y1376440D03*
X1165000Y461060D03*
Y468940D03*
Y481060D03*
Y488940D03*
X1169500Y1186060D03*
Y1193940D03*
X1159500Y1278560D03*
Y1286440D03*
X1168000Y1329560D03*
Y1337440D03*
X1160000Y1423060D03*
Y1430940D03*
X1157500Y1476440D03*
Y1468560D03*
X1182500Y741060D03*
Y748940D03*
X1193000Y883060D03*
Y890940D03*
X1197500Y983940D03*
Y976060D03*
X1200000Y1198940D03*
Y1191060D03*
X1195000Y1346440D03*
Y1338560D03*
X1217500Y706440D03*
Y698560D03*
X1212500Y906060D03*
Y913940D03*
Y983940D03*
Y976060D03*
X1215000Y1261060D03*
Y1268940D03*
X1225000Y1388560D03*
Y1396440D03*
Y1429620D03*
X1210000Y1409060D03*
Y1416940D03*
X1225000Y1437500D03*
X1229000Y454940D03*
Y447060D03*
X1232500Y698560D03*
Y706440D03*
X1227500Y906060D03*
Y913940D03*
X1247500Y1221060D03*
X1230000Y1241060D03*
Y1248940D03*
X1247500Y1228940D03*
X1242500Y1241060D03*
Y1248940D03*
Y1268940D03*
Y1261060D03*
X1228000Y1290000D03*
Y1282120D03*
X1242500Y1290000D03*
Y1282120D03*
X1247500Y1322500D03*
Y1314620D03*
Y1345000D03*
Y1337120D03*
X1242500Y1368560D03*
Y1376440D03*
X1237500Y1388560D03*
Y1396440D03*
Y1417500D03*
Y1409620D03*
Y1429620D03*
Y1437500D03*
X1260000Y728940D03*
Y721060D03*
X1252500Y1175000D03*
Y1167120D03*
Y1197500D03*
Y1189620D03*
X1262500Y1221060D03*
Y1228940D03*
X1257500Y1368560D03*
Y1376440D03*
X1287800Y661250D03*
Y669130D03*
X1280000Y726060D03*
Y733940D03*
X1298000Y1186060D03*
Y1193940D03*
X1290000Y1278560D03*
Y1286440D03*
X1294000Y1334560D03*
Y1342440D03*
X1286000Y1426060D03*
Y1433940D03*
X1315720Y609940D03*
Y617820D03*
X1302800Y981630D03*
Y973750D03*
X1320300D03*
Y981630D03*
X1327500Y1198940D03*
Y1191060D03*
X1325000Y1346440D03*
Y1338560D03*
X1335720Y609940D03*
Y617820D03*
X1342000Y1261060D03*
Y1268940D03*
X1353000Y1429620D03*
X1340000Y1408060D03*
Y1415940D03*
X1353000Y1437500D03*
X1370300Y671250D03*
Y679130D03*
Y701630D03*
Y693750D03*
Y724130D03*
Y716250D03*
X1369000Y818060D03*
Y825940D03*
X1355300Y859130D03*
Y851250D03*
X1375000Y1221060D03*
X1357500Y1241060D03*
Y1248940D03*
X1375000Y1228940D03*
X1370000Y1241060D03*
Y1248940D03*
Y1268940D03*
Y1261060D03*
X1359000Y1290000D03*
Y1282120D03*
X1370000Y1290000D03*
Y1282120D03*
X1377500Y1322500D03*
Y1314620D03*
Y1345000D03*
Y1337120D03*
X1372500Y1368560D03*
Y1376440D03*
X1355000Y1388560D03*
Y1396440D03*
X1367500Y1388560D03*
Y1396440D03*
Y1418940D03*
Y1411060D03*
Y1429620D03*
Y1437500D03*
X1384000Y463060D03*
Y470940D03*
X1380000Y1175000D03*
Y1167120D03*
Y1197500D03*
Y1189620D03*
X1390000Y1221060D03*
Y1228940D03*
X1387500Y1368560D03*
Y1376440D03*
X1427500Y1186060D03*
Y1193940D03*
X1415000Y1278560D03*
Y1286440D03*
X1422500Y1333560D03*
Y1341440D03*
X1417500Y1426060D03*
Y1433940D03*
X1455300Y638750D03*
Y646630D03*
Y679130D03*
Y671250D03*
Y696250D03*
Y704130D03*
X1452500Y1346440D03*
Y1338560D03*
X1457500Y1193560D03*
Y1201440D03*
X1470000Y1264060D03*
Y1271940D03*
X1467000Y1409060D03*
Y1416940D03*
X1481000Y1438940D03*
Y1431060D03*
X1502500Y1223560D03*
X1485000Y1243560D03*
Y1251440D03*
X1502500Y1231440D03*
X1497500Y1243560D03*
Y1251440D03*
Y1271440D03*
Y1263560D03*
X1484000Y1292000D03*
Y1284120D03*
X1497500Y1292000D03*
Y1284120D03*
X1505000Y1322500D03*
Y1314620D03*
Y1345000D03*
Y1337120D03*
X1500000Y1368560D03*
Y1376440D03*
X1495000Y1388560D03*
Y1396440D03*
X1482500Y1388560D03*
Y1396440D03*
X1495000Y1418940D03*
Y1411060D03*
Y1438940D03*
Y1431060D03*
X1527800Y766250D03*
Y774130D03*
X1507500Y1169620D03*
Y1200000D03*
Y1192120D03*
Y1177500D03*
X1517500Y1223560D03*
Y1231440D03*
X1515000Y1368560D03*
Y1376440D03*
X1552500Y1188560D03*
Y1196440D03*
X1542500Y1281060D03*
Y1288940D03*
X1552500Y1333560D03*
Y1341440D03*
X1540000Y1426060D03*
Y1433940D03*
G54D26*
X236250Y673750D03*
X396250D03*
G54D36*
X597500Y1322500D03*
Y1312500D03*
Y1317500D03*
X1092500Y1157500D03*
Y1167500D03*
Y1217500D03*
Y1227500D03*
X1090000Y1305000D03*
Y1315000D03*
Y1365000D03*
Y1375000D03*
X1102500Y1157500D03*
Y1167500D03*
Y1217500D03*
Y1227500D03*
X1100000Y1305000D03*
Y1315000D03*
Y1365000D03*
Y1375000D03*
X1220000Y1157500D03*
Y1167500D03*
Y1217500D03*
Y1227500D03*
X1225000Y1305000D03*
Y1315000D03*
X1215000Y1305000D03*
Y1315000D03*
X1225000Y1365000D03*
Y1375000D03*
X1215000Y1365000D03*
Y1375000D03*
X1230000Y1157500D03*
Y1167500D03*
Y1217500D03*
Y1227500D03*
X1347500Y1157500D03*
Y1167500D03*
Y1217500D03*
Y1227500D03*
X1345000Y1305000D03*
Y1315000D03*
Y1365000D03*
Y1375000D03*
X1357500Y1157500D03*
Y1167500D03*
Y1217500D03*
Y1227500D03*
X1355000Y1305000D03*
Y1315000D03*
Y1365000D03*
Y1375000D03*
X1475000Y1160000D03*
Y1170000D03*
Y1220000D03*
Y1230000D03*
X1472500Y1305000D03*
Y1315000D03*
Y1365000D03*
Y1375000D03*
X1485000Y1160000D03*
Y1170000D03*
Y1220000D03*
Y1230000D03*
X1482500Y1305000D03*
Y1315000D03*
Y1365000D03*
Y1375000D03*
G54D18*
X142400Y1262500D03*
X147600D03*
X161900Y1236500D03*
X167100D03*
X252600Y1239500D03*
X247400D03*
X315200Y847500D03*
X310000D03*
X342400Y1087500D03*
X347600D03*
X339900Y1307500D03*
X345100D03*
X432400Y1397500D03*
X437600D03*
X570800Y711000D03*
X576000D03*
X582600Y902500D03*
X577400D03*
X612300Y802700D03*
X617500D03*
X659000Y758000D03*
X686800Y705000D03*
Y736500D03*
X684200Y765000D03*
X679000D03*
X664200Y758000D03*
X688200Y790000D03*
X683000D03*
X687200Y778000D03*
X682000D03*
X688200Y801000D03*
X683000D03*
X676200Y869500D03*
X671000D03*
X692000Y705000D03*
Y736500D03*
X787100Y850000D03*
X792300D03*
X803500Y864000D03*
X798300D03*
X840000Y520000D03*
X831160Y835000D03*
X836360D03*
X845200Y520000D03*
X865000Y682500D03*
Y667500D03*
X870200Y682500D03*
Y667500D03*
X873200Y713000D03*
X868000D03*
X882300Y1120500D03*
X887500D03*
X885000Y1285000D03*
X890200D03*
X900000Y530000D03*
X905200D03*
X895000Y1285000D03*
X900200D03*
X925000D03*
X930200D03*
X1019800Y480000D03*
X1025000D03*
X1032800Y780000D03*
X1038000D03*
X1032700Y1490000D03*
X1027500D03*
X1052300Y734300D03*
X1057500D03*
X1046800Y1270000D03*
X1052000D03*
X1090200Y1500000D03*
X1085000D03*
X1205620Y573880D03*
X1210820D03*
X1244200Y1070000D03*
X1239000D03*
X1242700Y1106000D03*
X1237500D03*
X1263120Y403880D03*
X1268320D03*
X1375100Y842690D03*
X1380300D03*
G54D27*
X321900Y509000D03*
X379500D03*
X1268420Y358580D03*
Y378180D03*
X1288020Y358580D03*
Y378180D03*
G54D37*
X659490Y1180000D03*
X670510D03*
G54D19*
X172500Y817500D03*
X182500D03*
X172500Y827500D03*
X182500D03*
X192500Y817500D03*
X194000Y1517000D03*
X204000D03*
X194000Y1527000D03*
X204000D03*
X214000Y1517000D03*
X224000D03*
X214000Y1527000D03*
X224000D03*
X240500Y301740D03*
X240000Y817500D03*
X250000D03*
X240000Y827500D03*
X250000D03*
X234000Y1517000D03*
Y1527000D03*
X279800Y301740D03*
X260200D03*
X281250Y678750D03*
X271250D03*
X281250Y668750D03*
X260000Y817500D03*
X299500Y301740D03*
X301250Y678750D03*
X291250D03*
X301250Y668750D03*
X291250D03*
X335500Y301740D03*
X331250Y678750D03*
X321250D03*
X311250D03*
X331250Y668750D03*
X321250D03*
X311250D03*
X355200Y301740D03*
X361250Y678750D03*
X351250D03*
X341250D03*
X361250Y668750D03*
X351250D03*
X341250D03*
X374800Y301740D03*
X382500Y1220000D03*
X372500D03*
X362500D03*
X382500Y1230000D03*
X372500D03*
X362500D03*
X394500Y301740D03*
X402500Y1220000D03*
X392500D03*
X402500Y1230000D03*
X392500D03*
X390000Y1539000D03*
X400000Y1569000D03*
X390000Y1589000D03*
X436160Y300000D03*
X455840D03*
X456250Y664750D03*
Y674750D03*
X446250D03*
X486250Y664750D03*
X476250D03*
X466250D03*
X486250Y674750D03*
X476250D03*
X466250D03*
X506250Y664750D03*
X496250D03*
X506250Y674750D03*
X496250D03*
X516250Y664750D03*
Y674750D03*
X557370Y412460D03*
Y422460D03*
X561370Y541460D03*
X567370Y412460D03*
Y422460D03*
X577370Y412460D03*
Y422460D03*
X587370Y412460D03*
Y422460D03*
X581370Y531460D03*
X571370D03*
X581370Y541460D03*
X571370D03*
X568000Y583000D03*
X588000Y593000D03*
X597370Y412460D03*
Y422460D03*
X607370Y412460D03*
Y422460D03*
X611370Y531460D03*
X601370D03*
X591370D03*
X611370Y541460D03*
X601370D03*
X591370D03*
X617370Y412460D03*
X621370Y531460D03*
Y541460D03*
X618000Y583000D03*
X779750Y280250D03*
X789750D03*
X779750Y290250D03*
X789750D03*
X785000Y1270000D03*
X775000D03*
X799750Y280250D03*
X809750D03*
X819750D03*
X799750Y290250D03*
X809750D03*
X819750D03*
X815000Y1270000D03*
X805000D03*
X795000D03*
X829750Y280250D03*
X839750D03*
X829750Y290250D03*
X839750D03*
X845000Y1270000D03*
X835000D03*
X825000D03*
X849750Y280250D03*
X859750D03*
X869750D03*
X849750Y290250D03*
X859750D03*
X869750D03*
X865000Y1270000D03*
X855000D03*
X879750Y280250D03*
X889750D03*
X879750Y290250D03*
X889750D03*
X895000Y1270000D03*
X885000D03*
X875000D03*
X899750Y280250D03*
X909750D03*
X919750D03*
X899750Y290250D03*
X909750D03*
X919750D03*
X915000Y1270000D03*
X905000D03*
X929750Y280250D03*
X925000Y1270000D03*
X980750Y564750D03*
X990750D03*
X980750Y574750D03*
X990750D03*
X1000750Y564750D03*
X1010750D03*
X1020750D03*
X1000750Y574750D03*
X1010750D03*
X1020750D03*
X1020000Y860000D03*
X1030750Y564750D03*
X1040750D03*
X1030750Y574750D03*
X1040750D03*
X1040000Y860000D03*
Y850000D03*
X1030000Y860000D03*
Y850000D03*
X1065000Y415000D03*
Y425000D03*
Y535000D03*
Y525000D03*
X1050750Y564750D03*
X1070000Y860000D03*
Y850000D03*
X1060000Y860000D03*
Y850000D03*
X1050000Y860000D03*
Y850000D03*
X1075000Y415000D03*
X1085000D03*
X1095000D03*
X1075000Y425000D03*
X1085000D03*
X1095000D03*
Y535000D03*
X1085000D03*
X1075000D03*
X1095000Y525000D03*
X1085000D03*
X1075000D03*
X1105000Y415000D03*
Y425000D03*
Y535000D03*
Y525000D03*
X1181000Y400000D03*
X1195000Y472500D03*
X1215000Y433500D03*
X1227500Y612500D03*
Y622500D03*
X1217500D03*
X1220000Y1462500D03*
X1237500Y612500D03*
Y622500D03*
X1236000Y1462500D03*
X1244000D03*
X1252000D03*
X1307500D03*
X1323500D03*
X1331500D03*
X1339500D03*
X1392000Y1463000D03*
X1408000D03*
X1416000D03*
X1424000D03*
X1470000D03*
X1486000D03*
X1494000D03*
X1502000D03*
G54D28*
X335090Y532000D03*
X346910D03*
X458410Y534000D03*
X446590D03*
G54D38*
X732660Y396700D03*
X730100D03*
X727540D03*
X724980D03*
X722420D03*
X719860D03*
X717300D03*
Y419300D03*
X719860D03*
X722420D03*
X724980D03*
X727540D03*
X730100D03*
X732660D03*
X781160Y395200D03*
X778600D03*
X776040D03*
X773480D03*
X770920D03*
X768360D03*
X765800D03*
Y417800D03*
X768360D03*
X770920D03*
X773480D03*
X776040D03*
X778600D03*
X781160D03*
X807660Y818700D03*
X805100D03*
X802540D03*
X799980D03*
X797420D03*
X794860D03*
X792300D03*
Y841300D03*
X794860D03*
X797420D03*
X799980D03*
X802540D03*
X805100D03*
X807660D03*
X840020Y538700D03*
X837460D03*
X834900D03*
X832340D03*
Y561300D03*
X834900D03*
X837460D03*
X840020D03*
X841400Y861200D03*
X838840D03*
X836280D03*
X833720D03*
X831160D03*
X828600D03*
X826040D03*
Y883800D03*
X828600D03*
X831160D03*
X833720D03*
X836280D03*
X838840D03*
X841400D03*
X847700Y538700D03*
X845140D03*
X842580D03*
Y561300D03*
X845140D03*
X847700D03*
X843960Y861200D03*
X866340Y857700D03*
X843960Y883800D03*
X866340Y880300D03*
X892700Y538700D03*
X890140D03*
X887580D03*
X885020D03*
X882460D03*
X879900D03*
X877340D03*
Y561300D03*
X879900D03*
X882460D03*
X885020D03*
X887580D03*
X890140D03*
X892700D03*
X881700Y857700D03*
X879140D03*
X876580D03*
X874020D03*
X871460D03*
X868900D03*
Y880300D03*
X871460D03*
X874020D03*
X876580D03*
X879140D03*
X881700D03*
G54D29*
X386650Y561650D03*
X379650Y546650D03*
X372650Y561650D03*
X365650Y546650D03*
X393650D03*
G54D39*
X734370Y642830D03*
Y645980D03*
Y649130D03*
Y652280D03*
Y655430D03*
Y658580D03*
Y661730D03*
Y664880D03*
Y668030D03*
Y671180D03*
Y674330D03*
Y677480D03*
Y680630D03*
Y683780D03*
Y686930D03*
Y690080D03*
Y693230D03*
Y696380D03*
Y699530D03*
Y702680D03*
Y705830D03*
Y708980D03*
Y712130D03*
Y715280D03*
Y718430D03*
Y721570D03*
Y724720D03*
Y727870D03*
Y731020D03*
Y734170D03*
Y737320D03*
Y740470D03*
Y743620D03*
Y746770D03*
Y749920D03*
Y753070D03*
Y756220D03*
Y759370D03*
Y762520D03*
Y765670D03*
Y768820D03*
Y771970D03*
Y775120D03*
Y778270D03*
Y781420D03*
Y784570D03*
Y787720D03*
Y790870D03*
Y794020D03*
Y797170D03*
X755630Y661730D03*
Y658580D03*
Y655430D03*
Y652280D03*
Y649130D03*
Y645980D03*
Y642830D03*
Y690080D03*
Y686930D03*
Y683780D03*
Y680630D03*
Y677480D03*
Y674330D03*
Y671180D03*
Y668030D03*
Y664880D03*
Y715280D03*
Y712130D03*
Y708980D03*
Y705830D03*
Y702680D03*
Y699530D03*
Y696380D03*
Y693230D03*
Y740470D03*
Y737320D03*
Y734170D03*
Y731020D03*
Y727870D03*
Y724720D03*
Y721570D03*
Y718430D03*
Y765670D03*
Y762520D03*
Y759370D03*
Y756220D03*
Y753070D03*
Y749920D03*
Y746770D03*
Y743620D03*
Y790870D03*
Y787720D03*
Y784570D03*
Y781420D03*
Y778270D03*
Y775120D03*
Y771970D03*
Y768820D03*
Y797170D03*
Y794020D03*
X909370Y642830D03*
Y645980D03*
Y649130D03*
Y652280D03*
Y655430D03*
Y658580D03*
Y661730D03*
Y664880D03*
Y668030D03*
Y671180D03*
Y674330D03*
Y677480D03*
Y680630D03*
Y683780D03*
Y686930D03*
Y690080D03*
Y693230D03*
Y696380D03*
Y699530D03*
Y702680D03*
Y705830D03*
Y708980D03*
Y712130D03*
Y715280D03*
Y718430D03*
Y721570D03*
Y724720D03*
Y727870D03*
Y731020D03*
Y734170D03*
Y737320D03*
Y740470D03*
Y743620D03*
Y746770D03*
Y749920D03*
Y753070D03*
Y756220D03*
Y759370D03*
Y762520D03*
Y765670D03*
Y768820D03*
Y771970D03*
Y775120D03*
Y778270D03*
Y781420D03*
Y784570D03*
Y787720D03*
Y790870D03*
Y794020D03*
Y797170D03*
X930630Y661730D03*
Y658580D03*
Y655430D03*
Y652280D03*
Y649130D03*
Y645980D03*
Y642830D03*
Y690080D03*
Y686930D03*
Y683780D03*
Y680630D03*
Y677480D03*
Y674330D03*
Y671180D03*
Y668030D03*
Y664880D03*
Y715280D03*
Y712130D03*
Y708980D03*
Y705830D03*
Y702680D03*
Y699530D03*
Y696380D03*
Y693230D03*
Y740470D03*
Y737320D03*
Y734170D03*
Y731020D03*
Y727870D03*
Y724720D03*
Y721570D03*
Y718430D03*
Y765670D03*
Y762520D03*
Y759370D03*
Y756220D03*
Y753070D03*
Y749920D03*
Y746770D03*
Y743620D03*
Y790870D03*
Y787720D03*
Y784570D03*
Y781420D03*
Y778270D03*
Y775120D03*
Y771970D03*
Y768820D03*
Y797170D03*
Y794020D03*
M02*
