G04 ================== begin FILE IDENTIFICATION RECORD ==================*
G04 Layout Name:  TubiiPCB_V6.brd*
G04 Film Name:    marzece_TUBII_6_5_BOTTOM_Production*
G04 File Format:  Gerber RS274X*
G04 File Origin:  Cadence Allegro 16.6-P004*
G04 Origin Date:  Fri Jun 05 10:55:48 2015*
G04 *
G04 Layer:  ETCH/BOTTOM*
G04 Layer:  PIN/BOTTOM*
G04 Layer:  VIA CLASS/BOTTOM*
G04 *
G04 Offset:    (0.0 0.0)*
G04 Mirror:    No*
G04 Mode:      Positive*
G04 Rotation:  0*
G04 FullContactRelief:  No*
G04 UndefLineWidth:     1.0*
G04 ================== end FILE IDENTIFICATION RECORD ====================*
%FSLAX55Y55*MOIN*%
%IR0*IPPOS*OFA0.00000B0.00000*MIA0B0*SFA1.00000B1.00000*%
%ADD19C,.16*%
%ADD22C,.119*%
%ADD24C,.185*%
%ADD26C,.04*%
%ADD13R,.05X.054*%
%ADD10C,.05*%
%ADD20R,.035X.025*%
%ADD16C,.06*%
%ADD15R,.054X.05*%
%ADD12C,.024*%
%ADD14R,.025X.035*%
%ADD25C,.035*%
%ADD18C,.08*%
%ADD23C,.09*%
%ADD27C,.055*%
%ADD21C,.065*%
%ADD11R,.06X.06*%
%ADD17C,.0394*%
%ADD28R,.055X.055*%
%ADD29C,.007*%
%ADD30C,.015*%
G75*
%LPD*%
G75*
G54D10*
X105000Y305000D03*
Y781500D03*
Y1135000D03*
Y1555000D03*
X500000Y870000D03*
Y1103000D03*
X565000Y305000D03*
Y1555000D03*
X1125000Y305000D03*
Y1555000D03*
X1245000Y870000D03*
Y1016500D03*
X1575000Y305000D03*
Y715000D03*
Y1135000D03*
Y1555000D03*
G54D11*
X100000Y386000D03*
Y376000D03*
X98000Y628000D03*
Y618000D03*
X98500Y838000D03*
Y828000D03*
X97700Y1024300D03*
X99000Y1099000D03*
Y1109000D03*
X96000Y1424000D03*
Y1434000D03*
X127400Y925000D03*
Y935000D03*
X127700Y963100D03*
Y953200D03*
Y999400D03*
Y1009500D03*
X173000Y286000D03*
X163000D03*
X178100Y785200D03*
X175800Y1102300D03*
X189300Y785200D03*
X192500Y827500D03*
X199900Y847500D03*
X194950Y1102550D03*
X201000Y1573000D03*
X191000D03*
X201000Y1563000D03*
X191000D03*
X223000Y787700D03*
X220000Y870000D03*
X229950Y1100050D03*
X211000Y1573000D03*
X245550Y532550D03*
X256000Y533000D03*
X254000Y563000D03*
X234200Y787700D03*
X249950Y922550D03*
X266050Y532550D03*
X263000Y563500D03*
X271250Y668750D03*
X260000Y827500D03*
X269800Y1309800D03*
X299800Y1027800D03*
Y1039000D03*
X294950Y1102550D03*
X317450Y992550D03*
X333000Y1559000D03*
X323000D03*
Y1538000D03*
X333000D03*
X323000Y1548000D03*
X333000D03*
X313000Y1569500D03*
X323000D03*
X333000D03*
X348560Y485050D03*
X366000Y485500D03*
Y774000D03*
X388940Y485050D03*
X411000Y485500D03*
X400000Y511000D03*
X390000Y525000D03*
X431060Y485050D03*
X412300Y886600D03*
Y987900D03*
X446250Y664750D03*
X477500Y1564900D03*
X477600Y1575000D03*
X465000Y1565000D03*
Y1575000D03*
X490100Y1564900D03*
Y1574900D03*
X538000Y278000D03*
X528000D03*
X532000Y706000D03*
X561370Y531460D03*
X545500Y707000D03*
X610000Y1558000D03*
Y1548000D03*
Y1538000D03*
X600000Y1568000D03*
X610000D03*
X617370Y422460D03*
X628650Y616710D03*
X620000Y1558000D03*
Y1548000D03*
Y1538000D03*
X637000Y1572000D03*
X620000Y1568000D03*
X642000Y882000D03*
Y872000D03*
Y892000D03*
X652000Y882500D03*
Y892000D03*
X662000D03*
X657000Y1572000D03*
X647000D03*
X683000Y1563000D03*
X673000D03*
X683000Y1573000D03*
X673000D03*
X717000Y1553000D03*
X707000D03*
X717000Y1563000D03*
X707000D03*
X717000Y1573000D03*
X707000D03*
X734000Y281000D03*
X738000Y1562000D03*
Y1572000D03*
X744000Y281000D03*
X758000Y1562000D03*
X748000D03*
Y1572000D03*
X790000Y1047500D03*
Y1062500D03*
X782500Y1170000D03*
X783000Y1572000D03*
X773000D03*
X783000Y1562000D03*
X773000D03*
X820000Y1170000D03*
X807500D03*
X795000D03*
X819000Y1572000D03*
Y1562000D03*
X845000Y1170000D03*
X832500D03*
X829000Y1572000D03*
Y1562000D03*
X870000Y1170000D03*
X857500D03*
X929750Y290250D03*
X966000Y814000D03*
Y804000D03*
Y824000D03*
X968000Y926000D03*
X976000Y794000D03*
X986000D03*
X976000Y814000D03*
Y804000D03*
X986000D03*
X976000Y824000D03*
X1020000Y850000D03*
X1071000Y277000D03*
X1050750Y574750D03*
X1052000Y1563000D03*
X1062000D03*
X1052000Y1573000D03*
X1062000D03*
X1081000Y277000D03*
X1195000Y433500D03*
X1198000Y1555000D03*
X1188000D03*
X1198000Y1565000D03*
X1188000D03*
X1220000Y400000D03*
X1215000Y472500D03*
X1217500Y612500D03*
X1225000Y1541000D03*
Y1551000D03*
Y1561000D03*
X1235000Y1541000D03*
Y1551000D03*
Y1561000D03*
X1260000Y1462500D03*
X1265000Y1555000D03*
X1255000D03*
X1265000Y1565000D03*
X1255000D03*
X1292160Y568930D03*
X1292800Y787690D03*
Y797690D03*
X1285000Y1533000D03*
X1295000D03*
Y1553000D03*
X1285000D03*
Y1543000D03*
X1295000D03*
X1285000Y1563000D03*
X1295000D03*
X1305300Y787690D03*
X1317800D03*
X1305300Y797690D03*
X1317800D03*
X1330300Y787690D03*
X1342800D03*
X1355300D03*
X1330300Y797690D03*
X1342800D03*
X1355300D03*
X1347500Y1462500D03*
X1373000Y1548000D03*
Y1558000D03*
Y1538000D03*
Y1568000D03*
X1402000Y1557000D03*
Y1547000D03*
X1383000Y1548000D03*
Y1558000D03*
Y1538000D03*
X1402000Y1567000D03*
X1383000Y1568000D03*
X1412000Y1557000D03*
Y1547000D03*
Y1567000D03*
X1432000Y1463000D03*
X1452000Y1517000D03*
X1453000Y1528000D03*
Y1558000D03*
Y1538000D03*
Y1548000D03*
Y1568000D03*
X1462000Y1517000D03*
X1463000Y1528000D03*
Y1558000D03*
Y1538000D03*
Y1548000D03*
Y1568000D03*
X1494000Y274000D03*
X1484000D03*
X1495000Y1568000D03*
X1505000D03*
X1510000Y1463000D03*
X1522000Y1558000D03*
X1532000D03*
Y1548000D03*
X1522000D03*
Y1568000D03*
X1532000D03*
X1581000Y386000D03*
Y396000D03*
Y588000D03*
Y578000D03*
X1582000Y958000D03*
Y948000D03*
X1583000Y1196000D03*
Y1186000D03*
X1578000Y1507000D03*
Y1517000D03*
G54D20*
X215000Y1297400D03*
X230000D03*
X215000Y1302600D03*
X230000D03*
X222500Y1375200D03*
Y1370000D03*
X307500Y822300D03*
Y827500D03*
X370000Y1417400D03*
Y1422600D03*
X360000D03*
Y1417400D03*
X587500Y869800D03*
Y875000D03*
X597500Y875200D03*
Y870000D03*
Y942400D03*
Y947600D03*
X657500Y950100D03*
Y944900D03*
X647500Y1309900D03*
Y1315100D03*
X667500Y944900D03*
Y950100D03*
X763500Y1552700D03*
Y1547500D03*
X784000Y661700D03*
Y656500D03*
X773000Y713300D03*
X788000D03*
X773000Y718500D03*
X788000D03*
X793900Y661700D03*
Y656500D03*
X806000Y661700D03*
Y656500D03*
X804000Y713300D03*
Y718500D03*
X795000Y1322400D03*
X805000D03*
X795000Y1327600D03*
X805000D03*
X838500Y389200D03*
Y384000D03*
X826000Y391700D03*
Y386500D03*
X818000Y713300D03*
X834000D03*
X818000Y718500D03*
X834000D03*
X941000Y391500D03*
Y386300D03*
X923500D03*
Y391500D03*
X1140000Y730100D03*
Y724900D03*
X1150000D03*
Y730100D03*
X1273220Y506480D03*
Y501280D03*
X1317800Y875190D03*
Y869990D03*
X1328220Y498780D03*
Y503980D03*
X1338220D03*
Y498780D03*
X1330300Y680390D03*
Y675190D03*
X1327800Y869990D03*
Y875190D03*
X1402700Y602590D03*
Y607790D03*
X1395300Y810390D03*
Y805190D03*
X1412800Y607890D03*
Y602690D03*
X1405300Y805190D03*
Y810390D03*
X1490300Y685390D03*
Y680190D03*
G54D30*
G01X379500Y509000D02*
Y532800D01*
X365650Y546650D01*
G01X1225000Y1561000D02*
X1212500D01*
X1210000Y1558500D01*
Y1505000D01*
X1147500Y1442500D01*
Y1301500D01*
X1143500Y1297500D01*
X1110000D01*
X1102500Y1290000D01*
G01X1225000Y1551000D02*
X1217500D01*
X1215000Y1548500D01*
Y1487500D01*
X1170000Y1442500D01*
Y1307500D01*
X1152500Y1290000D01*
X1142500D01*
G01X1140000Y1451000D02*
X1175000Y1486000D01*
Y1560000D01*
X1180000Y1565000D01*
X1188000D01*
G01X1225000Y1541000D02*
Y1525000D01*
X1220000Y1520000D01*
Y1475000D01*
X1187500Y1442500D01*
Y1219000D01*
X1182500Y1214000D01*
G01X1227500Y1520000D02*
Y1460000D01*
X1195000Y1427500D01*
Y1425000D01*
G01X1295000Y1533000D02*
Y1527500D01*
X1280000Y1512500D01*
Y1417500D01*
X1275000Y1412500D01*
Y1322500D01*
X1265000Y1312500D01*
X1260000D01*
X1250000Y1302500D01*
Y1296000D01*
G01X1295000Y1543000D02*
X1300500D01*
X1307500Y1536000D01*
Y1530000D01*
X1295000Y1517500D01*
Y1307500D01*
X1280000Y1292500D01*
X1270000D01*
G01X1285000Y1553000D02*
X1278000D01*
X1272500Y1547500D01*
Y1442500D01*
X1267500Y1437500D01*
G01X1265000Y1555000D02*
Y1467500D01*
X1260000Y1462500D01*
G01X1255000Y1555000D02*
Y1465500D01*
X1252000Y1462500D01*
G01X1295000Y1563000D02*
X1309500D01*
X1315000Y1557500D01*
Y1371500D01*
X1305000Y1361500D01*
G01X1373000Y1548000D02*
X1363000D01*
X1357500Y1542500D01*
Y1462500D01*
X1320000Y1425000D01*
Y1217500D01*
X1316500Y1214000D01*
X1310000D01*
G01X1373000Y1538000D02*
Y1462000D01*
X1400000Y1435000D01*
Y1419380D01*
X1405000Y1414380D01*
Y1322500D01*
X1376500Y1294000D01*
X1350000D01*
G01X1373000Y1558000D02*
X1358000D01*
X1347500Y1547500D01*
Y1462500D01*
G01X1373000Y1568000D02*
X1348000D01*
X1339500Y1559500D01*
Y1462500D01*
G01X1412000Y1567000D02*
X1425500D01*
X1427500Y1565000D01*
Y1537500D01*
X1402500Y1512500D01*
Y1460000D01*
X1409500Y1453000D01*
X1420000D01*
X1425000Y1448000D01*
Y1305000D01*
X1410000Y1290000D01*
X1402500D01*
G01X1402000Y1557000D02*
X1397740D01*
X1392500Y1551760D01*
Y1527500D01*
X1385000Y1520000D01*
Y1457500D01*
X1395000Y1447500D01*
G01X1402000Y1547000D02*
X1398100Y1543100D01*
Y1459400D01*
X1412500Y1445000D01*
Y1417500D01*
X1420000Y1410000D01*
Y1369000D01*
X1412500Y1361500D01*
G01X1453000Y1548000D02*
X1443000D01*
X1437500Y1542500D01*
Y1537500D01*
X1424000Y1524000D01*
Y1463000D01*
G01X1453000Y1528000D02*
X1445500D01*
X1437500Y1520000D01*
Y1427500D01*
X1445000Y1420000D01*
Y1317500D01*
X1475000Y1287500D01*
G01X1453000Y1538000D02*
X1448740D01*
X1432000Y1521260D01*
Y1463000D01*
G01X1463000Y1558000D02*
X1474500D01*
X1502000Y1530500D01*
Y1463000D01*
G01X1463000Y1568000D02*
X1477000D01*
X1510000Y1535000D01*
Y1463000D01*
G01X1522000Y1548000D02*
Y1538000D01*
X1532500Y1527500D01*
Y1298450D01*
X1529210Y1295160D01*
G54D21*
X240000Y355000D03*
Y395000D03*
X297500Y355000D03*
Y395000D03*
X335000Y355000D03*
Y395000D03*
X395000Y355000D03*
Y395000D03*
X429000Y508000D03*
X450000Y355000D03*
Y395000D03*
X469000Y508000D03*
G54D12*
X95000Y1055000D03*
X101000Y1197000D03*
X100500Y1229500D03*
X110000Y1060000D03*
X115000Y1050000D03*
X118000Y1199000D03*
X104500Y1204500D03*
X105000Y1287500D03*
X120000Y1290000D03*
X125000Y1300000D03*
X115000D03*
X127500Y1310000D03*
X115000Y1365000D03*
Y1375000D03*
X150200Y818200D03*
X141500Y846000D03*
X152500Y877500D03*
Y1037500D03*
X130000Y1022500D03*
Y1055000D03*
X145000D03*
Y1082500D03*
X153500Y1214500D03*
X142400Y1257600D03*
X147600Y1267600D03*
X152500Y1262500D03*
X145000Y1300000D03*
X140000Y1305000D03*
X147500Y1310000D03*
X152500Y1365000D03*
X132500D03*
Y1375000D03*
X170000Y455000D03*
X180000Y597500D03*
X156940Y796060D03*
X172500Y912500D03*
Y919640D03*
X160000Y942500D03*
X170000Y997500D03*
X165000Y1067500D03*
X170000Y1157500D03*
X155500Y1234500D03*
X167100Y1233100D03*
X157000Y1226000D03*
X161900Y1239900D03*
X157500Y1275000D03*
X172500Y1297500D03*
X165000D03*
X166000Y1284000D03*
X172500Y1310000D03*
X167500Y1365000D03*
X180100Y1455100D03*
Y1449900D03*
X167500Y1455000D03*
X177500Y1437500D03*
X188940Y522560D03*
X200000Y587500D03*
X201560Y784560D03*
X191060Y869940D03*
X187000Y893000D03*
X190000Y915000D03*
Y897500D03*
X205000Y912500D03*
X200000Y930000D03*
Y947500D03*
X190000Y967500D03*
X205000Y950000D03*
X185000D03*
X190000Y982500D03*
X200000Y1017500D03*
Y1002500D03*
X202500Y997500D03*
X205000Y1020000D03*
X190000Y1037500D03*
Y1052500D03*
X200000Y1072500D03*
X185000Y1052500D03*
X200000Y1090000D03*
X205000Y1107500D03*
X187500Y1217500D03*
X190500Y1204500D03*
X206000Y1256000D03*
X185000Y1362500D03*
Y1407500D03*
X205000Y1440000D03*
X187500Y1445000D03*
X192500Y1450000D03*
X222500Y823120D03*
X225000Y882500D03*
X220000Y917500D03*
X227500Y940000D03*
X220000Y965000D03*
X230000Y952500D03*
X210000Y957500D03*
X222500Y987500D03*
X230000Y1020000D03*
X225000Y997500D03*
X215000Y1025000D03*
X225000Y1067500D03*
X208000Y1232000D03*
X227500Y1290000D03*
Y1277500D03*
X217500Y1290000D03*
Y1277500D03*
X227500Y1322500D03*
Y1310000D03*
X215000Y1375000D03*
X227500Y1392500D03*
X217500Y1395000D03*
X207500Y1425000D03*
X222500Y1408000D03*
X230000Y1442500D03*
X210000Y1435000D03*
Y1445000D03*
X227500Y1435000D03*
X253560Y473560D03*
X250000Y723000D03*
X242500Y855000D03*
X237000Y879000D03*
X255000Y907500D03*
X240000Y922500D03*
X247500Y975000D03*
Y983250D03*
X252500Y1002500D03*
X241440Y998940D03*
X247500Y1077500D03*
X245000Y1117500D03*
X244000Y1215000D03*
X253000Y1233000D03*
X247000Y1245000D03*
X242000Y1229000D03*
X232500Y1370000D03*
X255000Y1435000D03*
X270000Y723000D03*
X268000Y760000D03*
X257500Y787500D03*
X276060Y771060D03*
X270000Y805000D03*
X275000Y860000D03*
X282500Y855000D03*
X270000Y892500D03*
X277500Y907500D03*
X278560Y933560D03*
X262500Y947500D03*
X272500Y952500D03*
X277500Y992500D03*
X262500Y980000D03*
X277500Y1010000D03*
X265000Y1017500D03*
X262500Y1010000D03*
Y1032500D03*
X257500Y1035000D03*
X267500Y1070000D03*
X272500D03*
X270000Y1055000D03*
X272500Y1117500D03*
X257500D03*
X270000Y1347500D03*
X260000Y1370000D03*
X270000Y1397500D03*
X307500Y737500D03*
X283940Y724060D03*
Y771060D03*
X287500Y805000D03*
X302500Y827500D03*
X305000Y847500D03*
X295000Y855000D03*
X300000Y870000D03*
X285000Y892500D03*
X305000Y907500D03*
Y897500D03*
X290000D03*
X285000Y930000D03*
X307500Y975000D03*
X287500D03*
X292500Y1122500D03*
X300000Y1115000D03*
X285000Y1425000D03*
X321000Y532000D03*
X315000Y737000D03*
X312500Y757500D03*
X325000Y760000D03*
X327500Y797500D03*
X318000Y807000D03*
X322500Y822500D03*
X332500D03*
X317500Y840000D03*
X315000Y855000D03*
X320950Y877500D03*
X317410D03*
X325000Y905000D03*
X327500Y937500D03*
X317500D03*
X322500Y982500D03*
X317500Y980000D03*
X327500Y1040000D03*
X317500Y1025000D03*
X310000Y1073000D03*
X332500Y1080000D03*
X327500Y1105000D03*
X320000Y1187500D03*
X312500Y1330000D03*
X330000Y1445000D03*
X340000Y422500D03*
Y442500D03*
Y462500D03*
X336000Y755000D03*
X355000Y792500D03*
X337500Y837500D03*
X335000Y850000D03*
X346770Y864400D03*
X343230D03*
X342990Y887990D03*
X357500Y880000D03*
X350000Y905000D03*
X342500Y925000D03*
X337500Y927500D03*
X357500Y967500D03*
X337500D03*
Y982500D03*
X357500D03*
Y972500D03*
X354750Y1032250D03*
X342400Y1094900D03*
X347500Y1075000D03*
X347600Y1094900D03*
X335000Y1112500D03*
X352500Y1295000D03*
X335000Y1307500D03*
X352500D03*
X334000Y1345000D03*
X350000Y1340000D03*
X334000Y1360000D03*
X355000Y1387500D03*
X340000Y1425000D03*
X337500Y1460000D03*
X381000Y417500D03*
X374000Y462500D03*
X363000D03*
X360000Y532000D03*
X376000Y815000D03*
X377500Y795000D03*
X365000Y821000D03*
X382500Y850000D03*
Y892500D03*
X374500Y873000D03*
X362500Y895000D03*
X377500Y930000D03*
X360000Y937500D03*
X373940Y947500D03*
X372500Y982500D03*
Y972500D03*
X380000Y1032500D03*
X382500Y1212500D03*
Y1240000D03*
Y1287500D03*
X377500Y1350000D03*
X362500D03*
X365000Y1340000D03*
X375000Y1330000D03*
X360000Y1375000D03*
X380000Y1355000D03*
Y1372500D03*
X375000Y1377500D03*
X360000Y1412500D03*
X370000D03*
X375000Y1426000D03*
X360000Y1447500D03*
Y1430000D03*
X370000D03*
Y1447500D03*
X381000Y1436000D03*
X396000Y425000D03*
X395000Y442500D03*
Y462500D03*
X404000Y774000D03*
X393000Y817000D03*
X395000Y862500D03*
X385000Y905000D03*
X395000Y920000D03*
X393000Y968000D03*
X402500Y960000D03*
X385000Y995000D03*
X387500Y1072500D03*
X407500Y1290000D03*
X405000Y1314000D03*
X389500Y1323000D03*
X396000Y1340000D03*
X395000Y1335000D03*
Y1330000D03*
X405000Y1362500D03*
Y1392500D03*
X387500Y1382500D03*
X397500Y1450000D03*
X387500Y1460000D03*
X431060Y419060D03*
X411500Y523500D03*
X412000Y760000D03*
X417500Y905000D03*
X427500Y1162500D03*
X412500Y1292500D03*
Y1345000D03*
X415000Y1362500D03*
X427500Y1397500D03*
X432500Y1417500D03*
X430000Y1575000D03*
Y1560000D03*
X438940Y419060D03*
Y469940D03*
X460000Y770000D03*
X450000Y815000D03*
X440000Y910000D03*
X450000Y915000D03*
X442500Y1362500D03*
Y1403000D03*
X457500Y1405000D03*
X470000Y534000D03*
X477500Y815000D03*
X484000D03*
X510060Y489940D03*
X511000Y502000D03*
X510250Y1137750D03*
X515000Y450000D03*
X536540Y442460D03*
X531000Y480000D03*
X535000Y605000D03*
Y725000D03*
X525000Y737500D03*
X530000Y732500D03*
X517500Y742500D03*
X525000Y810000D03*
X520000D03*
X530000D03*
X530500Y1066500D03*
X527500Y1092500D03*
Y1097500D03*
X522940Y1154060D03*
X517060Y1175060D03*
X551310Y436310D03*
X544620Y467460D03*
X562630D03*
X547500Y477500D03*
X548920Y462460D03*
X547330Y510000D03*
X538090Y508000D03*
X556000Y682000D03*
X552000Y741000D03*
X537500Y810000D03*
X555000Y850000D03*
X541000Y846000D03*
X537500Y922500D03*
X543000Y1074000D03*
X557000Y1075000D03*
X553500Y1117500D03*
X547500Y1150000D03*
X542500Y1202500D03*
X543000Y1229000D03*
X550250Y1382750D03*
X542500Y1385000D03*
X560000Y1389000D03*
X542500Y1405000D03*
X541000Y1443000D03*
X562500Y1445000D03*
X582500Y450000D03*
X587040Y443960D03*
X567500Y437500D03*
X569060Y485000D03*
X580000Y466000D03*
X567370Y477460D03*
X587500Y495000D03*
X585790Y568210D03*
X586000Y670000D03*
X579000Y674200D03*
X582500Y690000D03*
X565000Y711000D03*
Y737500D03*
X582500D03*
X570000Y782000D03*
X575500Y856500D03*
X587500Y862500D03*
Y847500D03*
X567500Y867500D03*
X582500Y845000D03*
X572500Y902500D03*
X587500Y950000D03*
X585000Y970000D03*
X587060Y1118060D03*
X582500Y1150000D03*
X587500Y1352500D03*
X580000Y1395000D03*
X565000Y1389000D03*
X585000Y1412500D03*
X572500Y1445000D03*
Y1465000D03*
X600810Y449810D03*
X607370Y451060D03*
X599000Y481000D03*
X597510Y466570D03*
X595000Y476000D03*
X601310Y508690D03*
X590000Y510000D03*
X605000Y740000D03*
X590000Y737500D03*
X597500D03*
X612300Y796000D03*
X602500Y842500D03*
X610000D03*
X597500Y862500D03*
Y847500D03*
Y882500D03*
Y897500D03*
X604900Y942400D03*
X595000Y955000D03*
X597500Y992500D03*
X607500Y1145000D03*
X594800Y1144800D03*
X595000Y1150000D03*
X603000Y1170000D03*
X602500Y1182500D03*
X602000Y1205000D03*
X612500Y1285000D03*
Y1352500D03*
X630000Y433000D03*
X627000Y460000D03*
X635000Y445000D03*
X630000Y482500D03*
X638000Y509000D03*
X627500Y500000D03*
X633790Y568210D03*
X628000Y802700D03*
X632200Y877500D03*
X622500Y897500D03*
X617500Y920000D03*
X637500Y937500D03*
Y932500D03*
X617500Y1310000D03*
X633000Y1352000D03*
X615000Y1402500D03*
X656570Y443000D03*
X650310Y496310D03*
X657980Y724020D03*
X657500Y937500D03*
Y925000D03*
X645000Y920000D03*
X640000Y1000000D03*
X655000D03*
X642500Y1145000D03*
X655000D03*
X654800Y1139800D03*
X655000Y1245000D03*
Y1252500D03*
Y1297500D03*
X640000D03*
Y1322500D03*
X660000Y1327500D03*
X645000D03*
X640000Y1307500D03*
X647500Y1320000D03*
X645000Y1352500D03*
X640000Y1350000D03*
X657500Y1370000D03*
X650000Y1402500D03*
X645000Y1382500D03*
X661060Y1421060D03*
X655000Y1442500D03*
X682000Y480000D03*
X683000Y701000D03*
X666000Y692000D03*
X684000Y730000D03*
X668000Y719000D03*
X669000Y727000D03*
X679000Y737000D03*
X665000Y747500D03*
X690000Y747000D03*
X671000Y758000D03*
X690000Y765000D03*
X677000Y859000D03*
X682000Y873000D03*
X681100Y879100D03*
X671000Y874000D03*
X675000Y910000D03*
X682500Y915000D03*
X667500Y937500D03*
Y925000D03*
Y955000D03*
Y972500D03*
X678000Y1168000D03*
X680000Y1180000D03*
X678000Y1193000D03*
Y1205000D03*
X680050Y1235050D03*
X665000Y1312500D03*
X670000Y1327500D03*
X685000Y1302500D03*
X682500Y1322500D03*
X672500Y1317500D03*
Y1307500D03*
X685000Y1367500D03*
X670000Y1365000D03*
X665000Y1367500D03*
Y1402500D03*
Y1382500D03*
X672500Y1420000D03*
Y1435000D03*
X707300Y409300D03*
X701300Y419300D03*
X697000Y710000D03*
X691000D03*
X714000Y766000D03*
Y756000D03*
X713000Y747000D03*
X715000Y776000D03*
X693000Y790000D03*
Y778000D03*
X710000Y784570D03*
X694000Y801000D03*
X705000Y892500D03*
X707500Y937500D03*
X695000Y1272500D03*
Y1300000D03*
X733000Y387000D03*
X720000Y649000D03*
Y687000D03*
Y665000D03*
X722520Y677480D03*
X716330Y674330D03*
X722000Y696000D03*
X725020Y708980D03*
X719000Y707000D03*
X722000Y737000D03*
X718000Y728000D03*
X717000Y718000D03*
X723580Y781420D03*
X720660Y881660D03*
X732500Y1022500D03*
X737500Y1332500D03*
X754900Y408100D03*
X749200Y417800D03*
X745000Y690000D03*
X747500Y670000D03*
Y680000D03*
Y685000D03*
Y665000D03*
X747670Y674330D03*
X766000Y674000D03*
X742000Y683000D03*
X741670Y674330D03*
X748170Y705830D03*
X743980Y708980D03*
X745000Y695000D03*
Y702500D03*
X746000Y718000D03*
X745000Y763000D03*
X748000Y776000D03*
X745000Y770000D03*
X760000Y1405000D03*
X757500Y1547500D03*
X785000Y388000D03*
X768000Y644000D03*
X778000Y652000D03*
X772000Y665000D03*
X769000Y687000D03*
X775000Y676000D03*
X768000Y696000D03*
X773000Y706000D03*
X767570Y707850D03*
X782000Y708000D03*
X769000Y737000D03*
Y728000D03*
X768000Y766000D03*
X769000Y756000D03*
Y747000D03*
X782500Y762500D03*
X768000Y777000D03*
X787500Y770000D03*
X775000Y780000D03*
X782000Y851000D03*
X792300Y853700D03*
X790000Y1160000D03*
X782500Y1310000D03*
X787890Y1402500D03*
X770000Y1390000D03*
X806000Y407000D03*
X811000Y439000D03*
X802060Y449060D03*
X806000Y479000D03*
X812000Y509000D03*
X804000Y722500D03*
X811000Y816870D03*
X799980Y809020D03*
X814500Y822500D03*
X799980Y834020D03*
X797000Y850000D03*
X817000Y852000D03*
X794000Y864000D03*
X802500Y847500D03*
Y855000D03*
X815000Y893000D03*
X805000Y883000D03*
X799900Y1041100D03*
X807500Y1045000D03*
Y1105000D03*
X802000Y1133000D03*
X815000Y1130000D03*
X805000Y1152500D03*
X817500Y1160000D03*
X805000Y1300000D03*
X795000D03*
X805000Y1315000D03*
X795000D03*
X805000Y1350000D03*
Y1335000D03*
X792500Y1367500D03*
Y1395000D03*
X810000Y1402500D03*
X805000Y1395000D03*
X843000Y323000D03*
X833500Y384000D03*
X841000Y374000D03*
X826000Y376500D03*
X831610Y395630D03*
X833700Y389200D03*
X839560Y430000D03*
X818500Y471860D03*
X831000Y474000D03*
X839000Y515000D03*
X831000Y571000D03*
X820000Y656500D03*
X830000Y667000D03*
X818000Y722500D03*
X834000D03*
X820000Y806000D03*
X825000Y815000D03*
X835000Y842500D03*
X843000Y837000D03*
X837500Y847500D03*
X842500Y1127500D03*
X832500Y1155000D03*
X822500Y1150000D03*
X840000Y1400000D03*
X830100Y1394900D03*
X844940Y340060D03*
X848300Y389200D03*
X848500Y471500D03*
Y466500D03*
X866000D03*
X853000Y531000D03*
X865000Y676000D03*
X862000Y713000D03*
X850000Y765000D03*
X855080Y749920D03*
X846000Y853000D03*
X860000Y885000D03*
X865000Y892500D03*
X860000Y1045000D03*
Y1050000D03*
X855000Y1102500D03*
X852500Y1140000D03*
X857500Y1142500D03*
X860000Y1147500D03*
X855000Y1152500D03*
X847500Y1155000D03*
X883500Y389000D03*
X881000Y442000D03*
X871000Y469000D03*
X888000Y470000D03*
X873000Y509000D03*
X875000Y571000D03*
Y643000D03*
X888000Y684000D03*
X887500Y665000D03*
X891000Y706500D03*
X879800Y707300D03*
X893500Y728000D03*
Y737500D03*
X893000Y746500D03*
X892500Y756500D03*
X875000Y772500D03*
X893000Y768820D03*
X882000Y837000D03*
X880000Y830000D03*
X876000Y866000D03*
X870000Y871000D03*
X880000Y892500D03*
X870000Y900000D03*
X875000Y895000D03*
X892500Y1122500D03*
X883000Y1113000D03*
X887500Y1140000D03*
Y1145000D03*
X882500Y1132500D03*
X887500Y1150000D03*
Y1155000D03*
X869000D03*
X870000Y1160000D03*
X890200Y1288800D03*
X908500Y389000D03*
X896000D03*
X908560Y435000D03*
X908500Y463000D03*
X898000Y509000D03*
X905200Y535800D03*
X904000Y524000D03*
X897000Y577000D03*
X895000Y645000D03*
Y652500D03*
X919000Y669000D03*
X918000Y681000D03*
X896000Y671000D03*
X898480Y677480D03*
X895000Y696500D03*
X897420Y716380D03*
X895500Y765500D03*
X918920Y749920D03*
X897000Y778000D03*
Y882000D03*
X917500Y992500D03*
Y1122500D03*
X907500Y1160000D03*
X917500D03*
X905000Y1285000D03*
X934560Y326440D03*
X942440Y342440D03*
X941000Y381500D03*
X943500Y374000D03*
X936000Y391500D03*
X928500Y393890D03*
X936200Y386300D03*
X936380Y429000D03*
X931000Y474000D03*
X945000Y662500D03*
X922000Y664000D03*
X945000Y687500D03*
X939520Y677480D03*
X921000Y678000D03*
X943000Y696500D03*
X941500Y709000D03*
X920000Y692500D03*
X942500Y717500D03*
X943000Y727500D03*
X944500Y765500D03*
Y756000D03*
Y747000D03*
X943000Y776500D03*
X930200Y1289800D03*
X920000Y1478000D03*
Y1557500D03*
X948500Y384000D03*
X951000Y420000D03*
X948500Y474000D03*
X963500D03*
X948500Y464000D03*
X963500D03*
X964000Y509000D03*
X947500Y647500D03*
Y677500D03*
X945870Y790870D03*
Y864130D03*
X959000Y872000D03*
X952000Y922000D03*
X947500Y1272500D03*
X956000Y1285000D03*
X962500Y1555000D03*
Y1532500D03*
X983500Y389000D03*
X973500Y438000D03*
Y462000D03*
X989000Y761000D03*
X975940Y860060D03*
X973000Y911940D03*
X983000Y915000D03*
X993000Y923000D03*
X990000Y965000D03*
X995000Y958000D03*
Y1285000D03*
X1019800Y486800D03*
X1000000Y647500D03*
X1011000Y736000D03*
X1015000Y767500D03*
X1012500Y1005000D03*
X1000000Y1137500D03*
X1018000Y1237000D03*
X1000000Y1239000D03*
X1019390Y1365000D03*
X1005000Y1430000D03*
X1000000Y1452500D03*
X1020000Y1503000D03*
X1019000Y1515000D03*
X1000000Y1555000D03*
X1032500Y445000D03*
X1025000Y485000D03*
X1030000Y470000D03*
Y465000D03*
Y505000D03*
X1047000Y732000D03*
X1030460Y766460D03*
X1043000Y780000D03*
X1032800Y783800D03*
X1027500Y987500D03*
X1045000Y992500D03*
X1042500Y1157500D03*
X1030000Y1245000D03*
Y1272000D03*
X1027500Y1257500D03*
X1025000Y1296000D03*
X1047000Y1278000D03*
X1032500Y1361000D03*
X1044750Y1354750D03*
X1027000Y1494000D03*
X1034800Y1494200D03*
X1042060Y1543940D03*
X1050230Y435000D03*
X1053770D03*
X1053450Y445000D03*
X1056790D03*
X1060000Y473000D03*
X1065000Y480000D03*
Y465000D03*
X1060000Y487500D03*
X1050000Y498000D03*
X1067500Y632500D03*
X1064140Y736860D03*
X1054000Y740000D03*
X1064100Y747100D03*
X1064020Y741980D03*
X1070000Y785000D03*
X1066460D03*
X1054270Y805000D03*
X1050730D03*
X1070000Y1030000D03*
X1072500Y1040000D03*
X1052000Y1266000D03*
X1047500Y1285000D03*
X1050000Y1310000D03*
X1057500Y1340000D03*
X1057400Y1347400D03*
X1072500Y1360000D03*
X1069000Y1402000D03*
X1070000Y1422500D03*
X1055000Y1415000D03*
X1070000Y1432500D03*
X1077500Y442500D03*
X1080000Y461000D03*
X1083000Y457000D03*
X1080000Y481000D03*
X1095000Y475000D03*
Y495000D03*
X1075000Y500000D03*
X1080000Y490000D03*
X1095000Y505000D03*
X1092500Y510000D03*
Y517500D03*
X1087000Y977000D03*
X1077500Y1045000D03*
X1090250Y1072750D03*
X1082500Y1050000D03*
X1097020Y1117980D03*
X1080000Y1115000D03*
X1092500Y1172500D03*
X1075000Y1212500D03*
X1095000Y1245000D03*
X1080000Y1260000D03*
X1076060Y1268940D03*
X1087000Y1278000D03*
X1090000Y1320000D03*
X1092500Y1392500D03*
X1085000Y1423000D03*
X1077500Y1405000D03*
Y1415000D03*
X1097000Y1500000D03*
X1085000Y1494000D03*
X1120000Y449000D03*
X1101000Y470000D03*
X1114560Y499560D03*
X1110000Y495000D03*
X1101060Y512500D03*
X1101540Y744540D03*
X1101660Y749660D03*
X1100000Y807500D03*
X1100500Y951500D03*
X1107500Y980000D03*
X1117500Y1085000D03*
X1120000Y1080000D03*
X1104900Y1129900D03*
X1121000Y1276000D03*
X1102500Y1290000D03*
X1119300Y1422500D03*
X1120000Y1512500D03*
X1137500Y445000D03*
X1125000Y475000D03*
X1130200Y484800D03*
X1131000Y474000D03*
X1135000Y472500D03*
X1128940Y512500D03*
X1138560Y686060D03*
X1142500Y700000D03*
Y720000D03*
Y737500D03*
Y755000D03*
X1145000Y880000D03*
X1127500Y923500D03*
X1138500Y943500D03*
X1143500Y994500D03*
X1128600Y1008100D03*
X1138900Y1002900D03*
X1132500Y1077500D03*
X1140000Y1135000D03*
X1145630Y1152500D03*
X1137690Y1152000D03*
X1130000Y1180000D03*
X1144000Y1221000D03*
X1146000Y1249000D03*
X1131190Y1242000D03*
X1147500Y1295000D03*
X1142500Y1290000D03*
X1127500Y1327500D03*
X1129000Y1309000D03*
X1141000Y1366000D03*
X1141690Y1397500D03*
X1128190Y1389000D03*
X1140000Y1451000D03*
X1132500Y1480000D03*
X1127500Y1485000D03*
X1165000Y452500D03*
X1151810Y473080D03*
X1155350D03*
X1165000Y497500D03*
X1166060Y668560D03*
X1162500Y685000D03*
X1150000Y737500D03*
X1172500D03*
X1157500D03*
X1152500Y755000D03*
X1167500Y767500D03*
X1165000Y776230D03*
Y779770D03*
X1166000Y808000D03*
X1170000Y860000D03*
X1152500Y850000D03*
X1160000Y879000D03*
X1161000Y870000D03*
X1165000Y930000D03*
X1168500Y945500D03*
X1158500Y994500D03*
X1160000Y1085000D03*
X1150000Y1132500D03*
X1160000D03*
X1162000Y1197000D03*
X1169000Y1178000D03*
X1159500Y1271000D03*
X1168000Y1286440D03*
X1161000Y1341000D03*
X1163000Y1413000D03*
X1153000Y1432000D03*
X1150000Y1470000D03*
Y1477500D03*
X1165000Y1492500D03*
X1182500Y602500D03*
Y622500D03*
X1177500Y662500D03*
X1179000Y669000D03*
X1195000Y708730D03*
Y712270D03*
X1182500Y735000D03*
X1197500Y722500D03*
X1192500Y780000D03*
X1187500Y808730D03*
Y812270D03*
X1186230Y795250D03*
X1189770D03*
X1183000Y823000D03*
X1193000Y875000D03*
X1178000Y917000D03*
Y896000D03*
X1191250Y930250D03*
X1197500Y942500D03*
X1185000Y922500D03*
X1197500Y970000D03*
X1190000Y979000D03*
X1182500Y1260000D03*
X1177500Y1295500D03*
X1177000Y1327000D03*
X1197500Y1360000D03*
X1180000Y1409060D03*
X1200000Y1421000D03*
X1195000Y1425000D03*
X1177500Y1440500D03*
X1223220Y551380D03*
X1203220Y548880D03*
X1218220Y538880D03*
X1210820Y581280D03*
X1205720Y566380D03*
X1205620Y581280D03*
X1205000Y660000D03*
X1217500Y672500D03*
X1225000Y695000D03*
Y707500D03*
X1210000Y782500D03*
X1220000Y812500D03*
Y792500D03*
X1212500Y920000D03*
X1207500Y923000D03*
X1220000Y975000D03*
X1207500Y1057500D03*
X1210000Y1117500D03*
X1220000Y1172500D03*
X1202500Y1212500D03*
X1222500Y1242500D03*
X1208560Y1261060D03*
Y1268940D03*
X1215000Y1278000D03*
Y1320000D03*
X1217500Y1392500D03*
X1202500Y1407500D03*
X1207000Y1425000D03*
X1237420Y358580D03*
X1229000Y441000D03*
X1228220Y548880D03*
X1250000Y660000D03*
X1235000Y688000D03*
X1230000Y712500D03*
X1244610Y695390D03*
X1250000Y716000D03*
X1240000Y930000D03*
X1227500Y920000D03*
X1232500Y957500D03*
X1226000Y959000D03*
X1239000Y1075000D03*
X1244200Y1075800D03*
X1233000Y1109000D03*
X1248000D03*
X1250000Y1296000D03*
X1249000Y1277000D03*
X1250250Y1390000D03*
X1244240Y1422500D03*
X1227500Y1520000D03*
X1274000Y404000D03*
X1263120Y411280D03*
X1268320Y501280D03*
X1273220Y513880D03*
X1260000Y540000D03*
X1258220Y586380D03*
X1262500Y620000D03*
X1267500Y622500D03*
X1274900Y667400D03*
Y672600D03*
X1267500Y692500D03*
Y720000D03*
X1261270Y767500D03*
X1257730D03*
X1270000Y1150000D03*
X1264000D03*
X1257500Y1180000D03*
X1271000Y1221060D03*
X1255250Y1245000D03*
X1271000Y1252000D03*
X1270000Y1292500D03*
X1259690Y1299000D03*
X1252500Y1327500D03*
X1267000Y1363000D03*
X1266690Y1397500D03*
X1267500Y1437500D03*
X1280820Y506480D03*
X1295000Y497860D03*
X1287500Y540000D03*
X1300720Y541380D03*
X1297280Y581280D03*
X1284280Y579940D03*
X1282500Y570000D03*
X1300000Y590000D03*
X1278220Y606380D03*
X1284000Y637000D03*
X1292190Y635190D03*
X1278220Y621380D03*
X1287800Y655200D03*
X1292800Y727690D03*
Y732690D03*
X1280000Y720000D03*
X1285300Y760190D03*
Y745190D03*
X1292800Y932800D03*
Y940190D03*
X1283000Y1088000D03*
X1279800Y1129800D03*
X1298000Y1180000D03*
X1297000Y1201000D03*
X1290000Y1271000D03*
Y1292500D03*
X1277000Y1305000D03*
X1290000Y1347500D03*
X1302000Y1334560D03*
X1286000Y1418000D03*
X1290000Y1439000D03*
X1308220Y491380D03*
X1305000Y525000D03*
X1313720Y554380D03*
X1315720Y626380D03*
X1307800Y655190D03*
X1325300Y680190D03*
X1315300Y830190D03*
X1327500Y825000D03*
X1317800Y847690D03*
Y862690D03*
Y880190D03*
X1320300Y917690D03*
X1310300D03*
X1317800Y897690D03*
X1302800Y965190D03*
X1320300Y990190D03*
X1310000Y1260000D03*
X1306000Y1298000D03*
X1327500Y1360000D03*
X1305000Y1407000D03*
Y1442000D03*
X1346000Y477000D03*
X1338220Y476380D03*
X1328220D03*
X1338220Y511380D03*
Y491380D03*
X1328220D03*
X1338220Y526380D03*
X1343220Y531380D03*
X1328220Y528880D03*
X1330000Y540000D03*
X1333000Y579000D03*
X1338000Y578000D03*
X1335720Y623880D03*
X1330300Y687690D03*
Y665190D03*
X1335300Y675190D03*
X1337800Y722460D03*
Y718920D03*
X1340000Y740000D03*
X1335300Y820190D03*
X1347500Y830000D03*
X1327800Y880190D03*
Y897690D03*
X1347500Y1172500D03*
X1330000Y1212500D03*
X1350000Y1245000D03*
X1332500Y1262500D03*
Y1267500D03*
X1342000Y1278000D03*
X1350000Y1294000D03*
X1345000Y1320000D03*
X1332500Y1402500D03*
X1347500Y1392500D03*
X1329000Y1419000D03*
X1340000Y1422500D03*
X1365880Y388880D03*
X1359000Y431000D03*
X1365000Y462500D03*
X1370000D03*
X1372500Y520000D03*
X1355880Y563880D03*
Y578880D03*
X1370300Y662300D03*
X1360300Y655190D03*
X1362800Y679150D03*
Y682690D03*
X1370300Y707690D03*
X1375300Y732690D03*
Y740080D03*
X1357940Y737060D03*
X1362800Y725190D03*
X1365300Y765190D03*
Y777690D03*
X1369000Y812000D03*
X1375300Y850190D03*
X1355300Y845190D03*
X1377000Y1250000D03*
X1376000Y1277000D03*
X1374190Y1399000D03*
X1374000Y1424000D03*
X1396000Y417000D03*
X1393000Y476000D03*
X1390940Y463060D03*
X1399000Y509000D03*
X1395000Y552500D03*
X1390800Y588200D03*
X1402800Y580190D03*
Y597690D03*
Y635190D03*
X1380300Y677690D03*
X1402800D03*
X1395300Y685190D03*
X1400300Y712690D03*
X1382800Y710190D03*
Y700190D03*
X1390300Y730190D03*
X1395300Y782690D03*
Y797690D03*
Y817690D03*
X1385300Y842690D03*
X1395300Y832690D03*
X1400750Y1150000D03*
X1392750D03*
X1385000Y1180000D03*
X1401000Y1221060D03*
X1400000Y1250000D03*
X1402500Y1290000D03*
X1390250Y1299000D03*
X1382500Y1327500D03*
X1392500Y1365000D03*
X1397190Y1396000D03*
X1395000Y1447500D03*
X1413000Y409000D03*
Y426000D03*
X1429500Y443500D03*
X1406000Y464000D03*
X1410000Y510000D03*
X1417000Y535000D03*
X1412800Y577690D03*
Y597690D03*
X1408160Y630190D03*
X1412800D03*
X1428860Y629140D03*
X1415300Y632690D03*
X1425300Y647690D03*
X1412800Y682690D03*
X1417800Y670190D03*
X1412800Y667690D03*
X1425300Y687690D03*
X1410300Y707690D03*
X1420670Y740920D03*
Y744460D03*
X1405300Y815190D03*
X1422690Y825190D03*
X1405300Y832690D03*
X1422690Y867690D03*
X1422800Y902690D03*
X1420000Y1195000D03*
X1427000Y1179000D03*
X1415000Y1270000D03*
X1422000Y1286000D03*
X1405690Y1306000D03*
X1420000Y1326000D03*
X1412500Y1342500D03*
X1418000Y1419000D03*
X1405000Y1437500D03*
X1453300Y525190D03*
X1445000Y525000D03*
X1448300Y562690D03*
X1437800Y655190D03*
X1440300Y682690D03*
X1445300Y702690D03*
X1440300Y695190D03*
X1435300Y717690D03*
X1447500Y717500D03*
X1435300Y762690D03*
X1437500Y1260000D03*
X1432500Y1295500D03*
X1455000Y1360000D03*
X1435000Y1405000D03*
X1430000Y1442000D03*
X1445000Y1495000D03*
X1467500Y525000D03*
X1478300Y565190D03*
X1473300D03*
X1470300Y610190D03*
Y595190D03*
X1455300Y627500D03*
X1462800Y660190D03*
X1477800Y687690D03*
X1465300Y680190D03*
X1462800Y667690D03*
X1470300Y665190D03*
X1480300Y677690D03*
X1465300Y688050D03*
Y672690D03*
X1455300Y717690D03*
X1475000Y1175000D03*
X1457500Y1214000D03*
X1477500Y1247500D03*
X1462500Y1262500D03*
X1463560Y1271440D03*
X1465000Y1281000D03*
X1475000Y1287500D03*
X1472500Y1320000D03*
X1460000Y1402500D03*
X1475000Y1392500D03*
X1467000Y1426000D03*
X1460000Y1420000D03*
X1495800Y527690D03*
Y532690D03*
X1505300Y580000D03*
X1485300Y610190D03*
X1505300D03*
Y600190D03*
X1490300Y652690D03*
X1482800Y642690D03*
X1500000Y680000D03*
X1491800Y710000D03*
X1485300Y732690D03*
X1487800Y752690D03*
X1497800D03*
X1495300Y767690D03*
Y782690D03*
X1504000Y1279000D03*
X1502000Y1423000D03*
X1520300Y610190D03*
Y600190D03*
X1517800Y660190D03*
X1531570Y710000D03*
X1528030D03*
X1527800Y735190D03*
Y782690D03*
X1509000Y1155000D03*
X1530000D03*
X1512500Y1185000D03*
X1527500Y1227500D03*
X1511000Y1248000D03*
X1529000Y1252000D03*
X1529210Y1295160D03*
X1510000Y1327500D03*
X1511000Y1305000D03*
X1522500Y1367500D03*
X1524690Y1397500D03*
X1512690Y1390000D03*
X1553000Y1181000D03*
X1556000Y1202000D03*
X1542000Y1273000D03*
X1542500Y1295000D03*
X1537000Y1305000D03*
X1552500Y1325000D03*
X1547500Y1347500D03*
Y1427500D03*
X1545000Y1442500D03*
X1557500Y1298500D03*
X1562500Y1408000D03*
X1559000Y1445000D03*
G54D13*
X113560Y1027500D03*
X121440D03*
X155060Y1524000D03*
X162940D03*
X226060Y965000D03*
X218560Y1430000D03*
X226440D03*
X233940Y965000D03*
X256060Y1025000D03*
X253560Y1397500D03*
X281060Y797500D03*
X258560D03*
X266440D03*
X278560Y940000D03*
X263940Y1025000D03*
X261440Y1397500D03*
X288940Y797500D03*
X306060Y865000D03*
X286440Y940000D03*
X313940Y865000D03*
X343940Y937500D03*
X336060D03*
X366060D03*
X373940D03*
X381060Y1295000D03*
X368940D03*
X361060D03*
X388940D03*
X526940Y502000D03*
X519060D03*
X558060Y1401500D03*
X576940Y491000D03*
X569060D03*
Y503000D03*
X576940D03*
X565940Y1401500D03*
X633940Y922500D03*
X626060D03*
X651060Y746000D03*
X658940D03*
Y1352500D03*
X651060D03*
X673060Y747000D03*
X680940D03*
X796060Y1402500D03*
X803940D03*
X796060Y1387500D03*
X803940D03*
X866940Y1509000D03*
X859060D03*
X893750Y1532200D03*
X901630D03*
X1041060Y445000D03*
X1048940D03*
X1061060D03*
X1068940D03*
X1051060Y480000D03*
X1058940D03*
X1051060Y465000D03*
X1058940D03*
X1121060D03*
Y505000D03*
X1108940D03*
X1101060D03*
X1128940Y465000D03*
Y505000D03*
X1133560Y1275000D03*
X1141440D03*
X1131060Y1422500D03*
X1138940D03*
X1221060Y667500D03*
X1228940D03*
X1256060Y612500D03*
X1263940D03*
X1256060Y632500D03*
X1263940D03*
X1261060Y1275000D03*
X1268940D03*
X1256060Y1422500D03*
X1263940D03*
X1381360Y720190D03*
X1389240D03*
X1388560Y1275000D03*
X1396440D03*
X1386060Y1422500D03*
X1393940D03*
X1476440Y1480000D03*
X1468560D03*
X1501360Y660190D03*
X1481360D03*
X1489240D03*
X1481360Y700190D03*
X1489240D03*
X1509240Y660190D03*
X1516060Y1277500D03*
X1523940D03*
X1513560Y1422500D03*
X1521440D03*
G54D22*
X236250Y673750D03*
X396250D03*
G54D23*
X386650Y561650D03*
X379650Y546650D03*
X372650Y561650D03*
X365650Y546650D03*
X393650D03*
G54D14*
X122600Y1059900D03*
X117400D03*
X145100Y1362500D03*
X139900D03*
Y1380000D03*
X145100D03*
X192400Y922500D03*
X197600D03*
X192400Y992500D03*
X197600D03*
Y1062500D03*
X192400D03*
X219900Y1442500D03*
X225100D03*
X277400Y902500D03*
X280100Y977500D03*
X274900D03*
X265100Y1060000D03*
X259900D03*
X282600Y902500D03*
X355100Y895000D03*
X349900D03*
X344900Y972500D03*
X350100D03*
Y982500D03*
X344900D03*
X406300Y531500D03*
X411500D03*
X773000Y763000D03*
X778200D03*
X773000Y770000D03*
X778200D03*
X773000Y784500D03*
X778200D03*
X812000Y810500D03*
X808000Y1160000D03*
X802800D03*
X838500Y464000D03*
Y474000D03*
X817200Y810500D03*
X830200Y1142500D03*
X825000D03*
X843700Y464000D03*
Y474000D03*
X863820Y749920D03*
X858620D03*
X891500Y661500D03*
X885000Y695000D03*
X879800D03*
X896700Y661500D03*
X936000Y464000D03*
X941200D03*
X941100Y474100D03*
X935900D03*
X1125000Y480000D03*
X1130200D03*
X1222600Y782500D03*
X1217400D03*
X1407600Y677690D03*
X1412800D03*
X1498000Y600190D03*
X1492800D03*
X1492600Y610190D03*
X1497800D03*
X1487800Y757690D03*
X1493000D03*
G54D15*
X152500Y893940D03*
Y886060D03*
X179000Y1567940D03*
Y1560060D03*
X215000Y808060D03*
Y815940D03*
Y834940D03*
Y827060D03*
X235000Y893940D03*
Y886060D03*
Y911060D03*
Y918940D03*
Y991060D03*
Y998940D03*
X282500Y841060D03*
Y848940D03*
X262500Y991060D03*
Y998940D03*
X260000Y1376060D03*
Y1383940D03*
X327500Y843560D03*
Y851440D03*
X317500Y943560D03*
Y951440D03*
X355000Y1341060D03*
Y1348940D03*
X375000Y958560D03*
Y966440D03*
X372500Y1341060D03*
Y1348940D03*
X402500Y1298940D03*
Y1291060D03*
X420000Y1298940D03*
Y1291060D03*
X519000Y459060D03*
Y466940D03*
Y482060D03*
Y489940D03*
X560000Y1451060D03*
Y1458940D03*
X573000Y455940D03*
Y448060D03*
X575000Y1451060D03*
Y1458940D03*
X627000Y474940D03*
Y467060D03*
X628500Y862560D03*
X629500Y884060D03*
Y891940D03*
X628500Y870440D03*
X665000Y1388560D03*
Y1396440D03*
X650000Y1388560D03*
Y1396440D03*
X695000Y1286440D03*
Y1278560D03*
Y1316440D03*
Y1308560D03*
X880000Y1551440D03*
Y1543560D03*
Y1573940D03*
Y1566060D03*
X920300Y1549130D03*
Y1541250D03*
X920000Y1563560D03*
Y1571440D03*
X962500Y1538560D03*
Y1546440D03*
Y1571440D03*
Y1563560D03*
X1000000Y1536060D03*
Y1543940D03*
Y1563560D03*
Y1571440D03*
X1072500Y1376440D03*
Y1368560D03*
X1095000Y481060D03*
Y488940D03*
X1075000Y1221060D03*
Y1228940D03*
X1087500Y1241060D03*
Y1248940D03*
Y1268940D03*
Y1261060D03*
X1085000Y1388560D03*
Y1396440D03*
Y1416440D03*
Y1408560D03*
X1102500Y1248940D03*
Y1241060D03*
Y1261060D03*
Y1268940D03*
X1100000Y1396440D03*
Y1388560D03*
Y1408560D03*
Y1416440D03*
X1135000Y1221060D03*
Y1228940D03*
X1132500Y1368560D03*
Y1376440D03*
X1197500D03*
Y1368560D03*
X1202500Y1221060D03*
X1215000Y1241060D03*
Y1248940D03*
X1202500Y1228940D03*
X1215000Y1268940D03*
Y1261060D03*
X1210000Y1388560D03*
Y1396440D03*
X1225000D03*
Y1388560D03*
X1210000Y1416440D03*
Y1408560D03*
X1225000D03*
Y1416440D03*
X1230000Y1248940D03*
Y1241060D03*
Y1261060D03*
Y1268940D03*
X1262500Y1221060D03*
Y1228940D03*
X1257500Y1368560D03*
Y1376440D03*
X1327500D03*
Y1368560D03*
X1330000Y1221060D03*
X1342500Y1241060D03*
Y1248940D03*
X1330000Y1228940D03*
X1342500Y1268940D03*
Y1261060D03*
X1340000Y1388560D03*
Y1396440D03*
Y1416440D03*
Y1408560D03*
X1365000Y737060D03*
Y744940D03*
X1357500Y1248940D03*
Y1241060D03*
Y1261060D03*
Y1268940D03*
X1355000Y1396440D03*
Y1388560D03*
Y1408560D03*
Y1416440D03*
X1390000Y1221060D03*
Y1228940D03*
X1387500Y1368560D03*
Y1376440D03*
X1425300Y671250D03*
Y679130D03*
X1455300Y671250D03*
Y679130D03*
Y704130D03*
Y696250D03*
X1435300Y726250D03*
Y734130D03*
Y756630D03*
Y748750D03*
X1455000Y1376440D03*
Y1368560D03*
X1457500Y1223560D03*
X1470000Y1243560D03*
Y1251440D03*
X1457500Y1231440D03*
X1470000Y1271440D03*
Y1263560D03*
X1467500Y1388560D03*
Y1396440D03*
Y1416440D03*
Y1408560D03*
X1485000Y1251440D03*
Y1243560D03*
Y1263560D03*
Y1271440D03*
X1482500Y1396440D03*
Y1388560D03*
Y1408560D03*
Y1416440D03*
X1527800Y751630D03*
Y743750D03*
X1517500Y1223560D03*
Y1231440D03*
X1515000Y1368560D03*
Y1376440D03*
G54D24*
X379650Y630650D03*
G54D25*
X597500Y1322500D03*
Y1312500D03*
Y1317500D03*
G54D16*
X172500Y817500D03*
X182500D03*
X172500Y827500D03*
X182500D03*
X192500Y817500D03*
X194000Y1517000D03*
X204000D03*
X194000Y1527000D03*
X204000D03*
X214000Y1517000D03*
X224000D03*
X214000Y1527000D03*
X224000D03*
X240500Y301740D03*
X240000Y817500D03*
X250000D03*
X240000Y827500D03*
X250000D03*
X234000Y1517000D03*
Y1527000D03*
X279800Y301740D03*
X260200D03*
X281250Y678750D03*
X271250D03*
X281250Y668750D03*
X260000Y817500D03*
X299500Y301740D03*
X301250Y678750D03*
X291250D03*
X301250Y668750D03*
X291250D03*
X335500Y301740D03*
X331250Y678750D03*
X321250D03*
X311250D03*
X331250Y668750D03*
X321250D03*
X311250D03*
X355200Y301740D03*
X361250Y678750D03*
X351250D03*
X341250D03*
X361250Y668750D03*
X351250D03*
X341250D03*
X374800Y301740D03*
X382500Y1220000D03*
X372500D03*
X362500D03*
X382500Y1230000D03*
X372500D03*
X362500D03*
X394500Y301740D03*
X402500Y1220000D03*
X392500D03*
X402500Y1230000D03*
X392500D03*
X390000Y1539000D03*
X400000Y1569000D03*
X390000Y1589000D03*
X436160Y300000D03*
X455840D03*
X456250Y664750D03*
Y674750D03*
X446250D03*
X486250Y664750D03*
X476250D03*
X466250D03*
X486250Y674750D03*
X476250D03*
X466250D03*
X506250Y664750D03*
X496250D03*
X506250Y674750D03*
X496250D03*
X516250Y664750D03*
Y674750D03*
X557370Y412460D03*
Y422460D03*
X561370Y541460D03*
X567370Y412460D03*
Y422460D03*
X577370Y412460D03*
Y422460D03*
X587370Y412460D03*
Y422460D03*
X581370Y531460D03*
X571370D03*
X581370Y541460D03*
X571370D03*
X568000Y583000D03*
X588000Y593000D03*
X597370Y412460D03*
Y422460D03*
X607370Y412460D03*
Y422460D03*
X611370Y531460D03*
X601370D03*
X591370D03*
X611370Y541460D03*
X601370D03*
X591370D03*
X617370Y412460D03*
X621370Y531460D03*
Y541460D03*
X618000Y583000D03*
X779750Y280250D03*
X789750D03*
X779750Y290250D03*
X789750D03*
X785000Y1270000D03*
X775000D03*
X799750Y280250D03*
X809750D03*
X819750D03*
X799750Y290250D03*
X809750D03*
X819750D03*
X815000Y1270000D03*
X805000D03*
X795000D03*
X829750Y280250D03*
X839750D03*
X829750Y290250D03*
X839750D03*
X845000Y1270000D03*
X835000D03*
X825000D03*
X849750Y280250D03*
X859750D03*
X869750D03*
X849750Y290250D03*
X859750D03*
X869750D03*
X865000Y1270000D03*
X855000D03*
X879750Y280250D03*
X889750D03*
X879750Y290250D03*
X889750D03*
X895000Y1270000D03*
X885000D03*
X875000D03*
X899750Y280250D03*
X909750D03*
X919750D03*
X899750Y290250D03*
X909750D03*
X919750D03*
X915000Y1270000D03*
X905000D03*
X929750Y280250D03*
X925000Y1270000D03*
X980750Y564750D03*
X990750D03*
X980750Y574750D03*
X990750D03*
X1000750Y564750D03*
X1010750D03*
X1020750D03*
X1000750Y574750D03*
X1010750D03*
X1020750D03*
X1020000Y860000D03*
X1030750Y564750D03*
X1040750D03*
X1030750Y574750D03*
X1040750D03*
X1040000Y860000D03*
Y850000D03*
X1030000Y860000D03*
Y850000D03*
X1065000Y415000D03*
Y425000D03*
Y535000D03*
Y525000D03*
X1050750Y564750D03*
X1070000Y860000D03*
Y850000D03*
X1060000Y860000D03*
Y850000D03*
X1050000Y860000D03*
Y850000D03*
X1075000Y415000D03*
X1085000D03*
X1095000D03*
X1075000Y425000D03*
X1085000D03*
X1095000D03*
Y535000D03*
X1085000D03*
X1075000D03*
X1095000Y525000D03*
X1085000D03*
X1075000D03*
X1105000Y415000D03*
Y425000D03*
Y535000D03*
Y525000D03*
X1181000Y400000D03*
X1195000Y472500D03*
X1215000Y433500D03*
X1227500Y612500D03*
Y622500D03*
X1217500D03*
X1220000Y1462500D03*
X1237500Y612500D03*
Y622500D03*
X1236000Y1462500D03*
X1244000D03*
X1252000D03*
X1307500D03*
X1323500D03*
X1331500D03*
X1339500D03*
X1392000Y1463000D03*
X1408000D03*
X1416000D03*
X1424000D03*
X1470000D03*
X1486000D03*
X1494000D03*
X1502000D03*
G54D17*
X159000Y1539280D03*
Y1549120D03*
Y1561780D03*
Y1571620D03*
X241500Y1564280D03*
Y1574120D03*
X280000Y1540160D03*
Y1550000D03*
Y1574600D03*
Y1564760D03*
X862500Y1517660D03*
Y1527500D03*
Y1542780D03*
Y1552620D03*
Y1565280D03*
Y1575120D03*
X897800Y1542850D03*
Y1552690D03*
X897500Y1574720D03*
Y1564880D03*
X940300Y1517780D03*
Y1527620D03*
Y1549810D03*
Y1539970D03*
X940000Y1562780D03*
Y1572620D03*
X980000Y1537660D03*
Y1547500D03*
Y1572460D03*
Y1562620D03*
X1017500Y1537780D03*
Y1547620D03*
Y1572100D03*
Y1562260D03*
X1190000Y510160D03*
Y520000D03*
G54D26*
X1092500Y1157500D03*
Y1167500D03*
Y1217500D03*
Y1227500D03*
X1090000Y1305000D03*
Y1315000D03*
Y1365000D03*
Y1375000D03*
X1102500Y1157500D03*
Y1167500D03*
Y1217500D03*
Y1227500D03*
X1100000Y1305000D03*
Y1315000D03*
Y1365000D03*
Y1375000D03*
X1220000Y1157500D03*
Y1167500D03*
Y1217500D03*
Y1227500D03*
X1225000Y1305000D03*
Y1315000D03*
X1215000Y1305000D03*
Y1315000D03*
X1225000Y1365000D03*
Y1375000D03*
X1215000Y1365000D03*
Y1375000D03*
X1230000Y1157500D03*
Y1167500D03*
Y1217500D03*
Y1227500D03*
X1347500Y1157500D03*
Y1167500D03*
Y1217500D03*
Y1227500D03*
X1345000Y1305000D03*
Y1315000D03*
Y1365000D03*
Y1375000D03*
X1357500Y1157500D03*
Y1167500D03*
Y1217500D03*
Y1227500D03*
X1355000Y1305000D03*
Y1315000D03*
Y1365000D03*
Y1375000D03*
X1475000Y1160000D03*
Y1170000D03*
Y1220000D03*
Y1230000D03*
X1472500Y1305000D03*
Y1315000D03*
Y1365000D03*
Y1375000D03*
X1485000Y1160000D03*
Y1170000D03*
Y1220000D03*
Y1230000D03*
X1482500Y1305000D03*
Y1315000D03*
Y1365000D03*
Y1375000D03*
G54D27*
X1160000Y1214000D03*
X1157500Y1361500D03*
X1182500Y1250000D03*
X1180000Y1397500D03*
X1287500Y1214000D03*
X1282500Y1361500D03*
X1310000Y1250000D03*
X1305000Y1397500D03*
X1415000Y1214000D03*
X1412500Y1361500D03*
X1437500Y1250000D03*
X1435000Y1396000D03*
X1542500Y1216500D03*
X1540000Y1361500D03*
X1565000Y1252500D03*
X1562500Y1397500D03*
G54D18*
X204950Y432200D03*
X207150Y540750D03*
X214950Y432200D03*
X224950D03*
X217150Y540750D03*
X227150D03*
X282550Y432400D03*
X302550D03*
X292550D03*
X321900Y509000D03*
X379500D03*
X1268420Y358580D03*
Y378180D03*
X1288020Y358580D03*
Y378180D03*
G54D28*
X1160000Y1250000D03*
X1157500Y1397500D03*
X1182500Y1214000D03*
X1180000Y1361500D03*
X1287500Y1250000D03*
X1282500Y1397500D03*
X1310000Y1214000D03*
X1305000Y1361500D03*
X1415000Y1250000D03*
X1412500Y1397500D03*
X1437500Y1214000D03*
X1435000Y1360000D03*
X1542500Y1252500D03*
X1540000Y1397500D03*
X1565000Y1216500D03*
X1562500Y1361500D03*
G54D19*
X214950Y489700D03*
X217150Y598250D03*
X292550Y489900D03*
G54D29*
G01X101000Y1197000D02*
X105500D01*
X152500Y1150000D01*
Y1042500D01*
X175000Y1020000D01*
Y970000D01*
X190000Y955000D01*
Y945000D01*
X205000Y930000D01*
Y920000D01*
X225000Y900000D01*
X240000D01*
X245000Y895000D01*
Y862500D01*
X315000Y792500D01*
Y765000D01*
X312500Y762500D01*
Y757500D01*
G01X100500Y1229500D02*
X175500D01*
X187500Y1217500D01*
G01X152500Y893940D02*
Y899900D01*
X127400Y925000D01*
G01X170000Y963100D02*
X127700D01*
G01X121440Y1027500D02*
X125000D01*
X130000Y1022500D01*
G01X115000Y1050000D02*
Y1032500D01*
X113560Y1031060D01*
Y1027500D01*
G01X110000Y1060000D02*
X115190D01*
X115290Y1059900D01*
X117400D01*
G01X130000Y1055000D02*
X124890D01*
X122600Y1057290D01*
Y1059900D01*
G01X118000Y1199000D02*
Y1196940D01*
X157500Y1157440D01*
Y1045000D01*
X180000Y1022500D01*
Y977500D01*
X182500Y975000D01*
Y970000D01*
X195000Y957500D01*
Y945000D01*
X210000Y930000D01*
Y920000D01*
X225000Y905000D01*
X240000D01*
X250000Y895000D01*
Y875000D01*
X272500Y852500D01*
Y842500D01*
X320000Y795000D01*
Y765000D01*
X325000Y760000D01*
G01X155060Y1524000D02*
Y1523800D01*
X107500Y1476240D01*
Y1340000D01*
X120000Y1327500D01*
Y1290000D01*
G01X152500Y886060D02*
Y877500D01*
G01X172500Y912500D02*
X170000Y910000D01*
Y907880D01*
X156060Y893940D01*
X152500D01*
G01X155500Y1234500D02*
Y1252000D01*
X140000Y1267500D01*
Y1305000D01*
G01X147500Y1310000D02*
X150000Y1307500D01*
Y1295000D01*
X147600Y1292600D01*
Y1267600D01*
G01X145100Y1380000D02*
Y1372400D01*
X152500Y1365000D01*
G01X145100Y1362500D02*
X150000D01*
X152500Y1365000D01*
G01X132500D02*
X135000D01*
X137500Y1362500D01*
X139900D01*
G01Y1380000D02*
X137500D01*
X132500Y1375000D01*
G01X179000Y1560060D02*
Y1486500D01*
X147500Y1455000D01*
Y1410000D01*
X162500Y1395000D01*
Y1357500D01*
X165000Y1355000D01*
Y1297500D01*
G01X172500Y919640D02*
X177860D01*
X182500Y915000D01*
Y827500D01*
G01X170000Y997500D02*
Y963100D01*
G01D02*
Y962940D01*
X182940Y950000D01*
X185000D01*
G01X205000Y1020000D02*
X202500Y1022500D01*
X187500D01*
X165000Y1045000D01*
Y1067500D01*
G01X170000Y1157500D02*
X375000D01*
X510000Y1022500D01*
X732500D01*
G01X241500Y1564280D02*
Y1486500D01*
X236520Y1481520D01*
X196520D01*
X170000Y1455000D01*
X167500D01*
G01X162940Y1524000D02*
Y1535340D01*
X159000Y1539280D01*
G01X179000Y1567940D02*
X165160D01*
X159000Y1561780D01*
G01X215000Y808060D02*
X201940D01*
X192500Y817500D01*
G01X187000Y893000D02*
Y822000D01*
X182500Y817500D01*
G01X190000Y915000D02*
Y919600D01*
X192400Y922000D01*
Y922500D01*
G01X200000Y930000D02*
Y925400D01*
X197600Y923000D01*
Y922500D01*
G01Y992500D02*
Y1000100D01*
X200000Y1002500D01*
G01X190000Y982500D02*
Y989600D01*
X192400Y992000D01*
Y992500D01*
G01X202500Y997500D02*
X217500D01*
X227500Y987500D01*
Y975700D01*
X228200Y975000D01*
X237500D01*
G01X192400Y1062500D02*
Y1054900D01*
X190000Y1052500D01*
G01X197600Y1062500D02*
Y1070100D01*
X200000Y1072500D01*
G01X185000Y1052500D02*
Y1072500D01*
X190000Y1077500D01*
X247500D01*
G01X192500Y1450000D02*
Y1427500D01*
X195000Y1425000D01*
X207500D01*
G01X187500Y1445000D02*
Y1452500D01*
X190000Y1455000D01*
X195000D01*
X205000Y1445000D01*
Y1440000D01*
G01X250000Y827500D02*
X245000Y822500D01*
Y809700D01*
X223000Y787700D01*
G01X215000Y815940D02*
X218560D01*
X222500Y819880D01*
Y823120D01*
G01X215000Y827060D02*
X218560D01*
X222500Y823120D01*
G01X210000Y907500D02*
Y852500D01*
X225000Y837500D01*
X240000D01*
X250000Y827500D01*
G01X215000Y834940D02*
X232560D01*
X240000Y827500D01*
G01X225000Y882500D02*
X232500Y875000D01*
Y857500D01*
X255000Y835000D01*
Y822500D01*
X250000Y817500D01*
G01X220000Y917500D02*
X226440Y911060D01*
X235000D01*
G01X205000Y912500D02*
X210000Y907500D01*
G01D02*
X223560Y893940D01*
X235000D01*
G01X226060Y965000D02*
X220000D01*
G01X210000Y957500D02*
X262500D01*
X265000Y960000D01*
Y977500D01*
G01X205000Y950000D02*
Y960000D01*
X222500Y977500D01*
Y987500D01*
G01X257500Y1010000D02*
X237500D01*
X225000Y997500D01*
G01X215000Y1025000D02*
X225000Y1035000D01*
Y1067500D01*
G01X208000Y1232000D02*
X252500Y1187500D01*
X320000D01*
G01X206000Y1256000D02*
Y1258500D01*
X215000Y1267500D01*
X240000D01*
X322500Y1350000D01*
G01X230000Y1297400D02*
Y1292500D01*
X227500Y1290000D01*
G01X215000Y1297400D02*
Y1295000D01*
X217500Y1292500D01*
Y1290000D01*
G01X230000Y1302600D02*
Y1307500D01*
X227500Y1310000D01*
G01X215000Y1302600D02*
X220100D01*
X227500Y1310000D01*
G01X222500Y1370000D02*
X232500D01*
G01X215000Y1375000D02*
X219690D01*
X219890Y1375200D01*
X222500D01*
G01X227500Y1392500D02*
X251240D01*
X259800Y1383940D01*
X260000D01*
G01X217500Y1395000D02*
Y1403000D01*
X222500Y1408000D01*
G01D02*
X243260D01*
X253560Y1397700D01*
Y1397500D01*
G01X225100Y1442500D02*
X230000D01*
G01X218560Y1430000D02*
Y1430200D01*
X213760Y1435000D01*
X210000D01*
G01X219900Y1442500D02*
X212500D01*
X210000Y1445000D01*
G01X226440Y1430000D02*
Y1433940D01*
X227500Y1435000D01*
G01X235000Y886060D02*
Y881000D01*
X237000Y879000D01*
G01X235000Y918940D02*
X238560D01*
X240000Y920380D01*
Y922500D01*
G01X237500Y975000D02*
Y968760D01*
X233940Y965200D01*
Y965000D01*
G01X237500Y975000D02*
X247500D01*
G01Y983250D02*
X243010D01*
X235200Y991060D01*
X235000D01*
G01X262500Y998940D02*
X256060D01*
X252500Y1002500D01*
G01X235000Y998940D02*
X241440D01*
G01X285000Y1425000D02*
Y1427500D01*
X277500Y1435000D01*
X255000D01*
G01X332500Y822500D02*
Y740000D01*
X271250Y678750D01*
G01X266440Y797500D02*
Y801440D01*
X270000Y805000D01*
G01X281060Y797500D02*
Y813940D01*
X267500Y827500D01*
X260000D01*
G01X258560Y797500D02*
Y812200D01*
X260000Y813640D01*
Y817500D01*
G01X272500Y952500D02*
Y895000D01*
X270000Y892500D01*
G01X277500Y907500D02*
Y905210D01*
X277400Y905110D01*
Y902500D01*
G01X278560Y940000D02*
Y933560D01*
G01X280100Y977500D02*
X285000D01*
X287500Y975000D01*
G01X277500Y992500D02*
Y980600D01*
X274900Y978000D01*
Y977500D01*
G01X262500Y980000D02*
X265000Y977500D01*
G01D02*
X265810Y978310D01*
Y987950D01*
X262700Y991060D01*
X262500D01*
G01X263940Y1025000D02*
Y1020620D01*
X265000Y1019560D01*
Y1017500D01*
G01X256060Y1025000D02*
Y1011440D01*
X257500Y1010000D01*
G01D02*
X262500D01*
G01Y1032500D02*
Y1056900D01*
X259900Y1059500D01*
Y1060000D01*
G01X265100D02*
Y1067600D01*
X267500Y1070000D01*
G01X270000Y1055000D02*
X272500Y1057500D01*
Y1070000D01*
G01X260000Y1376060D02*
Y1370000D01*
G01X261440Y1397500D02*
X270000D01*
G01X291250Y678750D02*
X288500Y681500D01*
Y686000D01*
X343510Y741010D01*
Y741830D01*
X343500Y741840D01*
Y851710D01*
X319680Y875530D01*
Y876230D01*
X320950Y877500D01*
G01X291250Y668750D02*
X286900Y673100D01*
Y685820D01*
X342500Y741420D01*
Y851290D01*
X318680Y875110D01*
Y876230D01*
X317410Y877500D01*
G01X346770Y864400D02*
Y862280D01*
X348500Y860550D01*
Y732080D01*
X299630Y683210D01*
Y680360D01*
X301240Y678750D01*
X301250D01*
G01X343230Y864400D02*
Y862340D01*
X347500Y858070D01*
Y732500D01*
X296710Y681710D01*
Y675800D01*
X301250Y671260D01*
Y668750D01*
G01X337500Y837500D02*
X340000Y835000D01*
Y742500D01*
X281250Y683750D01*
Y678750D01*
G01X288940Y797500D02*
Y803560D01*
X287500Y805000D01*
G01X318000Y807000D02*
X313000D01*
X282500Y837500D01*
Y841060D01*
G01X307500Y827500D02*
X302500D01*
G01X282500Y848940D02*
Y855000D01*
G01X306060Y865000D02*
Y865200D01*
X301260Y870000D01*
X300000D01*
G01X290000Y897500D02*
X287600D01*
X284960Y900140D01*
X284460D01*
X282600Y902000D01*
Y902500D01*
G01X285000Y892500D02*
X307500D01*
G01X285000Y930000D02*
Y935000D01*
X286440Y936440D01*
Y940000D01*
G01X327500Y1105000D02*
Y1107500D01*
X320000Y1115000D01*
X300000D01*
G01X292500Y1122500D02*
X325000D01*
X335000Y1112500D01*
G01X322500Y822500D02*
X310310D01*
X310110Y822300D01*
X307500D01*
G01X327500Y843560D02*
X321060D01*
X317500Y840000D01*
G01X327500Y851440D02*
X333560D01*
X335000Y850000D01*
G01X313940Y865000D02*
Y886060D01*
X307500Y892500D01*
G01D02*
X337500Y922500D01*
Y927500D01*
G01X336060Y937500D02*
X327500D01*
G01X317500Y943560D02*
Y937500D01*
G01X317450Y992550D02*
X312500Y987600D01*
Y972500D01*
X317500Y967500D01*
Y951440D01*
G01X337500Y967500D02*
X333760D01*
X317700Y951440D01*
X317500D01*
G01X347500Y1075000D02*
X342500D01*
X327500Y1060000D01*
Y1040000D01*
G01X322500Y1350000D02*
Y1340000D01*
X312500Y1330000D01*
G01X322500Y1350000D02*
Y1417500D01*
X330000Y1425000D01*
X340000D01*
G01X477500Y815000D02*
X351250Y688750D01*
Y678750D01*
G01X342990Y895000D02*
Y887990D01*
G01X349900Y895000D02*
X342990D01*
G01D02*
X350000Y902010D01*
Y905000D01*
G01X362500Y895000D02*
X355100D01*
G01X343940Y937500D02*
X350000D01*
X355000Y932500D01*
G01X360000Y937500D02*
X355000Y932500D01*
G01D02*
Y920000D01*
X375000Y900000D01*
Y890000D01*
X365000Y880000D01*
X357500D01*
G01X344900Y982500D02*
X337500D01*
G01X344900Y972500D02*
Y973000D01*
X337500Y980400D01*
Y982500D01*
G01X350100D02*
X357500D01*
G01X350100Y972500D02*
X357500D01*
G01X361060Y1295000D02*
X352500D01*
G01X355000Y1348940D02*
X361440D01*
X362500Y1350000D01*
G01X350000Y1340000D02*
X353940D01*
X355000Y1341060D01*
G01X333000Y1548000D02*
X339500D01*
X347500Y1540000D01*
Y1530000D01*
X420000Y1457500D01*
Y1360000D01*
X412500Y1352500D01*
Y1345000D01*
G01X484000Y815000D02*
Y811500D01*
X361250Y688750D01*
Y678750D01*
G01X385000Y905000D02*
X387500Y902500D01*
Y882500D01*
X378000Y873000D01*
X374500D01*
G01X373940Y937500D02*
Y933560D01*
X377500Y930000D01*
G01X357500Y967500D02*
X364780D01*
X366060Y966220D01*
Y937500D01*
G01X393000Y968000D02*
X383000D01*
X381440Y966440D01*
X375000D01*
G01X373940Y947500D02*
Y953570D01*
X375000Y954630D01*
Y958560D01*
G01X381060Y1295000D02*
Y1288940D01*
X382500Y1287500D01*
G01X375000Y1330000D02*
X372500D01*
X368940Y1326440D01*
Y1295000D01*
G01X372500Y1348940D02*
X376440D01*
X377500Y1350000D01*
G01X365000Y1340000D02*
X366060Y1341060D01*
X372500D01*
G01X381000Y1436000D02*
Y1433500D01*
X380000Y1432500D01*
Y1372500D01*
G01X375000Y1426000D02*
X377500Y1423500D01*
Y1380000D01*
X375000Y1377500D01*
G01X370000Y1417400D02*
X360000D01*
G01X370000D02*
Y1412500D01*
G01X360000Y1417400D02*
Y1412500D01*
G01Y1422600D02*
Y1430000D01*
G01X370000D02*
Y1422600D01*
G01X400000Y511000D02*
Y524700D01*
X406300Y531000D01*
Y531500D01*
G01X393650Y546650D02*
X400150Y540150D01*
Y538150D01*
X406300Y532000D01*
Y531500D01*
G01X402500Y1291060D02*
X406440D01*
X407500Y1290000D01*
G01X395000Y1330000D02*
Y1306240D01*
X402300Y1298940D01*
X402500D01*
G01X389500Y1323000D02*
Y1299120D01*
X388940Y1298560D01*
Y1295000D01*
G01X420000Y1298940D02*
X419800D01*
X413740Y1305000D01*
X400000D01*
X397500Y1307500D01*
Y1327500D01*
X400000Y1330000D01*
Y1332500D01*
X397500Y1335000D01*
X395000D01*
G01X415000Y1362500D02*
X395000Y1382500D01*
X387500D01*
G01X411500Y531500D02*
Y523500D01*
G01X412000Y760000D02*
Y777000D01*
X450000Y815000D01*
G01X770000Y1390000D02*
X730000Y1350000D01*
Y1187500D01*
X705000Y1162500D01*
X427500D01*
G01X420000Y1291060D02*
X413940D01*
X412500Y1292500D01*
G01X457500Y1405000D02*
X445000Y1417500D01*
X432500D01*
G01X440000Y910000D02*
X675000D01*
G01X682500Y915000D02*
X450000D01*
G01X460000Y770000D02*
X491900Y738100D01*
Y630600D01*
X529500Y593000D01*
X588000D01*
G01X519000Y489940D02*
X510060D01*
G01X519000Y459060D02*
Y454000D01*
X515000Y450000D01*
G01X531000Y480000D02*
X528940Y482060D01*
X519000D01*
G01Y466940D02*
X519520Y467460D01*
X544620D01*
G01X519060Y502000D02*
X511000D01*
G01X547500Y477500D02*
X526940Y498060D01*
Y502000D01*
G01X556000Y682000D02*
Y626000D01*
X535000Y605000D01*
G01X537500Y810000D02*
Y727500D01*
X535000Y725000D01*
G01X525000Y810000D02*
Y737500D01*
G01X530000Y810000D02*
Y732500D01*
G01X520000Y810000D02*
Y745000D01*
X517500Y742500D01*
G01X607370Y412460D02*
X597410Y402500D01*
X554990D01*
X544620Y412870D01*
Y467460D01*
G01X587370Y412460D02*
X579910Y405000D01*
X557500D01*
X547500Y415000D01*
Y422500D01*
X562630Y437630D01*
Y467460D01*
G01X567500Y437500D02*
Y433450D01*
X561720Y427670D01*
Y416810D01*
X557370Y412460D01*
G01X571370Y541460D02*
Y545320D01*
X569190Y547500D01*
X557500D01*
X552500Y542500D01*
Y466040D01*
X548920Y462460D01*
G01X582500Y1150000D02*
X547500D01*
G01X560000Y1389000D02*
X558060Y1390940D01*
Y1401500D01*
G01X560000Y1451060D02*
Y1447500D01*
X562500Y1445000D01*
G01X560000Y1458940D02*
X575000D01*
G01X577370Y422460D02*
Y427380D01*
X591820Y441830D01*
Y472820D01*
X595000Y476000D01*
G01X577370Y412460D02*
X572500Y417330D01*
Y440010D01*
X567370Y445140D01*
Y477460D01*
G01X573000Y448060D02*
X580560D01*
X582500Y450000D01*
G01X573000Y455940D02*
Y461060D01*
X577940Y466000D01*
X580000D01*
G01X576940Y491000D02*
Y487440D01*
X583380Y481000D01*
X599000D01*
G01X562630Y467460D02*
Y496370D01*
X569060Y502800D01*
Y503000D01*
G01X576940D02*
Y501320D01*
X569060Y493440D01*
Y491000D01*
G01D02*
Y485000D01*
G01X561370Y531460D02*
Y526140D01*
X587500Y500010D01*
Y495000D01*
G01X582500Y690000D02*
Y695000D01*
X672070Y784570D01*
X710000D01*
G01X565000Y737500D02*
Y865000D01*
X567500Y867500D01*
G01X582500Y737500D02*
Y845000D01*
G01X637500Y937500D02*
X627500D01*
X595000Y970000D01*
X585000D01*
G01X657500Y1370000D02*
X655000Y1367500D01*
X612500D01*
X585000Y1395000D01*
X580000D01*
G01X565000Y1389000D02*
Y1397000D01*
X565940Y1397940D01*
Y1401500D01*
G01X575000Y1451060D02*
Y1447500D01*
X572500Y1445000D01*
G01X575000Y1458940D02*
Y1462500D01*
X572500Y1465000D01*
G01X607370Y422460D02*
Y451060D01*
G01X597510Y466570D02*
Y437520D01*
X587370Y427380D01*
Y422460D01*
G01X617370D02*
Y467630D01*
X604000Y481000D01*
X599000D01*
G01X588000Y593000D02*
X604940D01*
X628650Y616710D01*
G01X590000Y737500D02*
Y830000D01*
X602500Y842500D01*
G01X597500Y737500D02*
Y830000D01*
X610000Y842500D01*
G01X707500Y937500D02*
Y925000D01*
X602500Y820000D01*
Y742500D01*
X605000Y740000D01*
G01X597500Y870000D02*
Y862500D01*
G01X587500D02*
Y869800D01*
G01X629500Y884060D02*
X625940D01*
X602500Y860620D01*
Y842500D01*
G01X628500Y862560D02*
X620060D01*
X610000Y852500D01*
Y842500D01*
G01X597500Y882500D02*
Y875200D01*
G01X587500Y875000D02*
X594690D01*
X594890Y875200D01*
X597500D01*
G01Y942400D02*
X604900D01*
G01X587500Y950000D02*
X594600D01*
X597000Y947600D01*
X597500D01*
G01X595000Y955000D02*
X607500D01*
X627500Y935000D01*
X635000D01*
X637500Y932500D01*
G01X642500Y1145000D02*
X607500D01*
G01X627000Y460000D02*
Y467060D01*
G01Y474940D02*
Y479500D01*
X630000Y482500D01*
G01X628500Y870440D02*
Y873800D01*
X632200Y877500D01*
G01X629500Y891940D02*
X625940D01*
X622500Y895380D01*
Y897500D01*
G01X626060Y922500D02*
X620000D01*
X617500Y920000D01*
G01X637500Y937500D02*
X640000D01*
X643200Y934300D01*
Y931960D01*
X633940Y922700D01*
Y922500D01*
G01X612500Y1352500D02*
X617500Y1347500D01*
Y1310000D01*
G01X633000Y1352000D02*
X645950Y1364950D01*
X662500D01*
Y1365000D01*
X665000Y1367500D01*
G01X1027500Y987500D02*
Y950000D01*
X922500Y845000D01*
X870000D01*
X777500Y752500D01*
X747500D01*
X719020Y724020D01*
X657980D01*
G01D02*
X651060Y730940D01*
Y746000D01*
G01X658940D02*
X663500D01*
X665000Y747500D01*
G01X657500Y937500D02*
Y944900D01*
G01Y950100D02*
X662600D01*
X667500Y955000D01*
G01X647500Y1309900D02*
Y1305000D01*
X655000Y1297500D01*
G01X640000D02*
Y1307500D01*
G01X655000Y1297500D02*
X640000D01*
G01Y1307500D02*
Y1322500D01*
G01D02*
X645000Y1327500D01*
G01X647500Y1315100D02*
Y1320000D01*
G01X665000Y1312500D02*
X650600D01*
X648000Y1315100D01*
X647500D01*
G01X645000Y1327500D02*
X660000D01*
G01X670000D02*
X658940Y1338560D01*
Y1352500D01*
G01X670000Y1365000D02*
X667450Y1362450D01*
X649950D01*
X640000Y1352500D01*
Y1350000D01*
G01X651060Y1352500D02*
X645000D01*
G01X650000Y1396440D02*
Y1402500D01*
G01X645000Y1382500D02*
Y1387500D01*
X646060Y1388560D01*
X650000D01*
G01X805000Y1152500D02*
X802500D01*
X780000Y1130000D01*
Y925000D01*
X720000Y865000D01*
Y742500D01*
X704500Y727000D01*
X669000D01*
G01X673060Y747000D02*
Y740560D01*
X669000Y736500D01*
Y727000D01*
G01X680940Y747000D02*
X690000D01*
G01X667500Y937500D02*
Y944900D01*
G01Y950100D02*
Y955000D01*
G01X685000Y1302500D02*
Y1296240D01*
X694800Y1286440D01*
X695000D01*
G01X682500Y1322500D02*
X688740D01*
X694800Y1316440D01*
X695000D01*
G01X672500Y1307500D02*
Y1317500D01*
G01X665000Y1396440D02*
Y1402500D01*
G01Y1382500D02*
Y1388560D01*
G01X737500Y1332500D02*
Y925000D01*
X705000Y892500D01*
G01X695000Y1278560D02*
Y1272500D01*
G01Y1308560D02*
Y1300000D01*
G01X793900Y661700D02*
Y668600D01*
X792500Y670000D01*
X747500D01*
G01Y680000D02*
X800000D01*
X806000Y674000D01*
Y661700D01*
G01X834000Y713300D02*
Y711190D01*
X805310Y682500D01*
X750000D01*
X747500Y685000D01*
G01X784000Y661700D02*
X779200D01*
X776440Y658940D01*
X772300D01*
X766240Y665000D01*
X747500D01*
G01X745000Y690000D02*
X794700D01*
X818000Y713300D01*
G01X804000D02*
Y711190D01*
X785310Y692500D01*
X747500D01*
X745000Y695000D01*
G01X788000Y713300D02*
Y705500D01*
X782500Y700000D01*
X747500D01*
X745000Y702500D01*
G01Y763000D02*
X773000D01*
G01Y784500D02*
X770890D01*
X770390Y785000D01*
X762500D01*
X753500Y776000D01*
X748000D01*
G01X773000Y770000D02*
X745000D01*
G01X763500Y1547500D02*
X757500D01*
G01X773000Y1562000D02*
X769140D01*
X763500Y1556360D01*
Y1552700D01*
G01X778000Y652000D02*
Y655500D01*
X779000Y656500D01*
X784000D01*
G01D02*
X793900D01*
G01X773000Y713300D02*
X776700D01*
X782000Y708000D01*
G01X788000Y718500D02*
X804000D01*
G01X773000D02*
X788000D01*
G01X778200Y763000D02*
X782000D01*
X782500Y762500D01*
G01X778200Y770000D02*
X787500D01*
G01X778200Y784500D02*
Y781890D01*
X776310Y780000D01*
X775000D01*
G01X802800Y1160000D02*
X790000D01*
G01X787890Y1402500D02*
X796060D01*
G01X876000Y866000D02*
X937500Y927500D01*
Y1342500D01*
X773000Y1507000D01*
Y1562000D01*
G01X793900Y656500D02*
X806000D01*
G01X820000D02*
X806000D01*
G01X804000Y718500D02*
X818000D01*
G01X804000D02*
Y722500D01*
G01X799980Y809020D02*
X801460Y810500D01*
X812000D01*
G01X814500Y822500D02*
Y843000D01*
X802500Y855000D01*
G01X825000Y815000D02*
X816940D01*
X799980Y831960D01*
Y834020D01*
G01X802500Y847500D02*
X799950Y850050D01*
Y887450D01*
X807500Y895000D01*
Y1045000D01*
G01X860000Y885000D02*
Y967500D01*
X837500Y990000D01*
Y1092500D01*
X810490Y1119510D01*
Y1135490D01*
X817500Y1142500D01*
Y1160000D01*
G01X815000Y1130000D02*
X817500D01*
X825000Y1137500D01*
Y1142500D01*
G01X808000Y1160000D02*
X817500D01*
G01X805000Y1315000D02*
Y1322400D01*
G01X795000Y1315000D02*
Y1322400D01*
G01X805000Y1327600D02*
X795000D01*
G01X805000Y1335000D02*
Y1327600D01*
G01X796060Y1387500D02*
Y1371060D01*
X792500Y1367500D01*
G01X803940Y1387500D02*
Y1391880D01*
X805000Y1392940D01*
Y1395000D01*
G01X803940Y1402500D02*
X810000D01*
G01X841000Y374000D02*
Y381500D01*
X840860Y381640D01*
Y382140D01*
X839000Y384000D01*
X838500D01*
G01X826000Y376500D02*
Y386500D01*
G01Y391700D02*
X828610D01*
X831610Y394700D01*
Y395630D01*
G01X838500Y389200D02*
X833700D01*
G01X838500D02*
X848300D01*
G01X838500Y384000D02*
X833500D01*
G01X838500Y464000D02*
X836000D01*
X831000Y469000D01*
Y474000D01*
G01X838500D02*
X831000D01*
G01X818000Y718500D02*
X834000D01*
G01D02*
Y722500D01*
G01X818000Y718500D02*
Y722500D01*
G01X817200Y810500D02*
X819310D01*
X820000Y809810D01*
Y806000D01*
G01X832500Y1155000D02*
X830200Y1152700D01*
Y1142500D01*
G01X870000Y1160000D02*
X830000D01*
X822500Y1152500D01*
Y1150000D01*
G01X843700Y474000D02*
X846000D01*
X848500Y471500D01*
G01X843700Y464000D02*
X846000D01*
X848500Y466500D01*
G01X1000000Y647500D02*
X975000Y672500D01*
X920000D01*
X905000Y687500D01*
X877500D01*
X850000Y715000D01*
Y765000D01*
G01X858620Y749920D02*
X855080D01*
G01X863820D02*
X918920D01*
G01X865000Y892500D02*
Y970000D01*
X842500Y992500D01*
Y1127500D01*
G01X852500Y1140000D02*
X855000Y1137500D01*
X885000D01*
X887500Y1140000D01*
G01X857500Y1142500D02*
X885000D01*
X887500Y1145000D01*
G01Y1150000D02*
X885000Y1147500D01*
X860000D01*
G01X855000Y1152500D02*
X862500D01*
X865000Y1150000D01*
X882500D01*
X887500Y1155000D01*
G01X897000Y882000D02*
X942500Y927500D01*
Y1429880D01*
X866940Y1505440D01*
Y1509000D01*
G01X859060D02*
Y1514220D01*
X862500Y1517660D01*
G01Y1565280D02*
X865960D01*
X879800Y1551440D01*
X880000D01*
G01X891500Y661500D02*
Y662000D01*
X888500Y665000D01*
X887500D01*
G01X920000Y692500D02*
X890000D01*
X887500Y695000D01*
X885000D01*
G01X879800D02*
Y707300D01*
G01X893000Y768820D02*
X878680D01*
X875000Y772500D01*
G01X925000Y1270000D02*
Y1237500D01*
X932500Y1230000D01*
Y950000D01*
X880000Y897500D01*
Y892500D01*
G01X885000Y1270000D02*
Y1242500D01*
X922500Y1205000D01*
Y955000D01*
X870000Y902500D01*
Y900000D01*
G01X895000Y1270000D02*
Y1250000D01*
X927500Y1217500D01*
Y952500D01*
X875000Y900000D01*
Y895000D01*
G01X882500Y1132500D02*
X885000D01*
X907500Y1155000D01*
Y1160000D01*
G01X917500D02*
X912500Y1165000D01*
X877500D01*
X872500Y1160000D01*
X870000D01*
G01X880000Y1543560D02*
Y1510000D01*
X982500Y1407500D01*
Y1297500D01*
X987500Y1292500D01*
X997500D01*
X1010000Y1280000D01*
Y1095000D01*
X1070000Y1035000D01*
Y1030000D01*
G01X880000Y1566060D02*
X880200D01*
X887500Y1558760D01*
Y1512500D01*
X900000Y1500000D01*
X907500D01*
X985000Y1422500D01*
Y1302500D01*
X992500Y1295000D01*
X1000000D01*
X1012500Y1282500D01*
Y1100000D01*
X1072500Y1040000D01*
G01X880000Y1573940D02*
X893900D01*
X894680Y1574720D01*
X897500D01*
G01X896700Y661500D02*
X901500D01*
X909000Y669000D01*
X919000D01*
G01X917500Y992500D02*
Y1122500D01*
G01X901630Y1532200D02*
Y1513370D01*
X987500Y1427500D01*
Y1303200D01*
X993200Y1297500D01*
X1002500D01*
X1015000Y1285000D01*
Y1107500D01*
X1077500Y1045000D01*
G01X893750Y1532200D02*
Y1538800D01*
X897800Y1542850D01*
G01X941000Y386300D02*
Y381500D01*
G01X923500Y386300D02*
Y381500D01*
X931000Y374000D01*
X943500D01*
G01X941000Y391500D02*
X941500D01*
X948500Y384500D01*
Y384000D01*
G01X941000Y391500D02*
X936000D01*
G01X923500D02*
X926110D01*
X928500Y393890D01*
G01X941000Y386300D02*
X936200D01*
G01X935900Y474100D02*
X931100D01*
X931000Y474000D01*
G01X936000Y464000D02*
Y469000D01*
X931000Y474000D01*
G01X948500D02*
X943310D01*
X943210Y474100D01*
X941100D01*
G01X941200Y464000D02*
X948500D01*
G01X920300Y1541250D02*
Y1509700D01*
X990000Y1440000D01*
Y1305000D01*
X995000Y1300000D01*
X1007500D01*
X1022500Y1285000D01*
Y1110000D01*
X1082500Y1050000D01*
G01X920300Y1549130D02*
X936800D01*
X937480Y1549810D01*
X940300D01*
G01X920000Y1563560D02*
Y1557500D01*
G01X940000Y1572620D02*
X928520D01*
X927340Y1571440D01*
X920000D01*
G01X945870Y790870D02*
Y864130D01*
G01X962500Y1563560D02*
Y1555000D01*
G01Y1538560D02*
Y1532500D01*
G01Y1546440D02*
X976120D01*
X977180Y1547500D01*
X980000D01*
G01X962500Y1571440D02*
X976160D01*
X977180Y1572460D01*
X980000D01*
G01X983000Y915000D02*
Y958000D01*
X990000Y965000D01*
G01X995000Y958000D02*
X993000Y956000D01*
Y923000D01*
G01X1020000Y850000D02*
X1006400Y836400D01*
Y446350D01*
X1020420Y432330D01*
X1050800D01*
X1051500Y433030D01*
Y433730D01*
X1050230Y435000D01*
G01X1020000Y860000D02*
X1015830D01*
X1011500Y855670D01*
Y842920D01*
X1005400Y836820D01*
Y445930D01*
X1020010Y431320D01*
X1020830D01*
X1020840Y431330D01*
X1051220D01*
X1052500Y432610D01*
Y433730D01*
X1053770Y435000D01*
G01X1011000Y736000D02*
Y763500D01*
X1015000Y767500D01*
G01X1027500Y987500D02*
X1015000D01*
X1000000Y1002500D01*
Y1137500D01*
G01X1305000Y525000D02*
X1212500D01*
X1117500Y620000D01*
Y882500D01*
X1092500Y907500D01*
Y982500D01*
X1070000Y1005000D01*
X1012500D01*
G01X995000Y1285000D02*
Y1142500D01*
X1000000Y1137500D01*
G01X1025000Y1296000D02*
Y1302500D01*
X995000Y1332500D01*
Y1492500D01*
X1000000Y1497500D01*
Y1536060D01*
G01X1080000Y1115000D02*
X1037500Y1157500D01*
Y1362500D01*
X1035000Y1365000D01*
X1019390D01*
G01X1000000Y1543940D02*
X1013820D01*
X1017500Y1547620D01*
G01X1000000Y1563560D02*
Y1555000D01*
G01Y1571440D02*
X1014020D01*
X1014680Y1572100D01*
X1017500D01*
G01X1041060Y445000D02*
X1032500D01*
G01X1051060Y479680D02*
X1041380Y470000D01*
X1030000D01*
G01Y465000D02*
X1051060D01*
G01X1030000Y860000D02*
X1025000Y855000D01*
Y656080D01*
X1153080Y528000D01*
Y474350D01*
X1151810Y473080D01*
G01X1030000Y850000D02*
X1028380Y848380D01*
Y848370D01*
X1026000Y845990D01*
Y656500D01*
X1154080Y528420D01*
Y474350D01*
X1155350Y473080D01*
G01X1030460Y766460D02*
Y657040D01*
X1185000Y502500D01*
Y427500D01*
X1195500Y417000D01*
X1396000D01*
G01X1045000Y992500D02*
Y865000D01*
X1050000Y860000D01*
G01X1120000Y1080000D02*
X1125000Y1085000D01*
Y1125000D01*
X1112500Y1137500D01*
X1072500D01*
X1042500Y1167500D01*
G01D02*
Y1297500D01*
X1044750Y1299750D01*
Y1354750D01*
G01X1042500Y1157500D02*
Y1167500D01*
G01X1065000Y425000D02*
Y430010D01*
X1053450Y441560D01*
Y445000D01*
G01X1065000Y415000D02*
X1069950Y419950D01*
Y427560D01*
X1056790Y440720D01*
Y445000D01*
G01X1068940D02*
X1075000D01*
X1077500Y442500D01*
G01X1048940Y445000D02*
X1053450D01*
G01X1061060D02*
X1056790D01*
G01X1051060Y465000D02*
Y461440D01*
X1055000Y457500D01*
X1069300D01*
X1082500Y444300D01*
Y432510D01*
X1080050Y430060D01*
Y419950D01*
X1085000Y415000D01*
G01X1058940Y480000D02*
X1065000D01*
G01X1058940Y465000D02*
X1065000D01*
G01X1051060Y479680D02*
Y473940D01*
X1055000Y470000D01*
X1065000D01*
X1070000Y465000D01*
Y460000D01*
X1085000Y445000D01*
Y425000D01*
G01X1051060Y480000D02*
Y479680D01*
G01X1080000Y481000D02*
Y485000D01*
X1077500Y487500D01*
X1060000D01*
G01X1080000Y490000D02*
X1077810Y492190D01*
X1055810D01*
X1050000Y498000D01*
G01X1067500Y632500D02*
X1072500Y627500D01*
Y620000D01*
X1215650Y476850D01*
X1218560D01*
X1219350Y476060D01*
Y473150D01*
X1240000Y452500D01*
X1420000D01*
X1478300Y510800D01*
Y565190D01*
G01X1054270Y805000D02*
Y802940D01*
X1051730Y800400D01*
Y741340D01*
X1051450Y741060D01*
Y738940D01*
X1051730Y738660D01*
Y667190D01*
X1256420Y462500D01*
X1365000D01*
G01X1050730Y805000D02*
Y741760D01*
X1050450Y741480D01*
Y738520D01*
X1050730Y738240D01*
Y667610D01*
X1050720Y667600D01*
Y666780D01*
X1256000Y461500D01*
X1358500D01*
X1362500Y457500D01*
X1365000D01*
X1370000Y462500D01*
G01X1070000Y785000D02*
Y786270D01*
X1067500Y788770D01*
Y825000D01*
X1085000Y842500D01*
Y852500D01*
X1082500Y855000D01*
X1072320D01*
X1071820Y855500D01*
X1070700D01*
X1070000Y856200D01*
Y860000D01*
G01X1066460Y785000D02*
Y788730D01*
X1066500Y788770D01*
Y825420D01*
X1084000Y842920D01*
Y852080D01*
X1082080Y854000D01*
X1071900D01*
X1071400Y854500D01*
X1070700D01*
X1070000Y853800D01*
Y850000D01*
G01X1055000Y1415000D02*
Y1435000D01*
X1072500Y1452500D01*
X1105000D01*
X1132500Y1480000D01*
G01X1105000Y415000D02*
X1100000Y420000D01*
Y428110D01*
X1090000Y438110D01*
Y450000D01*
X1083000Y457000D01*
G01X1105000Y425000D02*
X1091420Y438580D01*
Y451080D01*
X1087500Y455000D01*
Y457500D01*
X1084000Y461000D01*
X1080000D01*
G01X1095000Y481060D02*
X1091440D01*
X1087500Y485000D01*
Y508890D01*
X1087450Y508940D01*
Y511060D01*
X1087500Y511110D01*
Y512500D01*
X1092500Y517500D01*
G01X1095000Y475000D02*
Y481060D01*
G01Y488940D02*
Y495000D01*
G01Y505000D02*
Y502500D01*
X1096460Y501040D01*
Y500980D01*
X1097880Y499560D01*
X1114560D01*
G01X1092500Y510000D02*
X1090000Y507500D01*
Y505000D01*
X1097070Y497930D01*
X1107070D01*
X1110000Y495000D01*
G01X1092500Y510000D02*
X1099510Y517010D01*
X1105490D01*
X1108940Y513560D01*
Y505000D01*
G01X1100000Y807500D02*
X1085000Y792500D01*
Y640000D01*
X1257500Y467500D01*
X1363890D01*
X1363940Y467550D01*
X1369260D01*
X1369310Y467500D01*
X1425000D01*
X1473300Y515800D01*
Y565190D01*
G01X1445000Y525000D02*
Y507500D01*
X1410000Y472500D01*
X1257500D01*
X1107500Y622500D01*
Y882500D01*
X1087000Y903000D01*
Y977000D01*
G01X1078560Y1228940D02*
X1082500Y1225000D01*
Y1167500D01*
X1092500Y1157500D01*
G01X1075000Y1221060D02*
Y1212500D01*
G01X1102500Y1241060D02*
X1098940D01*
X1095000Y1245000D01*
G01X1087500Y1241060D02*
Y1237700D01*
X1078740Y1228940D01*
X1078560D01*
G01X1075000D02*
X1078560D01*
G01X1087500Y1248940D02*
X1087700D01*
X1095000Y1256240D01*
Y1265000D01*
X1091060Y1268940D01*
G01X1087500Y1261060D02*
X1081060D01*
X1080000Y1260000D01*
G01X1091060Y1268940D02*
X1102500D01*
G01X1087500D02*
X1091060D01*
G01X1087500D02*
X1076060D01*
G01X1100000Y1396440D02*
X1103560D01*
X1107500Y1392500D01*
Y1387490D01*
X1102510Y1382500D01*
X1097500D01*
X1095000Y1380000D01*
Y1320000D01*
X1100000Y1315000D01*
G01X1076060Y1376440D02*
X1080000Y1372500D01*
Y1315000D01*
X1090000Y1305000D01*
G01X1072500Y1368560D02*
Y1360000D01*
G01X1085000Y1388560D02*
Y1385200D01*
X1076240Y1376440D01*
X1076060D01*
G01X1072500D02*
X1076060D01*
G01X1100000Y1388560D02*
X1096440D01*
X1092500Y1392500D01*
G01X1096440Y1416440D02*
X1095000Y1415000D01*
Y1410000D01*
X1085000Y1400000D01*
Y1396440D01*
G01Y1408560D02*
X1081060D01*
X1077500Y1405000D01*
G01X1085200Y1416440D02*
X1096440D01*
G01X1085000D02*
X1085200D01*
G01D02*
X1096260Y1427500D01*
X1137500D01*
X1138940Y1426060D01*
Y1422500D01*
G01X1085000Y1416440D02*
X1078940D01*
X1077500Y1415000D01*
G01X1101000Y470000D02*
X1105650D01*
X1110650Y465000D01*
X1121060D01*
G01X1101060Y512500D02*
Y505000D01*
G01X1121060D02*
X1117500D01*
X1114560Y502060D01*
Y499560D01*
G01X1131000Y474000D02*
X1133770Y476770D01*
Y514970D01*
X1119440Y529300D01*
X1109300D01*
X1105000Y525000D01*
G01X1135000Y472500D02*
X1135170Y472670D01*
Y515550D01*
X1120020Y530700D01*
X1109300D01*
X1105000Y535000D01*
G01X1107500Y980000D02*
Y1040630D01*
X1132500Y1065630D01*
Y1077500D01*
G01X1102500Y1167500D02*
X1097500Y1172500D01*
Y1230000D01*
X1102500Y1235000D01*
X1105010D01*
X1109510Y1239500D01*
Y1245490D01*
X1106060Y1248940D01*
X1102500D01*
G01Y1227500D02*
X1130000D01*
X1131440Y1228940D01*
X1135000D01*
G01X1102500Y1261060D02*
Y1248940D01*
G01X1141440Y1275000D02*
Y1278560D01*
X1136260Y1283740D01*
X1117500D01*
X1102700Y1268940D01*
X1102500D01*
G01X1133560Y1275000D02*
X1124060D01*
X1123060Y1276000D01*
X1121000D01*
G01X1100000Y1375000D02*
X1127500D01*
X1128940Y1376440D01*
X1132500D01*
G01X1100000Y1408560D02*
Y1396440D01*
G01X1119300Y1422500D02*
X1131060D01*
G01X1096440Y1416440D02*
X1100000D01*
G01X1128940Y465000D02*
Y453560D01*
X1137500Y445000D01*
G01X1125000Y480000D02*
Y475000D01*
G01X1130200Y480000D02*
Y484800D01*
G01X1128940Y512500D02*
Y505000D01*
G01X1150000Y724900D02*
X1149500D01*
X1144600Y720000D01*
X1142500D01*
G01D02*
X1140000Y722500D01*
Y724900D01*
G01X1142500Y737500D02*
X1140000Y735000D01*
Y730100D01*
G01X1138500Y943500D02*
X1151500D01*
X1165000Y930000D01*
G01X1140000Y1135000D02*
X1142500Y1137500D01*
X1205000D01*
X1210000Y1132500D01*
Y1117500D01*
G01X1130000Y1180000D02*
X1135000Y1185000D01*
Y1221060D01*
G01X1127500Y1327500D02*
X1132500Y1332500D01*
Y1368560D01*
G01X1165000Y1492500D02*
X1157500Y1485000D01*
X1127500D01*
G01X1172500Y737500D02*
X1170000D01*
X1165000Y732500D01*
X1157500D01*
X1156000Y731000D01*
Y670420D01*
X1187920Y638500D01*
X1210420D01*
X1223500Y625420D01*
Y620600D01*
X1226100Y618000D01*
X1226800D01*
X1227500Y618700D01*
Y622500D01*
G01X1157500Y737500D02*
X1155000Y735000D01*
Y670000D01*
X1187500Y637500D01*
X1210000D01*
X1222500Y625000D01*
Y620180D01*
X1225680Y617000D01*
X1226800D01*
X1227500Y616300D01*
Y612500D01*
G01X1150000Y730100D02*
Y737500D01*
G01X1165000Y776230D02*
X1167270D01*
X1167970Y776930D01*
Y795480D01*
X1182490Y810000D01*
X1186230D01*
X1187500Y808730D01*
G01X1165000Y779770D02*
X1166970Y781740D01*
Y795900D01*
X1182070Y811000D01*
X1186230D01*
X1187500Y812270D01*
G01X1185000Y922500D02*
Y882500D01*
X1152500Y850000D01*
G01X1261270Y767500D02*
X1260000Y766230D01*
Y757500D01*
X1212500Y710000D01*
X1196270D01*
X1195000Y708730D01*
G01X1257730Y767500D02*
X1259000Y766230D01*
Y757920D01*
X1212080Y711000D01*
X1196270D01*
X1195000Y712270D01*
G01X1186230Y795250D02*
X1187500Y796520D01*
Y797640D01*
X1209860Y820000D01*
X1244100D01*
X1291600Y772500D01*
X1448920D01*
X1456000Y765420D01*
Y736500D01*
X1465000Y727500D01*
X1515190D01*
X1530300Y712390D01*
Y711270D01*
X1531570Y710000D01*
G01X1189770Y795250D02*
X1188500Y796520D01*
Y797220D01*
X1210280Y819000D01*
X1243680D01*
X1291180Y771500D01*
X1448500D01*
X1455000Y765000D01*
Y736080D01*
X1464580Y726500D01*
X1514770D01*
X1529300Y711970D01*
Y711270D01*
X1528030Y710000D01*
G01X1178000Y896000D02*
Y917000D01*
G01X1197500Y1368560D02*
Y1360000D01*
G01X1201060Y1376440D02*
X1197500D01*
G01X1223220Y551380D02*
X1220720D01*
X1205720Y566380D01*
G01X1218220Y538880D02*
X1228220Y548880D01*
G01X1250000Y660000D02*
X1247500Y657500D01*
X1207500D01*
X1205000Y660000D01*
G01X1221060Y667500D02*
Y671060D01*
X1219620Y672500D01*
X1217500D01*
G01X1222600Y782500D02*
Y789900D01*
X1220000Y792500D01*
G01X1210000Y782500D02*
X1217400D01*
G01X1210000Y1117500D02*
X1212500Y1115000D01*
Y1062500D01*
X1207500Y1057500D01*
G01X1206060Y1228940D02*
X1210000Y1225000D01*
Y1167500D01*
X1220000Y1157500D01*
G01X1202500Y1221060D02*
Y1212500D01*
G01X1230000Y1241060D02*
X1223940D01*
X1222500Y1242500D01*
G01X1215000Y1241060D02*
Y1237700D01*
X1206240Y1228940D01*
X1206060D01*
G01X1202500D02*
X1206060D01*
G01X1226440Y1268940D02*
X1222500Y1265000D01*
Y1260000D01*
X1215000Y1252500D01*
Y1248940D01*
G01Y1261060D02*
X1208560D01*
G01X1226440Y1268940D02*
X1215200D01*
G01D02*
X1215000D01*
G01X1215200D02*
X1218520Y1272260D01*
G01D02*
X1221260Y1275000D01*
X1242500D01*
X1247500Y1280000D01*
X1267500D01*
X1268940Y1278560D01*
Y1275000D01*
G01X1215000Y1268940D02*
X1208560D01*
G01X1225000Y1315000D02*
X1220000Y1320000D01*
Y1377500D01*
X1225000Y1382500D01*
X1229990D01*
X1232500Y1385010D01*
Y1392500D01*
X1228560Y1396440D01*
X1225000D01*
G01X1215000Y1305000D02*
X1205000Y1315000D01*
Y1372500D01*
X1201060Y1376440D01*
G01X1210000Y1388560D02*
Y1385200D01*
X1201240Y1376440D01*
X1201060D01*
G01X1225000Y1388560D02*
X1221440D01*
X1217500Y1392500D01*
G01X1221440Y1416440D02*
X1217500Y1412500D01*
Y1403740D01*
X1210200Y1396440D01*
X1210000D01*
G01Y1408560D02*
X1203560D01*
X1202500Y1407500D01*
G01X1210000Y1416440D02*
X1210200D01*
G01X1207000Y1425000D02*
X1210000Y1422000D01*
Y1416440D01*
G01X1210200D02*
X1221260Y1427500D01*
X1262500D01*
X1263940Y1426060D01*
Y1422500D01*
G01X1221440Y1416440D02*
X1210200D01*
G01X1225000D02*
X1221440D01*
G01X1228220Y548880D02*
X1230720Y546380D01*
X1288220D01*
X1305720Y528880D01*
X1328220D01*
G01X1256060Y632500D02*
X1247500D01*
X1237500Y622500D01*
G01X1256060Y612500D02*
X1237500D01*
G01X1235000Y688000D02*
X1233540Y686540D01*
Y672300D01*
X1228940Y667700D01*
Y667500D01*
G01X1244610Y695390D02*
Y699610D01*
X1250000Y705000D01*
Y716000D01*
G01X1230000Y1248940D02*
X1233560D01*
X1237010Y1245490D01*
Y1237020D01*
X1234990Y1235000D01*
X1230000D01*
X1225000Y1230000D01*
Y1172500D01*
X1230000Y1167500D01*
G01Y1227500D02*
X1257500D01*
X1258940Y1228940D01*
X1262500D01*
G01X1230000Y1261060D02*
Y1248940D01*
G01X1226440Y1268940D02*
X1230000D01*
G01X1261060Y1275000D02*
X1251000D01*
X1249000Y1277000D01*
G01X1225000Y1375000D02*
X1252500D01*
X1253940Y1376440D01*
X1257500D01*
G01X1225000Y1408560D02*
Y1396440D01*
G01X1244240Y1422500D02*
X1256060D01*
G01X1280820Y506480D02*
Y503980D01*
X1278120Y501280D01*
X1273220D01*
G01D02*
X1268320D01*
G01X1273220Y513880D02*
Y506480D01*
G01X1258220Y586380D02*
X1290220Y554380D01*
X1313720D01*
G01X1263940Y612500D02*
Y618560D01*
X1262500Y620000D01*
G01X1263940Y632500D02*
Y626060D01*
X1267500Y622500D01*
G01X1257500Y1180000D02*
X1262500Y1185000D01*
Y1221060D01*
G01X1252500Y1327500D02*
X1257500Y1332500D01*
Y1368560D01*
G01X1300720Y541380D02*
X1307100Y535000D01*
X1339600D01*
X1343220Y531380D01*
G01X1333000Y579000D02*
Y563000D01*
X1324380Y554380D01*
X1313720D01*
G01X1307800Y655190D02*
X1360300D01*
G01X1330300Y680390D02*
X1325500D01*
X1325300Y680190D01*
G01X1330300Y805190D02*
X1325300Y810190D01*
X1307800D01*
X1305300Y807690D01*
Y797690D01*
G01X1317800Y869990D02*
Y862690D01*
G01X1327800Y869990D02*
X1317800D01*
G01Y875190D02*
Y880190D01*
G01X1338220Y511380D02*
Y503980D01*
G01X1328220D02*
X1328720D01*
X1336120Y511380D01*
X1338220D01*
G01Y498780D02*
Y491380D01*
G01X1328220D02*
Y498780D01*
G01X1330000Y540000D02*
X1352500D01*
X1372500Y520000D01*
G01X1355880Y578880D02*
X1354420Y580340D01*
X1340340D01*
X1338000Y578000D01*
G01X1330300Y680390D02*
Y687690D01*
G01Y675190D02*
X1335300D01*
G01X1330300Y665190D02*
Y675190D01*
G01X1362800Y679150D02*
X1368690D01*
X1370300Y680760D01*
Y699110D01*
X1348220Y721190D01*
X1339070D01*
X1337800Y722460D01*
G01X1362800Y682690D02*
X1367680D01*
X1369300Y684310D01*
Y698690D01*
X1347800Y720190D01*
X1339070D01*
X1337800Y718920D01*
G01X1365000Y744940D02*
X1344940D01*
X1340000Y740000D01*
G01X1330300Y797690D02*
Y805190D01*
G01X1335300Y820190D02*
Y810190D01*
G01D02*
X1352800D01*
X1355300Y807690D01*
Y797690D01*
G01X1335300Y810190D02*
X1330300Y805190D01*
G01X1347500Y830000D02*
X1332500D01*
X1327500Y825000D01*
G01X1327800Y875190D02*
Y880190D01*
G01X1333560Y1228940D02*
X1337500Y1225000D01*
Y1167500D01*
X1347500Y1157500D01*
G01X1330000Y1221060D02*
Y1212500D01*
G01X1357500Y1241060D02*
X1353940D01*
X1350000Y1245000D01*
G01X1342500Y1241060D02*
Y1237700D01*
X1333740Y1228940D01*
X1333560D01*
G01X1330000D02*
X1333560D01*
G01X1353940Y1268940D02*
X1349770Y1264770D01*
Y1261210D01*
X1342500Y1253940D01*
Y1248940D01*
G01Y1261060D02*
X1333940D01*
X1332500Y1262500D01*
G01X1353940Y1268940D02*
X1342700D01*
G01D02*
X1353760Y1280000D01*
X1395000D01*
X1396440Y1278560D01*
Y1275000D01*
G01X1342500Y1268940D02*
X1342700D01*
G01X1342500D02*
X1333940D01*
X1332500Y1267500D01*
G01X1355000Y1315000D02*
X1350000Y1320000D01*
Y1377500D01*
X1355000Y1382500D01*
X1359990D01*
X1362500Y1385010D01*
Y1392500D01*
X1358560Y1396440D01*
X1355000D01*
G01X1331060Y1376440D02*
X1335000Y1372500D01*
Y1315000D01*
X1345000Y1305000D01*
G01X1327500Y1368560D02*
Y1360000D01*
G01X1340000Y1388560D02*
Y1385200D01*
X1331240Y1376440D01*
X1331060D01*
G01X1327500D02*
X1331060D01*
G01X1355000Y1388560D02*
X1351440D01*
X1347500Y1392500D01*
G01X1351440Y1416440D02*
X1347500Y1412500D01*
Y1400380D01*
X1343560Y1396440D01*
X1340000D01*
G01Y1408560D02*
X1336440D01*
X1332500Y1404620D01*
Y1402500D01*
G01X1340200Y1416440D02*
X1351440D01*
G01X1340000D02*
X1340200D01*
G01X1340000Y1422500D02*
Y1416440D01*
G01X1340200D02*
X1351260Y1427500D01*
X1392500D01*
X1393940Y1426060D01*
Y1422500D01*
G01X1365000Y737060D02*
X1357940D01*
G01X1357500Y1167500D02*
X1352500Y1172500D01*
Y1232500D01*
X1355000Y1235000D01*
X1360350D01*
X1365000Y1239650D01*
Y1245000D01*
X1361060Y1248940D01*
X1357500D01*
G01Y1227500D02*
X1385000D01*
X1386440Y1228940D01*
X1390000D01*
G01X1357500Y1261060D02*
Y1248940D01*
G01Y1268940D02*
X1353940D01*
G01X1388560Y1275000D02*
X1378000D01*
X1376000Y1277000D01*
G01X1355000Y1375000D02*
X1382500D01*
X1383940Y1376440D01*
X1387500D01*
G01X1355000Y1408560D02*
Y1396440D01*
G01X1374000Y1424000D02*
X1376060D01*
X1377560Y1422500D01*
X1386060D01*
G01X1351440Y1416440D02*
X1355000D01*
G01X1395000Y552500D02*
X1402500D01*
X1437500Y587500D01*
X1475000D01*
X1477500Y590000D01*
Y615000D01*
X1482800Y620300D01*
Y642690D01*
G01X1382800Y710190D02*
X1377800Y705190D01*
Y697690D01*
X1387800Y687690D01*
Y650190D01*
X1402800Y635190D01*
G01X1382800Y700190D02*
X1390000Y692990D01*
Y682990D01*
X1400300Y672690D01*
Y662690D01*
X1415300Y647690D01*
Y632690D01*
G01X1470300Y595190D02*
X1402800Y662690D01*
Y672690D01*
X1395300Y680190D01*
Y685190D01*
G01D02*
Y713930D01*
X1389240Y719990D01*
Y720190D01*
G01X1381360D02*
Y723750D01*
X1382800Y725190D01*
X1385300D01*
X1390300Y730190D01*
G01X1395300Y805190D02*
X1405300D01*
G01X1395300Y797690D02*
Y805190D01*
G01Y810390D02*
Y817690D01*
G01X1385000Y1180000D02*
X1390000Y1185000D01*
Y1221060D01*
G01X1382500Y1327500D02*
X1387500Y1332500D01*
Y1368560D01*
G01X1412800Y607890D02*
Y630190D01*
G01X1402700Y607790D02*
X1410090D01*
X1410190Y607890D01*
X1412800D01*
G01Y602690D02*
Y597690D01*
G01X1402800D02*
Y600380D01*
X1402700Y600480D01*
Y602590D01*
G01X1425300Y647690D02*
Y655190D01*
X1412800Y667690D01*
G01X1402800Y677690D02*
X1407600D01*
G01X1412800Y682690D02*
Y677690D01*
G01X1425300Y671250D02*
X1418860D01*
X1417800Y670190D01*
G01X1425300Y679130D02*
Y687690D01*
G01D02*
X1432100D01*
X1432800Y686990D01*
Y647690D01*
X1437800Y642690D01*
X1482800D01*
G01X1435300Y748750D02*
Y745190D01*
X1433300Y743190D01*
X1421940D01*
X1420670Y744460D01*
G01Y740920D02*
X1421940Y742190D01*
X1433350D01*
X1435300Y740240D01*
Y734130D01*
G01X1405300Y810390D02*
Y815190D01*
G01X1467500Y525000D02*
Y530990D01*
X1448300Y550190D01*
Y562690D01*
G01X1437800Y655190D02*
X1462800D01*
X1470300Y662690D01*
Y665190D01*
G01X1455300Y679130D02*
X1443860D01*
X1440300Y682690D01*
G01X1447500Y717500D02*
X1445000D01*
X1440300Y712800D01*
Y695190D01*
G01D02*
X1445300D01*
X1446360Y696250D01*
X1455300D01*
G01X1435300Y726250D02*
Y717690D01*
G01Y756630D02*
Y762690D01*
G01X1445000Y1495000D02*
X1453760D01*
X1468560Y1480200D01*
Y1480000D01*
G01X1477800Y687690D02*
X1487500D01*
X1489800Y685390D01*
X1490300D01*
G01X1455300Y671250D02*
X1459240D01*
X1462800Y667690D01*
G01X1465300Y688050D02*
X1469420D01*
X1481360Y699990D01*
Y700190D01*
G01X1465300Y672690D02*
X1469060D01*
X1481360Y660390D01*
Y660190D01*
G01X1455300Y704130D02*
Y717690D01*
G01X1461060Y1231440D02*
X1465000Y1227500D01*
Y1170000D01*
X1475000Y1160000D01*
G01X1457500Y1214000D02*
Y1223560D01*
G01X1485000Y1243560D02*
X1481440D01*
X1477500Y1247500D01*
G01X1470000Y1243560D02*
Y1240200D01*
X1461240Y1231440D01*
X1461060D01*
G01X1457500D02*
X1461060D01*
G01X1470000Y1263560D02*
X1463560D01*
X1462500Y1262500D01*
G01X1470200Y1271440D02*
X1481260Y1282500D01*
X1522500D01*
X1523940Y1281060D01*
Y1277500D01*
G01X1470000Y1271440D02*
X1470200D01*
G01D02*
X1481440D01*
G01D02*
X1475000Y1265000D01*
Y1256240D01*
X1470200Y1251440D01*
X1470000D01*
G01Y1271440D02*
X1463560D01*
G01X1482500Y1315000D02*
X1477500Y1320000D01*
Y1377500D01*
X1482500Y1382500D01*
X1487490D01*
X1490000Y1385010D01*
Y1392500D01*
X1486060Y1396440D01*
X1482500D01*
G01X1458560Y1376440D02*
X1462500Y1372500D01*
Y1315000D01*
X1472500Y1305000D01*
G01X1455000Y1368560D02*
Y1360000D01*
G01Y1376440D02*
X1458560D01*
G01X1467500Y1388560D02*
Y1385200D01*
X1458740Y1376440D01*
X1458560D01*
G01X1482500Y1388560D02*
X1478940D01*
X1475000Y1392500D01*
G01X1478940Y1416440D02*
X1475000Y1412500D01*
Y1407500D01*
X1467500Y1400000D01*
Y1396440D01*
G01Y1408560D02*
X1463940D01*
X1460000Y1404620D01*
Y1402500D01*
G01X1467500Y1416440D02*
X1467700D01*
G01D02*
X1478760Y1427500D01*
X1520000D01*
X1521440Y1426060D01*
Y1422500D01*
G01X1478940Y1416440D02*
X1467700D01*
G01X1460000Y1420000D02*
X1463740D01*
X1467300Y1416440D01*
X1467500D01*
G01X1486000Y1463000D02*
Y1470240D01*
X1476440Y1479800D01*
Y1480000D01*
G01X1492600Y610190D02*
Y603000D01*
X1492800Y602800D01*
Y600190D01*
G01X1492600Y610190D02*
X1485300D01*
G01X1497800D02*
X1505300D01*
G01Y600190D02*
X1498000D01*
G01X1489240Y660190D02*
Y653750D01*
X1490300Y652690D01*
G01X1501360Y660190D02*
X1497800D01*
X1480300Y677690D01*
G01X1500000Y680000D02*
X1495000D01*
X1494810Y680190D01*
X1490300D01*
G01X1489240Y700190D02*
Y707440D01*
X1491800Y710000D01*
G01X1487800Y757690D02*
Y752690D01*
G01X1493000Y757690D02*
Y762490D01*
X1492800Y762690D01*
X1495300Y765190D01*
Y767690D01*
G01X1527800Y751630D02*
X1511360D01*
X1510300Y752690D01*
X1497800D01*
G01X1485000Y1170000D02*
X1480000Y1175000D01*
Y1230000D01*
X1492010Y1242010D01*
Y1247990D01*
X1488560Y1251440D01*
X1485000D01*
G01Y1230000D02*
X1512500D01*
X1513940Y1231440D01*
X1517500D01*
G01X1485000Y1263560D02*
Y1251440D01*
G01X1481440Y1271440D02*
X1485000D01*
G01X1516060Y1277500D02*
X1505500D01*
X1504000Y1279000D01*
G01X1482500Y1375000D02*
X1510000D01*
X1511440Y1376440D01*
X1515000D01*
G01X1482500Y1408560D02*
Y1396440D01*
G01X1502000Y1423000D02*
X1504500D01*
X1505000Y1422500D01*
X1513560D01*
G01X1482500Y1416440D02*
X1478940D01*
G01X1509240Y660190D02*
X1517800D01*
G01X1527800Y743750D02*
Y735190D01*
G01X1512500Y1185000D02*
X1517500Y1190000D01*
Y1223560D01*
G01X1510000Y1327500D02*
X1515000Y1332500D01*
Y1368560D01*
M02*
