G04 ================== begin FILE IDENTIFICATION RECORD ==================*
G04 Layout Name:  TubiiPCB_V6.brd*
G04 Film Name:    VCC_test*
G04 File Format:  Gerber RS274X*
G04 File Origin:  Cadence Allegro 16.6-P004*
G04 Origin Date:  Wed May 20 16:21:30 2015*
G04 *
G04 Layer:  ETCH/VCC*
G04 Layer:  PIN/VCC*
G04 Layer:  VIA CLASS/VCC*
G04 *
G04 Offset:    (0.0 0.0)*
G04 Mirror:    No*
G04 Mode:      Positive*
G04 Rotation:  0*
G04 FullContactRelief:  No*
G04 UndefLineWidth:     0.0*
G04 ================== end FILE IDENTIFICATION RECORD ====================*
%FSLAX55Y55*MOIN*%
%IR0*IPPOS*OFA0.00000B0.00000*MIA0B0*SFA1.00000B1.00000*%
%ADD15C,.15*%
%ADD16C,.109*%
%ADD17C,.03*%
%ADD18C,.04*%
%ADD10C,.05*%
%ADD12C,.024*%
%ADD20C,.07*%
%ADD11C,.055*%
%ADD14C,.065*%
%ADD13C,.0354*%
%ADD19R,.055X.055*%
%ADD21C,.007*%
%ADD31C,.1664*%
%ADD32R,.2002X.2002*%
%ADD27R,.4002X.4002*%
%ADD39R,.28X.23*%
%ADD25R,.5002X.7002*%
%ADD23R,.7002X.6002*%
%ADD33R,.2502X.2502*%
%ADD24R,.2502X.9002*%
%ADD28C,.0404*%
%ADD36C,.0504*%
%ADD29C,.0344*%
%ADD26R,.2502X.8502*%
%ADD38C,.0804*%
%ADD34C,.0644*%
%ADD22C,.0654*%
%ADD40C,.0754*%
%ADD35C,.0494*%
%ADD30C,.0458*%
%ADD37R,.0652X.0652*%
G75*
%LPD*%
G75*
G36*
G01X370000Y1610000D02*
X420000D01*
X440000Y1590000D01*
Y1579990D01*
X1599990D01*
Y280000D01*
X1600000Y279990D01*
Y260000D01*
X80000D01*
Y279990D01*
X80010Y280000D01*
Y1579990D01*
X350000D01*
Y1590000D01*
X370000Y1610000D01*
G37*
%LPC*%
G75*
G36*
G01X1531700Y1429070D02*
Y1406070D01*
X1503700D01*
Y1420960D01*
G03X1503090Y1421300I-400J0D01*
G02Y1424700I-1090J1700D01*
G03X1503700Y1425040I210J340D01*
G01Y1429070D01*
X1531700D01*
G37*
G36*
G01X1149000Y1429000D02*
Y1406000D01*
X1121000D01*
Y1420460D01*
G03X1120390Y1420800I-400J0D01*
G02Y1424200I-1090J1700D01*
G03X1121000Y1424540I210J340D01*
G01Y1429000D01*
X1149000D01*
G37*
G36*
G01X1403820Y1428850D02*
Y1405850D01*
X1375820D01*
Y1422040D01*
G03X1375190Y1422360I-398J-3D01*
G02Y1425640I-1190J1640D01*
G03X1375820Y1425960I232J323D01*
G01Y1428850D01*
X1403820D01*
G37*
G36*
G01X1273940D02*
Y1405850D01*
X1245940D01*
Y1420460D01*
G03X1245330Y1420800I-400J0D01*
G02Y1424200I-1090J1700D01*
G03X1245940Y1424540I210J340D01*
G01Y1428850D01*
X1273940D01*
G37*
G36*
G01X318890Y878880D02*
G03X319470I290J270D01*
G02Y876120I1480J-1380D01*
G03X318890I-290J-270D01*
G02Y878880I-1480J1380D01*
G37*
G36*
G01X345290Y863020D02*
G03X344710I-290J-270D01*
G02Y865780I-1480J1380D01*
G03X345290I290J270D01*
G02Y863020I1480J-1380D01*
G37*
G36*
G01X1188880Y810790D02*
G03Y810210I270J-290D01*
G02X1186120I-1380J-1480D01*
G03Y810790I-270J290D01*
G02X1188880I1380J1480D01*
G37*
G36*
G01X1052790Y803620D02*
G03X1052210I-290J-270D01*
G02Y806380I-1480J1380D01*
G03X1052790I290J270D01*
G02Y803620I1480J-1380D01*
G37*
G36*
G01X1188290Y793870D02*
G03X1187710I-290J-270D01*
G02Y796630I-1480J1380D01*
G03X1188290I290J270D01*
G02Y793870I1480J-1380D01*
G37*
G36*
G01X1068520Y783620D02*
G03X1067940I-290J-270D01*
G02Y786380I-1480J1380D01*
G03X1068520I290J270D01*
G02Y783620I1480J-1380D01*
G37*
G36*
G01X1166380Y778290D02*
G03Y777710I270J-290D01*
G02X1163620I-1380J-1480D01*
G03Y778290I-270J290D01*
G02X1166380I1380J1480D01*
G37*
G36*
G01X1259790Y766120D02*
G03X1259210I-290J-270D01*
G02Y768880I-1480J1380D01*
G03X1259790I290J270D01*
G02Y766120I1480J-1380D01*
G37*
G36*
G01X1422050Y742980D02*
G03Y742400I270J-290D01*
G02X1419290I-1380J-1480D01*
G03Y742980I-270J290D01*
G02X1422050I1380J1480D01*
G37*
G36*
G01X1339180Y720980D02*
G03Y720400I270J-290D01*
G02X1336420I-1380J-1480D01*
G03Y720980I-270J290D01*
G02X1339180I1380J1480D01*
G37*
G36*
G01X1530090Y708620D02*
G03X1529510I-290J-270D01*
G02Y711380I-1480J1380D01*
G03X1530090I290J270D01*
G02Y708620I1480J-1380D01*
G37*
G36*
G01X1196380Y710790D02*
G03Y710210I270J-290D01*
G02X1193620I-1380J-1480D01*
G03Y710790I-270J290D01*
G02X1196380I1380J1480D01*
G37*
G36*
G01X1332290Y706120D02*
G03X1331710I-290J-270D01*
G02Y708880I-1480J1380D01*
G03X1332290I290J270D01*
G02Y706120I1480J-1380D01*
G37*
G36*
G01X1207290Y678620D02*
G03X1206710I-290J-270D01*
G02Y681380I-1480J1380D01*
G03X1207290I290J270D01*
G02Y678620I1480J-1380D01*
G37*
G36*
G01X1364180Y681210D02*
G03Y680630I270J-290D01*
G02X1361420I-1380J-1480D01*
G03Y681210I-270J290D01*
G02X1364180I1380J1480D01*
G37*
G36*
G01X1415230Y630670D02*
G03X1414820Y630260I-11J-399D01*
G02X1412870Y632210I-2020J-70D01*
G03X1413280Y632620I11J399D01*
G02X1415230Y630670I2020J70D01*
G37*
G36*
G01X1153870Y471700D02*
G03X1153290I-290J-270D01*
G02Y474460I-1480J1380D01*
G03X1153870I290J270D01*
G02Y471700I1480J-1380D01*
G37*
G36*
G01X1366230Y465680D02*
G03X1365650I-290J-270D01*
G02Y468440I-1480J1380D01*
G03X1366230I290J270D01*
G02Y465680I1480J-1380D01*
G37*
G36*
G01X1055400Y443540D02*
G03X1054840I-280J-291D01*
G02Y446460I-1390J1460D01*
G03X1055400I280J291D01*
G02Y443540I1390J-1460D01*
G37*
G36*
G01X1052290Y433620D02*
G03X1051710I-290J-270D01*
G02Y436380I-1480J1380D01*
G03X1052290I290J270D01*
G02Y433620I1480J-1380D01*
G37*
G36*
G01X1534130Y1261200D02*
X1506130D01*
Y1277310D01*
G03X1505440Y1277590I-401J1D01*
G02Y1280410I-1440J1410D01*
G03X1506130Y1280690I289J279D01*
G01Y1284200D01*
X1534130D01*
Y1261200D01*
G37*
G36*
G01X1406240Y1258460D02*
X1378240D01*
Y1275430D01*
G03X1377540Y1275690I-399J-2D01*
G02Y1278310I-1540J1310D01*
G03X1378240Y1278570I301J262D01*
G01Y1281460D01*
X1406240D01*
Y1258460D01*
G37*
G36*
G01X1279100D02*
X1251100D01*
Y1275280D01*
G03X1250420Y1275560I-399J-3D01*
G02Y1278440I-1420J1440D01*
G03X1251100Y1278720I281J283D01*
G01Y1281460D01*
X1279100D01*
Y1258460D01*
G37*
G36*
G01X1096520Y505270D02*
G02X1094910Y504800I-290J-2000D01*
G03X1094710Y505500I-257J305D01*
G02X1096320Y505970I290J2000D01*
G03X1096520Y505270I257J-305D01*
G37*
G36*
G01X1133660Y474010D02*
G02X1133000Y472240I1342J-1508D01*
G03X1132340Y472490I-398J-53D01*
G02X1133000Y474260I-1342J1508D01*
G03X1133660Y474010I398J53D01*
G37*
G54D31*
X214950Y489700D03*
X292550Y489900D03*
G54D32*
X236250Y673750D03*
X396250D03*
G54D27*
X105000Y305000D03*
Y781500D03*
Y1135000D03*
Y1555000D03*
X565000Y305000D03*
Y1555000D03*
X1125000Y305000D03*
Y1555000D03*
X1575000Y305000D03*
Y715000D03*
Y1135000D03*
Y1555000D03*
G54D39*
X1144940Y1324740D03*
X1137420Y1270110D03*
X1147550Y1177500D03*
X1270150Y1324780D03*
X1275110Y1177600D03*
X1402660Y1177500D03*
X1400150Y1325310D03*
X1527510Y1325100D03*
X1529830Y1179930D03*
G54D25*
X292500Y412500D03*
G54D23*
X225000Y415000D03*
G54D33*
X500000Y870000D03*
Y1103000D03*
X1245000Y870000D03*
Y1106000D03*
G54D24*
X240000Y325000D03*
X297500D03*
X335000D03*
G54D28*
X95000Y1055000D03*
X110000Y1060000D03*
X115000Y1050000D03*
X105000Y1197500D03*
X115000Y1200000D03*
X105000Y1287500D03*
X120000Y1290000D03*
X127500Y1310000D03*
X115000Y1375000D03*
X150000Y832500D03*
X152500Y877500D03*
Y1037500D03*
X130000Y1022500D03*
Y1055000D03*
X145000D03*
Y1082500D03*
X135000Y1187500D03*
X140000Y1227500D03*
X142400Y1257600D03*
X145000Y1300000D03*
X140000Y1305000D03*
X152500Y1365000D03*
X132500Y1375000D03*
X170000Y455000D03*
X172500Y912500D03*
Y919640D03*
X160000Y942500D03*
Y920000D03*
X170000Y997500D03*
X165000Y1067500D03*
X170000Y1157500D03*
X160000Y1235000D03*
X157500Y1275000D03*
X172500Y1297500D03*
X165000D03*
X167500Y1365000D03*
X180100Y1455100D03*
Y1449900D03*
X167500Y1455000D03*
X177500Y1437500D03*
X195000Y870000D03*
X187000Y893000D03*
X190000Y915000D03*
Y897500D03*
X205000Y912500D03*
X200000Y930000D03*
Y947500D03*
X190000Y967500D03*
X205000Y950000D03*
X185000D03*
X190000Y982500D03*
X200000Y1017500D03*
Y1002500D03*
X202500Y997500D03*
X205000Y1020000D03*
X190000Y1037500D03*
Y1052500D03*
X200000Y1072500D03*
X185000Y1052500D03*
X200000Y1090000D03*
X205000Y1107500D03*
X192500Y1187500D03*
X185000Y1217500D03*
X197500Y1232500D03*
X192500Y1245000D03*
X185000Y1362500D03*
Y1407500D03*
X205000Y1440000D03*
X187500Y1445000D03*
X192500Y1450000D03*
X217500Y827500D03*
X225000Y882500D03*
X220000Y917500D03*
X227500Y940000D03*
X220000Y965000D03*
X230000Y952500D03*
X210000Y957500D03*
X222500Y987500D03*
X230000Y1020000D03*
X225000Y997500D03*
X215000Y1025000D03*
X225000Y1067500D03*
X207500Y1212500D03*
X217500Y1290000D03*
Y1277500D03*
X227500Y1322500D03*
Y1310000D03*
X215000Y1375000D03*
X227500Y1392500D03*
X217500Y1395000D03*
X207500Y1425000D03*
X222500Y1412500D03*
X230000Y1442500D03*
X217500Y1437500D03*
X210000Y1445000D03*
X227500Y1435000D03*
X253560Y473560D03*
X250000Y723000D03*
X242500Y855000D03*
X237000Y879000D03*
X255000Y907500D03*
X240000Y922500D03*
X247500Y975000D03*
Y983250D03*
X252500Y1002500D03*
X241440Y998940D03*
X247500Y1077500D03*
X245000Y1117500D03*
X232500Y1370000D03*
X255000Y1435000D03*
X270000Y723000D03*
X276000Y727000D03*
X257500Y787500D03*
X263000Y777000D03*
X275000Y860000D03*
X270000Y892500D03*
X277500Y907500D03*
X278560Y933560D03*
X262500Y947500D03*
X272500Y952500D03*
X277500Y992500D03*
X262500Y980000D03*
X277500Y1010000D03*
X265000Y1017500D03*
X262500Y1010000D03*
Y1032500D03*
X257500Y1035000D03*
X267500Y1070000D03*
X272500D03*
X270000Y1055000D03*
X272500Y1117500D03*
X257500D03*
X270000Y1347500D03*
X260000Y1370000D03*
X270000Y1397500D03*
X305000Y610000D03*
X302500Y827500D03*
X305000Y847500D03*
X295000Y855000D03*
X300000Y870000D03*
X285000Y892500D03*
X305000Y907500D03*
Y897500D03*
X290000D03*
X285000Y930000D03*
X307500Y975000D03*
X287500D03*
X292500Y1122500D03*
X300000Y1115000D03*
X285000Y1425000D03*
X325000Y600000D03*
X312500Y757500D03*
X325000Y760000D03*
X327500Y797500D03*
X322500Y822500D03*
X332500D03*
X325000Y905000D03*
X327500Y937500D03*
X317500D03*
X322500Y982500D03*
X317500Y980000D03*
X327500Y1040000D03*
X312500Y1072500D03*
X327500Y1105000D03*
X320000Y1187500D03*
X312500Y1330000D03*
X330000Y1445000D03*
X355000Y810000D03*
X337500Y837500D03*
X342990Y887990D03*
X357500Y880000D03*
X350000Y905000D03*
X342500Y925000D03*
X337500Y927500D03*
X357500Y967500D03*
X337500D03*
Y982500D03*
X357500Y972500D03*
X342400Y1094900D03*
X347500Y1075000D03*
X335000Y1112500D03*
X352500Y1295000D03*
X335000Y1307500D03*
X352500D03*
X350000Y1340000D03*
X355000Y1387500D03*
X340000Y1425000D03*
X337500Y1460000D03*
X381000Y435000D03*
X374000Y480000D03*
X363000D03*
X382500Y850000D03*
Y892500D03*
X374500Y873000D03*
X362500Y895000D03*
X377500Y930000D03*
X360000Y937500D03*
X373940Y947500D03*
X372500Y972500D03*
X380000Y1032500D03*
X372500Y1212500D03*
X382500D03*
X372500Y1240000D03*
X382500D03*
Y1287500D03*
X377500Y1350000D03*
X362500D03*
X365000Y1340000D03*
X375000Y1330000D03*
X360000Y1375000D03*
X380000Y1372500D03*
X375000Y1377500D03*
Y1426000D03*
X370000Y1430000D03*
Y1447500D03*
X381000Y1436000D03*
X395000Y460000D03*
X396000Y442500D03*
X395000Y480000D03*
Y862500D03*
X385000Y905000D03*
X395000Y920000D03*
X393000Y968000D03*
X402500Y960000D03*
X385000Y995000D03*
X407500Y1290000D03*
X389500Y1323000D03*
X395000Y1335000D03*
Y1330000D03*
X405000Y1362500D03*
Y1392500D03*
X387500Y1382500D03*
X397500Y1450000D03*
X387500Y1460000D03*
X431060Y436560D03*
X412000Y760000D03*
X417500Y905000D03*
X427500Y1162500D03*
X412500Y1292500D03*
Y1345000D03*
X415000Y1362500D03*
X432500Y1417500D03*
X438940Y436560D03*
Y487440D03*
X460000Y770000D03*
X450000Y815000D03*
X440000Y910000D03*
X450000Y915000D03*
X442500Y1362500D03*
X457500Y1405000D03*
X477500Y815000D03*
X484000D03*
X510060Y489940D03*
X511000Y502000D03*
X499790Y535150D03*
X515000Y450000D03*
X531000Y480000D03*
X535000Y725000D03*
X525000Y737500D03*
X530000Y732500D03*
X517500Y742500D03*
X525000Y810000D03*
X520000D03*
X530000D03*
X527500Y1092500D03*
X537500Y445000D03*
X544620Y467460D03*
X562630D03*
X547500Y477500D03*
X548920Y462460D03*
X537500Y810000D03*
Y922500D03*
X547500Y1150000D03*
X542500Y1202500D03*
X550250Y1382750D03*
X560000Y1389000D03*
X542500Y1405000D03*
X562500Y1445000D03*
X582500Y450000D03*
X587500Y445000D03*
X572120Y438070D03*
X569060Y485000D03*
X580000Y466000D03*
X567370Y477460D03*
X587500Y495000D03*
X565000Y737500D03*
X582500D03*
X587500Y862500D03*
Y847500D03*
X567500Y867500D03*
X582500Y845000D03*
X572500Y902500D03*
X587500Y950000D03*
X585000Y970000D03*
X582500Y1150000D03*
X587500Y1352500D03*
X580000Y1395000D03*
X565000Y1389000D03*
X572500Y1465000D03*
X607370Y451060D03*
X599000Y481000D03*
X597510Y466570D03*
X595000Y476000D03*
X605000Y740000D03*
X590000Y737500D03*
X597500D03*
X602500Y842500D03*
X610000D03*
X597500Y882500D03*
Y897500D03*
X604900Y942400D03*
X595000Y955000D03*
X597500Y992500D03*
X607500Y1145000D03*
X595000Y1150000D03*
X612500Y1285000D03*
X597500Y1322500D03*
Y1312500D03*
Y1317500D03*
X612500Y1352500D03*
X630000Y433000D03*
Y482500D03*
X627500Y500000D03*
X617500Y920000D03*
X637500Y937500D03*
Y932500D03*
X617500Y1310000D03*
X633000Y1352000D03*
X615000Y1402500D03*
X657500Y445000D03*
Y937500D03*
Y925000D03*
X645000Y920000D03*
X642500Y1145000D03*
X655000D03*
Y1245000D03*
Y1252500D03*
Y1297500D03*
X640000D03*
Y1322500D03*
X660000Y1327500D03*
X645000D03*
X640000Y1307500D03*
X647500Y1320000D03*
X645000Y1352500D03*
X640000Y1350000D03*
X657500Y1370000D03*
X650000Y1402500D03*
X645000Y1382500D03*
X655000Y1442500D03*
X682000Y480000D03*
X675000Y910000D03*
X682500Y915000D03*
X667500Y955000D03*
Y972500D03*
X680000Y1180000D03*
X680050Y1235050D03*
X665000Y1312500D03*
X670000Y1327500D03*
X685000Y1302500D03*
X682500Y1322500D03*
X672500Y1317500D03*
Y1307500D03*
X685000Y1367500D03*
X670000Y1365000D03*
X665000Y1367500D03*
Y1402500D03*
Y1382500D03*
X672500Y1435000D03*
X714000Y766000D03*
Y756000D03*
X713000Y747000D03*
X715000Y776000D03*
X707500Y937500D03*
X695000Y1272500D03*
Y1300000D03*
X720000Y407500D03*
X735000Y452500D03*
X720000Y649000D03*
Y687000D03*
Y665000D03*
X719000Y678000D03*
X720000Y672000D03*
X722000Y696000D03*
Y737000D03*
X718000Y728000D03*
X717000Y718000D03*
X717500Y740000D03*
X732500Y1022500D03*
X737500Y1332500D03*
X745000Y690000D03*
X747500Y670000D03*
Y680000D03*
Y685000D03*
Y665000D03*
X745000Y695000D03*
Y702500D03*
X746000Y718000D03*
X742500Y742500D03*
X745000Y880000D03*
X760000Y1405000D03*
X772500Y405000D03*
X787500Y455000D03*
X768000Y644000D03*
X772000Y665000D03*
X768000Y676000D03*
X769000Y687000D03*
X778000Y675000D03*
X768000Y696000D03*
X779000Y709000D03*
X769000Y737000D03*
Y728000D03*
X768000Y766000D03*
X769000Y756000D03*
Y747000D03*
X768000Y777000D03*
X787890Y1402500D03*
X770000Y1390000D03*
X805000Y458000D03*
X810000Y490000D03*
X801060Y500060D03*
X817500Y522860D03*
X805000Y530000D03*
X811000Y560000D03*
X815000Y893000D03*
X807500Y1045000D03*
Y1105000D03*
X802500Y1135000D03*
X815000Y1130000D03*
X805000Y1152500D03*
X817500Y1160000D03*
X795000Y1300000D03*
Y1315000D03*
X805000Y1350000D03*
Y1335000D03*
X792500Y1367500D03*
Y1395000D03*
X810000Y1402500D03*
X805000Y1395000D03*
X842000Y374000D03*
X832500Y435000D03*
X840000Y425000D03*
X825000Y427500D03*
X830610Y446630D03*
X832700Y440200D03*
X838560Y481000D03*
X830000Y525000D03*
X840000Y852500D03*
X842500Y1127500D03*
X822500Y1150000D03*
X840000Y1400000D03*
X843940Y391060D03*
X847300Y440200D03*
X847500Y517500D03*
X865000D03*
X850000Y715000D03*
X846000Y853000D03*
X860000Y885000D03*
X865000Y892500D03*
X855000Y897500D03*
X860000Y1045000D03*
X852500Y1140000D03*
X857500Y1142500D03*
X860000Y1147500D03*
X855000Y1152500D03*
X882500Y440000D03*
X880000Y493000D03*
Y515000D03*
X872000Y560000D03*
X888000Y684000D03*
X893500Y728000D03*
Y737500D03*
X893000Y746500D03*
X892500Y756500D03*
X880000Y892500D03*
X887500Y882500D03*
X870000Y900000D03*
X875000Y895000D03*
X892500Y1122500D03*
X887500Y1140000D03*
Y1145000D03*
X882500Y1132500D03*
X887500Y1150000D03*
Y1155000D03*
X870000Y1160000D03*
X907500Y440000D03*
X895000D03*
X907560Y486000D03*
X915000Y522500D03*
X907500Y514000D03*
X897000Y560000D03*
X895000Y645000D03*
Y652500D03*
Y671000D03*
X898000Y677000D03*
X895000Y696500D03*
X897420Y716380D03*
X895500Y765500D03*
X897000Y778000D03*
Y882000D03*
X917500Y992500D03*
Y1122500D03*
X907500Y1160000D03*
X917500D03*
X933560Y377440D03*
X941440Y393440D03*
X940000Y432500D03*
X942500Y425000D03*
X935000Y442500D03*
X927500Y444890D03*
X935200Y437300D03*
X936440Y480440D03*
X930000Y525000D03*
X945000Y662500D03*
Y677500D03*
Y687500D03*
X943000Y696500D03*
X942500Y717500D03*
X943000Y727500D03*
X944500Y765500D03*
Y756000D03*
Y747000D03*
X943000Y776500D03*
X920000Y1478000D03*
Y1557500D03*
X947500Y435000D03*
X950000Y471000D03*
X947500Y515000D03*
X962500D03*
X963000Y560000D03*
X947500Y647500D03*
X953000Y677000D03*
X960000Y900000D03*
X970000D03*
Y932500D03*
X947500Y1272500D03*
X956000Y1285000D03*
X962500Y1532500D03*
X982500Y440000D03*
X972500Y489000D03*
Y513000D03*
Y672500D03*
X975000Y950000D03*
X995000Y1285000D03*
X1019800Y486800D03*
X1012500Y1005000D03*
X1000000Y1137500D03*
X1002500Y1255000D03*
X1019390Y1365000D03*
X1005000Y1430000D03*
X1000000Y1452500D03*
Y1555000D03*
X1032500Y445000D03*
X1025000Y485000D03*
X1030000Y470000D03*
Y465000D03*
X1027500Y987500D03*
X1045000Y992500D03*
X1042500Y1130000D03*
Y1157500D03*
X1030000Y1272000D03*
X1027500Y1257500D03*
X1025000Y1302500D03*
X1044750Y1354750D03*
X1042500Y1495000D03*
X1027500D03*
X1060000Y473000D03*
X1065000Y480000D03*
Y465000D03*
X1060000Y487500D03*
X1050000Y498000D03*
X1067500Y632500D03*
Y625000D03*
X1070000Y1030000D03*
X1072500Y1040000D03*
X1047500Y1285000D03*
X1057500Y1340000D03*
X1072500Y1360000D03*
X1070000Y1422500D03*
X1055000Y1415000D03*
X1077500Y442500D03*
X1080000Y461000D03*
X1083000Y457000D03*
X1080000Y481000D03*
X1095000Y475000D03*
Y495000D03*
X1080000Y490000D03*
X1092500Y517500D03*
X1087000Y977000D03*
X1077500Y1045000D03*
X1090250Y1072750D03*
X1082500Y1050000D03*
X1097020Y1117980D03*
X1080000Y1115000D03*
X1075000Y1212500D03*
X1095000Y1245000D03*
X1087000Y1278000D03*
X1092500Y1392500D03*
X1120000Y449000D03*
X1101000Y470000D03*
X1114560Y499560D03*
X1110000Y495000D03*
X1101060Y512500D03*
X1100000Y807500D03*
X1107500Y980000D03*
X1120000Y1080000D03*
X1121000Y1276000D03*
X1102500Y1290000D03*
X1120000Y1512500D03*
X1137500Y445000D03*
X1125000Y475000D03*
X1130200Y484800D03*
X1128940Y512500D03*
X1138560Y686060D03*
X1142500Y700000D03*
Y720000D03*
Y900000D03*
X1132500Y935000D03*
X1137500Y945000D03*
X1132500Y1077500D03*
X1140000Y1135000D03*
X1145630Y1152500D03*
X1137690Y1152000D03*
X1144000Y1221000D03*
X1146000Y1249000D03*
X1131190Y1242000D03*
X1147500Y1295000D03*
X1142500Y1290000D03*
X1129000Y1309000D03*
X1141000Y1366000D03*
X1141690Y1397500D03*
X1128190Y1389000D03*
X1140000Y1451000D03*
X1142500Y1440000D03*
X1132500Y1480000D03*
X1127500Y1485000D03*
X1165000Y452500D03*
Y497500D03*
X1166060Y668560D03*
X1162500Y685000D03*
X1150000Y737500D03*
X1172500D03*
X1157500D03*
X1152500Y755000D03*
X1167500Y767500D03*
X1166000Y808000D03*
X1152500Y850000D03*
X1162500Y940000D03*
X1160000Y1085000D03*
X1150000Y1132500D03*
X1162000Y1197000D03*
X1169000Y1178000D03*
X1160000Y1260000D03*
X1159500Y1271000D03*
X1168000Y1286440D03*
X1161000Y1341000D03*
X1157500Y1407500D03*
X1163000Y1413000D03*
X1153000Y1432000D03*
X1150000Y1470000D03*
X1165000Y1492500D03*
X1182500Y602500D03*
Y622500D03*
X1177500Y662500D03*
X1179000Y669000D03*
X1182500Y735000D03*
X1197500Y722500D03*
X1192500Y780000D03*
X1183000Y823000D03*
X1177500Y885000D03*
X1190000Y917500D03*
X1185000Y922500D03*
X1177500D03*
X1184900Y964900D03*
X1197500Y970000D03*
X1182500Y1260000D03*
X1177000Y1327000D03*
X1197500Y1360000D03*
X1180000Y1409060D03*
X1200000Y1421000D03*
X1195000Y1425000D03*
X1223220Y551380D03*
X1203220Y548880D03*
X1218220Y538880D03*
X1210820Y581280D03*
X1205720Y566380D03*
X1205620Y581280D03*
X1205000Y660000D03*
X1220000Y675000D03*
X1225000Y695000D03*
Y707500D03*
X1210000Y782500D03*
X1220000Y812500D03*
Y792500D03*
X1212500Y920000D03*
X1220000Y975000D03*
X1210000Y1117500D03*
X1202500Y1212500D03*
X1222500Y1242500D03*
X1215000Y1278000D03*
X1217500Y1392500D03*
X1207000Y1425000D03*
X1229000Y441000D03*
X1228220Y548880D03*
X1250000Y660000D03*
X1230000Y712500D03*
X1242500Y692500D03*
X1250000Y715000D03*
X1240000Y930000D03*
X1232500Y957500D03*
X1250000Y1296000D03*
X1250250Y1390000D03*
X1274000Y404000D03*
X1263120Y411280D03*
X1268320Y501280D03*
X1273220Y513880D03*
X1260000Y540000D03*
X1258220Y586380D03*
X1262500Y620000D03*
X1267500Y622500D03*
X1274900Y667400D03*
Y672600D03*
X1267500Y692500D03*
Y720000D03*
X1270000Y1150000D03*
X1264000D03*
X1271000Y1221060D03*
X1255250Y1245000D03*
X1271000Y1252000D03*
X1270000Y1292500D03*
X1259690Y1299000D03*
X1267000Y1363000D03*
X1266690Y1397500D03*
X1267500Y1437500D03*
Y1432500D03*
X1290000Y417500D03*
X1280820Y506480D03*
X1295000Y497860D03*
X1287500Y540000D03*
X1300720Y541380D03*
X1297280Y581280D03*
X1284280Y579940D03*
X1282500Y570000D03*
X1300000Y590000D03*
X1278220Y606380D03*
X1284000Y637000D03*
X1292190Y635190D03*
X1278220Y621380D03*
X1287800Y655200D03*
X1292800Y727690D03*
Y732690D03*
X1285300Y760190D03*
Y745190D03*
X1292800Y932800D03*
X1298000Y1180000D03*
X1297000Y1201000D03*
X1287500Y1260000D03*
X1290000Y1271000D03*
Y1292500D03*
X1277000Y1305000D03*
X1290000Y1347500D03*
X1302000Y1334560D03*
X1282500Y1407500D03*
X1286000Y1418000D03*
X1290000Y1439000D03*
X1305000Y525000D03*
X1313720Y554380D03*
X1315720Y626380D03*
X1307800Y655190D03*
X1325300Y680190D03*
X1315300Y830190D03*
X1327500Y825000D03*
X1317800Y847690D03*
Y862690D03*
X1320300Y917690D03*
X1310300D03*
X1302800Y965190D03*
X1310000Y1260000D03*
X1327500Y1360000D03*
X1305000Y1407000D03*
X1346000Y477000D03*
X1328220Y476380D03*
X1338220Y511380D03*
X1328220Y491380D03*
X1338220Y526380D03*
X1343220Y531380D03*
X1328220Y528880D03*
X1330000Y540000D03*
X1333000Y579000D03*
X1338000Y578000D03*
X1335720Y623880D03*
X1330300Y687690D03*
Y665190D03*
X1335300Y675190D03*
Y820190D03*
X1347500Y830000D03*
X1327800Y880190D03*
Y897690D03*
X1330000Y1212500D03*
X1350000Y1245000D03*
X1342000Y1278000D03*
X1350000Y1294000D03*
X1347500Y1392500D03*
X1329000Y1419000D03*
X1340000Y1422500D03*
X1373220Y403880D03*
X1372500Y520000D03*
X1355880Y563880D03*
Y578880D03*
X1370300Y662300D03*
X1360300Y655190D03*
X1370300Y707690D03*
X1375300Y732690D03*
Y740080D03*
X1362800Y725190D03*
X1365300Y765190D03*
Y777690D03*
X1375300Y850190D03*
X1355300Y845190D03*
X1377000Y1250000D03*
X1374190Y1399000D03*
X1393000Y476000D03*
X1390940Y463060D03*
X1399000Y509000D03*
X1395000Y552500D03*
X1402800Y580190D03*
Y597690D03*
Y635190D03*
X1380300Y677690D03*
X1402800D03*
X1395300Y685190D03*
X1400300Y712690D03*
X1382800Y710190D03*
Y700190D03*
X1390300Y730190D03*
X1395300Y782690D03*
Y797690D03*
X1400750Y1150000D03*
X1392750D03*
X1401000Y1221060D03*
X1400000Y1250000D03*
X1402500Y1290000D03*
X1390250Y1299000D03*
X1392500Y1365000D03*
X1397190Y1396000D03*
X1395000Y1447500D03*
Y1432500D03*
X1406000Y464000D03*
X1410000Y510000D03*
X1417000Y535000D03*
X1408160Y630190D03*
X1428860Y629140D03*
X1425300Y647690D03*
X1412800Y682690D03*
X1417800Y670190D03*
X1412800Y667690D03*
X1425300Y687690D03*
X1410300Y707690D03*
X1405300Y815190D03*
Y832690D03*
X1422800Y902690D03*
X1420000Y1195000D03*
X1427000Y1179000D03*
X1415000Y1260000D03*
Y1270000D03*
X1422000Y1286000D03*
X1405690Y1306000D03*
X1420000Y1326000D03*
X1412500Y1342500D03*
Y1407500D03*
X1418000Y1419000D03*
X1405000Y1437500D03*
X1445000Y525000D03*
X1448300Y562690D03*
X1437800Y655190D03*
X1440300Y682690D03*
X1445300Y702690D03*
X1440300Y695190D03*
X1435300Y717690D03*
X1447500Y717500D03*
X1435300Y762690D03*
X1437500Y1260000D03*
X1455000Y1360000D03*
X1435000Y1405000D03*
X1447500Y1437500D03*
X1445000Y1495000D03*
X1467500Y525000D03*
X1478300Y565190D03*
X1473300D03*
X1470300Y610190D03*
Y595190D03*
X1455300Y627500D03*
X1462800Y660190D03*
X1477800Y687690D03*
X1465300Y680190D03*
X1462800Y667690D03*
X1470300Y665190D03*
X1480300Y677690D03*
X1465300Y688050D03*
Y672690D03*
X1455300Y717690D03*
X1457500Y1214000D03*
X1477500Y1247500D03*
X1465000Y1281000D03*
X1475000Y1287500D03*
Y1392500D03*
X1467000Y1426000D03*
X1495800Y527690D03*
X1485300Y610190D03*
X1505300Y600190D03*
X1490300Y652690D03*
X1482800Y642690D03*
X1500000Y680000D03*
X1491800Y710000D03*
X1485300Y732690D03*
X1487800Y752690D03*
X1497800D03*
X1495300Y767690D03*
Y782690D03*
X1520300Y600190D03*
X1517800Y660190D03*
X1527800Y735190D03*
Y782690D03*
X1509000Y1155000D03*
X1530000D03*
X1527500Y1227500D03*
X1511000Y1248000D03*
X1529000Y1252000D03*
X1529210Y1295160D03*
X1511000Y1305000D03*
X1522500Y1367500D03*
X1524690Y1397500D03*
X1512690Y1390000D03*
X1553000Y1181000D03*
X1556000Y1202000D03*
X1542500Y1262500D03*
X1542000Y1273000D03*
X1542500Y1295000D03*
X1537000Y1305000D03*
X1552500Y1325000D03*
X1547500Y1347500D03*
X1540000Y1407500D03*
X1547500Y1427500D03*
X1545000Y1442500D03*
X1565000Y1260000D03*
X1562500Y1408000D03*
X1227500Y1520000D03*
G54D36*
X1092500Y1157500D03*
Y1167500D03*
Y1217500D03*
Y1227500D03*
X1090000Y1305000D03*
Y1315000D03*
Y1365000D03*
Y1375000D03*
X1102500Y1157500D03*
Y1167500D03*
Y1217500D03*
Y1227500D03*
X1100000Y1305000D03*
Y1315000D03*
Y1365000D03*
Y1375000D03*
X1220000Y1157500D03*
Y1167500D03*
Y1217500D03*
Y1227500D03*
X1225000Y1305000D03*
Y1315000D03*
X1215000Y1305000D03*
Y1315000D03*
X1225000Y1365000D03*
Y1375000D03*
X1215000Y1365000D03*
Y1375000D03*
X1230000Y1157500D03*
Y1167500D03*
Y1217500D03*
Y1227500D03*
X1347500Y1157500D03*
Y1167500D03*
Y1217500D03*
Y1227500D03*
X1345000Y1305000D03*
Y1315000D03*
Y1365000D03*
Y1375000D03*
X1357500Y1157500D03*
Y1167500D03*
Y1217500D03*
Y1227500D03*
X1355000Y1305000D03*
Y1315000D03*
Y1365000D03*
Y1375000D03*
X1475000Y1160000D03*
Y1170000D03*
Y1220000D03*
Y1230000D03*
X1472500Y1305000D03*
Y1315000D03*
Y1365000D03*
Y1375000D03*
X1485000Y1160000D03*
Y1170000D03*
Y1220000D03*
Y1230000D03*
X1482500Y1305000D03*
Y1315000D03*
Y1365000D03*
Y1375000D03*
G54D29*
X125000Y1300000D03*
X115000D03*
Y1365000D03*
X145000Y1192500D03*
X150000Y1187500D03*
X147500Y1237500D03*
X147600Y1267600D03*
X152500Y1262500D03*
X147500Y1310000D03*
X132500Y1365000D03*
X166000Y1284000D03*
X172500Y1310000D03*
X207500Y1187500D03*
Y1227500D03*
X227500Y1290000D03*
Y1277500D03*
X307500Y737500D03*
X312500D03*
X315000Y855000D03*
X317500Y1025000D03*
X340000Y460000D03*
Y440000D03*
Y480000D03*
X351560Y540440D03*
X357500Y982500D03*
X347600Y1094900D03*
X372500Y982500D03*
X360000Y1447500D03*
Y1430000D03*
X387500Y1072500D03*
X427500Y1397500D03*
X430000Y1575000D03*
Y1560000D03*
X499790Y585150D03*
X510250Y1137750D03*
X527500Y1097500D03*
X522940Y1154060D03*
X517060Y1175060D03*
X557500Y502500D03*
X542500Y1385000D03*
X554700Y1445000D03*
X587060Y1118060D03*
X585000Y1412500D03*
X572500Y1445000D03*
X598000Y495000D03*
X597500Y862500D03*
Y847500D03*
X594800Y1144800D03*
X603000Y1170000D03*
X602500Y1182500D03*
X602000Y1205000D03*
X639000Y509000D03*
X654800Y1139800D03*
X667500Y937500D03*
Y925000D03*
X678000Y1168000D03*
Y1193000D03*
Y1205000D03*
X672500Y1420000D03*
X715000Y407500D03*
X719000Y707000D03*
X767500Y405000D03*
X777500Y637500D03*
X775000Y645000D03*
X769000Y708000D03*
X782500Y1310000D03*
X802500Y730000D03*
X817500D03*
X805000Y883000D03*
Y1300000D03*
Y1315000D03*
X820000Y650000D03*
X832500Y730000D03*
X835000Y842500D03*
X837500Y847500D03*
X832500Y1155000D03*
X830100Y1394900D03*
X847500Y522500D03*
X860000Y1050000D03*
X855000Y1102500D03*
X847500Y1155000D03*
X870000Y520000D03*
X891000Y706500D03*
X883000Y1113000D03*
X869000Y1155000D03*
X941500Y709000D03*
X947500Y525000D03*
X962500D03*
Y1555000D03*
X1057400Y1347400D03*
X1070000Y1432500D03*
X1092500Y1172500D03*
X1090000Y1320000D03*
X1095000Y1500000D03*
X1117500Y1085000D03*
X1104900Y1129900D03*
X1142500Y737500D03*
Y755000D03*
X1167500Y915000D03*
X1157500Y900000D03*
X1160000Y1132500D03*
X1150000Y1477500D03*
X1197500Y942500D03*
X1185000Y970000D03*
X1220000Y1172500D03*
X1215000Y1320000D03*
X1300720Y341380D03*
X1292800Y940190D03*
X1308220Y491380D03*
X1317800Y880190D03*
Y897690D03*
X1320300Y990190D03*
X1338220Y476380D03*
Y491380D03*
X1347500Y1172500D03*
X1345000Y1320000D03*
X1395300Y817690D03*
X1385300Y842690D03*
X1395300Y832690D03*
X1412800Y577690D03*
Y597690D03*
X1422690Y825190D03*
X1453300Y525190D03*
X1475000Y1175000D03*
X1472500Y1320000D03*
X1495800Y532690D03*
X1505300Y580000D03*
Y610190D03*
X1520300D03*
G54D26*
X395000Y322500D03*
G54D38*
X1323420Y361180D03*
Y341580D03*
X1343020Y361180D03*
Y341580D03*
G54D34*
X745000Y623150D03*
X920000D03*
G54D22*
X1307500Y1462500D03*
X1323500D03*
X1331500D03*
X1339500D03*
X1347500D03*
X1220000D03*
X1236000D03*
X1244000D03*
X1252000D03*
X1260000D03*
X1470000Y1463000D03*
X1486000D03*
X1494000D03*
X1502000D03*
X1510000D03*
X100000Y507500D03*
Y517500D03*
X97700Y1024300D03*
X100000Y1250000D03*
Y1240000D03*
X127400Y925000D03*
Y935000D03*
X127700Y963100D03*
Y953200D03*
Y999400D03*
Y1009500D03*
X178100Y785200D03*
X172500Y817500D03*
X182500D03*
X172500Y827500D03*
X182500D03*
X175800Y1102300D03*
X189300Y785200D03*
X192500Y817500D03*
Y827500D03*
X199900Y847500D03*
X194950Y1102550D03*
X191500Y1549000D03*
X201500D03*
X191500Y1561500D03*
X201500D03*
X191500Y1574000D03*
X201500D03*
X223000Y787700D03*
X220000Y870000D03*
X229950Y1100050D03*
X245550Y532550D03*
X234200Y787700D03*
X240000Y817500D03*
X250000D03*
X240000Y827500D03*
X250000D03*
X249950Y922550D03*
X279800Y301740D03*
X260200D03*
X266050Y532550D03*
X281250Y678750D03*
X271250D03*
X281250Y668750D03*
X271250D03*
X260000Y817500D03*
Y827500D03*
X269800Y1309800D03*
X301250Y678750D03*
X291250D03*
X301250Y668750D03*
X291250D03*
X299800Y1027800D03*
Y1039000D03*
X294950Y1102550D03*
X335000Y395000D03*
X331250Y678750D03*
X321250D03*
X311250D03*
X331250Y668750D03*
X321250D03*
X311250D03*
X317450Y992550D03*
X322500Y1532500D03*
X332500Y1532400D03*
Y1557500D03*
X322500D03*
X322400Y1545100D03*
X332600Y1544900D03*
X322500Y1570000D03*
X332500D03*
X355200Y301740D03*
X348560Y502550D03*
X361250Y678750D03*
X351250D03*
X341250D03*
X361250Y668750D03*
X351250D03*
X341250D03*
X374800Y301740D03*
X365000Y785000D03*
X382500Y1220000D03*
X372500D03*
X362500D03*
X382500Y1230000D03*
X372500D03*
X362500D03*
X395000Y395000D03*
X388940Y502550D03*
X402500Y1220000D03*
X392500D03*
X402500Y1230000D03*
X392500D03*
X390000Y1539000D03*
X400000Y1569000D03*
X390000Y1589000D03*
X436160Y300000D03*
X431060Y502550D03*
X412300Y886600D03*
Y987900D03*
X455840Y300000D03*
X450000Y355000D03*
Y395000D03*
X452290Y607650D03*
X476000Y547000D03*
X486000Y577000D03*
X476000Y597000D03*
X477500Y1564900D03*
X477600Y1575000D03*
X465000Y1565000D03*
Y1575000D03*
X490100Y1564900D03*
Y1574900D03*
X577370Y412460D03*
X587370D03*
X577370Y422460D03*
X587370D03*
Y532460D03*
X577370D03*
X567370D03*
X587370Y522460D03*
X577370D03*
X567370D03*
X597370Y412460D03*
X607370D03*
X597370Y422460D03*
X607370D03*
Y532460D03*
X597370D03*
X607370Y522460D03*
X597370D03*
X610100Y1533750D03*
X609950Y1556500D03*
X610100Y1545050D03*
X609950Y1570200D03*
X637000Y296000D03*
X617370Y412460D03*
Y422460D03*
X620200Y1533750D03*
Y1545050D03*
Y1556150D03*
X620000Y1570100D03*
X647000Y296000D03*
X647300Y1572400D03*
X657100Y1572300D03*
X682700Y1562450D03*
Y1573550D03*
X672600Y1562450D03*
Y1573300D03*
X717700Y1551450D03*
X707600D03*
X717700Y1562650D03*
Y1572350D03*
X707600Y1562650D03*
X707300Y1572900D03*
X737600Y1560600D03*
Y1571700D03*
X747700Y1560600D03*
Y1571700D03*
X778750Y331250D03*
X788750D03*
X778750Y341250D03*
X788750D03*
X790000Y1047500D03*
Y1062500D03*
X782500Y1170000D03*
X785000Y1270000D03*
X775000D03*
X774000Y1557300D03*
X785400Y1557200D03*
X773200Y1572300D03*
X784600Y1572200D03*
X798750Y331250D03*
X808750D03*
X818750D03*
X798750Y341250D03*
X808750D03*
X818750D03*
X820000Y1170000D03*
X807500D03*
X795000D03*
X815000Y1270000D03*
X805000D03*
X795000D03*
X819100Y1557300D03*
X818900Y1572300D03*
X828750Y331250D03*
X838750D03*
X828750Y341250D03*
X838750D03*
X845000Y1170000D03*
X832500D03*
X845000Y1270000D03*
X835000D03*
X825000D03*
X830500Y1557200D03*
X830300Y1572200D03*
X848750Y331250D03*
X858750D03*
X868750D03*
X848750Y341250D03*
X858750D03*
X868750D03*
X870000Y1170000D03*
X857500D03*
X865000Y1270000D03*
X855000D03*
X878750Y331250D03*
X888750D03*
X878750Y341250D03*
X888750D03*
X895000Y1270000D03*
X885000D03*
X875000D03*
X898750Y331250D03*
X908750D03*
X918750D03*
X898750Y341250D03*
X908750D03*
X918750D03*
X915000Y1270000D03*
X905000D03*
X928750Y331250D03*
Y341250D03*
X925000Y1270000D03*
X1020000Y860000D03*
Y850000D03*
X1040000Y860000D03*
Y850000D03*
X1030000Y860000D03*
Y850000D03*
X1065000Y415000D03*
Y425000D03*
Y535000D03*
Y525000D03*
X1070000Y860000D03*
Y850000D03*
X1060000Y860000D03*
Y850000D03*
X1050000Y860000D03*
Y850000D03*
X1062200Y1562700D03*
X1052200D03*
X1062300Y1573700D03*
X1052300D03*
X1075000Y415000D03*
X1085000D03*
X1095000D03*
X1075000Y425000D03*
X1085000D03*
X1095000D03*
Y535000D03*
X1085000D03*
X1075000D03*
X1095000Y525000D03*
X1085000D03*
X1075000D03*
X1105000Y415000D03*
Y425000D03*
Y535000D03*
Y525000D03*
X1160000Y1214000D03*
X1157500Y1361500D03*
X1195000Y433500D03*
Y472500D03*
X1182500Y1250000D03*
X1180000Y1397500D03*
X1187500Y1552500D03*
X1197600Y1552400D03*
X1187500Y1565000D03*
X1197500D03*
X1215000Y433500D03*
Y472500D03*
X1227500Y612500D03*
X1217500D03*
X1227500Y622500D03*
X1217500D03*
X1225000Y1540000D03*
Y1552500D03*
Y1565000D03*
X1237500Y612500D03*
Y622500D03*
X1235000Y1552500D03*
X1235100Y1539900D03*
Y1564900D03*
X1255000Y1555000D03*
X1265000D03*
X1255100Y1565100D03*
X1265100D03*
X1292160Y568930D03*
X1292800Y787690D03*
Y797690D03*
X1287500Y1214000D03*
X1282500Y1361500D03*
X1295000Y1527500D03*
X1284900Y1527600D03*
X1295000Y1540000D03*
X1285000Y1552500D03*
Y1540000D03*
X1295000Y1552500D03*
Y1565000D03*
X1285000D03*
X1325000Y295000D03*
X1305300Y787690D03*
X1317800D03*
X1305300Y797690D03*
X1317800D03*
X1310000Y1250000D03*
X1305000Y1397500D03*
X1335000Y295000D03*
X1330300Y787690D03*
X1342800D03*
X1355300D03*
X1330300Y797690D03*
X1342800D03*
X1355300D03*
X1372500Y1530000D03*
Y1542500D03*
Y1555000D03*
Y1567500D03*
X1382600Y1529900D03*
X1402500Y1542500D03*
Y1555000D03*
X1382600Y1554900D03*
Y1542400D03*
Y1567400D03*
X1402500Y1567500D03*
X1415000Y1214000D03*
X1412500Y1361500D03*
X1412600Y1555000D03*
Y1542400D03*
X1412500Y1567500D03*
X1437500Y1250000D03*
X1435000Y1396000D03*
X1452500Y1527500D03*
Y1517500D03*
Y1547500D03*
Y1537500D03*
X1452400Y1557600D03*
Y1567600D03*
X1462600Y1527400D03*
Y1517400D03*
X1462500Y1557500D03*
X1462600Y1547400D03*
Y1537400D03*
X1462500Y1567500D03*
X1505000D03*
X1494900Y1567600D03*
X1532500Y1557500D03*
X1522500Y1547500D03*
X1532500D03*
X1522400Y1557600D03*
X1532500Y1567500D03*
X1522400Y1567600D03*
X1542500Y1216500D03*
X1540000Y1361500D03*
X1580000Y492500D03*
Y502500D03*
X1575000Y1187500D03*
Y1177500D03*
X1565000Y1252500D03*
X1562500Y1397500D03*
X1432000Y1463000D03*
X1424000D03*
X1416000D03*
X1408000D03*
X1392000D03*
G54D35*
X745000Y816850D03*
X920000D03*
G54D30*
X159000Y1539280D03*
Y1549120D03*
Y1561780D03*
Y1571620D03*
X241500Y1564280D03*
Y1574120D03*
X280000Y1540160D03*
Y1550000D03*
Y1574600D03*
Y1564760D03*
X862500Y1517660D03*
Y1527500D03*
Y1542780D03*
Y1552620D03*
Y1565280D03*
Y1575120D03*
X897800Y1542850D03*
Y1552690D03*
X897500Y1574720D03*
Y1564880D03*
X940300Y1517780D03*
Y1527620D03*
Y1549810D03*
Y1539970D03*
X940000Y1562780D03*
Y1572620D03*
X980000Y1537660D03*
Y1547500D03*
Y1572460D03*
Y1562620D03*
X1017500Y1537780D03*
Y1547620D03*
Y1572100D03*
Y1562260D03*
G54D37*
X1160000Y1250000D03*
X1157500Y1397500D03*
X1182500Y1214000D03*
X1180000Y1361500D03*
X1287500Y1250000D03*
X1282500Y1397500D03*
X1310000Y1214000D03*
X1305000Y1361500D03*
X1415000Y1250000D03*
X1412500Y1397500D03*
X1437500Y1214000D03*
X1435000Y1360000D03*
X1542500Y1252500D03*
X1540000Y1397500D03*
X1565000Y1216500D03*
X1562500Y1361500D03*
%LPD*%
G75*
G36*
G01X257500Y442500D02*
Y387500D01*
X192500D01*
Y442500D01*
X257500D01*
G37*
G36*
G01X230000Y367500D02*
X250000D01*
Y282500D01*
X230000D01*
Y367500D01*
G37*
G36*
G01X270000Y380000D02*
Y445000D01*
X315000D01*
Y380000D01*
X270000D01*
G37*
G36*
G01X307500Y367500D02*
Y282500D01*
X287500D01*
Y367500D01*
X307500D01*
G37*
G36*
G01X325000Y282500D02*
Y367500D01*
X345000D01*
Y282500D01*
X325000D01*
G37*
G36*
G01X385000Y362500D02*
X405000D01*
Y282500D01*
X385000D01*
Y362500D01*
G37*
%LPC*%
G75*
G54D22*
X240000Y395000D03*
X240500Y301740D03*
X240000Y355000D03*
X297500Y395000D03*
X299500Y301740D03*
X297500Y355000D03*
X335500Y301740D03*
X335000Y355000D03*
X394500Y301740D03*
X395000Y355000D03*
G54D40*
X204950Y432200D03*
X214950D03*
X224950D03*
X282550Y432400D03*
X302550D03*
X292550D03*
%LPD*%
G75*
G54D10*
X105000Y305000D03*
Y781500D03*
Y1135000D03*
Y1555000D03*
X500000Y870000D03*
Y1103000D03*
X565000Y305000D03*
Y1555000D03*
X1125000Y305000D03*
Y1555000D03*
X1245000Y870000D03*
Y1106000D03*
X1575000Y305000D03*
Y715000D03*
Y1135000D03*
Y1555000D03*
G54D11*
X100000Y507500D03*
Y517500D03*
X97700Y1024300D03*
X100000Y1250000D03*
Y1240000D03*
X127400Y925000D03*
Y935000D03*
X127700Y963100D03*
Y953200D03*
Y999400D03*
Y1009500D03*
X178100Y785200D03*
X172500Y817500D03*
X182500D03*
X172500Y827500D03*
X182500D03*
X175800Y1102300D03*
X189300Y785200D03*
X192500Y817500D03*
Y827500D03*
X199900Y847500D03*
X194950Y1102550D03*
X191500Y1549000D03*
X201500D03*
X191500Y1561500D03*
X201500D03*
X191500Y1574000D03*
X201500D03*
X223000Y787700D03*
X220000Y870000D03*
X229950Y1100050D03*
X240500Y301740D03*
X240000Y355000D03*
Y395000D03*
X245550Y532550D03*
X234200Y787700D03*
X240000Y817500D03*
X250000D03*
X240000Y827500D03*
X250000D03*
X249950Y922550D03*
X279800Y301740D03*
X260200D03*
X266050Y532550D03*
X281250Y678750D03*
X271250D03*
X281250Y668750D03*
X271250D03*
X260000Y817500D03*
Y827500D03*
X269800Y1309800D03*
X299500Y301740D03*
X297500Y355000D03*
Y395000D03*
X301250Y678750D03*
X291250D03*
X301250Y668750D03*
X291250D03*
X299800Y1027800D03*
Y1039000D03*
X294950Y1102550D03*
X335500Y301740D03*
X335000Y355000D03*
Y395000D03*
X331250Y678750D03*
X321250D03*
X311250D03*
X331250Y668750D03*
X321250D03*
X311250D03*
X317450Y992550D03*
X322500Y1532500D03*
X332500Y1532400D03*
Y1557500D03*
X322500D03*
X322400Y1545100D03*
X332600Y1544900D03*
X322500Y1570000D03*
X332500D03*
X355200Y301740D03*
X348560Y502550D03*
X361250Y678750D03*
X351250D03*
X341250D03*
X361250Y668750D03*
X351250D03*
X341250D03*
X374800Y301740D03*
X365000Y785000D03*
X382500Y1220000D03*
X372500D03*
X362500D03*
X382500Y1230000D03*
X372500D03*
X362500D03*
X394500Y301740D03*
X395000Y355000D03*
Y395000D03*
X388940Y502550D03*
X402500Y1220000D03*
X392500D03*
X402500Y1230000D03*
X392500D03*
X390000Y1539000D03*
X400000Y1569000D03*
X390000Y1589000D03*
X436160Y300000D03*
X431060Y502550D03*
X412300Y886600D03*
Y987900D03*
X455840Y300000D03*
X450000Y355000D03*
Y395000D03*
X452290Y607650D03*
X476000Y547000D03*
X486000Y577000D03*
X476000Y597000D03*
X477500Y1564900D03*
X477600Y1575000D03*
X465000Y1565000D03*
Y1575000D03*
X490100Y1564900D03*
Y1574900D03*
X577370Y412460D03*
X587370D03*
X577370Y422460D03*
X587370D03*
Y532460D03*
X577370D03*
X567370D03*
X587370Y522460D03*
X577370D03*
X567370D03*
X597370Y412460D03*
X607370D03*
X597370Y422460D03*
X607370D03*
Y532460D03*
X597370D03*
X607370Y522460D03*
X597370D03*
X610100Y1533750D03*
X609950Y1556500D03*
X610100Y1545050D03*
X609950Y1570200D03*
X637000Y296000D03*
X617370Y412460D03*
Y422460D03*
X620200Y1533750D03*
Y1545050D03*
Y1556150D03*
X620000Y1570100D03*
X647000Y296000D03*
X647300Y1572400D03*
X657100Y1572300D03*
X682700Y1562450D03*
Y1573550D03*
X672600Y1562450D03*
Y1573300D03*
X717700Y1551450D03*
X707600D03*
X717700Y1562650D03*
Y1572350D03*
X707600Y1562650D03*
X707300Y1572900D03*
X737600Y1560600D03*
Y1571700D03*
X747700Y1560600D03*
Y1571700D03*
X778750Y331250D03*
X788750D03*
X778750Y341250D03*
X788750D03*
X790000Y1047500D03*
Y1062500D03*
X782500Y1170000D03*
X785000Y1270000D03*
X775000D03*
X774000Y1557300D03*
X785400Y1557200D03*
X773200Y1572300D03*
X784600Y1572200D03*
X798750Y331250D03*
X808750D03*
X818750D03*
X798750Y341250D03*
X808750D03*
X818750D03*
X820000Y1170000D03*
X807500D03*
X795000D03*
X815000Y1270000D03*
X805000D03*
X795000D03*
X819100Y1557300D03*
X818900Y1572300D03*
X828750Y331250D03*
X838750D03*
X828750Y341250D03*
X838750D03*
X845000Y1170000D03*
X832500D03*
X845000Y1270000D03*
X835000D03*
X825000D03*
X830500Y1557200D03*
X830300Y1572200D03*
X848750Y331250D03*
X858750D03*
X868750D03*
X848750Y341250D03*
X858750D03*
X868750D03*
X870000Y1170000D03*
X857500D03*
X865000Y1270000D03*
X855000D03*
X878750Y331250D03*
X888750D03*
X878750Y341250D03*
X888750D03*
X895000Y1270000D03*
X885000D03*
X875000D03*
X898750Y331250D03*
X908750D03*
X918750D03*
X898750Y341250D03*
X908750D03*
X918750D03*
X915000Y1270000D03*
X905000D03*
X928750Y331250D03*
Y341250D03*
X925000Y1270000D03*
X1020000Y860000D03*
Y850000D03*
X1040000Y860000D03*
Y850000D03*
X1030000Y860000D03*
Y850000D03*
X1065000Y415000D03*
Y425000D03*
Y535000D03*
Y525000D03*
X1070000Y860000D03*
Y850000D03*
X1060000Y860000D03*
Y850000D03*
X1050000Y860000D03*
Y850000D03*
X1062200Y1562700D03*
X1052200D03*
X1062300Y1573700D03*
X1052300D03*
X1075000Y415000D03*
X1085000D03*
X1095000D03*
X1075000Y425000D03*
X1085000D03*
X1095000D03*
Y535000D03*
X1085000D03*
X1075000D03*
X1095000Y525000D03*
X1085000D03*
X1075000D03*
X1105000Y415000D03*
Y425000D03*
Y535000D03*
Y525000D03*
X1160000Y1214000D03*
X1157500Y1361500D03*
X1195000Y433500D03*
Y472500D03*
X1182500Y1250000D03*
X1180000Y1397500D03*
X1187500Y1552500D03*
X1197600Y1552400D03*
X1187500Y1565000D03*
X1197500D03*
X1215000Y433500D03*
Y472500D03*
X1227500Y612500D03*
X1217500D03*
X1227500Y622500D03*
X1217500D03*
X1220000Y1462500D03*
X1225000Y1540000D03*
Y1552500D03*
Y1565000D03*
X1237500Y612500D03*
Y622500D03*
X1236000Y1462500D03*
X1244000D03*
X1252000D03*
X1235000Y1552500D03*
X1235100Y1539900D03*
Y1564900D03*
X1260000Y1462500D03*
X1255000Y1555000D03*
X1265000D03*
X1255100Y1565100D03*
X1265100D03*
X1292160Y568930D03*
X1292800Y787690D03*
Y797690D03*
X1287500Y1214000D03*
X1282500Y1361500D03*
X1295000Y1527500D03*
X1284900Y1527600D03*
X1295000Y1540000D03*
X1285000Y1552500D03*
Y1540000D03*
X1295000Y1552500D03*
Y1565000D03*
X1285000D03*
X1325000Y295000D03*
X1305300Y787690D03*
X1317800D03*
X1305300Y797690D03*
X1317800D03*
X1310000Y1250000D03*
X1305000Y1397500D03*
X1307500Y1462500D03*
X1323500D03*
X1335000Y295000D03*
X1330300Y787690D03*
X1342800D03*
X1355300D03*
X1330300Y797690D03*
X1342800D03*
X1355300D03*
X1331500Y1462500D03*
X1339500D03*
X1347500D03*
X1372500Y1530000D03*
Y1542500D03*
Y1555000D03*
Y1567500D03*
X1392000Y1463000D03*
X1382600Y1529900D03*
X1402500Y1542500D03*
Y1555000D03*
X1382600Y1554900D03*
Y1542400D03*
Y1567400D03*
X1402500Y1567500D03*
X1415000Y1214000D03*
X1412500Y1361500D03*
X1408000Y1463000D03*
X1416000D03*
X1424000D03*
X1412600Y1555000D03*
Y1542400D03*
X1412500Y1567500D03*
X1437500Y1250000D03*
X1435000Y1396000D03*
X1432000Y1463000D03*
X1452500Y1527500D03*
Y1517500D03*
Y1547500D03*
Y1537500D03*
X1452400Y1557600D03*
Y1567600D03*
X1470000Y1463000D03*
X1462600Y1527400D03*
Y1517400D03*
X1462500Y1557500D03*
X1462600Y1547400D03*
Y1537400D03*
X1462500Y1567500D03*
X1486000Y1463000D03*
X1494000D03*
X1502000D03*
X1505000Y1567500D03*
X1494900Y1567600D03*
X1510000Y1463000D03*
X1532500Y1557500D03*
X1522500Y1547500D03*
X1532500D03*
X1522400Y1557600D03*
X1532500Y1567500D03*
X1522400Y1567600D03*
X1542500Y1216500D03*
X1540000Y1361500D03*
X1580000Y492500D03*
Y502500D03*
X1575000Y1187500D03*
Y1177500D03*
X1565000Y1252500D03*
X1562500Y1397500D03*
G54D20*
X1323420Y361180D03*
Y341580D03*
X1343020Y361180D03*
Y341580D03*
G54D21*
G01X97350Y504850D02*
X100000Y507500D01*
G01D02*
X102650Y510150D01*
G01X97350D02*
X100000Y507500D01*
G01D02*
X102650Y504850D01*
G01X97350Y1247350D02*
X100000Y1250000D01*
G01D02*
X102650Y1247350D01*
G01X100000Y1250000D02*
X102650Y1252650D01*
G01X97350D02*
X100000Y1250000D01*
G01X113450Y1298450D02*
X115000Y1300000D01*
G01D02*
X116550Y1301550D01*
G01X113450D02*
X115000Y1300000D01*
G01D02*
X116550Y1298450D01*
G01X123450D02*
X125000Y1300000D01*
G01D02*
X126550Y1301550D01*
G01X123450D02*
X125000Y1300000D01*
G01D02*
X126550Y1298450D01*
G01X113450Y1363450D02*
X115000Y1365000D01*
G01D02*
X116550Y1366550D01*
G01X113450D02*
X115000Y1365000D01*
G01D02*
X116550Y1363450D01*
G01X148450Y1185950D02*
X150000Y1187500D01*
G01D02*
X151550Y1189050D01*
G01X148450D02*
X150000Y1187500D01*
G01D02*
X151550Y1185950D01*
G01X143450Y1190950D02*
X145000Y1192500D01*
G01D02*
X146550Y1194050D01*
G01X143450D02*
X145000Y1192500D01*
G01D02*
X146550Y1190950D01*
G01X145950Y1235950D02*
X147500Y1237500D01*
G01D02*
X149050Y1239050D01*
G01X145950D02*
X147500Y1237500D01*
G01D02*
X149050Y1235950D01*
G01X150950Y1260950D02*
X152500Y1262500D01*
G01D02*
X154050Y1264050D01*
G01X150950D02*
X152500Y1262500D01*
G01D02*
X154050Y1260950D01*
G01X146050Y1266050D02*
X147600Y1267600D01*
G01D02*
X149150Y1269150D01*
G01X146050D02*
X147600Y1267600D01*
G01D02*
X149150Y1266050D01*
G01X145950Y1308450D02*
X147500Y1310000D01*
G01D02*
X149050Y1311550D01*
G01X145950D02*
X147500Y1310000D01*
G01D02*
X149050Y1308450D01*
G01X130950Y1363450D02*
X132500Y1365000D01*
G01D02*
X134050Y1366550D01*
G01X130950D02*
X132500Y1365000D01*
G01D02*
X134050Y1363450D01*
G01X164450Y1282450D02*
X166000Y1284000D01*
G01D02*
X167550Y1285550D01*
G01X164450D02*
X166000Y1284000D01*
G01D02*
X167550Y1282450D01*
G01X170950Y1308450D02*
X172500Y1310000D01*
G01D02*
X174050Y1311550D01*
G01X170950D02*
X172500Y1310000D01*
G01D02*
X174050Y1308450D01*
G01X201950Y429200D02*
X204950Y432200D01*
G01X201950Y435200D02*
X204950Y432200D01*
G01D02*
X207950Y435200D01*
G01X204950Y432200D02*
X207950Y429200D01*
G01X205950Y1185950D02*
X207500Y1187500D01*
G01D02*
X209050Y1189050D01*
G01X205950D02*
X207500Y1187500D01*
G01D02*
X209050Y1185950D01*
G01X205950Y1225950D02*
X207500Y1227500D01*
G01D02*
X209050Y1229050D01*
G01X205950D02*
X207500Y1227500D01*
G01D02*
X209050Y1225950D01*
G01X225950Y1275950D02*
X227500Y1277500D01*
G01D02*
X229050Y1279050D01*
G01X225950D02*
X227500Y1277500D01*
G01D02*
X229050Y1275950D01*
G01X225950Y1288450D02*
X227500Y1290000D01*
G01D02*
X229050Y1291550D01*
G01X225950D02*
X227500Y1290000D01*
G01D02*
X229050Y1288450D01*
G01X237850Y299090D02*
X240500Y301740D01*
G01D02*
X243150Y304390D01*
G01X237850D02*
X240500Y301740D01*
G01D02*
X243150Y299090D01*
G01X237350Y352350D02*
X240000Y355000D01*
G01D02*
X242650Y357650D01*
G01X237350D02*
X240000Y355000D01*
G01D02*
X242650Y352350D01*
G01X237350Y392350D02*
X240000Y395000D01*
G01D02*
X242650Y397650D01*
G01X237350D02*
X240000Y395000D01*
G01D02*
X242650Y392350D01*
G01X296850Y299090D02*
X299500Y301740D01*
G01D02*
X302150Y304390D01*
G01X296850D02*
X299500Y301740D01*
G01D02*
X302150Y299090D01*
G01X294850Y352350D02*
X297500Y355000D01*
G01D02*
X300150Y357650D01*
G01X294850D02*
X297500Y355000D01*
G01D02*
X300150Y352350D01*
G01X305950Y735950D02*
X307500Y737500D01*
G01X305950Y739050D02*
X307500Y737500D01*
G01X310950Y735950D02*
X312500Y737500D01*
G01D02*
X314050Y739050D01*
G01X310950D02*
X312500Y737500D01*
G01D02*
X314050Y735950D01*
G01X307500Y737500D02*
X309050Y739050D01*
G01X307500Y737500D02*
X309050Y735950D01*
G01X313450Y853450D02*
X315000Y855000D01*
G01D02*
X316550Y856550D01*
G01X313450D02*
X315000Y855000D01*
G01D02*
X316550Y853450D01*
G01X315950Y1023450D02*
X317500Y1025000D01*
G01D02*
X319050Y1026550D01*
G01X315950D02*
X317500Y1025000D01*
G01D02*
X319050Y1023450D01*
G01X332850Y299090D02*
X335500Y301740D01*
G01D02*
X338150Y304390D01*
G01X332850D02*
X335500Y301740D01*
G01D02*
X338150Y299090D01*
G01X332350Y352350D02*
X335000Y355000D01*
G01D02*
X337650Y357650D01*
G01X332350D02*
X335000Y355000D01*
G01D02*
X337650Y352350D01*
G01X332350Y392350D02*
X335000Y395000D01*
G01D02*
X337650Y397650D01*
G01X332350D02*
X335000Y395000D01*
G01D02*
X337650Y392350D01*
G01X338450Y438450D02*
X340000Y440000D01*
G01D02*
X341550Y441550D01*
G01X338450D02*
X340000Y440000D01*
G01D02*
X341550Y438450D01*
G01X338450Y458450D02*
X340000Y460000D01*
G01D02*
X341550Y458450D01*
G01X338450Y478450D02*
X340000Y480000D01*
G01D02*
X341550Y481550D01*
G01X338450D02*
X340000Y480000D01*
G01D02*
X341550Y478450D01*
G01X340000Y460000D02*
X341550Y461550D01*
G01X338450D02*
X340000Y460000D01*
G01X345910Y499900D02*
X348560Y502550D01*
G01D02*
X351210Y505200D01*
G01X345910D02*
X348560Y502550D01*
G01D02*
X351210Y499900D01*
G01X350010Y538890D02*
X351560Y540440D01*
G01D02*
X353110Y541990D01*
G01X350010D02*
X351560Y540440D01*
G01D02*
X353110Y538890D01*
G01X355950Y980950D02*
X357500Y982500D01*
G01X355950Y984050D02*
X357500Y982500D01*
G01X346050Y1093350D02*
X347600Y1094900D01*
G01D02*
X349150Y1096450D01*
G01X346050D02*
X347600Y1094900D01*
G01D02*
X349150Y1093350D01*
G01X370950Y980950D02*
X372500Y982500D01*
G01D02*
X374050Y984050D01*
G01X370950D02*
X372500Y982500D01*
G01D02*
X374050Y980950D01*
G01X357500Y982500D02*
X359050Y984050D01*
G01X357500Y982500D02*
X359050Y980950D01*
G01X358450Y1428450D02*
X360000Y1430000D01*
G01D02*
X361550Y1431550D01*
G01X358450D02*
X360000Y1430000D01*
G01D02*
X361550Y1428450D01*
G01X358450Y1445950D02*
X360000Y1447500D01*
G01D02*
X361550Y1449050D01*
G01X358450D02*
X360000Y1447500D01*
G01D02*
X361550Y1445950D01*
G01X391850Y299090D02*
X394500Y301740D01*
G01D02*
X397150Y304390D01*
G01X391850D02*
X394500Y301740D01*
G01D02*
X397150Y299090D01*
G01X392350Y352350D02*
X395000Y355000D01*
G01D02*
X397650Y357650D01*
G01X392350D02*
X395000Y355000D01*
G01D02*
X397650Y352350D01*
G01X385950Y1070950D02*
X387500Y1072500D01*
G01D02*
X389050Y1070950D01*
G01X387500Y1072500D02*
X389050Y1074050D01*
G01X385950D02*
X387500Y1072500D01*
G01X387350Y1586350D02*
X390000Y1589000D01*
G01D02*
X392650Y1591650D01*
G01X387350D02*
X390000Y1589000D01*
G01D02*
X392650Y1586350D01*
G01X425950Y1395950D02*
X427500Y1397500D01*
G01D02*
X429050Y1399050D01*
G01X425950D02*
X427500Y1397500D01*
G01D02*
X429050Y1395950D01*
G01X428450Y1558450D02*
X430000Y1560000D01*
G01D02*
X431550Y1561550D01*
G01X428450D02*
X430000Y1560000D01*
G01D02*
X431550Y1558450D01*
G01X428450Y1573450D02*
X430000Y1575000D01*
G01D02*
X431550Y1576550D01*
G01X428450D02*
X430000Y1575000D01*
G01D02*
X431550Y1573450D01*
G01X498240Y583600D02*
X499790Y585150D01*
G01D02*
X501340Y586700D01*
G01X498240D02*
X499790Y585150D01*
G01D02*
X501340Y583600D01*
G01X508700Y1136200D02*
X510250Y1137750D01*
G01D02*
X511800Y1139300D01*
G01X508700D02*
X510250Y1137750D01*
G01D02*
X511800Y1136200D01*
G01X525950Y1095950D02*
X527500Y1097500D01*
G01D02*
X529050Y1095950D01*
G01X527500Y1097500D02*
X529050Y1099050D01*
G01X525950D02*
X527500Y1097500D01*
G01X521390Y1152510D02*
X522940Y1154060D01*
G01D02*
X524490Y1155610D01*
G01X521390D02*
X522940Y1154060D01*
G01D02*
X524490Y1152510D01*
G01X515510Y1173510D02*
X517060Y1175060D01*
G01D02*
X518610Y1176610D01*
G01X515510D02*
X517060Y1175060D01*
G01D02*
X518610Y1173510D01*
G01X555950Y500950D02*
X557500Y502500D01*
G01D02*
X559050Y504050D01*
G01X555950D02*
X557500Y502500D01*
G01D02*
X559050Y500950D01*
G01X540950Y1383450D02*
X542500Y1385000D01*
G01D02*
X544050Y1386550D01*
G01X540950D02*
X542500Y1385000D01*
G01D02*
X544050Y1383450D01*
G01X553150Y1443450D02*
X554700Y1445000D01*
G01D02*
X556250Y1446550D01*
G01X553150D02*
X554700Y1445000D01*
G01D02*
X556250Y1443450D01*
G01X585510Y1116510D02*
X587060Y1118060D01*
G01X585510Y1119610D02*
X587060Y1118060D01*
G01X583450Y1410950D02*
X585000Y1412500D01*
G01D02*
X586550Y1414050D01*
G01X583450D02*
X585000Y1412500D01*
G01D02*
X586550Y1410950D01*
G01X570950Y1443450D02*
X572500Y1445000D01*
G01D02*
X574050Y1446550D01*
G01X570950D02*
X572500Y1445000D01*
G01D02*
X574050Y1443450D01*
G01X596450Y493450D02*
X598000Y495000D01*
G01D02*
X599550Y496550D01*
G01X596450D02*
X598000Y495000D01*
G01D02*
X599550Y493450D01*
G01X595950Y845950D02*
X597500Y847500D01*
G01D02*
X599050Y849050D01*
G01X595950D02*
X597500Y847500D01*
G01D02*
X599050Y845950D01*
G01X595950Y860950D02*
X597500Y862500D01*
G01D02*
X599050Y864050D01*
G01X595950D02*
X597500Y862500D01*
G01D02*
X599050Y860950D01*
G01X587060Y1118060D02*
X588610Y1119610D01*
G01X587060Y1118060D02*
X588610Y1116510D01*
G01X593250Y1143250D02*
X594800Y1144800D01*
G01D02*
X596350Y1146350D01*
G01X593250D02*
X594800Y1144800D01*
G01D02*
X596350Y1143250D01*
G01X601450Y1168450D02*
X603000Y1170000D01*
G01D02*
X604550Y1171550D01*
G01X601450D02*
X603000Y1170000D01*
G01D02*
X604550Y1168450D01*
G01X600950Y1180950D02*
X602500Y1182500D01*
G01D02*
X604050Y1184050D01*
G01X600950D02*
X602500Y1182500D01*
G01D02*
X604050Y1180950D01*
G01X600450Y1203450D02*
X602000Y1205000D01*
G01D02*
X603550Y1206550D01*
G01X600450D02*
X602000Y1205000D01*
G01D02*
X603550Y1203450D01*
G01X634350Y293350D02*
X637000Y296000D01*
G01D02*
X639650Y298650D01*
G01X634350D02*
X637000Y296000D01*
G01D02*
X639650Y293350D01*
G01X637450Y507450D02*
X639000Y509000D01*
G01X637450Y510550D02*
X639000Y509000D01*
G01D02*
X640550Y510550D01*
G01X639000Y509000D02*
X640550Y507450D01*
G01X653250Y1138250D02*
X654800Y1139800D01*
G01D02*
X656350Y1141350D01*
G01X653250D02*
X654800Y1139800D01*
G01D02*
X656350Y1138250D01*
G01X665950Y923450D02*
X667500Y925000D01*
G01D02*
X669050Y926550D01*
G01X665950D02*
X667500Y925000D01*
G01D02*
X669050Y923450D01*
G01X665950Y935950D02*
X667500Y937500D01*
G01D02*
X669050Y939050D01*
G01X665950D02*
X667500Y937500D01*
G01D02*
X669050Y935950D01*
G01X676450Y1166450D02*
X678000Y1168000D01*
G01D02*
X679550Y1169550D01*
G01X676450D02*
X678000Y1168000D01*
G01D02*
X679550Y1166450D01*
G01X676450Y1191450D02*
X678000Y1193000D01*
G01D02*
X679550Y1194550D01*
G01X676450D02*
X678000Y1193000D01*
G01D02*
X679550Y1191450D01*
G01X676450Y1203450D02*
X678000Y1205000D01*
G01D02*
X679550Y1206550D01*
G01X676450D02*
X678000Y1205000D01*
G01D02*
X679550Y1203450D01*
G01X670950Y1418450D02*
X672500Y1420000D01*
G01D02*
X674050Y1421550D01*
G01X670950D02*
X672500Y1420000D01*
G01D02*
X674050Y1418450D01*
G01X713450Y405950D02*
X715000Y407500D01*
G01X713450Y409050D02*
X715000Y407500D01*
G01D02*
X716550Y409050D01*
G01X715000Y407500D02*
X716550Y405950D01*
G01X717450Y705450D02*
X719000Y707000D01*
G01D02*
X720550Y708550D01*
G01X717450D02*
X719000Y707000D01*
G01D02*
X720550Y705450D01*
G01X765950Y403450D02*
X767500Y405000D01*
G01D02*
X769050Y406550D01*
G01X765950D02*
X767500Y405000D01*
G01D02*
X769050Y403450D01*
G01X775950Y635950D02*
X777500Y637500D01*
G01D02*
X779050Y639050D01*
G01X775950D02*
X777500Y637500D01*
G01D02*
X779050Y635950D01*
G01X773450Y643450D02*
X775000Y645000D01*
G01D02*
X776550Y646550D01*
G01X773450D02*
X775000Y645000D01*
G01D02*
X776550Y643450D01*
G01X767450Y706450D02*
X769000Y708000D01*
G01D02*
X770550Y709550D01*
G01X767450D02*
X769000Y708000D01*
G01D02*
X770550Y706450D01*
G01X782350Y1267350D02*
X785000Y1270000D01*
G01D02*
X787650Y1272650D01*
G01X782350D02*
X785000Y1270000D01*
G01D02*
X787650Y1267350D01*
G01X780950Y1308450D02*
X782500Y1310000D01*
G01D02*
X784050Y1311550D01*
G01X780950D02*
X782500Y1310000D01*
G01D02*
X784050Y1308450D01*
G01X815950Y728450D02*
X817500Y730000D01*
G01X815950Y731550D02*
X817500Y730000D01*
G01X800950Y728450D02*
X802500Y730000D01*
G01D02*
X804050Y731550D01*
G01X800950D02*
X802500Y730000D01*
G01D02*
X804050Y728450D01*
G01X803450Y881450D02*
X805000Y883000D01*
G01D02*
X806550Y884550D01*
G01X803450D02*
X805000Y883000D01*
G01D02*
X806550Y881450D01*
G01X803450Y1298450D02*
X805000Y1300000D01*
G01D02*
X806550Y1301550D01*
G01X803450D02*
X805000Y1300000D01*
G01D02*
X806550Y1298450D01*
G01X803450Y1313450D02*
X805000Y1315000D01*
G01D02*
X806550Y1316550D01*
G01X803450D02*
X805000Y1315000D01*
G01D02*
X806550Y1313450D01*
G01X818450Y648450D02*
X820000Y650000D01*
G01D02*
X821550Y651550D01*
G01X818450D02*
X820000Y650000D01*
G01D02*
X821550Y648450D01*
G01X830950Y728450D02*
X832500Y730000D01*
G01D02*
X834050Y731550D01*
G01X830950D02*
X832500Y730000D01*
G01D02*
X834050Y728450D01*
G01X817500Y730000D02*
X819050Y731550D01*
G01X817500Y730000D02*
X819050Y728450D01*
G01X833450Y840950D02*
X835000Y842500D01*
G01D02*
X836550Y840950D01*
G01X835950Y845950D02*
X837500Y847500D01*
G01D02*
X839050Y849050D01*
G01X835950D02*
X837500Y847500D01*
G01D02*
X839050Y845950D01*
G01X835000Y842500D02*
X836550Y844050D01*
G01X833450D02*
X835000Y842500D01*
G01X830950Y1153450D02*
X832500Y1155000D01*
G01D02*
X834050Y1156550D01*
G01X830950D02*
X832500Y1155000D01*
G01D02*
X834050Y1153450D01*
G01X828550Y1393350D02*
X830100Y1394900D01*
G01D02*
X831650Y1396450D01*
G01X828550D02*
X830100Y1394900D01*
G01D02*
X831650Y1393350D01*
G01X845950Y520950D02*
X847500Y522500D01*
G01D02*
X849050Y524050D01*
G01X845950D02*
X847500Y522500D01*
G01D02*
X849050Y520950D01*
G01X858450Y1048450D02*
X860000Y1050000D01*
G01D02*
X861550Y1051550D01*
G01X858450D02*
X860000Y1050000D01*
G01D02*
X861550Y1048450D01*
G01X853450Y1100950D02*
X855000Y1102500D01*
G01D02*
X856550Y1104050D01*
G01X853450D02*
X855000Y1102500D01*
G01D02*
X856550Y1100950D01*
G01X845950Y1153450D02*
X847500Y1155000D01*
G01D02*
X849050Y1156550D01*
G01X845950D02*
X847500Y1155000D01*
G01D02*
X849050Y1153450D01*
G01X868450Y518450D02*
X870000Y520000D01*
G01D02*
X871550Y521550D01*
G01X868450D02*
X870000Y520000D01*
G01D02*
X871550Y518450D01*
G01X889450Y704950D02*
X891000Y706500D01*
G01D02*
X892550Y708050D01*
G01X889450D02*
X891000Y706500D01*
G01D02*
X892550Y704950D01*
G01X881450Y1111450D02*
X883000Y1113000D01*
G01D02*
X884550Y1114550D01*
G01X881450D02*
X883000Y1113000D01*
G01D02*
X884550Y1111450D01*
G01X867450Y1153450D02*
X869000Y1155000D01*
G01D02*
X870550Y1156550D01*
G01X867450D02*
X869000Y1155000D01*
G01D02*
X870550Y1153450D01*
G01X939950Y707450D02*
X941500Y709000D01*
G01D02*
X943050Y710550D01*
G01X939950D02*
X941500Y709000D01*
G01D02*
X943050Y707450D01*
G01X960950Y523450D02*
X962500Y525000D01*
G01D02*
X964050Y526550D01*
G01X960950D02*
X962500Y525000D01*
G01D02*
X964050Y523450D01*
G01X945950D02*
X947500Y525000D01*
G01D02*
X949050Y526550D01*
G01X945950D02*
X947500Y525000D01*
G01D02*
X949050Y523450D01*
G01X960950Y1553450D02*
X962500Y1555000D01*
G01D02*
X964050Y1556550D01*
G01X960950D02*
X962500Y1555000D01*
G01D02*
X964050Y1553450D01*
G01X1055850Y1345850D02*
X1057400Y1347400D01*
G01D02*
X1058950Y1348950D01*
G01X1055850D02*
X1057400Y1347400D01*
G01D02*
X1058950Y1345850D01*
G01X1068450Y1430950D02*
X1070000Y1432500D01*
G01D02*
X1071550Y1434050D01*
G01X1068450D02*
X1070000Y1432500D01*
G01D02*
X1071550Y1430950D01*
G01X1090950Y1170950D02*
X1092500Y1172500D01*
G01D02*
X1094050Y1174050D01*
G01X1090950D02*
X1092500Y1172500D01*
G01D02*
X1094050Y1170950D01*
G01X1090380Y1165380D02*
X1092500Y1167500D01*
G01D02*
X1094620Y1169620D01*
G01X1090380D02*
X1092500Y1167500D01*
G01D02*
X1094620Y1165380D01*
G01X1088450Y1318450D02*
X1090000Y1320000D01*
G01D02*
X1091550Y1321550D01*
G01X1088450D02*
X1090000Y1320000D01*
G01D02*
X1091550Y1318450D01*
G01X1087880Y1312880D02*
X1090000Y1315000D01*
G01D02*
X1092120Y1317120D01*
G01X1087880D02*
X1090000Y1315000D01*
G01D02*
X1092120Y1312880D01*
G01X1093450Y1498450D02*
X1095000Y1500000D01*
G01D02*
X1096550Y1501550D01*
G01X1093450D02*
X1095000Y1500000D01*
G01D02*
X1096550Y1498450D01*
G01X1115950Y1083450D02*
X1117500Y1085000D01*
G01D02*
X1119050Y1086550D01*
G01X1115950D02*
X1117500Y1085000D01*
G01D02*
X1119050Y1083450D01*
G01X1103350Y1128350D02*
X1104900Y1129900D01*
G01D02*
X1106450Y1131450D01*
G01X1103350D02*
X1104900Y1129900D01*
G01D02*
X1106450Y1128350D01*
G01X1140950Y735950D02*
X1142500Y737500D01*
G01D02*
X1144050Y739050D01*
G01X1140950D02*
X1142500Y737500D01*
G01D02*
X1144050Y735950D01*
G01X1140950Y753450D02*
X1142500Y755000D01*
G01D02*
X1144050Y756550D01*
G01X1140950D02*
X1142500Y755000D01*
G01D02*
X1144050Y753450D01*
G01X1155950Y898450D02*
X1157500Y900000D01*
G01D02*
X1159050Y901550D01*
G01X1155950D02*
X1157500Y900000D01*
G01D02*
X1159050Y898450D01*
G01X1165950Y913450D02*
X1167500Y915000D01*
G01D02*
X1169050Y916550D01*
G01X1165950D02*
X1167500Y915000D01*
G01D02*
X1169050Y913450D01*
G01X1158450Y1130950D02*
X1160000Y1132500D01*
G01D02*
X1161550Y1134050D01*
G01X1158450D02*
X1160000Y1132500D01*
G01D02*
X1161550Y1130950D01*
G01X1148450Y1475950D02*
X1150000Y1477500D01*
G01D02*
X1151550Y1479050D01*
G01X1148450D02*
X1150000Y1477500D01*
G01D02*
X1151550Y1475950D01*
G01X1195950Y940950D02*
X1197500Y942500D01*
G01D02*
X1199050Y944050D01*
G01X1195950D02*
X1197500Y942500D01*
G01D02*
X1199050Y940950D01*
G01X1183450Y968450D02*
X1185000Y970000D01*
G01D02*
X1186550Y968450D01*
G01X1185000Y970000D02*
X1186550Y971550D01*
G01X1183450D02*
X1185000Y970000D01*
G01X1218450Y1170950D02*
X1220000Y1172500D01*
G01D02*
X1221550Y1174050D01*
G01X1218450D02*
X1220000Y1172500D01*
G01D02*
X1221550Y1170950D01*
G01X1217880Y1165380D02*
X1220000Y1167500D01*
G01D02*
X1222120Y1169620D01*
G01X1217880D02*
X1220000Y1167500D01*
G01D02*
X1222120Y1165380D01*
G01X1213450Y1318450D02*
X1215000Y1320000D01*
G01D02*
X1216550Y1321550D01*
G01X1213450D02*
X1215000Y1320000D01*
G01D02*
X1216550Y1318450D01*
G01X1212880Y1312880D02*
X1215000Y1315000D01*
G01D02*
X1217120Y1317120D01*
G01X1212880D02*
X1215000Y1315000D01*
G01D02*
X1217120Y1312880D01*
G01X1241350Y1459850D02*
X1244000Y1462500D01*
G01D02*
X1246650Y1465150D01*
G01X1241350D02*
X1244000Y1462500D01*
G01D02*
X1246650Y1459850D01*
G01X1299170Y339830D02*
X1300720Y341380D01*
G01X1299170Y342930D02*
X1300720Y341380D01*
G01X1291250Y938640D02*
X1292800Y940190D01*
G01D02*
X1294350Y941740D01*
G01X1291250D02*
X1292800Y940190D01*
G01D02*
X1294350Y938640D01*
G01X1322350Y292350D02*
X1325000Y295000D01*
G01D02*
X1327650Y297650D01*
G01X1322350D02*
X1325000Y295000D01*
G01D02*
X1327650Y292350D01*
G01X1320240Y338400D02*
X1323420Y341580D01*
G01D02*
X1326600Y344760D01*
G01X1320240D02*
X1323420Y341580D01*
G01D02*
X1326600Y338400D01*
G01X1300720Y341380D02*
X1302270Y342930D01*
G01X1300720Y341380D02*
X1302270Y339830D01*
G01X1306670Y489830D02*
X1308220Y491380D01*
G01D02*
X1309770Y492930D01*
G01X1306670D02*
X1308220Y491380D01*
G01D02*
X1309770Y489830D01*
G01X1316250Y878640D02*
X1317800Y880190D01*
G01D02*
X1319350Y881740D01*
G01X1316250D02*
X1317800Y880190D01*
G01D02*
X1319350Y878640D01*
G01X1316250Y896140D02*
X1317800Y897690D01*
G01D02*
X1319350Y899240D01*
G01X1316250D02*
X1317800Y897690D01*
G01D02*
X1319350Y896140D01*
G01X1318750Y988640D02*
X1320300Y990190D01*
G01D02*
X1321850Y991740D01*
G01X1318750D02*
X1320300Y990190D01*
G01D02*
X1321850Y988640D01*
G01X1336670Y474830D02*
X1338220Y476380D01*
G01D02*
X1339770Y477930D01*
G01X1336670D02*
X1338220Y476380D01*
G01D02*
X1339770Y474830D01*
G01X1336670Y489830D02*
X1338220Y491380D01*
G01D02*
X1339770Y492930D01*
G01X1336670D02*
X1338220Y491380D01*
G01D02*
X1339770Y489830D01*
G01X1345950Y1170950D02*
X1347500Y1172500D01*
G01D02*
X1349050Y1174050D01*
G01X1345950D02*
X1347500Y1172500D01*
G01D02*
X1349050Y1170950D01*
G01X1345380Y1165380D02*
X1347500Y1167500D01*
G01D02*
X1349620Y1169620D01*
G01X1345380D02*
X1347500Y1167500D01*
G01D02*
X1349620Y1165380D01*
G01X1343450Y1318450D02*
X1345000Y1320000D01*
G01D02*
X1346550Y1321550D01*
G01X1343450D02*
X1345000Y1320000D01*
G01D02*
X1346550Y1318450D01*
G01X1342880Y1312880D02*
X1345000Y1315000D01*
G01D02*
X1347120Y1317120D01*
G01X1342880D02*
X1345000Y1315000D01*
G01D02*
X1347120Y1312880D01*
G01X1328850Y1459850D02*
X1331500Y1462500D01*
G01D02*
X1334150Y1465150D01*
G01X1328850D02*
X1331500Y1462500D01*
G01D02*
X1334150Y1459850D01*
G01X1393750Y816140D02*
X1395300Y817690D01*
G01D02*
X1396850Y816140D01*
G01X1393750Y831140D02*
X1395300Y832690D01*
G01D02*
X1396850Y834240D01*
G01X1393750D02*
X1395300Y832690D01*
G01D02*
X1396850Y831140D01*
G01X1383750Y841140D02*
X1385300Y842690D01*
G01D02*
X1386850Y841140D01*
G01X1395300Y817690D02*
X1396850Y819240D01*
G01X1393750D02*
X1395300Y817690D01*
G01X1385300Y842690D02*
X1386850Y844240D01*
G01X1383750D02*
X1385300Y842690D01*
G01X1411250Y576140D02*
X1412800Y577690D01*
G01D02*
X1414350Y579240D01*
G01X1411250D02*
X1412800Y577690D01*
G01D02*
X1414350Y576140D01*
G01X1411250Y596140D02*
X1412800Y597690D01*
G01D02*
X1414350Y599240D01*
G01X1411250D02*
X1412800Y597690D01*
G01D02*
X1414350Y596140D01*
G01X1421140Y823640D02*
X1422690Y825190D01*
G01D02*
X1424240Y826740D01*
G01X1421140D02*
X1422690Y825190D01*
G01D02*
X1424240Y823640D01*
G01X1413350Y1460350D02*
X1416000Y1463000D01*
G01D02*
X1418650Y1465650D01*
G01X1413350D02*
X1416000Y1463000D01*
G01D02*
X1418650Y1460350D01*
G01X1451750Y523640D02*
X1453300Y525190D01*
G01D02*
X1454850Y526740D01*
G01X1451750D02*
X1453300Y525190D01*
G01D02*
X1454850Y523640D01*
G01X1472880Y1167880D02*
X1475000Y1170000D01*
G01D02*
X1477120Y1172120D01*
G01X1472880D02*
X1475000Y1170000D01*
G01D02*
X1477120Y1167880D01*
G01X1473450Y1173450D02*
X1475000Y1175000D01*
G01D02*
X1476550Y1176550D01*
G01X1473450D02*
X1475000Y1175000D01*
G01D02*
X1476550Y1173450D01*
G01X1470950Y1318450D02*
X1472500Y1320000D01*
G01D02*
X1474050Y1321550D01*
G01X1470950D02*
X1472500Y1320000D01*
G01D02*
X1474050Y1318450D01*
G01X1470380Y1312880D02*
X1472500Y1315000D01*
G01D02*
X1474620Y1317120D01*
G01X1470380D02*
X1472500Y1315000D01*
G01D02*
X1474620Y1312880D01*
G01X1494250Y531140D02*
X1495800Y532690D01*
G01D02*
X1497350Y534240D01*
G01X1494250D02*
X1495800Y532690D01*
G01D02*
X1497350Y531140D01*
G01X1503750Y578450D02*
X1505300Y580000D01*
G01X1503750Y581550D02*
X1505300Y580000D01*
G01X1503750Y608640D02*
X1505300Y610190D01*
G01X1503750Y611740D02*
X1505300Y610190D01*
G01X1491350Y1460350D02*
X1494000Y1463000D01*
G01D02*
X1496650Y1465650D01*
G01X1491350D02*
X1494000Y1463000D01*
G01D02*
X1496650Y1460350D01*
G01X1505300Y580000D02*
X1506850Y581550D01*
G01X1505300Y580000D02*
X1506850Y578450D01*
G01X1518750Y608640D02*
X1520300Y610190D01*
G01D02*
X1521850Y611740D01*
G01X1518750D02*
X1520300Y610190D01*
G01D02*
X1521850Y608640D01*
G01X1505300Y610190D02*
X1506850Y611740D01*
G01X1505300Y610190D02*
X1506850Y608640D01*
G01X1577350Y489850D02*
X1580000Y492500D01*
G01D02*
X1582650Y495150D01*
G01X1577350D02*
X1580000Y492500D01*
G01D02*
X1582650Y489850D01*
G01X1572350Y1184850D02*
X1575000Y1187500D01*
G01D02*
X1577650Y1190150D01*
G01X1572350D02*
X1575000Y1187500D01*
G01D02*
X1577650Y1184850D01*
G54D12*
X95000Y1055000D03*
X110000Y1060000D03*
X115000Y1050000D03*
X105000Y1197500D03*
X115000Y1200000D03*
X105000Y1287500D03*
X120000Y1290000D03*
X125000Y1300000D03*
X115000D03*
X127500Y1310000D03*
X115000Y1365000D03*
Y1375000D03*
X150000Y832500D03*
X152500Y877500D03*
Y1037500D03*
X130000Y1022500D03*
Y1055000D03*
X145000D03*
Y1082500D03*
X135000Y1187500D03*
X145000Y1192500D03*
X150000Y1187500D03*
X140000Y1227500D03*
X147500Y1237500D03*
X142400Y1257600D03*
X147600Y1267600D03*
X152500Y1262500D03*
X145000Y1300000D03*
X140000Y1305000D03*
X147500Y1310000D03*
X152500Y1365000D03*
X132500D03*
Y1375000D03*
X170000Y455000D03*
X172500Y912500D03*
Y919640D03*
X160000Y942500D03*
Y920000D03*
X170000Y997500D03*
X165000Y1067500D03*
X170000Y1157500D03*
X160000Y1235000D03*
X157500Y1275000D03*
X172500Y1297500D03*
X165000D03*
X166000Y1284000D03*
X172500Y1310000D03*
X167500Y1365000D03*
X180100Y1455100D03*
Y1449900D03*
X167500Y1455000D03*
X177500Y1437500D03*
X195000Y870000D03*
X187000Y893000D03*
X190000Y915000D03*
Y897500D03*
X205000Y912500D03*
X200000Y930000D03*
Y947500D03*
X190000Y967500D03*
X205000Y950000D03*
X185000D03*
X190000Y982500D03*
X200000Y1017500D03*
Y1002500D03*
X202500Y997500D03*
X205000Y1020000D03*
X190000Y1037500D03*
Y1052500D03*
X200000Y1072500D03*
X185000Y1052500D03*
X200000Y1090000D03*
X205000Y1107500D03*
X192500Y1187500D03*
X185000Y1217500D03*
X197500Y1232500D03*
X192500Y1245000D03*
X185000Y1362500D03*
Y1407500D03*
X205000Y1440000D03*
X187500Y1445000D03*
X192500Y1450000D03*
X217500Y827500D03*
X225000Y882500D03*
X220000Y917500D03*
X227500Y940000D03*
X220000Y965000D03*
X230000Y952500D03*
X210000Y957500D03*
X222500Y987500D03*
X230000Y1020000D03*
X225000Y997500D03*
X215000Y1025000D03*
X225000Y1067500D03*
X207500Y1187500D03*
Y1212500D03*
Y1227500D03*
X227500Y1290000D03*
Y1277500D03*
X217500Y1290000D03*
Y1277500D03*
X227500Y1322500D03*
Y1310000D03*
X215000Y1375000D03*
X227500Y1392500D03*
X217500Y1395000D03*
X207500Y1425000D03*
X222500Y1412500D03*
X230000Y1442500D03*
X217500Y1437500D03*
X210000Y1445000D03*
X227500Y1435000D03*
X253560Y473560D03*
X250000Y723000D03*
X242500Y855000D03*
X237000Y879000D03*
X255000Y907500D03*
X240000Y922500D03*
X247500Y975000D03*
Y983250D03*
X252500Y1002500D03*
X241440Y998940D03*
X247500Y1077500D03*
X245000Y1117500D03*
X232500Y1370000D03*
X255000Y1435000D03*
X270000Y723000D03*
X276000Y727000D03*
X257500Y787500D03*
X263000Y777000D03*
X275000Y860000D03*
X270000Y892500D03*
X277500Y907500D03*
X278560Y933560D03*
X262500Y947500D03*
X272500Y952500D03*
X277500Y992500D03*
X262500Y980000D03*
X277500Y1010000D03*
X265000Y1017500D03*
X262500Y1010000D03*
Y1032500D03*
X257500Y1035000D03*
X267500Y1070000D03*
X272500D03*
X270000Y1055000D03*
X272500Y1117500D03*
X257500D03*
X270000Y1347500D03*
X260000Y1370000D03*
X270000Y1397500D03*
X305000Y610000D03*
X307500Y737500D03*
X302500Y827500D03*
X305000Y847500D03*
X295000Y855000D03*
X300000Y870000D03*
X285000Y892500D03*
X305000Y907500D03*
Y897500D03*
X290000D03*
X285000Y930000D03*
X307500Y975000D03*
X287500D03*
X292500Y1122500D03*
X300000Y1115000D03*
X285000Y1425000D03*
X325000Y600000D03*
X312500Y737500D03*
Y757500D03*
X325000Y760000D03*
X327500Y797500D03*
X322500Y822500D03*
X332500D03*
X315000Y855000D03*
X320950Y877500D03*
X317410D03*
X325000Y905000D03*
X327500Y937500D03*
X317500D03*
X322500Y982500D03*
X317500Y980000D03*
X327500Y1040000D03*
X317500Y1025000D03*
X312500Y1072500D03*
X327500Y1105000D03*
X320000Y1187500D03*
X312500Y1330000D03*
X330000Y1445000D03*
X340000Y460000D03*
Y440000D03*
Y480000D03*
X351560Y540440D03*
X355000Y810000D03*
X337500Y837500D03*
X346770Y864400D03*
X343230D03*
X342990Y887990D03*
X357500Y880000D03*
X350000Y905000D03*
X342500Y925000D03*
X337500Y927500D03*
X357500Y967500D03*
X337500D03*
Y982500D03*
X357500D03*
Y972500D03*
X342400Y1094900D03*
X347500Y1075000D03*
X347600Y1094900D03*
X335000Y1112500D03*
X352500Y1295000D03*
X335000Y1307500D03*
X352500D03*
X350000Y1340000D03*
X355000Y1387500D03*
X340000Y1425000D03*
X337500Y1460000D03*
X381000Y435000D03*
X374000Y480000D03*
X363000D03*
X382500Y850000D03*
Y892500D03*
X374500Y873000D03*
X362500Y895000D03*
X377500Y930000D03*
X360000Y937500D03*
X373940Y947500D03*
X372500Y982500D03*
Y972500D03*
X380000Y1032500D03*
X372500Y1212500D03*
X382500D03*
X372500Y1240000D03*
X382500D03*
Y1287500D03*
X377500Y1350000D03*
X362500D03*
X365000Y1340000D03*
X375000Y1330000D03*
X360000Y1375000D03*
X380000Y1372500D03*
X375000Y1377500D03*
Y1426000D03*
X360000Y1447500D03*
Y1430000D03*
X370000D03*
Y1447500D03*
X381000Y1436000D03*
X395000Y460000D03*
X396000Y442500D03*
X395000Y480000D03*
Y862500D03*
X385000Y905000D03*
X395000Y920000D03*
X393000Y968000D03*
X402500Y960000D03*
X385000Y995000D03*
X387500Y1072500D03*
X407500Y1290000D03*
X389500Y1323000D03*
X395000Y1335000D03*
Y1330000D03*
X405000Y1362500D03*
Y1392500D03*
X387500Y1382500D03*
X397500Y1450000D03*
X387500Y1460000D03*
X431060Y436560D03*
X412000Y760000D03*
X417500Y905000D03*
X427500Y1162500D03*
X412500Y1292500D03*
Y1345000D03*
X415000Y1362500D03*
X427500Y1397500D03*
X432500Y1417500D03*
X430000Y1575000D03*
Y1560000D03*
X438940Y436560D03*
Y487440D03*
X460000Y770000D03*
X450000Y815000D03*
X440000Y910000D03*
X450000Y915000D03*
X442500Y1362500D03*
X457500Y1405000D03*
X477500Y815000D03*
X484000D03*
X510060Y489940D03*
X511000Y502000D03*
X499790Y535150D03*
Y585150D03*
X510250Y1137750D03*
X515000Y450000D03*
X531000Y480000D03*
X535000Y725000D03*
X525000Y737500D03*
X530000Y732500D03*
X517500Y742500D03*
X525000Y810000D03*
X520000D03*
X530000D03*
X527500Y1092500D03*
Y1097500D03*
X522940Y1154060D03*
X517060Y1175060D03*
X537500Y445000D03*
X544620Y467460D03*
X562630D03*
X547500Y477500D03*
X548920Y462460D03*
X557500Y502500D03*
X537500Y810000D03*
Y922500D03*
X547500Y1150000D03*
X542500Y1202500D03*
X550250Y1382750D03*
X542500Y1385000D03*
X560000Y1389000D03*
X542500Y1405000D03*
X554700Y1445000D03*
X562500D03*
X582500Y450000D03*
X587500Y445000D03*
X572120Y438070D03*
X569060Y485000D03*
X580000Y466000D03*
X567370Y477460D03*
X587500Y495000D03*
X565000Y737500D03*
X582500D03*
X587500Y862500D03*
Y847500D03*
X567500Y867500D03*
X582500Y845000D03*
X572500Y902500D03*
X587500Y950000D03*
X585000Y970000D03*
X587060Y1118060D03*
X582500Y1150000D03*
X587500Y1352500D03*
X580000Y1395000D03*
X565000Y1389000D03*
X585000Y1412500D03*
X572500Y1445000D03*
Y1465000D03*
X607370Y451060D03*
X599000Y481000D03*
X597510Y466570D03*
X595000Y476000D03*
X598000Y495000D03*
X605000Y740000D03*
X590000Y737500D03*
X597500D03*
X602500Y842500D03*
X610000D03*
X597500Y862500D03*
Y847500D03*
Y882500D03*
Y897500D03*
X604900Y942400D03*
X595000Y955000D03*
X597500Y992500D03*
X607500Y1145000D03*
X594800Y1144800D03*
X595000Y1150000D03*
X603000Y1170000D03*
X602500Y1182500D03*
X602000Y1205000D03*
X612500Y1285000D03*
Y1352500D03*
X630000Y433000D03*
Y482500D03*
X627500Y500000D03*
X639000Y509000D03*
X617500Y920000D03*
X637500Y937500D03*
Y932500D03*
X617500Y1310000D03*
X633000Y1352000D03*
X615000Y1402500D03*
X657500Y445000D03*
Y937500D03*
Y925000D03*
X645000Y920000D03*
X642500Y1145000D03*
X655000D03*
X654800Y1139800D03*
X655000Y1245000D03*
Y1252500D03*
Y1297500D03*
X640000D03*
Y1322500D03*
X660000Y1327500D03*
X645000D03*
X640000Y1307500D03*
X647500Y1320000D03*
X645000Y1352500D03*
X640000Y1350000D03*
X657500Y1370000D03*
X650000Y1402500D03*
X645000Y1382500D03*
X655000Y1442500D03*
X682000Y480000D03*
X675000Y910000D03*
X682500Y915000D03*
X667500Y937500D03*
Y925000D03*
Y955000D03*
Y972500D03*
X678000Y1168000D03*
X680000Y1180000D03*
X678000Y1193000D03*
Y1205000D03*
X680050Y1235050D03*
X665000Y1312500D03*
X670000Y1327500D03*
X685000Y1302500D03*
X682500Y1322500D03*
X672500Y1317500D03*
Y1307500D03*
X685000Y1367500D03*
X670000Y1365000D03*
X665000Y1367500D03*
Y1402500D03*
Y1382500D03*
X672500Y1420000D03*
Y1435000D03*
X715000Y407500D03*
X714000Y766000D03*
Y756000D03*
X713000Y747000D03*
X715000Y776000D03*
X707500Y937500D03*
X695000Y1272500D03*
Y1300000D03*
X720000Y407500D03*
X735000Y452500D03*
X720000Y649000D03*
Y687000D03*
Y665000D03*
X719000Y678000D03*
X720000Y672000D03*
X722000Y696000D03*
X719000Y707000D03*
X722000Y737000D03*
X718000Y728000D03*
X717000Y718000D03*
X717500Y740000D03*
X732500Y1022500D03*
X737500Y1332500D03*
X745000Y690000D03*
X747500Y670000D03*
Y680000D03*
Y685000D03*
Y665000D03*
X745000Y695000D03*
Y702500D03*
X746000Y718000D03*
X742500Y742500D03*
X745000Y880000D03*
X760000Y1405000D03*
X772500Y405000D03*
X767500D03*
X787500Y455000D03*
X777500Y637500D03*
X768000Y644000D03*
X775000Y645000D03*
X772000Y665000D03*
X768000Y676000D03*
X769000Y687000D03*
X778000Y675000D03*
X768000Y696000D03*
X769000Y708000D03*
X779000Y709000D03*
X769000Y737000D03*
Y728000D03*
X768000Y766000D03*
X769000Y756000D03*
Y747000D03*
X768000Y777000D03*
X782500Y1310000D03*
X787890Y1402500D03*
X770000Y1390000D03*
X805000Y458000D03*
X810000Y490000D03*
X801060Y500060D03*
X817500Y522860D03*
X805000Y530000D03*
X811000Y560000D03*
X802500Y730000D03*
X817500D03*
X815000Y893000D03*
X805000Y883000D03*
X807500Y1045000D03*
Y1105000D03*
X802500Y1135000D03*
X815000Y1130000D03*
X805000Y1152500D03*
X817500Y1160000D03*
X805000Y1300000D03*
X795000D03*
X805000Y1315000D03*
X795000D03*
X805000Y1350000D03*
Y1335000D03*
X792500Y1367500D03*
Y1395000D03*
X810000Y1402500D03*
X805000Y1395000D03*
X842000Y374000D03*
X832500Y435000D03*
X840000Y425000D03*
X825000Y427500D03*
X830610Y446630D03*
X832700Y440200D03*
X838560Y481000D03*
X830000Y525000D03*
X820000Y650000D03*
X832500Y730000D03*
X835000Y842500D03*
X840000Y852500D03*
X837500Y847500D03*
X842500Y1127500D03*
X832500Y1155000D03*
X822500Y1150000D03*
X840000Y1400000D03*
X830100Y1394900D03*
X843940Y391060D03*
X847300Y440200D03*
X847500Y522500D03*
Y517500D03*
X865000D03*
X850000Y715000D03*
X846000Y853000D03*
X860000Y885000D03*
X865000Y892500D03*
X855000Y897500D03*
X860000Y1045000D03*
Y1050000D03*
X855000Y1102500D03*
X852500Y1140000D03*
X857500Y1142500D03*
X860000Y1147500D03*
X855000Y1152500D03*
X847500Y1155000D03*
X882500Y440000D03*
X880000Y493000D03*
X870000Y520000D03*
X880000Y515000D03*
X872000Y560000D03*
X888000Y684000D03*
X891000Y706500D03*
X893500Y728000D03*
Y737500D03*
X893000Y746500D03*
X892500Y756500D03*
X880000Y892500D03*
X887500Y882500D03*
X870000Y900000D03*
X875000Y895000D03*
X892500Y1122500D03*
X883000Y1113000D03*
X887500Y1140000D03*
Y1145000D03*
X882500Y1132500D03*
X887500Y1150000D03*
Y1155000D03*
X869000D03*
X870000Y1160000D03*
X907500Y440000D03*
X895000D03*
X907560Y486000D03*
X915000Y522500D03*
X907500Y514000D03*
X897000Y560000D03*
X895000Y645000D03*
Y652500D03*
Y671000D03*
X898000Y677000D03*
X895000Y696500D03*
X897420Y716380D03*
X895500Y765500D03*
X897000Y778000D03*
Y882000D03*
X917500Y992500D03*
Y1122500D03*
X907500Y1160000D03*
X917500D03*
X933560Y377440D03*
X941440Y393440D03*
X940000Y432500D03*
X942500Y425000D03*
X935000Y442500D03*
X927500Y444890D03*
X935200Y437300D03*
X936440Y480440D03*
X930000Y525000D03*
X945000Y662500D03*
Y677500D03*
Y687500D03*
X943000Y696500D03*
X941500Y709000D03*
X942500Y717500D03*
X943000Y727500D03*
X944500Y765500D03*
Y756000D03*
Y747000D03*
X943000Y776500D03*
X920000Y1478000D03*
Y1557500D03*
X947500Y435000D03*
X950000Y471000D03*
X947500Y525000D03*
X962500D03*
X947500Y515000D03*
X962500D03*
X963000Y560000D03*
X947500Y647500D03*
X953000Y677000D03*
X960000Y900000D03*
X970000D03*
Y932500D03*
X947500Y1272500D03*
X956000Y1285000D03*
X962500Y1555000D03*
Y1532500D03*
X982500Y440000D03*
X972500Y489000D03*
Y513000D03*
Y672500D03*
X975000Y950000D03*
X995000Y1285000D03*
X1019800Y486800D03*
X1012500Y1005000D03*
X1000000Y1137500D03*
X1002500Y1255000D03*
X1019390Y1365000D03*
X1005000Y1430000D03*
X1000000Y1452500D03*
Y1555000D03*
X1032500Y445000D03*
X1025000Y485000D03*
X1030000Y470000D03*
Y465000D03*
X1027500Y987500D03*
X1045000Y992500D03*
X1042500Y1130000D03*
Y1157500D03*
X1030000Y1272000D03*
X1027500Y1257500D03*
X1025000Y1302500D03*
X1044750Y1354750D03*
X1042500Y1495000D03*
X1027500D03*
X1050230Y435000D03*
X1053770D03*
X1053450Y445000D03*
X1056790D03*
X1060000Y473000D03*
X1065000Y480000D03*
Y465000D03*
X1060000Y487500D03*
X1050000Y498000D03*
X1067500Y632500D03*
Y625000D03*
X1070000Y785000D03*
X1066460D03*
X1054270Y805000D03*
X1050730D03*
X1070000Y1030000D03*
X1072500Y1040000D03*
X1047500Y1285000D03*
X1057500Y1340000D03*
X1057400Y1347400D03*
X1072500Y1360000D03*
X1070000Y1422500D03*
X1055000Y1415000D03*
X1070000Y1432500D03*
X1077500Y442500D03*
X1080000Y461000D03*
X1083000Y457000D03*
X1080000Y481000D03*
X1095000Y475000D03*
Y495000D03*
X1080000Y490000D03*
X1096230Y503270D03*
X1095000Y507500D03*
X1092500Y517500D03*
X1087000Y977000D03*
X1077500Y1045000D03*
X1090250Y1072750D03*
X1082500Y1050000D03*
X1097020Y1117980D03*
X1080000Y1115000D03*
X1092500Y1172500D03*
X1075000Y1212500D03*
X1095000Y1245000D03*
X1087000Y1278000D03*
X1090000Y1320000D03*
X1092500Y1392500D03*
X1095000Y1500000D03*
X1120000Y449000D03*
X1101000Y470000D03*
X1114560Y499560D03*
X1110000Y495000D03*
X1101060Y512500D03*
X1100000Y807500D03*
X1107500Y980000D03*
X1117500Y1085000D03*
X1120000Y1080000D03*
X1104900Y1129900D03*
X1121000Y1276000D03*
X1102500Y1290000D03*
X1119300Y1422500D03*
X1120000Y1512500D03*
X1137500Y445000D03*
X1125000Y475000D03*
X1130200Y484800D03*
X1131000Y474000D03*
X1135000Y472500D03*
X1128940Y512500D03*
X1138560Y686060D03*
X1142500Y700000D03*
Y720000D03*
Y737500D03*
Y755000D03*
Y900000D03*
X1132500Y935000D03*
X1137500Y945000D03*
X1132500Y1077500D03*
X1140000Y1135000D03*
X1145630Y1152500D03*
X1137690Y1152000D03*
X1145000Y1180000D03*
X1144000Y1221000D03*
X1146000Y1249000D03*
X1131190Y1242000D03*
X1147500Y1295000D03*
X1142500Y1290000D03*
Y1327500D03*
X1129000Y1309000D03*
X1141000Y1366000D03*
X1141690Y1397500D03*
X1128190Y1389000D03*
X1140000Y1451000D03*
X1142500Y1440000D03*
X1132500Y1480000D03*
X1127500Y1485000D03*
X1165000Y452500D03*
X1151810Y473080D03*
X1155350D03*
X1165000Y497500D03*
X1166060Y668560D03*
X1162500Y685000D03*
X1150000Y737500D03*
X1172500D03*
X1157500D03*
X1152500Y755000D03*
X1167500Y767500D03*
X1165000Y776230D03*
Y779770D03*
X1166000Y808000D03*
X1152500Y850000D03*
X1167500Y915000D03*
X1157500Y900000D03*
X1162500Y940000D03*
X1160000Y1085000D03*
X1150000Y1132500D03*
X1160000D03*
X1162000Y1197000D03*
X1169000Y1178000D03*
X1160000Y1260000D03*
X1159500Y1271000D03*
X1168000Y1286440D03*
X1161000Y1341000D03*
X1157500Y1407500D03*
X1163000Y1413000D03*
X1153000Y1432000D03*
X1150000Y1470000D03*
Y1477500D03*
X1165000Y1492500D03*
X1182500Y602500D03*
Y622500D03*
X1177500Y662500D03*
X1179000Y669000D03*
X1195000Y708730D03*
Y712270D03*
X1182500Y735000D03*
X1197500Y722500D03*
X1192500Y780000D03*
X1187500Y808730D03*
Y812270D03*
X1186230Y795250D03*
X1189770D03*
X1183000Y823000D03*
X1177500Y885000D03*
X1190000Y917500D03*
X1197500Y942500D03*
X1185000Y922500D03*
X1177500D03*
X1184900Y964900D03*
X1197500Y970000D03*
X1185000D03*
X1182500Y1260000D03*
X1177000Y1327000D03*
X1197500Y1360000D03*
X1180000Y1409060D03*
X1200000Y1421000D03*
X1195000Y1425000D03*
X1223220Y551380D03*
X1203220Y548880D03*
X1218220Y538880D03*
X1210820Y581280D03*
X1205720Y566380D03*
X1205620Y581280D03*
X1205000Y660000D03*
X1220000Y675000D03*
X1205230Y680000D03*
X1208770D03*
X1225000Y695000D03*
Y707500D03*
X1210000Y782500D03*
X1220000Y812500D03*
Y792500D03*
X1212500Y920000D03*
X1220000Y975000D03*
X1210000Y1117500D03*
X1220000Y1172500D03*
X1202500Y1212500D03*
X1222500Y1242500D03*
X1215000Y1278000D03*
Y1320000D03*
X1217500Y1392500D03*
X1207000Y1425000D03*
X1229000Y441000D03*
X1228220Y548880D03*
X1250000Y660000D03*
X1230000Y712500D03*
X1242500Y692500D03*
X1250000Y715000D03*
X1240000Y930000D03*
X1232500Y957500D03*
X1250000Y1296000D03*
X1249000Y1277000D03*
X1250250Y1390000D03*
X1244240Y1422500D03*
X1227500Y1520000D03*
X1274000Y404000D03*
X1263120Y411280D03*
X1268320Y501280D03*
X1273220Y513880D03*
X1260000Y540000D03*
X1258220Y586380D03*
X1262500Y620000D03*
X1267500Y622500D03*
X1274900Y667400D03*
Y672600D03*
X1267500Y692500D03*
Y720000D03*
X1261270Y767500D03*
X1257730D03*
X1270000Y1150000D03*
X1264000D03*
X1272500Y1180000D03*
X1271000Y1221060D03*
X1255250Y1245000D03*
X1271000Y1252000D03*
X1270000Y1292500D03*
X1259690Y1299000D03*
X1267500Y1327500D03*
X1267000Y1363000D03*
X1266690Y1397500D03*
X1267500Y1437500D03*
Y1432500D03*
X1300720Y341380D03*
X1290000Y417500D03*
X1280820Y506480D03*
X1295000Y497860D03*
X1287500Y540000D03*
X1300720Y541380D03*
X1297280Y581280D03*
X1284280Y579940D03*
X1282500Y570000D03*
X1300000Y590000D03*
X1278220Y606380D03*
X1284000Y637000D03*
X1292190Y635190D03*
X1278220Y621380D03*
X1287800Y655200D03*
X1292800Y727690D03*
Y732690D03*
X1285300Y760190D03*
Y745190D03*
X1292800Y932800D03*
Y940190D03*
X1298000Y1180000D03*
X1297000Y1201000D03*
X1287500Y1260000D03*
X1290000Y1271000D03*
Y1292500D03*
X1277000Y1305000D03*
X1290000Y1347500D03*
X1302000Y1334560D03*
X1282500Y1407500D03*
X1286000Y1418000D03*
X1290000Y1439000D03*
X1308220Y491380D03*
X1305000Y525000D03*
X1313720Y554380D03*
X1315720Y626380D03*
X1307800Y655190D03*
X1325300Y680190D03*
X1315300Y830190D03*
X1327500Y825000D03*
X1317800Y847690D03*
Y862690D03*
Y880190D03*
X1320300Y917690D03*
X1310300D03*
X1317800Y897690D03*
X1302800Y965190D03*
X1320300Y990190D03*
X1310000Y1260000D03*
X1327500Y1360000D03*
X1305000Y1407000D03*
X1346000Y477000D03*
X1338220Y476380D03*
X1328220D03*
X1338220Y511380D03*
Y491380D03*
X1328220D03*
X1338220Y526380D03*
X1343220Y531380D03*
X1328220Y528880D03*
X1330000Y540000D03*
X1333000Y579000D03*
X1338000Y578000D03*
X1335720Y623880D03*
X1330300Y687690D03*
Y665190D03*
X1335300Y675190D03*
X1333770Y707500D03*
X1330230D03*
X1337800Y722460D03*
Y718920D03*
X1335300Y820190D03*
X1347500Y830000D03*
X1327800Y880190D03*
Y897690D03*
X1347500Y1172500D03*
X1330000Y1212500D03*
X1350000Y1245000D03*
X1342000Y1278000D03*
X1350000Y1294000D03*
X1345000Y1320000D03*
X1347500Y1392500D03*
X1329000Y1419000D03*
X1340000Y1422500D03*
X1373220Y403880D03*
X1364170Y467060D03*
X1367710D03*
X1372500Y520000D03*
X1355880Y563880D03*
Y578880D03*
X1370300Y662300D03*
X1360300Y655190D03*
X1362800Y679150D03*
Y682690D03*
X1370300Y707690D03*
X1375300Y732690D03*
Y740080D03*
X1362800Y725190D03*
X1365300Y765190D03*
Y777690D03*
X1375300Y850190D03*
X1355300Y845190D03*
X1377000Y1250000D03*
X1376000Y1277000D03*
X1374190Y1399000D03*
X1374000Y1424000D03*
X1393000Y476000D03*
X1390940Y463060D03*
X1399000Y509000D03*
X1395000Y552500D03*
X1402800Y580190D03*
Y597690D03*
Y635190D03*
X1380300Y677690D03*
X1402800D03*
X1395300Y685190D03*
X1400300Y712690D03*
X1382800Y710190D03*
Y700190D03*
X1390300Y730190D03*
X1395300Y782690D03*
Y797690D03*
Y817690D03*
X1385300Y842690D03*
X1395300Y832690D03*
X1400750Y1150000D03*
X1392750D03*
X1400000Y1180000D03*
X1401000Y1221060D03*
X1400000Y1250000D03*
X1402500Y1290000D03*
X1390250Y1299000D03*
X1397500Y1327500D03*
X1392500Y1365000D03*
X1397190Y1396000D03*
X1395000Y1447500D03*
Y1432500D03*
X1406000Y464000D03*
X1410000Y510000D03*
X1417000Y535000D03*
X1412800Y577690D03*
Y597690D03*
X1408160Y630190D03*
X1412800D03*
X1428860Y629140D03*
X1415300Y632690D03*
X1425300Y647690D03*
X1412800Y682690D03*
X1417800Y670190D03*
X1412800Y667690D03*
X1425300Y687690D03*
X1410300Y707690D03*
X1420670Y740920D03*
Y744460D03*
X1405300Y815190D03*
X1422690Y825190D03*
X1405300Y832690D03*
X1422800Y902690D03*
X1420000Y1195000D03*
X1427000Y1179000D03*
X1415000Y1260000D03*
Y1270000D03*
X1422000Y1286000D03*
X1405690Y1306000D03*
X1420000Y1326000D03*
X1412500Y1342500D03*
Y1407500D03*
X1418000Y1419000D03*
X1405000Y1437500D03*
X1453300Y525190D03*
X1445000Y525000D03*
X1448300Y562690D03*
X1437800Y655190D03*
X1440300Y682690D03*
X1445300Y702690D03*
X1440300Y695190D03*
X1435300Y717690D03*
X1447500Y717500D03*
X1435300Y762690D03*
X1437500Y1260000D03*
X1455000Y1360000D03*
X1435000Y1405000D03*
X1447500Y1437500D03*
X1445000Y1495000D03*
X1467500Y525000D03*
X1478300Y565190D03*
X1473300D03*
X1470300Y610190D03*
Y595190D03*
X1455300Y627500D03*
X1462800Y660190D03*
X1477800Y687690D03*
X1465300Y680190D03*
X1462800Y667690D03*
X1470300Y665190D03*
X1480300Y677690D03*
X1465300Y688050D03*
Y672690D03*
X1455300Y717690D03*
X1475000Y1175000D03*
X1457500Y1214000D03*
X1477500Y1247500D03*
X1465000Y1281000D03*
X1475000Y1287500D03*
X1472500Y1320000D03*
X1475000Y1392500D03*
X1467000Y1426000D03*
X1495800Y527690D03*
Y532690D03*
X1505300Y580000D03*
X1485300Y610190D03*
X1505300D03*
Y600190D03*
X1490300Y652690D03*
X1482800Y642690D03*
X1500000Y680000D03*
X1491800Y710000D03*
X1485300Y732690D03*
X1487800Y752690D03*
X1497800D03*
X1495300Y767690D03*
Y782690D03*
X1504000Y1279000D03*
X1502000Y1423000D03*
X1520300Y610190D03*
Y600190D03*
X1517800Y660190D03*
X1531570Y710000D03*
X1528030D03*
X1527800Y735190D03*
Y782690D03*
X1509000Y1155000D03*
X1530000D03*
X1527500Y1182500D03*
Y1227500D03*
X1511000Y1248000D03*
X1529000Y1252000D03*
X1529210Y1295160D03*
X1525000Y1327500D03*
X1511000Y1305000D03*
X1522500Y1367500D03*
X1524690Y1397500D03*
X1512690Y1390000D03*
X1553000Y1181000D03*
X1556000Y1202000D03*
X1542500Y1262500D03*
X1542000Y1273000D03*
X1542500Y1295000D03*
X1537000Y1305000D03*
X1552500Y1325000D03*
X1547500Y1347500D03*
X1540000Y1407500D03*
X1547500Y1427500D03*
X1545000Y1442500D03*
X1565000Y1260000D03*
X1562500Y1408000D03*
G54D13*
X159000Y1539280D03*
Y1549120D03*
Y1561780D03*
Y1571620D03*
X241500Y1564280D03*
Y1574120D03*
X280000Y1540160D03*
Y1550000D03*
Y1574600D03*
Y1564760D03*
X862500Y1517660D03*
Y1527500D03*
Y1542780D03*
Y1552620D03*
Y1565280D03*
Y1575120D03*
X897800Y1542850D03*
Y1552690D03*
X897500Y1574720D03*
Y1564880D03*
X940300Y1517780D03*
Y1527620D03*
Y1549810D03*
Y1539970D03*
X940000Y1562780D03*
Y1572620D03*
X980000Y1537660D03*
Y1547500D03*
Y1572460D03*
Y1562620D03*
X1017500Y1537780D03*
Y1547620D03*
Y1572100D03*
Y1562260D03*
G54D14*
X204950Y432200D03*
X214950D03*
X224950D03*
X282550Y432400D03*
X302550D03*
X292550D03*
G54D15*
X214950Y489700D03*
X292550Y489900D03*
G54D16*
X236250Y673750D03*
X396250D03*
G54D17*
X597500Y1322500D03*
Y1312500D03*
Y1317500D03*
G54D18*
X1092500Y1157500D03*
Y1167500D03*
Y1217500D03*
Y1227500D03*
X1090000Y1305000D03*
Y1315000D03*
Y1365000D03*
Y1375000D03*
X1102500Y1157500D03*
Y1167500D03*
Y1217500D03*
Y1227500D03*
X1100000Y1305000D03*
Y1315000D03*
Y1365000D03*
Y1375000D03*
X1220000Y1157500D03*
Y1167500D03*
Y1217500D03*
Y1227500D03*
X1225000Y1305000D03*
Y1315000D03*
X1215000Y1305000D03*
Y1315000D03*
X1225000Y1365000D03*
Y1375000D03*
X1215000Y1365000D03*
Y1375000D03*
X1230000Y1157500D03*
Y1167500D03*
Y1217500D03*
Y1227500D03*
X1347500Y1157500D03*
Y1167500D03*
Y1217500D03*
Y1227500D03*
X1345000Y1305000D03*
Y1315000D03*
Y1365000D03*
Y1375000D03*
X1357500Y1157500D03*
Y1167500D03*
Y1217500D03*
Y1227500D03*
X1355000Y1305000D03*
Y1315000D03*
Y1365000D03*
Y1375000D03*
X1475000Y1160000D03*
Y1170000D03*
Y1220000D03*
Y1230000D03*
X1472500Y1305000D03*
Y1315000D03*
Y1365000D03*
Y1375000D03*
X1485000Y1160000D03*
Y1170000D03*
Y1220000D03*
Y1230000D03*
X1482500Y1305000D03*
Y1315000D03*
Y1365000D03*
Y1375000D03*
G54D19*
X1160000Y1250000D03*
X1157500Y1397500D03*
X1182500Y1214000D03*
X1180000Y1361500D03*
X1287500Y1250000D03*
X1282500Y1397500D03*
X1310000Y1214000D03*
X1305000Y1361500D03*
X1415000Y1250000D03*
X1412500Y1397500D03*
X1437500Y1214000D03*
X1435000Y1360000D03*
X1542500Y1252500D03*
X1540000Y1397500D03*
X1565000Y1216500D03*
X1562500Y1361500D03*
M02*
